<svg width="82" height="13" viewBox="0 0 82 13" fill="none" xmlns="http://www.w3.org/2000/svg">
<g clip-path="url(#clip0_254_12460)">
<path d="M6.50077 9.61415L3.1576 11.3719L3.79622 7.64898L1.08789 5.01269L4.82539 4.47103L6.49697 1.08398L8.16856 4.47103L11.9061 5.01269L9.19772 7.64898L9.83635 11.3719L6.50077 9.61415Z" stroke="#F64850" stroke-width="1.08333" stroke-linecap="round" stroke-linejoin="round"/>
<path d="M8.18191 4.37082L6.38881 1.45703L4.5957 4.37082L1.3457 5.26738L3.36294 7.62083V11.3191L6.61294 9.97427L9.63881 11.207L9.07846 8.18117L11.7681 5.26738L8.18191 4.37082Z" fill="#F64850"/>
</g>
<g clip-path="url(#clip1_254_12460)">
<path d="M23.6336 9.61415L20.2904 11.3719L20.929 7.64898L18.2207 5.01269L21.9582 4.47103L23.6298 1.08398L25.3014 4.47103L29.0389 5.01269L26.3305 7.64898L26.9692 11.3719L23.6336 9.61415Z" stroke="#F64850" stroke-width="1.08333" stroke-linecap="round" stroke-linejoin="round"/>
<path d="M25.3147 4.37082L23.5216 1.45703L21.7285 4.37082L18.4785 5.26738L20.4958 7.62083V11.3191L23.7458 9.97427L26.7716 11.207L26.2113 8.18117L28.9009 5.26738L25.3147 4.37082Z" fill="#F64850"/>
</g>
<g clip-path="url(#clip2_254_12460)">
<path d="M40.7683 9.61415L37.4252 11.3719L38.0638 7.64898L35.3555 5.01269L39.093 4.47103L40.7646 1.08398L42.4361 4.47103L46.1736 5.01269L43.4653 7.64898L44.1039 11.3719L40.7683 9.61415Z" stroke="#F64850" stroke-width="1.08333" stroke-linecap="round" stroke-linejoin="round"/>
<path d="M42.4495 4.37082L40.6564 1.45703L38.8633 4.37082L35.6133 5.26738L37.6305 7.62083V11.3191L40.8805 9.97427L43.9064 11.207L43.346 8.18117L46.0357 5.26738L42.4495 4.37082Z" fill="#F64850"/>
</g>
<g clip-path="url(#clip3_254_12460)">
<path d="M57.9012 9.61415L54.558 11.3719L55.1966 7.64898L52.4883 5.01269L56.2258 4.47103L57.8974 1.08398L59.5689 4.47103L63.3064 5.01269L60.5981 7.64898L61.2367 11.3719L57.9012 9.61415Z" stroke="#F64850" stroke-width="1.08333" stroke-linecap="round" stroke-linejoin="round"/>
<path d="M59.5823 4.37082L57.7892 1.45703L55.9961 4.37082L52.7461 5.26738L54.7633 7.62083V11.3191L58.0133 9.97427L61.0392 11.207L60.4789 8.18117L63.1685 5.26738L59.5823 4.37082Z" fill="#F64850"/>
</g>
<g clip-path="url(#clip4_254_12460)">
<path d="M75.034 9.61415L71.6908 11.3719L72.3294 7.64898L69.6211 5.01269L73.3586 4.47103L75.0302 1.08398L76.7018 4.47103L80.4393 5.01269L77.7309 7.64898L78.3696 11.3719L75.034 9.61415Z" stroke="#F64850" stroke-width="1.08333" stroke-linecap="round" stroke-linejoin="round"/>
<path d="M76.7151 4.37082L74.922 1.45703L73.1289 4.37082L69.8789 5.26738L71.8961 7.62083V11.3191L75.1461 9.97427L78.172 11.207L77.6117 8.18117L80.3013 5.26738L76.7151 4.37082Z" fill="#F64850"/>
</g>
<defs>
<clipPath id="clip0_254_12460">
<rect width="13" height="13" fill="white"/>
</clipPath>
<clipPath id="clip1_254_12460">
<rect width="13" height="13" fill="white" transform="translate(17.1328)"/>
</clipPath>
<clipPath id="clip2_254_12460">
<rect width="13" height="13" fill="white" transform="translate(34.2676)"/>
</clipPath>
<clipPath id="clip3_254_12460">
<rect width="13" height="13" fill="white" transform="translate(51.4004)"/>
</clipPath>
<clipPath id="clip4_254_12460">
<rect width="13" height="13" fill="white" transform="translate(68.5332)"/>
</clipPath>
</defs>
</svg>
