<svg width="28" height="28" viewBox="0 0 28 28" fill="none" xmlns="http://www.w3.org/2000/svg">
<g clip-path="url(#clip0_161_242)">
<path d="M13.9999 28.0001C21.7294 28.0001 27.9954 21.732 27.9954 14C27.9954 6.26803 21.7294 0 13.9999 0C6.27039 0 0.00439453 6.26803 0.00439453 14C0.00439453 21.732 6.27039 28.0001 13.9999 28.0001Z" fill="#FEF14B"/>
<path d="M13.9999 0C13.9936 0 13.9873 0.000218723 13.981 0.000218723V27.9998C13.9873 27.9998 13.9936 28 13.9999 28C21.7294 28 27.9954 21.732 27.9954 14C27.9954 6.26795 21.7294 0 13.9999 0Z" fill="#263238"/>
<path d="M6.08752 14.2784L11.7483 19.9392C11.9952 20.1861 12.3955 20.1861 12.6424 19.9392L21.9358 10.6458C22.1826 10.3989 22.1826 9.9986 21.9358 9.75171L20.2442 8.06016C19.9973 7.81328 19.597 7.81328 19.3501 8.06016L12.5907 14.8195C12.3438 15.0664 11.9434 15.0664 11.6966 14.8195L8.66741 11.7904C8.4254 11.5484 8.0347 11.5429 7.78602 11.778L6.10021 13.3719C5.84146 13.6166 5.83572 14.0266 6.08752 14.2784Z" fill="#FFF5F5"/>
<path d="M20.244 8.06016C19.9971 7.81328 19.5968 7.81328 19.3499 8.06016L13.981 13.4291V18.6004L21.9355 10.6459C22.1824 10.399 22.1824 9.99865 21.9355 9.75171L20.244 8.06016Z" fill="#DFEBF1"/>
</g>
<defs>
<clipPath id="clip0_161_242">
<rect width="28" height="28" fill="white"/>
</clipPath>
</defs>
</svg>
