<svg width="20" height="26" viewBox="0 0 20 26" fill="none" xmlns="http://www.w3.org/2000/svg">
<path d="M5.97751 20.0647C5.48016 20.0647 5.01704 19.8417 4.70702 19.4528L3.61867 18.0881L2.66114 17.627L0.161129 22.6553C0.099542 22.7792 0.0706036 22.9167 0.0770564 23.0549C0.0835092 23.1931 0.125139 23.3274 0.198002 23.445C0.270865 23.5626 0.372548 23.6596 0.493415 23.7269C0.614282 23.7942 0.750332 23.8295 0.888672 23.8295H0.8905L3.20948 23.8243L4.605 25.6763C4.68833 25.787 4.79857 25.8744 4.92523 25.9305C5.05189 25.9865 5.19077 26.0092 5.32868 25.9964C5.46659 25.9837 5.59895 25.9359 5.71319 25.8576C5.82743 25.7793 5.91977 25.6731 5.98142 25.5491L8.51784 20.4475L7.72302 20.0647H5.97751ZM19.8405 22.6553L17.3405 17.627L16.383 18.0881L15.2947 19.4528C14.9846 19.8416 14.5216 20.0647 14.0242 20.0647H12.2786L11.4838 20.4474L14.0202 25.549C14.0875 25.6844 14.1913 25.7984 14.3199 25.878C14.4484 25.9576 14.5966 25.9998 14.7478 25.9998C15.0014 25.9998 15.2423 25.8811 15.3966 25.6763L16.7921 23.8242L19.1111 23.8295H19.1129C19.2513 23.8295 19.3874 23.7942 19.5082 23.7269C19.6291 23.6596 19.7308 23.5626 19.8037 23.445C19.8766 23.3274 19.9182 23.1931 19.9246 23.0549C19.9311 22.9167 19.9022 22.7791 19.8405 22.6553Z" fill="white"/>
<path d="M14.0246 19.2524C14.2719 19.2524 14.5057 19.1398 14.6599 18.9465L15.8638 17.4368L17.6036 16.5989C17.7136 16.546 17.8102 16.4689 17.8863 16.3735C17.9624 16.278 18.016 16.1667 18.0432 16.0477L18.4729 14.1651L19.6769 12.6553C19.753 12.5599 19.8066 12.4486 19.8338 12.3296C19.8609 12.2106 19.8609 12.087 19.8338 11.968L19.4041 10.0854L19.8338 8.2028C19.8609 8.08379 19.8609 7.96019 19.8338 7.84119C19.8066 7.72218 19.753 7.61082 19.6769 7.51537L18.4729 6.0057L18.0432 4.12308C18.0161 4.00408 17.9624 3.89273 17.8863 3.7973C17.8102 3.70187 17.7136 3.62481 17.6036 3.57185L15.8638 2.73401L14.6599 1.22429C14.5838 1.12886 14.4871 1.0518 14.3772 0.998842C14.2672 0.945883 14.1467 0.918381 14.0246 0.918379H12.0936L10.3538 0.0804381C10.2438 0.027493 10.1233 0 10.0013 0C9.8792 0 9.75871 0.027493 9.64872 0.0804381L7.90895 0.918278H5.97795C5.85589 0.918272 5.73539 0.94577 5.62542 0.99873C5.51545 1.05169 5.41882 1.12875 5.34272 1.22418L4.13875 2.73391L2.39899 3.57175C2.28901 3.62472 2.19239 3.70177 2.11628 3.7972C2.04017 3.89263 1.98654 4.00398 1.95937 4.12298L1.52966 6.00559L0.325689 7.51527C0.24958 7.61071 0.195955 7.72207 0.168798 7.84108C0.141641 7.96009 0.141651 8.08369 0.168826 8.2027L0.598486 10.0853L0.168826 11.9679C0.141662 12.0869 0.141659 12.2105 0.168815 12.3295C0.195972 12.4485 0.249591 12.5598 0.325689 12.6552L1.52966 14.165L1.95937 16.0476C1.98654 16.1666 2.04016 16.2779 2.11627 16.3734C2.19238 16.4688 2.28901 16.5459 2.39899 16.5988L4.13875 17.4367L5.34272 18.9464C5.41883 19.0418 5.51546 19.1189 5.62543 19.1718C5.7354 19.2248 5.85589 19.2523 5.97795 19.2523H7.90895L9.64872 20.0901C9.75869 20.1431 9.87918 20.1706 10.0012 20.1706C10.1233 20.1706 10.2438 20.1431 10.3538 20.0901L12.0935 19.2523H14.0245L14.0246 19.2524ZM10.0013 17.1947C6.08119 17.1947 2.89192 14.0055 2.89192 10.0854C2.89192 6.16525 6.08119 2.97599 10.0013 2.97599C13.9214 2.97599 17.1107 6.16525 17.1107 10.0854C17.1107 14.0055 13.9214 17.1947 10.0013 17.1947Z" fill="#FED338"/>
<path d="M10 3.78857C6.52788 3.78857 3.70312 6.61333 3.70312 10.0854C3.70312 13.5576 6.52788 16.3823 10 16.3823C13.4721 16.3823 16.2969 13.5576 16.2969 10.0854C16.2969 6.61333 13.4721 3.78857 10 3.78857ZM10.1682 11.9496C10.0928 12.0252 10.0032 12.0851 9.90462 12.1259C9.806 12.1668 9.70029 12.1877 9.59355 12.1876C9.40909 12.1878 9.23011 12.125 9.08619 12.0096L7.05494 10.3846L8.07006 9.11573L9.53342 10.2864L11.863 7.9569L13.012 9.10593L10.1682 11.9497V11.9496Z" fill="white"/>
</svg>
