<svg width="10" height="11" viewBox="0 0 10 11" fill="none" xmlns="http://www.w3.org/2000/svg">
<path d="M8.65534 3.05237H7.65109V1.98653C7.65109 1.22458 7.04989 0.60498 6.28587 0.60498H3.71389C2.94946 0.60498 2.34843 1.22458 2.34843 1.98653V3.05237H1.34397C0.659515 3.05237 0.10498 3.58081 0.10498 4.26324V8.95547C0.10498 9.63767 0.659515 10.1906 1.34397 10.1906H8.65534C9.33964 10.1906 9.89457 9.63766 9.89457 8.95531V4.26324C9.89457 3.58081 9.33964 3.05237 8.65534 3.05237ZM3.16422 1.98653C3.16422 1.70121 3.42772 1.42078 3.71389 1.42078H6.28587C6.57117 1.42078 6.83532 1.70121 6.83532 1.98653V3.05237H3.16422V1.98653ZM7.24324 7.53924H5.81554V8.96694H4.18399V7.53924H2.75632V5.90769H4.18399V4.47999H5.81554V5.90769H7.24324V7.53924Z" fill="#263238"/>
</svg>
