<svg width="10" height="11" viewBox="0 0 10 11" fill="none" xmlns="http://www.w3.org/2000/svg">
<path d="M8.65583 3.05286H7.65158V1.98702C7.65158 1.22507 7.05038 0.605469 6.28635 0.605469H3.71438C2.94995 0.605469 2.34891 1.22507 2.34891 1.98702V3.05286H1.34446C0.660004 3.05286 0.105469 3.5813 0.105469 4.26373V8.95595C0.105469 9.63815 0.660004 10.1911 1.34446 10.1911H8.65583C9.34013 10.1911 9.89505 9.63815 9.89505 8.9558V4.26373C9.89505 3.5813 9.34013 3.05286 8.65583 3.05286ZM3.16471 1.98702C3.16471 1.7017 3.42821 1.42127 3.71438 1.42127H6.28635C6.57165 1.42127 6.8358 1.7017 6.8358 1.98702V3.05286H3.16471V1.98702ZM7.24373 7.53973H5.81603V8.96743H4.18448V7.53973H2.75681V5.90818H4.18448V4.48048H5.81603V5.90818H7.24373V7.53973Z" fill="#263238"/>
</svg>
