<svg width="62" height="62" viewBox="0 0 62 62" fill="none" xmlns="http://www.w3.org/2000/svg">
<mask id="mask0_613_1933" style="mask-type:luminance" maskUnits="userSpaceOnUse" x="3" y="3" width="56" height="56">
<path d="M3.38672 3.38721H58.4182V58.4187H3.38672V3.38721Z" fill="white"/>
</mask>
<g mask="url(#mask0_613_1933)">
<path fill-rule="evenodd" clip-rule="evenodd" d="M30.8605 3.38721C32.6968 3.38721 34.3178 5.28596 36.0508 5.63901C37.7817 5.99422 39.9624 4.87262 41.5555 5.54644C43.1464 6.22026 43.8374 8.55603 45.2539 9.51186C46.6705 10.4698 49.0837 10.2287 50.2871 11.4343C51.4905 12.6377 51.2516 15.051 52.2096 16.4675C53.1654 17.884 55.5012 18.5751 56.175 20.166C56.8488 21.759 55.7272 23.9398 56.0824 25.6706C56.4355 27.4036 58.3342 29.0246 58.3342 30.861C58.3342 32.6973 56.4355 34.3183 56.0824 36.0513C55.7272 37.7821 56.8488 39.9629 56.175 41.556C55.5012 43.1469 53.1654 43.8379 52.2096 45.2544C51.2516 46.671 51.4905 49.0842 50.2871 50.2876C49.0837 51.491 46.6705 51.2521 45.2539 52.2101C43.8374 53.1659 43.1464 55.5017 41.5555 56.1755C39.9624 56.8493 37.7817 55.7277 36.0508 56.0829C34.3178 56.4381 32.6968 58.3347 30.8605 58.3347C29.0241 58.3347 27.4031 56.4381 25.6701 56.0829C23.9393 55.7277 21.7585 56.8493 20.1655 56.1755C18.5746 55.5017 17.8835 53.1659 16.467 52.2101C15.0505 51.2521 12.6372 51.491 11.4338 50.2876C10.2282 49.0842 10.4694 46.671 9.51137 45.2544C8.55554 43.8379 6.21977 43.1469 5.54596 41.556C4.87214 39.9629 5.99373 37.7821 5.63852 36.0513C5.28332 34.3183 3.38672 32.6973 3.38672 30.861C3.38672 29.0246 5.28332 27.4036 5.63852 25.6706C5.99373 23.9398 4.87214 21.759 5.54596 20.166C6.21977 18.5751 8.55554 17.884 9.51137 16.4675C10.4694 15.051 10.2282 12.6377 11.4338 11.4343C12.6372 10.2287 15.0505 10.4698 16.467 9.51186C17.8835 8.55603 18.5746 6.22026 20.1655 5.54644C21.7585 4.87262 23.9393 5.99422 25.6701 5.63901C27.4031 5.28596 29.0241 3.38721 30.8605 3.38721Z" fill="#FF914D"/>
</g>
<path d="M29.7655 38.1278C29.7655 38.1278 29.2811 39.5701 26.3469 39.8801C23.4148 40.1923 22.1641 39.5701 22.1641 39.5701C22.1641 39.5701 24.1188 38.0524 25.996 37.9749C27.8732 37.8974 29.7655 38.1278 29.7655 38.1278Z" fill="black"/>
<path d="M29.7667 38.1276C29.7667 38.1276 29.9884 36.6207 27.5601 34.9566C25.1317 33.2925 23.7324 33.2451 23.7324 33.2451C23.7324 33.2451 24.5354 35.301 26.4901 36.5023C28.0875 37.4861 29.7667 38.1276 29.7667 38.1276Z" fill="black"/>
<path d="M26.2894 37.0603C26.2894 37.0603 24.7953 36.3887 22.5371 36.3887C20.2788 36.3887 18.5781 37.5576 18.5781 37.5576C18.5781 37.5576 20.2487 38.2271 22.6533 38.2271C25.058 38.2271 26.2894 37.0603 26.2894 37.0603Z" fill="black"/>
<path d="M23.5265 35.6307C23.5265 35.6307 23.4059 34.0032 22.3274 32.0291C21.251 30.055 19.4082 29.125 19.4082 29.125C19.4082 29.125 19.6127 30.9075 20.7601 33.0086C21.9097 35.1119 23.5265 35.6307 23.5265 35.6307Z" fill="black"/>
<path d="M22.3995 35.4282C22.3995 35.4282 21.1036 34.4271 18.9077 33.9018C16.7119 33.3744 14.7852 34.1128 14.7852 34.1128C14.7852 34.1128 16.2512 35.1548 18.5891 35.7166C20.927 36.2764 22.3995 35.4282 22.3995 35.4282Z" fill="black"/>
<path d="M20.4555 33.6935C20.4555 33.6935 19.6482 32.2727 17.8291 30.9423C16.0079 29.614 13.9434 29.5537 13.9434 29.5537C13.9434 29.5537 14.8927 31.0779 16.8302 32.4944C18.7677 33.9088 20.4555 33.6935 20.4555 33.6935Z" fill="black"/>
<path d="M18.527 30.7693C18.527 30.7693 19.0738 29.314 18.9296 27.1828C18.7875 25.0494 17.5669 23.5166 17.5669 23.5166C17.5669 23.5166 17.0308 25.1376 17.1837 27.4088C17.3365 29.68 18.527 30.7693 18.527 30.7693Z" fill="black"/>
<mask id="mask1_613_1933" style="mask-type:luminance" maskUnits="userSpaceOnUse" x="11" y="24" width="7" height="6">
<path d="M11.7422 24.7998H17.0854V29.7598H11.7422V24.7998Z" fill="white"/>
</mask>
<g mask="url(#mask1_613_1933)">
<path d="M16.9949 29.392C16.9949 29.392 16.4352 28.0981 14.9928 26.7893C13.5526 25.4804 11.7852 25.2393 11.7852 25.2393C11.7852 25.2393 12.459 26.6364 13.9918 28.0293C15.5267 29.4221 16.9949 29.392 16.9949 29.392Z" fill="black"/>
</g>
<path d="M16.1274 26.5224C16.1274 26.5224 16.0585 25.1145 15.1694 23.3858C14.2825 21.6572 12.7109 20.8154 12.7109 20.8154C12.7109 20.8154 12.8509 22.3568 13.7959 24.1974C14.741 26.0381 16.1274 26.5224 16.1274 26.5224Z" fill="black"/>
<path d="M15.5198 22.3199C15.5198 22.3199 15.6425 20.9142 14.9967 19.0843C14.3487 17.2523 12.9085 16.2061 12.9085 16.2061C12.9085 16.2061 12.8353 17.7539 13.5242 19.7043C14.2109 21.6547 15.5198 22.3199 15.5198 22.3199Z" fill="black"/>
<path d="M16.1049 19.5495C16.1049 19.5495 16.7529 18.2966 16.854 16.357C16.9531 14.4195 16.0166 12.9082 16.0166 12.9082C16.0166 12.9082 15.36 14.3118 15.2545 16.3763C15.1469 18.4408 16.1049 19.5495 16.1049 19.5495Z" fill="black"/>
<path d="M17.7013 16.2166C17.7013 16.2166 18.5452 15.0842 18.9607 13.1876C19.3762 11.2932 18.7002 9.64844 18.7002 9.64844C18.7002 9.64844 17.8219 10.9293 17.3806 12.9486C16.9371 14.968 17.7013 16.2166 17.7013 16.2166Z" fill="black"/>
<path d="M16.1997 24.7139C16.1997 24.7139 17.2567 23.7753 18.0446 21.9993C18.8325 20.2232 18.501 18.4795 18.501 18.4795C18.501 18.4795 17.3837 19.558 16.5441 21.4482C15.7046 23.3383 16.1997 24.7139 16.1997 24.7139Z" fill="black"/>
<path d="M17.3672 18.3694C17.3672 18.3694 18.717 17.9388 20.1636 16.6364C21.6103 15.3361 22.0215 13.6074 22.0215 13.6074C22.0215 13.6074 20.5598 14.1413 19.0184 15.5277C17.477 16.9119 17.3672 18.3694 17.3672 18.3694Z" fill="black"/>
<mask id="mask2_613_1933" style="mask-type:luminance" maskUnits="userSpaceOnUse" x="19" y="9" width="5" height="6">
<path d="M19.2891 9.12305H23.698V14.8796H19.2891V9.12305Z" fill="white"/>
</mask>
<g mask="url(#mask2_613_1933)">
<path d="M19.3607 14.4879C19.3607 14.4879 20.6373 13.8744 21.8903 12.3868C23.1432 10.8993 23.3111 9.13184 23.3111 9.13184C23.3111 9.13184 21.9376 9.85947 20.6029 11.4439C19.2682 13.0284 19.3607 14.4879 19.3607 14.4879Z" fill="black"/>
</g>
<path d="M29.9714 39.041C29.9714 40.9936 26.7422 43.1184 26.7422 42.0807C26.7422 41.0431 29.9714 39.7321 29.9714 39.041Z" fill="black"/>
<path d="M31.8398 39.041C31.8398 40.9936 35.069 43.1184 35.069 42.0807C35.069 41.0431 31.8398 39.7321 31.8398 39.041Z" fill="black"/>
<path d="M32.0449 38.1278C32.0449 38.1278 32.5293 39.5701 35.4635 39.8801C38.3956 40.1923 39.6464 39.5701 39.6464 39.5701C39.6464 39.5701 37.6917 38.0524 35.8144 37.9749C33.9372 37.8974 32.0449 38.1278 32.0449 38.1278Z" fill="black"/>
<path d="M32.0444 38.1276C32.0444 38.1276 31.8226 36.6207 34.2509 34.9566C36.6793 33.2925 38.0786 33.2451 38.0786 33.2451C38.0786 33.2451 37.2756 35.301 35.3209 36.5023C33.7235 37.4861 32.0444 38.1276 32.0444 38.1276Z" fill="black"/>
<path d="M35.5215 37.0603C35.5215 37.0603 37.0155 36.3887 39.2738 36.3887C41.532 36.3887 43.2327 37.5576 43.2327 37.5576C43.2327 37.5576 41.5622 38.2271 39.1575 38.2271C36.7529 38.2271 35.5215 37.0603 35.5215 37.0603Z" fill="black"/>
<path d="M38.2852 35.6307C38.2852 35.6307 38.4057 34.0032 39.4843 32.0291C40.5606 30.055 42.4034 29.125 42.4034 29.125C42.4034 29.125 42.1989 30.9075 41.0515 33.0086C39.904 35.1119 38.2852 35.6307 38.2852 35.6307Z" fill="black"/>
<path d="M39.4121 35.4282C39.4121 35.4282 40.7059 34.4271 42.9018 33.9018C45.0976 33.3744 47.0243 34.1128 47.0243 34.1128C47.0243 34.1128 45.5583 35.1548 43.2204 35.7166C40.8825 36.2764 39.4121 35.4282 39.4121 35.4282Z" fill="black"/>
<path d="M41.3555 33.6935C41.3555 33.6935 42.1628 32.2727 43.9819 30.9423C45.8031 29.614 47.8676 29.5537 47.8676 29.5537C47.8676 29.5537 46.9182 31.0779 44.9807 32.4944C43.0432 33.9088 41.3555 33.6935 41.3555 33.6935Z" fill="black"/>
<path d="M43.2842 30.7693C43.2842 30.7693 42.7374 29.314 42.8817 27.1828C43.0237 25.0494 44.2444 23.5166 44.2444 23.5166C44.2444 23.5166 44.7804 25.1376 44.6276 27.4088C44.4747 29.68 43.2842 30.7693 43.2842 30.7693Z" fill="black"/>
<mask id="mask3_613_1933" style="mask-type:luminance" maskUnits="userSpaceOnUse" x="44" y="24" width="7" height="6">
<path d="M44.6406 24.7998H50.085V29.7598H44.6406V24.7998Z" fill="white"/>
</mask>
<g mask="url(#mask3_613_1933)">
<path d="M44.8164 29.392C44.8164 29.392 45.3761 28.0981 46.8185 26.7893C48.2587 25.4804 50.0261 25.2393 50.0261 25.2393C50.0261 25.2393 49.3523 26.6364 47.8195 28.0293C46.2846 29.4221 44.8164 29.392 44.8164 29.392Z" fill="black"/>
</g>
<path d="M45.6836 26.5224C45.6836 26.5224 45.7525 25.1145 46.6394 23.3858C47.5285 21.6572 49.0979 20.8154 49.0979 20.8154C49.0979 20.8154 48.9601 22.3568 48.0151 24.1974C47.07 26.0381 45.6836 26.5224 45.6836 26.5224Z" fill="black"/>
<path d="M46.2906 22.3199C46.2906 22.3199 46.1678 20.9142 46.8137 19.0843C47.4595 17.2523 48.9019 16.2061 48.9019 16.2061C48.9019 16.2061 48.9751 17.7539 48.2862 19.7043C47.5973 21.6547 46.2906 22.3199 46.2906 22.3199Z" fill="black"/>
<path d="M45.7057 19.5495C45.7057 19.5495 45.0577 18.2966 44.9566 16.357C44.8575 14.4195 45.794 12.9082 45.794 12.9082C45.794 12.9082 46.4506 14.3118 46.5561 16.3763C46.6637 18.4408 45.7057 19.5495 45.7057 19.5495Z" fill="black"/>
<path d="M44.1073 16.2166C44.1073 16.2166 43.2634 15.0842 42.8479 13.1876C42.4324 11.2932 43.1084 9.64844 43.1084 9.64844C43.1084 9.64844 43.9867 10.9293 44.4281 12.9486C44.8715 14.968 44.1073 16.2166 44.1073 16.2166Z" fill="black"/>
<path d="M45.6115 24.7139C45.6115 24.7139 44.5545 23.7753 43.7666 21.9993C42.9765 20.2232 43.3102 18.4795 43.3102 18.4795C43.3102 18.4795 44.4275 19.558 45.2671 21.4482C46.1067 23.3383 45.6115 24.7139 45.6115 24.7139Z" fill="black"/>
<path d="M44.4434 18.3694C44.4434 18.3694 43.0936 17.9388 41.6469 16.6364C40.2002 15.3361 39.7891 13.6074 39.7891 13.6074C39.7891 13.6074 41.2508 14.1413 42.7922 15.5277C44.3336 16.9119 44.4434 18.3694 44.4434 18.3694Z" fill="black"/>
<mask id="mask4_613_1933" style="mask-type:luminance" maskUnits="userSpaceOnUse" x="38" y="9" width="5" height="6">
<path d="M38.0254 9.12305H42.9854V14.8796H38.0254V9.12305Z" fill="white"/>
</mask>
<g mask="url(#mask4_613_1933)">
<path d="M42.4503 14.4879C42.4503 14.4879 41.1738 13.8744 39.9208 12.3868C38.6679 10.8993 38.5 9.13184 38.5 9.13184C38.5 9.13184 39.8735 9.85947 41.2082 11.4439C42.5429 13.0284 42.4503 14.4879 42.4503 14.4879Z" fill="black"/>
</g>
<mask id="mask5_613_1933" style="mask-type:luminance" maskUnits="userSpaceOnUse" x="22" y="16" width="18" height="18">
<path d="M22.6836 16.7793H39.0232V33.1189H22.6836V16.7793Z" fill="white"/>
</mask>
<g mask="url(#mask5_613_1933)">
<path d="M39.0404 24.9577C39.0404 25.4937 38.9887 26.0255 38.8832 26.5529C38.7778 27.0803 38.6228 27.5905 38.4182 28.0878C38.2116 28.583 37.9597 29.0544 37.6626 29.5001C37.3634 29.9478 37.0254 30.3612 36.6444 30.7401C36.2655 31.1211 35.8521 31.4591 35.4065 31.7583C34.9587 32.0554 34.4873 32.3073 33.9921 32.5139C33.4948 32.7185 32.9846 32.8735 32.4572 32.9789C31.9319 33.0844 31.398 33.1361 30.862 33.1361C30.326 33.1361 29.7942 33.0844 29.2668 32.9789C28.7394 32.8735 28.2291 32.7185 27.7319 32.5139C27.2367 32.3073 26.7653 32.0554 26.3175 31.7583C25.8719 31.4591 25.4585 31.1211 25.0796 30.7401C24.6986 30.3612 24.3606 29.9478 24.0614 29.5001C23.7643 29.0544 23.5124 28.583 23.3057 28.0878C23.1012 27.5905 22.9462 27.0803 22.8407 26.5529C22.7353 26.0255 22.6836 25.4937 22.6836 24.9577C22.6836 24.4195 22.7353 23.8878 22.8407 23.3625C22.9462 22.8351 23.1012 22.3249 23.3057 21.8276C23.5124 21.3324 23.7643 20.861 24.0614 20.4132C24.3606 19.9676 24.6986 19.5542 25.0796 19.1753C25.4585 18.7943 25.8719 18.4563 26.3175 18.1571C26.7653 17.86 27.2367 17.606 27.7319 17.4014C28.2291 17.1969 28.7394 17.0419 29.2668 16.9364C29.7942 16.831 30.326 16.7793 30.862 16.7793C31.398 16.7793 31.9319 16.831 32.4572 16.9364C32.9846 17.0419 33.4948 17.1969 33.9921 17.4014C34.4873 17.606 34.9587 17.86 35.4065 18.1571C35.8521 18.4563 36.2655 18.7943 36.6444 19.1753C37.0254 19.5542 37.3634 19.9676 37.6626 20.4132C37.9597 20.861 38.2116 21.3324 38.4182 21.8276C38.6228 22.3249 38.7778 22.8351 38.8832 23.3625C38.9887 23.8878 39.0404 24.4195 39.0404 24.9577Z" fill="black"/>
</g>
<mask id="mask6_613_1933" style="mask-type:luminance" maskUnits="userSpaceOnUse" x="26" y="19" width="10" height="12">
<path d="M26.6484 19.3574H35.1455V30.4679H26.6484V19.3574Z" fill="white"/>
</mask>
<g mask="url(#mask6_613_1933)">
<path d="M34.6401 20.1039C34.188 19.4666 33.4195 19.2621 32.6811 19.4494C32.4378 19.5097 32.1988 19.5807 31.9642 19.6604C31.5961 19.7896 31.2279 19.852 30.862 19.852C30.4938 19.852 30.1279 19.7896 29.7597 19.6604C29.5251 19.5807 29.2818 19.5054 29.0429 19.4494C28.3045 19.2621 27.5338 19.4666 27.0817 20.1039C26.6081 20.7669 26.5435 21.7141 26.7954 22.4762C27.1656 23.5827 27.7469 24.5601 27.6759 25.7721C27.6005 27.1348 27.6436 29.0034 28.4444 30.1746C28.7113 30.5642 29.228 30.7149 29.4713 30.2068C29.777 29.5546 29.6973 28.8527 29.6177 28.1531C29.538 27.4491 29.4627 26.7409 29.7856 26.0907C30.0073 25.6473 30.3668 25.432 30.862 25.432C31.3571 25.432 31.7145 25.6473 31.9362 26.0907C32.2591 26.7452 32.1838 27.4491 32.1041 28.1531C32.0245 28.8527 31.9448 29.5546 32.2505 30.2068C32.4895 30.7149 33.0126 30.5642 33.2774 30.1746C34.0782 29.0034 34.1277 27.1348 34.0481 25.7721C33.977 24.5601 34.5604 23.5871 34.9286 22.4762C35.1804 21.7141 35.1137 20.7669 34.6401 20.1039Z" fill="white"/>
</g>
<mask id="mask7_613_1933" style="mask-type:luminance" maskUnits="userSpaceOnUse" x="32" y="21" width="2" height="2">
<path d="M32.5215 21.5186H33.3934V22.3883H32.5215V21.5186Z" fill="white"/>
</mask>
<g mask="url(#mask7_613_1933)">
<path d="M33.3934 21.9534C33.3934 22.074 33.3503 22.1773 33.2663 22.2613C33.1802 22.3474 33.0791 22.3883 32.9585 22.3883C32.8379 22.3883 32.7346 22.3474 32.6507 22.2613C32.5645 22.1773 32.5215 22.074 32.5215 21.9534C32.5215 21.8329 32.5645 21.7295 32.6507 21.6456C32.7346 21.5595 32.8379 21.5186 32.9585 21.5186C33.0791 21.5186 33.1802 21.5595 33.2663 21.6456C33.3503 21.7295 33.3934 21.8329 33.3934 21.9534Z" fill="black"/>
</g>
<path d="M32.2267 22.8859C31.1891 23.7728 30.16 23.7427 29.1418 22.7976" stroke="black" stroke-width="0.435729" stroke-linecap="round"/>
<mask id="mask8_613_1933" style="mask-type:luminance" maskUnits="userSpaceOnUse" x="28" y="21" width="1" height="2">
<path d="M28.0527 21.5186H28.9225V22.3883H28.0527V21.5186Z" fill="white"/>
</mask>
<g mask="url(#mask8_613_1933)">
<path d="M28.9225 21.9534C28.9225 22.074 28.8816 22.1773 28.7954 22.2613C28.7115 22.3474 28.6082 22.3883 28.4876 22.3883C28.367 22.3883 28.2637 22.3474 28.1797 22.2613C28.0936 22.1773 28.0527 22.074 28.0527 21.9534C28.0527 21.8329 28.0936 21.7295 28.1797 21.6456C28.2637 21.5595 28.367 21.5186 28.4876 21.5186C28.6082 21.5186 28.7115 21.5595 28.7954 21.6456C28.8816 21.7295 28.9225 21.8329 28.9225 21.9534Z" fill="black"/>
</g>
<path d="M26.5176 10.2612V9.33984H29.7467V10.2612H28.6617V13.9382H27.6112V10.2612H26.5176Z" fill="black"/>
<path d="M31.823 9.26074C32.0684 9.26074 32.3095 9.29949 32.5463 9.37269C32.7874 9.44158 32.9639 9.51046 33.0802 9.57935L33.2438 9.6913L32.8219 10.5266C32.7874 10.505 32.7379 10.4749 32.6755 10.4405C32.6174 10.406 32.5076 10.3608 32.3483 10.3027C32.1868 10.2403 32.0339 10.208 31.8919 10.208C31.7196 10.208 31.584 10.2467 31.4871 10.3199C31.3946 10.3953 31.3494 10.4964 31.3494 10.6213C31.3494 10.6859 31.3687 10.7462 31.4096 10.8021C31.4549 10.8538 31.5324 10.9119 31.6421 10.9744C31.7498 11.0325 31.8445 11.082 31.9263 11.1207C32.006 11.1552 32.133 11.2112 32.3052 11.2844C32.6023 11.4114 32.8563 11.5836 33.063 11.801C33.2739 12.0206 33.3816 12.266 33.3816 12.5416C33.3816 12.8064 33.3321 13.0367 33.2352 13.2305C33.1426 13.4264 33.0135 13.5814 32.8477 13.6955C32.6798 13.8053 32.4968 13.8849 32.2966 13.9366C32.0942 13.9925 31.8768 14.0227 31.6421 14.0227C31.4462 14.0227 31.2503 13.999 31.0566 13.9538C30.8607 13.915 30.6971 13.8655 30.5658 13.8074C30.4387 13.745 30.3246 13.6847 30.2213 13.6266C30.118 13.5641 30.0405 13.5125 29.9888 13.4716L29.9199 13.4113L30.4452 12.533C30.4839 12.5674 30.5442 12.6148 30.626 12.6707C30.7057 12.7289 30.8435 12.8064 31.0394 12.9032C31.2396 13.0023 31.4139 13.0496 31.5646 13.0496C32.006 13.0496 32.2277 12.9011 32.2277 12.6019C32.2277 12.5394 32.2105 12.4813 32.176 12.4296C32.1459 12.3737 32.0921 12.3177 32.0124 12.266C31.9371 12.21 31.8682 12.167 31.8058 12.1369C31.7412 12.1024 31.6421 12.055 31.5044 11.9905C31.3666 11.928 31.2633 11.8785 31.1944 11.8441C30.9188 11.7063 30.7035 11.5341 30.5485 11.3274C30.3935 11.1207 30.316 10.9012 30.316 10.6644C30.316 10.251 30.4667 9.91519 30.7724 9.65685C31.0824 9.39421 31.4312 9.26074 31.823 9.26074Z" fill="black"/>
<path d="M34.9091 9.33984V13.9382H33.8672V9.33984H34.9091Z" fill="black"/>
<path d="M19.5352 43.041H21.2057C21.7159 43.041 22.1206 43.1508 22.4199 43.3682C22.7234 43.5878 22.8763 43.9366 22.8763 44.4188C22.8763 44.9591 22.6481 45.3466 22.196 45.5813C22.9645 45.7148 23.3499 46.1668 23.3499 46.9418C23.3499 47.3961 23.1906 47.7599 22.8763 48.0355C22.5663 48.311 22.1357 48.4488 21.5846 48.4488H19.5352V43.041ZM20.7665 45.1593H20.8613C21.1368 45.1593 21.3392 45.112 21.4727 45.013C21.6104 44.9161 21.6793 44.7589 21.6793 44.5393C21.6793 44.1777 21.4059 43.9968 20.8613 43.9968H20.7665V45.1593ZM20.7665 47.5016H21.154C21.7568 47.5016 22.0582 47.3014 22.0582 46.8988C22.0582 46.6577 21.9807 46.4855 21.8257 46.3821C21.675 46.2745 21.4511 46.2185 21.154 46.2185H20.7665V47.5016Z" fill="black"/>
<path d="M23.8965 48.447V45.0887H25.0504V45.5709H25.0676C25.0719 45.5537 25.0848 45.5343 25.102 45.5106C25.1236 45.4826 25.1666 45.4374 25.2312 45.3729C25.3001 45.304 25.3711 45.2437 25.4465 45.192C25.5197 45.1404 25.6144 45.0951 25.7307 45.0542C25.8512 45.009 25.9718 44.9854 26.0923 44.9854C26.2172 44.9854 26.342 45.0026 26.4626 45.037C26.5875 45.0715 26.68 45.1059 26.7382 45.1404L26.8329 45.2006L26.342 46.1823C26.1978 46.0574 25.9976 45.9929 25.7393 45.9929C25.6015 45.9929 25.4809 46.0251 25.3776 46.0876C25.2786 46.1522 25.2075 46.2254 25.1623 46.3115C25.1214 46.3976 25.0934 46.4729 25.0762 46.5354C25.059 46.5935 25.0504 46.643 25.0504 46.6817V48.447H23.8965Z" fill="black"/>
<path d="M27.4757 48.0509C27.1012 47.7194 26.916 47.2931 26.916 46.7765C26.916 46.2555 27.1076 45.8271 27.493 45.4934C27.8826 45.1554 28.3648 44.9854 28.9396 44.9854C29.5015 44.9854 29.9751 45.1554 30.3605 45.4934C30.7501 45.8271 30.946 46.2512 30.946 46.7679C30.946 47.2845 30.7566 47.7108 30.3777 48.0423C29.9988 48.376 29.5187 48.5417 28.9396 48.5417C28.3368 48.5417 27.8482 48.3781 27.4757 48.0509ZM28.3713 46.1995C28.2206 46.3502 28.1474 46.5418 28.1474 46.7765C28.1474 47.0068 28.2184 47.1963 28.3627 47.3448C28.5048 47.489 28.6942 47.5601 28.931 47.5601C29.1549 47.5601 29.3379 47.4869 29.4821 47.3362C29.6307 47.1876 29.706 46.9982 29.706 46.7679C29.706 46.5397 29.6307 46.3502 29.4821 46.1995C29.3314 46.051 29.1484 45.9756 28.931 45.9756C28.7071 45.9756 28.5198 46.051 28.3713 46.1995Z" fill="black"/>
<path d="M31.4844 48.447V45.0887H32.6383V45.4417H32.6555C32.9526 45.1382 33.2755 44.9854 33.6199 44.9854C33.7857 44.9854 33.9493 45.009 34.1108 45.0542C34.2765 45.0951 34.4337 45.1619 34.5844 45.2523C34.7329 45.3449 34.8535 45.4762 34.946 45.6484C35.0429 45.8163 35.0924 46.0101 35.0924 46.234V48.447H33.9299V46.544C33.9299 46.3717 33.8718 46.221 33.7577 46.0876C33.6479 45.9563 33.5037 45.8895 33.3272 45.8895C33.1549 45.8895 32.9956 45.9584 32.8535 46.0962C32.7093 46.2297 32.6383 46.3782 32.6383 46.544V48.447H31.4844Z" fill="black"/>
<path d="M37.5959 45.9412C37.3763 45.9412 37.1912 46.023 37.0362 46.1823C36.8812 46.3438 36.8037 46.5354 36.8037 46.7592C36.8037 46.996 36.8812 47.1941 37.0362 47.3534C37.1912 47.5149 37.3763 47.5945 37.5959 47.5945C37.7035 47.5945 37.8047 47.5838 37.8973 47.5601C37.9877 47.5321 38.0566 47.5041 38.1039 47.474L38.1642 47.4395L38.5603 48.2404C38.5259 48.264 38.4785 48.292 38.4225 48.3265C38.3709 48.3609 38.246 48.404 38.0523 48.4556C37.8564 48.5116 37.6497 48.5417 37.4323 48.5417C36.9371 48.5417 36.5044 48.3695 36.132 48.0251C35.7574 47.6763 35.5723 47.2587 35.5723 46.7765C35.5723 46.2899 35.7574 45.8701 36.132 45.5192C36.5044 45.164 36.9371 44.9854 37.4323 44.9854C37.6497 44.9854 37.8542 45.0112 38.0437 45.0629C38.2331 45.1145 38.3666 45.1705 38.4484 45.2265L38.5603 45.304L38.1642 46.0962C38.02 45.9929 37.8305 45.9412 37.5959 45.9412Z" fill="black"/>
<path d="M42.4296 46.9229H39.9927C39.9927 47.164 40.0659 47.3426 40.2166 47.4567C40.3716 47.5665 40.5373 47.6204 40.716 47.6204C40.9054 47.6204 41.054 47.5988 41.1638 47.5515C41.2714 47.4998 41.3963 47.4008 41.5341 47.2501L42.3779 47.6634C42.027 48.249 41.4436 48.5417 40.6299 48.5417C40.124 48.5417 39.6913 48.3695 39.3296 48.0251C38.9679 47.6763 38.7871 47.2565 38.7871 46.7679C38.7871 46.2813 38.9679 45.8615 39.3296 45.5106C39.6913 45.1619 40.124 44.9854 40.6299 44.9854C41.1638 44.9854 41.5965 45.1404 41.9302 45.4504C42.2617 45.756 42.4296 46.1952 42.4296 46.7679C42.4296 46.8497 42.4296 46.9013 42.4296 46.9229ZM40.0185 46.2856H41.3016C41.2714 46.1091 41.2004 45.9735 41.0863 45.8809C40.9765 45.7905 40.8366 45.7431 40.6643 45.7431C40.4684 45.7431 40.3134 45.7948 40.1993 45.8981C40.0895 45.9972 40.0293 46.1263 40.0185 46.2856Z" fill="black"/>
<path d="M26.3008 53.2578L27.4654 52.2309C27.5817 52.1297 27.6743 52.0264 27.741 51.9231C27.8077 51.8176 27.84 51.7099 27.84 51.5958C27.84 51.4839 27.8163 51.3827 27.7668 51.2988C27.7173 51.2126 27.6506 51.1459 27.5645 51.1007C27.4805 51.0533 27.3858 51.0318 27.2803 51.0318C27.1404 51.0318 27.0155 51.0706 26.9079 51.1524C26.8002 51.2342 26.7249 51.3332 26.6818 51.4473L26.3352 51.3267C26.3718 51.2019 26.4386 51.0899 26.5311 50.9866C26.6259 50.8854 26.7356 50.8036 26.8648 50.7455C26.994 50.6852 27.1296 50.6572 27.2717 50.6572C27.4482 50.6572 27.6075 50.6938 27.7518 50.7713C27.896 50.8488 28.0101 50.9586 28.0919 51.1007C28.1737 51.2428 28.2146 51.4064 28.2146 51.5937C28.2146 51.7551 28.1715 51.908 28.0833 52.0522C27.9972 52.1943 27.8766 52.3342 27.7216 52.472L26.8993 53.1609H28.2856V53.514H26.3008V53.2578Z" fill="black"/>
<path d="M29.7639 53.5635C29.5508 53.5635 29.3614 53.5053 29.1956 53.3891C29.0298 53.2728 28.9007 53.1049 28.8081 52.8853C28.7134 52.6679 28.666 52.4096 28.666 52.1125C28.666 51.8154 28.7134 51.5571 28.8081 51.3396C28.9007 51.1222 29.0298 50.9564 29.1956 50.8402C29.3614 50.7261 29.5508 50.668 29.7639 50.668C29.9749 50.668 30.1643 50.7261 30.3301 50.8402C30.4959 50.9564 30.625 51.1222 30.7176 51.3396C30.8123 51.5571 30.8575 51.8154 30.8575 52.1125C30.8575 52.4096 30.8123 52.6679 30.7176 52.8853C30.625 53.1049 30.4937 53.2728 30.328 53.3891C30.1622 53.5053 29.9749 53.5635 29.7639 53.5635ZM29.7661 53.1867C29.8996 53.1867 30.0201 53.148 30.1278 53.0683C30.2332 52.9908 30.3193 52.8703 30.3818 52.7066C30.4464 52.5452 30.4787 52.3428 30.4787 52.1039C30.4787 51.8735 30.4464 51.6776 30.3818 51.5183C30.3193 51.359 30.2332 51.2406 30.1256 51.1631C30.018 51.0835 29.8996 51.0447 29.7661 51.0447C29.6305 51.0447 29.5078 51.0835 29.4001 51.1631C29.2903 51.2406 29.2064 51.359 29.1418 51.5183C29.0793 51.6776 29.0471 51.8735 29.0471 52.1039C29.0471 52.3428 29.0793 52.5452 29.1418 52.7066C29.2042 52.8703 29.2903 52.9908 29.398 53.0683C29.5078 53.148 29.6305 53.1867 29.7661 53.1867Z" fill="black"/>
<path d="M31.1504 53.2578L32.315 52.2309C32.4313 52.1297 32.5239 52.0264 32.5906 51.9231C32.6573 51.8176 32.6896 51.7099 32.6896 51.5958C32.6896 51.4839 32.6659 51.3827 32.6164 51.2988C32.5669 51.2126 32.5002 51.1459 32.4141 51.1007C32.3301 51.0533 32.2354 51.0318 32.1299 51.0318C31.99 51.0318 31.8651 51.0706 31.7575 51.1524C31.6498 51.2342 31.5745 51.3332 31.5314 51.4473L31.1848 51.3267C31.2214 51.2019 31.2882 51.0899 31.3807 50.9866C31.4755 50.8854 31.5853 50.8036 31.7144 50.7455C31.8436 50.6852 31.9792 50.6572 32.1213 50.6572C32.2978 50.6572 32.4571 50.6938 32.6014 50.7713C32.7456 50.8488 32.8597 50.9586 32.9415 51.1007C33.0233 51.2428 33.0642 51.4064 33.0642 51.5937C33.0642 51.7551 33.0212 51.908 32.9329 52.0522C32.8468 52.1943 32.7262 52.3342 32.5712 52.472L31.7489 53.1609H33.1353V53.514H31.1504V53.2578Z" fill="black"/>
<path d="M34.866 52.8379H33.4258V52.502L34.81 50.7109H35.2406V52.4698H35.4709V52.8379H35.2406V53.5139H34.866V52.8379ZM34.866 52.4698V51.2384L33.8563 52.4698H34.866Z" fill="black"/>
</svg>
