<svg width="56" height="56" viewBox="0 0 56 56" fill="none" xmlns="http://www.w3.org/2000/svg">
<mask id="mask0_613_1934" style="mask-type:luminance" maskUnits="userSpaceOnUse" x="0" y="0" width="56" height="56">
<path d="M0.386719 0.387207H55.4182V55.4187H0.386719V0.387207Z" fill="white"/>
</mask>
<g mask="url(#mask0_613_1934)">
<path fill-rule="evenodd" clip-rule="evenodd" d="M27.8605 0.387207C29.6968 0.387207 31.3178 2.28596 33.0508 2.63901C34.7817 2.99422 36.9624 1.87262 38.5555 2.54644C40.1464 3.22026 40.8374 5.55603 42.2539 6.51186C43.6705 7.46985 46.0837 7.22873 47.2871 8.43429C48.4905 9.63769 48.2516 12.051 49.2096 13.4675C50.1654 14.884 52.5012 15.5751 53.175 17.166C53.8488 18.759 52.7272 20.9398 53.0824 22.6706C53.4355 24.4036 55.3342 26.0246 55.3342 27.861C55.3342 29.6973 53.4355 31.3183 53.0824 33.0513C52.7272 34.7821 53.8488 36.9629 53.175 38.556C52.5012 40.1469 50.1654 40.8379 49.2096 42.2544C48.2516 43.671 48.4905 46.0842 47.2871 47.2876C46.0837 48.491 43.6705 48.2521 42.2539 49.2101C40.8374 50.1659 40.1464 52.5017 38.5555 53.1755C36.9624 53.8493 34.7817 52.7277 33.0508 53.0829C31.3178 53.4381 29.6968 55.3347 27.8605 55.3347C26.0241 55.3347 24.4031 53.4381 22.6701 53.0829C20.9393 52.7277 18.7585 53.8493 17.1655 53.1755C15.5746 52.5017 14.8835 50.1659 13.467 49.2101C12.0505 48.2521 9.63721 48.491 8.4338 47.2876C7.22825 46.0842 7.46936 43.671 6.51137 42.2544C5.55554 40.8379 3.21977 40.1469 2.54596 38.556C1.87214 36.9629 2.99373 34.7821 2.63852 33.0513C2.28332 31.3183 0.386719 29.6973 0.386719 27.861C0.386719 26.0246 2.28332 24.4036 2.63852 22.6706C2.99373 20.9398 1.87214 18.759 2.54596 17.166C3.21977 15.5751 5.55554 14.884 6.51137 13.4675C7.46936 12.051 7.22825 9.63769 8.4338 8.43429C9.63721 7.22873 12.0505 7.46985 13.467 6.51186C14.8835 5.55603 15.5746 3.22026 17.1655 2.54644C18.7585 1.87262 20.9393 2.99422 22.6701 2.63901C24.4031 2.28596 26.0241 0.387207 27.8605 0.387207Z" fill="#FF914D"/>
</g>
</svg>
