<svg width="27" height="27" viewBox="0 0 27 27" fill="none" xmlns="http://www.w3.org/2000/svg">
<path fill-rule="evenodd" clip-rule="evenodd" d="M12.4924 23.6068L12.2434 25.5787C12.2198 25.7701 12.2402 25.9643 12.3031 26.1466C12.366 26.3289 12.4697 26.4944 12.6063 26.6305C12.8805 26.9069 13.2686 27.0402 13.6568 26.9917L17.032 26.5698C17.3114 26.5348 17.5711 26.4077 17.7703 26.2086C17.7703 26.2086 23.6009 20.3793 26.0183 17.9605C26.3303 17.6494 26.5778 17.2799 26.7466 16.873C26.9155 16.4661 27.0024 16.0298 27.0024 15.5893C27.0024 15.1487 26.9155 14.7125 26.7466 14.3056C26.5778 13.8987 26.3303 13.5291 26.0183 13.218C25.7073 12.9062 25.3377 12.6589 24.9308 12.4902C24.5239 12.3215 24.0877 12.2348 23.6473 12.235H23.6178C23.622 12.0949 23.6262 11.9544 23.6262 11.8131C23.6262 5.29311 18.3314 0 11.8131 0C5.2948 0 0 5.29311 0 11.8131C0 18.3331 5.2948 23.6262 11.8131 23.6262C12.0409 23.6262 12.2687 23.6199 12.4924 23.6068ZM24.2295 15.0081C24.3834 15.1624 24.4699 15.3714 24.4699 15.5893C24.4699 15.8072 24.3834 16.0162 24.2295 16.1704L16.2894 24.1118L14.9562 24.278L15.125 22.9482L23.0651 15.0073C23.2254 14.8465 23.4363 14.7664 23.6473 14.7664C23.8582 14.7664 24.0692 14.8474 24.2295 15.0081ZM9.33235 16.0831L12.7075 12.7079C12.9447 12.4704 13.0781 12.1487 13.0788 11.8131V5.06276C13.0788 4.3641 12.5134 3.79707 11.8131 3.79707C11.1127 3.79707 10.5474 4.3641 10.5474 5.06276V11.2887L7.54351 14.2934C7.42599 14.4109 7.33277 14.5503 7.26915 14.7038C7.20553 14.8573 7.17277 15.0218 7.17273 15.188C7.17269 15.3541 7.20537 15.5186 7.26892 15.6722C7.33247 15.8257 7.42563 15.9652 7.54308 16.0827C7.7803 16.32 8.10208 16.4534 8.43763 16.4535C8.60378 16.4535 8.76831 16.4208 8.92182 16.3573C9.07534 16.2937 9.21483 16.2006 9.33235 16.0831Z" fill="#263238"/>
<path fill-rule="evenodd" clip-rule="evenodd" d="M24.2299 15.008C24.3838 15.1622 24.4703 15.3713 24.4703 15.5892C24.4703 15.8071 24.3838 16.0161 24.2299 16.1703L16.2898 24.1117L14.9566 24.2779L15.1254 22.9481L23.0655 15.0072C23.2258 14.8464 23.4367 14.7663 23.6477 14.7663C23.8586 14.7663 24.0696 14.8473 24.2299 15.008Z" fill="#FEF14B"/>
</svg>
