<svg width="36" height="36" viewBox="0 0 36 36" fill="none" xmlns="http://www.w3.org/2000/svg">
<path d="M16.1424 12.428V10.5706H4.99802C3.9746 10.5706 3.14062 11.4045 3.14062 12.428V16.1427H16.5343C16.2761 15.0079 16.1424 13.7857 16.1424 12.428ZM32.7828 19.8575C31.5161 21.8097 29.5844 23.4702 26.8169 25.0601C26.3915 25.3034 25.9123 25.4297 25.4294 25.4297C24.9465 25.4297 24.4673 25.3034 24.0475 25.0638C21.28 23.4702 19.3483 21.8078 18.0797 19.8575H3.14062V29.1445C3.14062 30.1698 3.9746 31.0019 4.99802 31.0019H31.0016C32.0269 31.0019 32.859 30.1698 32.859 29.1445V19.8575H32.7828ZM11.4989 25.4297H7.78412C7.27148 25.4297 6.85542 25.0137 6.85542 24.501C6.85542 23.9884 7.27148 23.5723 7.78412 23.5723H11.4989C12.0116 23.5723 12.4276 23.9884 12.4276 24.501C12.4276 25.0137 12.0116 25.4297 11.4989 25.4297Z" fill="#263238"/>
<path d="M32.2964 7.86132L25.7955 5.07522C25.6796 5.02559 25.5548 5 25.4287 5C25.3026 5 25.1778 5.02559 25.0618 5.07522L18.5609 7.86132C18.221 8.0062 18 8.34239 18 8.71387V12.4287C18 17.5384 19.889 20.5251 24.9671 23.4505C25.1101 23.5322 25.2699 23.573 25.4296 23.573C25.5893 23.573 25.7491 23.5322 25.8921 23.4505C30.9702 20.5325 32.8592 17.5458 32.8592 12.4287V8.71387C32.8592 8.34239 32.6381 8.0062 32.2964 7.86132ZM28.9419 12.0813L25.2271 16.7248C25.0488 16.944 24.7814 17.0722 24.5009 17.0722H24.4619C24.3158 17.0658 24.1733 17.0251 24.0459 16.9535C23.9184 16.8819 23.8096 16.7813 23.7282 16.6598L21.8708 13.8737C21.5866 13.4465 21.7018 12.8707 22.129 12.5865C22.5525 12.3042 23.1301 12.4157 23.4162 12.8447L24.5696 14.574L27.4894 10.9223C27.8108 10.523 28.3959 10.4598 28.7952 10.7774C29.1964 11.095 29.2595 11.6801 28.9419 12.0813Z" fill="#FEF14B"/>
</svg>
