<svg width="42" height="33" viewBox="0 0 42 33" fill="none" xmlns="http://www.w3.org/2000/svg">
<path d="M0.883301 32.7637V23.5239C0.883301 20.8368 1.40007 18.0669 2.43359 15.2144C3.46712 12.3618 4.83138 9.67464 6.52637 7.15283C8.22135 4.58968 10.0817 2.41927 12.1074 0.641602L20.417 5.47852C18.9287 7.95898 17.6471 10.6255 16.5723 13.478C15.4974 16.3306 14.96 19.6792 14.96 23.5239V32.7637H0.883301ZM21.9673 32.7637V23.5239C21.9673 20.8368 22.484 18.0669 23.5176 15.2144C24.5511 12.3618 25.9154 9.67464 27.6104 7.15283C29.3053 4.58968 31.1657 2.41927 33.1914 0.641602L41.501 5.47852C40.0127 7.95898 38.7311 10.6255 37.6562 13.478C36.5814 16.3306 36.0439 19.6792 36.0439 23.5239V32.7637H21.9673Z" fill="#2B59E0" fill-opacity="0.13"/>
</svg>
