<svg width="62" height="62" viewBox="0 0 62 62" fill="none" xmlns="http://www.w3.org/2000/svg">
<mask id="mask0_613_733" style="mask-type:luminance" maskUnits="userSpaceOnUse" x="3" y="3" width="56" height="56">
<path d="M3.38672 3.38672H58.4182V58.4182H3.38672V3.38672Z" fill="white"/>
</mask>
<g mask="url(#mask0_613_733)">
<path fill-rule="evenodd" clip-rule="evenodd" d="M30.8605 3.38672C32.6968 3.38672 34.3178 5.28547 36.0508 5.63852C37.7817 5.99373 39.9624 4.87214 41.5555 5.54596C43.1464 6.21977 43.8374 8.55554 45.2539 9.51137C46.6705 10.4694 49.0837 10.2282 50.2871 11.4338C51.4905 12.6372 51.2516 15.0505 52.2096 16.467C53.1654 17.8835 55.5012 18.5746 56.175 20.1655C56.8488 21.7585 55.7272 23.9393 56.0824 25.6701C56.4355 27.4031 58.3342 29.0242 58.3342 30.8605C58.3342 32.6968 56.4355 34.3178 56.0824 36.0508C55.7272 37.7817 56.8488 39.9624 56.175 41.5555C55.5012 43.1464 53.1654 43.8374 52.2096 45.2539C51.2516 46.6705 51.4905 49.0837 50.2871 50.2871C49.0837 51.4905 46.6705 51.2516 45.2539 52.2096C43.8374 53.1654 43.1464 55.5012 41.5555 56.175C39.9624 56.8488 37.7817 55.7272 36.0508 56.0824C34.3178 56.4376 32.6968 58.3342 30.8605 58.3342C29.0242 58.3342 27.4031 56.4376 25.6701 56.0824C23.9393 55.7272 21.7585 56.8488 20.1655 56.175C18.5746 55.5012 17.8835 53.1654 16.467 52.2096C15.0505 51.2516 12.6372 51.4905 11.4338 50.2871C10.2282 49.0837 10.4694 46.6705 9.51137 45.2539C8.55554 43.8374 6.21977 43.1464 5.54596 41.5555C4.87214 39.9624 5.99373 37.7817 5.63852 36.0508C5.28332 34.3178 3.38672 32.6968 3.38672 30.8605C3.38672 29.0242 5.28332 27.4031 5.63852 25.6701C5.99373 23.9393 4.87214 21.7585 5.54596 20.1655C6.21977 18.5746 8.55554 17.8835 9.51137 16.467C10.4694 15.0505 10.2282 12.6372 11.4338 11.4338C12.6372 10.2282 15.0505 10.4694 16.467 9.51137C17.8835 8.55554 18.5746 6.21977 20.1655 5.54596C21.7585 4.87214 23.9393 5.99373 25.6701 5.63852C27.4031 5.28547 29.0242 3.38672 30.8605 3.38672Z" fill="#5CE1E6"/>
</g>
<path d="M29.7311 38.2724C29.7311 38.2724 29.2467 39.7212 26.319 40.0334C23.3912 40.3455 22.1426 39.7212 22.1426 39.7212C22.1426 39.7212 24.0951 38.197 25.9681 38.1174C27.841 38.0399 29.7311 38.2724 29.7311 38.2724Z" fill="black"/>
<path d="M29.7325 38.2716C29.7325 38.2716 29.952 36.7561 27.528 35.0834C25.104 33.4106 23.709 33.3633 23.709 33.3633C23.709 33.3633 24.5098 35.4299 26.4602 36.6377C28.0554 37.6258 29.7325 38.2716 29.7325 38.2716Z" fill="black"/>
<path d="M26.2608 37.1973C26.2608 37.1973 24.7668 36.5234 22.5128 36.5234C20.2589 36.5234 18.5625 37.6967 18.5625 37.6967C18.5625 37.6967 20.2309 38.3705 22.6313 38.3705C25.0316 38.3705 26.2608 37.1973 26.2608 37.1973Z" fill="black"/>
<path d="M23.5024 35.7616C23.5024 35.7616 23.3819 34.1255 22.3055 32.1428C21.2291 30.1579 19.3906 29.2236 19.3906 29.2236C19.3906 29.2236 19.5951 31.0147 20.7404 33.1266C21.8878 35.2406 23.5024 35.7616 23.5024 35.7616Z" fill="black"/>
<path d="M22.3766 35.5572C22.3766 35.5572 21.0828 34.5519 18.8913 34.0245C16.7019 33.4949 14.7773 34.2376 14.7773 34.2376C14.7773 34.2376 16.2412 35.2838 18.5748 35.8479C20.9085 36.4097 22.3766 35.5572 22.3766 35.5572Z" fill="black"/>
<path d="M20.4367 33.8135C20.4367 33.8135 19.6316 32.3862 17.8147 31.0493C15.9977 29.7146 13.9375 29.6543 13.9375 29.6543C13.9375 29.6543 14.8826 31.1849 16.8179 32.6079C18.7533 34.0309 20.4367 33.8135 20.4367 33.8135Z" fill="black"/>
<path d="M18.5112 30.8772C18.5112 30.8772 19.0558 29.4155 18.9137 27.2713C18.7717 25.1293 17.5532 23.5879 17.5532 23.5879C17.5532 23.5879 17.0171 25.2175 17.17 27.4995C17.3207 29.7814 18.5112 30.8772 18.5112 30.8772Z" fill="black"/>
<mask id="mask1_613_733" style="mask-type:luminance" maskUnits="userSpaceOnUse" x="11" y="24" width="7" height="6">
<path d="M11.7422 24.7998H17.0854V29.7598H11.7422V24.7998Z" fill="white"/>
</mask>
<g mask="url(#mask1_613_733)">
<path d="M16.9824 29.4904C16.9824 29.4904 16.4226 28.1902 14.9846 26.8748C13.5465 25.5616 11.7812 25.3184 11.7812 25.3184C11.7812 25.3184 12.4529 26.722 13.9857 28.1213C15.5163 29.5227 16.9824 29.4904 16.9824 29.4904Z" fill="black"/>
</g>
<path d="M16.1151 26.608C16.1151 26.608 16.044 25.1915 15.1592 23.4564C14.2723 21.7191 12.7051 20.873 12.7051 20.873C12.7051 20.873 12.8429 22.423 13.7858 24.2723C14.7308 26.1215 16.1151 26.608 16.1151 26.608Z" fill="black"/>
<path d="M15.5095 22.385C15.5095 22.385 15.6322 20.9728 14.9864 19.1322C14.3427 17.2916 12.9025 16.2432 12.9025 16.2432C12.9025 16.2432 12.8314 17.7975 13.5182 19.7565C14.2049 21.7177 15.5095 22.385 15.5095 22.385Z" fill="black"/>
<path d="M16.0951 19.6013C16.0951 19.6013 16.7409 18.342 16.8421 16.3937C16.9412 14.4454 16.0068 12.9277 16.0068 12.9277C16.0068 12.9277 15.3524 14.3378 15.2448 16.4131C15.1371 18.4884 16.0951 19.6013 16.0951 19.6013Z" fill="black"/>
<path d="M17.6868 16.2516C17.6868 16.2516 18.5307 15.1149 18.9462 13.2097C19.3595 11.3045 18.6835 9.65332 18.6835 9.65332C18.6835 9.65332 17.8073 10.9385 17.366 12.9686C16.9247 14.9965 17.6868 16.2516 17.6868 16.2516Z" fill="black"/>
<path d="M16.1883 24.7912C16.1883 24.7912 17.241 23.8461 18.0289 22.0636C18.8169 20.2789 18.4853 18.5244 18.4853 18.5244C18.4853 18.5244 17.3702 19.6094 16.5306 21.5103C15.6932 23.4091 16.1883 24.7912 16.1883 24.7912Z" fill="black"/>
<path d="M17.3535 18.4167C17.3535 18.4167 18.699 17.9818 20.1457 16.6729C21.588 15.3662 21.9992 13.6289 21.9992 13.6289C21.9992 13.6289 20.5396 14.1649 19.0004 15.5578C17.4633 16.9506 17.3535 18.4167 17.3535 18.4167Z" fill="black"/>
<mask id="mask2_613_733" style="mask-type:luminance" maskUnits="userSpaceOnUse" x="19" y="9" width="5" height="6">
<path d="M19.2891 9.12402H23.698V14.8806H19.2891V9.12402Z" fill="white"/>
</mask>
<g mask="url(#mask2_613_733)">
<path d="M19.3432 14.5148C19.3432 14.5148 20.6176 13.8991 21.8684 12.405C23.1191 10.911 23.2871 9.13281 23.2871 9.13281C23.2871 9.13281 21.9157 9.86476 20.5832 11.4578C19.2506 13.0487 19.3432 14.5148 19.3432 14.5148Z" fill="black"/>
</g>
<path d="M29.9336 39.1895C29.9336 41.1506 26.7109 43.2862 26.7109 42.2421C26.7109 41.2001 29.9336 39.8848 29.9336 39.1895Z" fill="black"/>
<path d="M31.8008 39.1895C31.8008 41.1506 35.0235 43.2862 35.0235 42.2421C35.0235 41.2001 31.8008 39.8848 31.8008 39.1895Z" fill="black"/>
<path d="M32.0039 38.2724C32.0039 38.2724 32.4904 39.7212 35.4182 40.0334C38.3438 40.3455 39.5924 39.7212 39.5924 39.7212C39.5924 39.7212 37.642 38.197 35.7691 38.1174C33.894 38.0399 32.0039 38.2724 32.0039 38.2724Z" fill="black"/>
<path d="M32.0032 38.2716C32.0032 38.2716 31.7836 36.7561 34.2077 35.0834C36.6317 33.4106 38.0288 33.3633 38.0288 33.3633C38.0288 33.3633 37.228 35.4299 35.2754 36.6377C33.6802 37.6258 32.0032 38.2716 32.0032 38.2716Z" fill="black"/>
<path d="M35.4766 37.1973C35.4766 37.1973 36.9684 36.5234 39.2224 36.5234C41.4764 36.5234 43.1749 37.6967 43.1749 37.6967C43.1749 37.6967 41.5065 38.3705 39.1061 38.3705C36.7058 38.3705 35.4766 37.1973 35.4766 37.1973Z" fill="black"/>
<path d="M38.2363 35.7616C38.2363 35.7616 38.3569 34.1255 39.4311 32.1428C40.5075 30.1579 42.346 29.2236 42.346 29.2236C42.346 29.2236 42.1415 31.0147 40.9962 33.1266C39.8509 35.2406 38.2363 35.7616 38.2363 35.7616Z" fill="black"/>
<path d="M39.3594 35.5572C39.3594 35.5572 40.6532 34.5519 42.8447 34.0245C45.0362 33.4949 46.9608 34.2376 46.9608 34.2376C46.9608 34.2376 45.4969 35.2838 43.1633 35.8479C40.8297 36.4097 39.3594 35.5572 39.3594 35.5572Z" fill="black"/>
<path d="M41.2988 33.8135C41.2988 33.8135 42.104 32.3862 43.9209 31.0493C45.74 29.7146 47.8002 29.6543 47.8002 29.6543C47.8002 29.6543 46.853 31.1849 44.9176 32.6079C42.9845 34.0309 41.2988 33.8135 41.2988 33.8135Z" fill="black"/>
<path d="M43.225 30.8772C43.225 30.8772 42.6804 29.4155 42.8225 27.2713C42.9646 25.1293 44.183 23.5879 44.183 23.5879C44.183 23.5879 44.7169 25.2175 44.5662 27.4995C44.4134 29.7814 43.225 30.8772 43.225 30.8772Z" fill="black"/>
<mask id="mask3_613_733" style="mask-type:luminance" maskUnits="userSpaceOnUse" x="44" y="24" width="7" height="6">
<path d="M44.6406 24.7998H50.0118V29.7598H44.6406V24.7998Z" fill="white"/>
</mask>
<g mask="url(#mask3_613_733)">
<path d="M44.7539 29.4904C44.7539 29.4904 45.3136 28.1902 46.7517 26.8748C48.1897 25.5616 49.9572 25.3184 49.9572 25.3184C49.9572 25.3184 49.2833 26.722 47.7527 28.1213C46.2199 29.5227 44.7539 29.4904 44.7539 29.4904Z" fill="black"/>
</g>
<path d="M45.6211 26.608C45.6211 26.608 45.69 25.1915 46.5748 23.4564C47.4617 21.7191 49.0289 20.873 49.0289 20.873C49.0289 20.873 48.8912 22.423 47.9482 24.2723C47.0053 26.1215 45.6211 26.608 45.6211 26.608Z" fill="black"/>
<path d="M46.2261 22.385C46.2261 22.385 46.1034 20.9728 46.7492 19.1322C47.3951 17.2916 48.8331 16.2432 48.8331 16.2432C48.8331 16.2432 48.9063 17.7975 48.2174 19.7565C47.5328 21.7177 46.2261 22.385 46.2261 22.385Z" fill="black"/>
<path d="M45.6433 19.6013C45.6433 19.6013 44.9954 18.342 44.8963 16.3937C44.7952 14.4454 45.7295 12.9277 45.7295 12.9277C45.7295 12.9277 46.3861 14.3378 46.4915 16.4131C46.5992 18.4884 45.6433 19.6013 45.6433 19.6013Z" fill="black"/>
<path d="M44.0485 16.2516C44.0485 16.2516 43.2046 15.1149 42.7913 13.2097C42.3758 11.3045 43.0518 9.65332 43.0518 9.65332C43.0518 9.65332 43.9279 10.9385 44.3693 12.9686C44.8106 14.9965 44.0485 16.2516 44.0485 16.2516Z" fill="black"/>
<path d="M45.5481 24.7912C45.5481 24.7912 44.4932 23.8461 43.7053 22.0636C42.9174 20.2789 43.2489 18.5244 43.2489 18.5244C43.2489 18.5244 44.3641 19.6094 45.2036 21.5103C46.0432 23.4091 45.5481 24.7912 45.5481 24.7912Z" fill="black"/>
<path d="M44.384 18.4167C44.384 18.4167 43.0363 17.9818 41.5918 16.6729C40.1473 15.3662 39.7383 13.6289 39.7383 13.6289C39.7383 13.6289 41.1979 14.1649 42.7349 15.5578C44.2742 16.9506 44.384 18.4167 44.384 18.4167Z" fill="black"/>
<mask id="mask4_613_733" style="mask-type:luminance" maskUnits="userSpaceOnUse" x="38" y="9" width="5" height="6">
<path d="M38.0273 9.12402H42.4362V14.8806H38.0273V9.12402Z" fill="white"/>
</mask>
<g mask="url(#mask4_613_733)">
<path d="M42.3931 14.5148C42.3931 14.5148 41.1187 13.8991 39.8679 12.405C38.6171 10.911 38.4492 9.13281 38.4492 9.13281C38.4492 9.13281 39.8227 9.86476 41.1553 11.4578C42.4857 13.0487 42.3931 14.5148 42.3931 14.5148Z" fill="black"/>
</g>
<mask id="mask5_613_733" style="mask-type:luminance" maskUnits="userSpaceOnUse" x="22" y="16" width="18" height="18">
<path d="M22.6836 16.7783H39.1287V33.2385H22.6836V16.7783Z" fill="white"/>
</mask>
<g mask="url(#mask5_613_733)">
<path d="M39.0404 24.9567C39.0404 25.4928 38.9887 26.0245 38.8832 26.5519C38.7799 27.0794 38.6249 27.5896 38.4182 28.0869C38.2137 28.582 37.9619 29.0535 37.6626 29.5012C37.3634 29.9469 37.0254 30.3602 36.6465 30.7391C36.2655 31.1201 35.8521 31.4581 35.4065 31.7573C34.9587 32.0544 34.4873 32.3063 33.9921 32.513C33.497 32.7175 32.9846 32.8725 32.4572 32.978C31.9319 33.0835 31.4002 33.1351 30.862 33.1351C30.326 33.1351 29.7942 33.0835 29.2668 32.978C28.7394 32.8725 28.2291 32.7175 27.7319 32.513C27.2367 32.3063 26.7653 32.0544 26.3175 31.7573C25.8719 31.4581 25.4585 31.1201 25.0796 30.7391C24.6986 30.3602 24.3606 29.9469 24.0614 29.5012C23.7643 29.0535 23.5124 28.582 23.3057 28.0869C23.1012 27.5896 22.9462 27.0794 22.8407 26.5519C22.7353 26.0245 22.6836 25.4928 22.6836 24.9567C22.6836 24.4207 22.7353 23.8868 22.8407 23.3615C22.9462 22.8341 23.1012 22.3239 23.3057 21.8266C23.5124 21.3314 23.7643 20.86 24.0614 20.4122C24.3606 19.9666 24.6986 19.5533 25.0796 19.1744C25.4585 18.7933 25.8719 18.4553 26.3175 18.1561C26.7653 17.859 27.2367 17.6071 27.7319 17.4005C28.2291 17.196 28.7394 17.041 29.2668 16.9355C29.7942 16.83 30.326 16.7783 30.862 16.7783C31.4002 16.7783 31.9319 16.83 32.4572 16.9355C32.9846 17.041 33.497 17.196 33.9921 17.4005C34.4873 17.6071 34.9587 17.859 35.4065 18.1561C35.8521 18.4553 36.2655 18.7933 36.6465 19.1744C37.0254 19.5533 37.3634 19.9666 37.6626 20.4122C37.9619 20.86 38.2137 21.3314 38.4182 21.8266C38.6249 22.3239 38.7799 22.8341 38.8832 23.3615C38.9887 23.8868 39.0404 24.4207 39.0404 24.9567Z" fill="black"/>
</g>
<mask id="mask6_613_733" style="mask-type:luminance" maskUnits="userSpaceOnUse" x="26" y="19" width="9" height="12">
<path d="M26.6484 19.3574H34.8785V30.4679H26.6484V19.3574Z" fill="white"/>
</mask>
<g mask="url(#mask6_613_733)">
<path d="M34.6379 20.1068C34.188 19.4696 33.4173 19.265 32.6789 19.4523C32.4356 19.5126 32.1967 19.5837 31.962 19.6633C31.5939 19.7925 31.2279 19.8549 30.8598 19.8549C30.4938 19.8549 30.1257 19.7925 29.7597 19.6633C29.5251 19.5837 29.2818 19.5083 29.0429 19.4523C28.3023 19.265 27.5338 19.4696 27.0817 20.1068C26.6081 20.7698 26.5435 21.7171 26.7954 22.477C27.1656 23.5835 27.7469 24.5609 27.6759 25.7729C27.6005 27.1356 27.6436 29.0021 28.4444 30.1753C28.7113 30.565 29.228 30.7157 29.4713 30.2055C29.777 29.5553 29.6973 28.8514 29.6177 28.1539C29.538 27.4499 29.4627 26.7416 29.7856 26.0915C30.0073 25.6502 30.3647 25.4328 30.8598 25.4328C31.355 25.4328 31.7145 25.6502 31.9362 26.0915C32.2591 26.746 32.1838 27.4499 32.1041 28.1539C32.0245 28.8514 31.9448 29.5553 32.2484 30.2055C32.4873 30.7157 33.0104 30.565 33.2752 30.1753C34.0761 29.0021 34.1256 27.1356 34.0459 25.7729C33.9749 24.5609 34.5583 23.5878 34.9264 22.477C35.1783 21.7171 35.1115 20.7698 34.6379 20.1068Z" fill="white"/>
</g>
<mask id="mask7_613_733" style="mask-type:luminance" maskUnits="userSpaceOnUse" x="32" y="21" width="2" height="2">
<path d="M32.5215 21.5195H33.346V22.3419H32.5215V21.5195Z" fill="white"/>
</mask>
<g mask="url(#mask7_613_733)">
<path d="M33.3912 21.9522C33.3912 22.0728 33.3482 22.174 33.262 22.2601C33.1781 22.344 33.0769 22.3871 32.9563 22.3871C32.8358 22.3871 32.7346 22.344 32.6485 22.2601C32.5645 22.174 32.5215 22.0728 32.5215 21.9522C32.5215 21.8338 32.5645 21.7305 32.6485 21.6465C32.7346 21.5604 32.8358 21.5195 32.9563 21.5195C33.0769 21.5195 33.1781 21.5604 33.262 21.6465C33.3482 21.7305 33.3912 21.8338 33.3912 21.9522Z" fill="black"/>
</g>
<path d="M32.2187 22.8906C31.1811 23.7732 30.1521 23.7388 29.1338 22.7873" stroke="black" stroke-width="0.418142" stroke-linecap="round"/>
<mask id="mask8_613_733" style="mask-type:luminance" maskUnits="userSpaceOnUse" x="28" y="21" width="1" height="2">
<path d="M28.0527 21.5195H28.8751V22.3419H28.0527V21.5195Z" fill="white"/>
</mask>
<g mask="url(#mask8_613_733)">
<path d="M28.9203 21.9522C28.9203 22.0728 28.8772 22.174 28.7933 22.2601C28.7072 22.344 28.606 22.3871 28.4854 22.3871C28.3649 22.3871 28.2637 22.344 28.1797 22.2601C28.0936 22.174 28.0527 22.0728 28.0527 21.9522C28.0527 21.8338 28.0936 21.7305 28.1797 21.6465C28.2637 21.5604 28.3649 21.5195 28.4854 21.5195C28.606 21.5195 28.7072 21.5604 28.7933 21.6465C28.8772 21.7305 28.9203 21.8338 28.9203 21.9522Z" fill="black"/>
</g>
<path d="M26.5176 10.2593V9.33789H29.7467V10.2593H28.6617V13.9362H27.6112V10.2593H26.5176Z" fill="black"/>
<path d="M31.823 9.26074C32.0684 9.26074 32.3095 9.29949 32.5463 9.37269C32.7874 9.44158 32.9639 9.51046 33.0802 9.57935L33.2438 9.6913L32.8219 10.5266C32.7874 10.505 32.7379 10.4749 32.6755 10.4405C32.6174 10.406 32.5076 10.3608 32.3483 10.3027C32.1868 10.2403 32.0339 10.208 31.8919 10.208C31.7196 10.208 31.584 10.2467 31.4871 10.3199C31.3946 10.3953 31.3494 10.4964 31.3494 10.6213C31.3494 10.6859 31.3687 10.7462 31.4096 10.8021C31.4549 10.8538 31.5324 10.9119 31.6421 10.9744C31.7498 11.0325 31.8445 11.082 31.9263 11.1207C32.006 11.1552 32.133 11.2112 32.3052 11.2844C32.6023 11.4114 32.8563 11.5836 33.063 11.801C33.2739 12.0206 33.3816 12.266 33.3816 12.5416C33.3816 12.8064 33.3321 13.0367 33.2352 13.2305C33.1426 13.4264 33.0135 13.5814 32.8477 13.6955C32.6798 13.8053 32.4968 13.8849 32.2966 13.9366C32.0942 13.9925 31.8768 14.0227 31.6421 14.0227C31.4462 14.0227 31.2503 13.999 31.0566 13.9538C30.8607 13.915 30.6971 13.8655 30.5658 13.8074C30.4387 13.745 30.3246 13.6847 30.2213 13.6266C30.118 13.5641 30.0405 13.5125 29.9888 13.4716L29.9199 13.4113L30.4452 12.533C30.4839 12.5674 30.5442 12.6148 30.626 12.6707C30.7057 12.7289 30.8435 12.8064 31.0394 12.9032C31.2396 13.0023 31.4139 13.0496 31.5646 13.0496C32.006 13.0496 32.2277 12.9011 32.2277 12.6019C32.2277 12.5394 32.2105 12.4813 32.176 12.4296C32.1459 12.3737 32.0921 12.3177 32.0124 12.266C31.9371 12.21 31.8682 12.167 31.8058 12.1369C31.7412 12.1024 31.6421 12.055 31.5044 11.9905C31.3666 11.928 31.2633 11.8785 31.1944 11.8441C30.9188 11.7063 30.7035 11.5341 30.5485 11.3274C30.3935 11.1207 30.316 10.9012 30.316 10.6644C30.316 10.251 30.4667 9.91519 30.7724 9.65685C31.0824 9.39421 31.4312 9.26074 31.823 9.26074Z" fill="black"/>
<path d="M34.9091 9.33789V13.9362H33.8672V9.33789H34.9091Z" fill="black"/>
<path d="M14.7246 43.04H16.2918C17.0367 43.04 17.6782 43.2984 18.2121 43.815C18.746 44.3274 19.0129 44.9689 19.0129 45.7439C19.0129 46.5189 18.746 47.1648 18.2121 47.6814C17.6825 48.1938 17.0432 48.4478 16.2918 48.4478H14.7246V43.04ZM15.956 47.3456H16.1454C16.5932 47.3456 16.9592 47.1949 17.2477 46.8892C17.534 46.5857 17.6804 46.2046 17.6868 45.7439C17.6868 45.2918 17.5426 44.913 17.2563 44.6073C16.9678 44.2973 16.5975 44.1423 16.1454 44.1423H15.956V47.3456Z" fill="black"/>
<path d="M19.659 43.2106C19.7968 43.0728 19.9604 43.0039 20.1498 43.0039C20.3393 43.0039 20.4986 43.0728 20.632 43.2106C20.7698 43.3484 20.8387 43.512 20.8387 43.7014C20.8387 43.8865 20.7698 44.0459 20.632 44.1836C20.4986 44.3171 20.3393 44.3817 20.1498 44.3817C19.9604 44.3817 19.7968 44.3171 19.659 44.1836C19.5255 44.0459 19.4609 43.8865 19.4609 43.7014C19.4609 43.512 19.5255 43.3484 19.659 43.2106ZM19.5557 45.0878V48.4461H20.7095V45.0878H19.5557Z" fill="black"/>
<path d="M21.758 48.0337C21.448 47.6892 21.293 47.2673 21.293 46.7679C21.293 46.2684 21.448 45.8465 21.758 45.502C22.0723 45.1576 22.4748 44.9854 22.9635 44.9854C23.4048 44.9854 23.7687 45.1274 24.0571 45.4073V45.0887H25.2196V48.447H24.0744V48.0681H24.0571C23.7687 48.3846 23.4048 48.5417 22.9635 48.5417C22.4748 48.5417 22.0723 48.3738 21.758 48.0337ZM22.7482 46.1995C22.5976 46.3502 22.5244 46.5418 22.5244 46.7765C22.5244 47.0068 22.5954 47.1963 22.7396 47.3448C22.8817 47.489 23.0712 47.5601 23.308 47.5601C23.5319 47.5601 23.7148 47.4869 23.8591 47.3362C24.0076 47.1876 24.083 46.9982 24.083 46.7679C24.083 46.5397 24.0076 46.3502 23.8591 46.1995C23.7084 46.051 23.5254 45.9756 23.308 45.9756C23.0841 45.9756 22.8968 46.051 22.7482 46.1995Z" fill="black"/>
<path d="M26.0059 48.447V45.0887H27.1597V45.4417H27.177C27.4741 45.1382 27.797 44.9854 28.1414 44.9854C28.3825 44.9854 28.6086 45.037 28.8217 45.1404C29.0391 45.2394 29.2027 45.3944 29.3125 45.6054C29.6505 45.192 30.0208 44.9854 30.4234 44.9854C30.785 44.9854 31.095 45.0865 31.3534 45.2867C31.6117 45.4891 31.7409 45.8034 31.7409 46.234V48.447H30.5784V46.544C30.5784 46.3674 30.5288 46.2167 30.432 46.0962C30.3329 45.9756 30.1844 45.9154 29.9842 45.9154C29.8163 45.9154 29.6871 45.967 29.5967 46.0704C29.5041 46.1737 29.4546 46.2985 29.4503 46.4406V48.447H28.2878V46.544C28.2878 46.3674 28.2383 46.2167 28.1414 46.0962C28.0424 45.9756 27.896 45.9154 27.7022 45.9154C27.5236 45.9154 27.3879 45.9735 27.2975 46.0876C27.205 46.1974 27.1597 46.3287 27.1597 46.4837V48.447H26.0059Z" fill="black"/>
<path d="M32.6798 48.0337C32.3698 47.6892 32.2148 47.2673 32.2148 46.7679C32.2148 46.2684 32.3698 45.8465 32.6798 45.502C32.9941 45.1576 33.3967 44.9854 33.8854 44.9854C34.3267 44.9854 34.6905 45.1274 34.979 45.4073V45.0887H36.1415V48.447H34.9962V48.0681H34.979C34.6905 48.3846 34.3267 48.5417 33.8854 48.5417C33.3967 48.5417 32.9941 48.3738 32.6798 48.0337ZM33.6701 46.1995C33.5194 46.3502 33.4462 46.5418 33.4462 46.7765C33.4462 47.0068 33.5173 47.1963 33.6615 47.3448C33.8036 47.489 33.993 47.5601 34.2298 47.5601C34.4537 47.5601 34.6367 47.4869 34.781 47.3362C34.9295 47.1876 35.0048 46.9982 35.0048 46.7679C35.0048 46.5397 34.9295 46.3502 34.781 46.1995C34.6303 46.051 34.4473 45.9756 34.2298 45.9756C34.006 45.9756 33.8187 46.051 33.6701 46.1995Z" fill="black"/>
<path d="M36.9277 48.447V45.0887H38.0816V45.4417H38.0988C38.3959 45.1382 38.7188 44.9854 39.0633 44.9854C39.2291 44.9854 39.3927 45.009 39.5541 45.0542C39.7199 45.0951 39.877 45.1619 40.0277 45.2523C40.1763 45.3449 40.2968 45.4762 40.3894 45.6484C40.4863 45.8163 40.5358 46.0101 40.5358 46.234V48.447H39.3733V46.544C39.3733 46.3717 39.3152 46.221 39.2011 46.0876C39.0913 45.9563 38.947 45.8895 38.7705 45.8895C38.5983 45.8895 38.439 45.9584 38.2969 46.0962C38.1527 46.2297 38.0816 46.3782 38.0816 46.544V48.447H36.9277Z" fill="black"/>
<path d="M41.4471 45.0893V43.832H42.6096V45.0893H43.3157V45.9676H42.6096V47.0354C42.6096 47.3454 42.6978 47.5004 42.8765 47.5004C42.9153 47.5004 42.9583 47.4918 43.0057 47.4745C43.0573 47.4573 43.0961 47.4401 43.1262 47.4229L43.1607 47.397L43.4535 48.3356C43.1994 48.4734 42.9153 48.5423 42.601 48.5423C42.3814 48.5423 42.1919 48.5036 42.0326 48.4304C41.8776 48.3572 41.7592 48.256 41.6796 48.129C41.5978 47.9977 41.5375 47.8599 41.4987 47.7156C41.4643 47.5736 41.4471 47.4207 41.4471 47.2593V45.9676H40.9648V45.0893H41.4471Z" fill="black"/>
<path d="M47.2441 46.9229H44.8071C44.8071 47.164 44.8803 47.3426 45.031 47.4567C45.186 47.5665 45.3518 47.6204 45.5305 47.6204C45.7199 47.6204 45.8684 47.5988 45.9782 47.5515C46.0859 47.4998 46.2107 47.4008 46.3485 47.2501L47.1924 47.6634C46.8415 48.249 46.2581 48.5417 45.4443 48.5417C44.9384 48.5417 44.5057 48.3695 44.1441 48.0251C43.7824 47.6763 43.6016 47.2565 43.6016 46.7679C43.6016 46.2813 43.7824 45.8615 44.1441 45.5106C44.5057 45.1619 44.9384 44.9854 45.4443 44.9854C45.9782 44.9854 46.4109 45.1404 46.7446 45.4504C47.0761 45.756 47.2441 46.1952 47.2441 46.7679C47.2441 46.8497 47.2441 46.9013 47.2441 46.9229ZM44.833 46.2856H46.116C46.0859 46.1091 46.0148 45.9735 45.9007 45.8809C45.7909 45.7905 45.651 45.7431 45.4788 45.7431C45.2829 45.7431 45.1279 45.7948 45.0138 45.8981C44.904 45.9972 44.8437 46.1263 44.833 46.2856Z" fill="black"/>
<path d="M26.3008 53.2568L27.4654 52.2299C27.5817 52.1288 27.6743 52.0254 27.741 51.9221C27.8077 51.8166 27.84 51.709 27.84 51.5949C27.84 51.4829 27.8163 51.3817 27.7668 51.2978C27.7173 51.2117 27.6506 51.1449 27.5645 51.0997C27.4805 51.0524 27.3858 51.0308 27.2803 51.0308C27.1404 51.0308 27.0155 51.0696 26.9079 51.1514C26.8002 51.2332 26.7249 51.3322 26.6818 51.4463L26.3352 51.3258C26.3718 51.2009 26.4386 51.089 26.5311 50.9856C26.6259 50.8844 26.7356 50.8026 26.8648 50.7445C26.994 50.6842 27.1296 50.6562 27.2717 50.6562C27.4482 50.6562 27.6075 50.6928 27.7518 50.7703C27.896 50.8478 28.0101 50.9576 28.0919 51.0997C28.1737 51.2418 28.2146 51.4054 28.2146 51.5927C28.2146 51.7542 28.1715 51.907 28.0833 52.0513C27.9972 52.1933 27.8766 52.3333 27.7216 52.471L26.8993 53.1599H28.2856V53.513H26.3008V53.2568Z" fill="black"/>
<path d="M29.7639 53.5635C29.5508 53.5635 29.3614 53.5053 29.1956 53.3891C29.0298 53.2728 28.9007 53.1049 28.8081 52.8853C28.7134 52.6679 28.666 52.4096 28.666 52.1125C28.666 51.8154 28.7134 51.5571 28.8081 51.3396C28.9007 51.1222 29.0298 50.9564 29.1956 50.8402C29.3614 50.7261 29.5508 50.668 29.7639 50.668C29.9749 50.668 30.1643 50.7261 30.3301 50.8402C30.4959 50.9564 30.625 51.1222 30.7176 51.3396C30.8123 51.5571 30.8575 51.8154 30.8575 52.1125C30.8575 52.4096 30.8123 52.6679 30.7176 52.8853C30.625 53.1049 30.4937 53.2728 30.328 53.3891C30.1622 53.5053 29.9749 53.5635 29.7639 53.5635ZM29.7661 53.1867C29.8996 53.1867 30.0201 53.148 30.1278 53.0683C30.2332 52.9908 30.3193 52.8703 30.3818 52.7066C30.4464 52.5452 30.4787 52.3428 30.4787 52.1039C30.4787 51.8735 30.4464 51.6776 30.3818 51.5183C30.3193 51.359 30.2332 51.2406 30.1256 51.1631C30.018 51.0835 29.8996 51.0447 29.7661 51.0447C29.6305 51.0447 29.5078 51.0835 29.4001 51.1631C29.2903 51.2406 29.2064 51.359 29.1418 51.5183C29.0793 51.6776 29.0471 51.8735 29.0471 52.1039C29.0471 52.3428 29.0793 52.5452 29.1418 52.7066C29.2042 52.8703 29.2903 52.9908 29.398 53.0683C29.5078 53.148 29.6305 53.1867 29.7661 53.1867Z" fill="black"/>
<path d="M31.1504 53.2568L32.315 52.2299C32.4313 52.1288 32.5239 52.0254 32.5906 51.9221C32.6573 51.8166 32.6896 51.709 32.6896 51.5949C32.6896 51.4829 32.6659 51.3817 32.6164 51.2978C32.5669 51.2117 32.5002 51.1449 32.4141 51.0997C32.3301 51.0524 32.2354 51.0308 32.1299 51.0308C31.99 51.0308 31.8651 51.0696 31.7575 51.1514C31.6498 51.2332 31.5745 51.3322 31.5314 51.4463L31.1848 51.3258C31.2214 51.2009 31.2882 51.089 31.3807 50.9856C31.4755 50.8844 31.5853 50.8026 31.7144 50.7445C31.8436 50.6842 31.9792 50.6562 32.1213 50.6562C32.2978 50.6562 32.4571 50.6928 32.6014 50.7703C32.7456 50.8478 32.8597 50.9576 32.9415 51.0997C33.0233 51.2418 33.0642 51.4054 33.0642 51.5927C33.0642 51.7542 33.0212 51.907 32.9329 52.0513C32.8468 52.1933 32.7262 52.3333 32.5712 52.471L31.7489 53.1599H33.1353V53.513H31.1504V53.2568Z" fill="black"/>
<path d="M34.866 52.8389H33.4258V52.503L34.81 50.7119H35.2406V52.4707H35.4709V52.8389H35.2406V53.5148H34.866V52.8389ZM34.866 52.4707V51.2393L33.8563 52.4707H34.866Z" fill="black"/>
</svg>
