<svg width="30" height="30" viewBox="0 0 30 30" fill="none" xmlns="http://www.w3.org/2000/svg">
<path d="M15.0001 -0.000244141C14.46 -0.000244141 14.0218 0.437627 14.0218 0.978037V2.93454C14.0218 3.47495 14.46 3.91282 15.0001 3.91282C15.5402 3.91282 15.9784 3.47495 15.9784 2.93454V0.978037C15.9784 0.437627 15.5402 -0.000244141 15.0001 -0.000244141ZM3.26096 13.6954H1.30445C0.764395 13.6954 0.326172 14.1336 0.326172 14.6737C0.326172 15.2137 0.764395 15.652 1.30445 15.652H3.26096C3.80102 15.652 4.23924 15.2137 4.23924 14.6737C4.23924 14.1336 3.80102 13.6954 3.26096 13.6954ZM28.6958 13.6954H26.7393C26.1992 13.6954 25.761 14.1336 25.761 14.6737C25.761 15.2137 26.1992 15.652 26.7393 15.652H28.6958C29.2358 15.652 29.674 15.2137 29.674 14.6737C29.674 14.1336 29.2358 13.6954 28.6958 13.6954ZM25.3762 4.29778C24.9942 3.91564 24.375 3.91599 23.9929 4.29743L22.609 5.68077C22.2269 6.06286 22.2269 6.68226 22.609 7.06441C22.6997 7.1554 22.8075 7.22756 22.9262 7.27675C23.0449 7.32594 23.1721 7.35119 23.3006 7.35105C23.5509 7.35105 23.8012 7.25548 23.9923 7.06476L25.3762 5.68142C25.7584 5.29933 25.7584 4.67993 25.3762 4.29778ZM7.39112 5.68077L6.00719 4.29743C5.6251 3.91593 5.006 3.91569 4.62391 4.29778C4.24182 4.67987 4.24182 5.29927 4.62391 5.68142L6.00789 7.06476C6.19897 7.25554 6.44928 7.35105 6.69953 7.35105C6.94979 7.35105 7.20016 7.25548 7.39117 7.06441C7.77321 6.68232 7.77321 6.06298 7.39112 5.68077ZM24.7827 25.4346H5.21752C4.67729 25.4346 4.23924 25.8725 4.23924 26.4128V29.0215C4.23924 29.5618 4.67723 29.9998 5.21752 29.9998H24.7827C25.323 29.9998 25.761 29.5618 25.761 29.0215V26.4128C25.761 25.8725 25.323 25.4346 24.7827 25.4346ZM15.0001 5.86933C10.1451 5.86933 6.19574 9.81872 6.19574 14.6737V23.478H23.8045V14.6737C23.8045 9.81867 19.8551 5.86933 15.0001 5.86933ZM18.9132 15.6519C18.3731 15.6519 17.9349 15.2137 17.9349 14.6736C17.9349 13.0553 16.6184 11.7388 15.0001 11.7388C14.46 11.7388 14.0218 11.3006 14.0218 10.7606C14.0218 10.2205 14.46 9.78228 15.0001 9.78228C17.6973 9.78228 19.8914 11.9764 19.8914 14.6736C19.8914 15.2137 19.4532 15.6519 18.9132 15.6519Z" fill="#263238"/>
<path d="M15.0001 -0.000244141C14.46 -0.000244141 14.0218 0.437627 14.0218 0.978037V2.93454C14.0218 3.47495 14.46 3.91282 15.0001 3.91282C15.5402 3.91282 15.9784 3.47495 15.9784 2.93454V0.978037C15.9784 0.437627 15.5402 -0.000244141 15.0001 -0.000244141ZM3.26096 13.6954H1.30445C0.764395 13.6954 0.326172 14.1336 0.326172 14.6737C0.326172 15.2137 0.764395 15.652 1.30445 15.652H3.26096C3.80102 15.652 4.23924 15.2137 4.23924 14.6737C4.23924 14.1336 3.80102 13.6954 3.26096 13.6954ZM28.6958 13.6954H26.7393C26.1992 13.6954 25.761 14.1336 25.761 14.6737C25.761 15.2137 26.1992 15.652 26.7393 15.652H28.6958C29.2358 15.652 29.674 15.2137 29.674 14.6737C29.674 14.1336 29.2358 13.6954 28.6958 13.6954ZM25.3762 4.29778C24.9942 3.91564 24.375 3.91599 23.9929 4.29743L22.609 5.68077C22.2269 6.06286 22.2269 6.68226 22.609 7.06441C22.6997 7.1554 22.8075 7.22756 22.9262 7.27675C23.0449 7.32594 23.1721 7.35119 23.3006 7.35105C23.5509 7.35105 23.8012 7.25548 23.9923 7.06476L25.3762 5.68142C25.7584 5.29933 25.7584 4.67993 25.3762 4.29778ZM7.39112 5.68077L6.00719 4.29743C5.6251 3.91593 5.006 3.91569 4.62391 4.29778C4.24182 4.67987 4.24182 5.29927 4.62391 5.68142L6.00789 7.06476C6.19897 7.25554 6.44928 7.35105 6.69953 7.35105C6.94979 7.35105 7.20016 7.25548 7.39117 7.06441C7.77321 6.68232 7.77321 6.06298 7.39112 5.68077ZM24.7827 25.4346H5.21752C4.67729 25.4346 4.23924 25.8725 4.23924 26.4128V29.0215C4.23924 29.5618 4.67723 29.9998 5.21752 29.9998H24.7827C25.323 29.9998 25.761 29.5618 25.761 29.0215V26.4128C25.761 25.8725 25.323 25.4346 24.7827 25.4346Z" fill="#FEF14B"/>
</svg>
