<svg width="26" height="26" viewBox="0 0 26 26" fill="none" xmlns="http://www.w3.org/2000/svg">
<path d="M18.5116 18.6341C18.1303 18.6341 17.7576 18.4565 17.5149 18.1661C16.6093 17.0871 16.2279 15.7005 16.3103 13.8198C16.0373 13.7028 15.7513 13.6118 15.4523 13.5555C15.5996 14.5001 15.6689 15.7265 15.6386 16.1251C16.1196 16.3158 16.4663 16.7838 16.4663 17.3341C16.4663 18.0491 15.8813 18.6341 15.1663 18.6341C14.4513 18.6341 13.8663 18.0491 13.8663 17.3341C13.8663 16.7578 14.2476 16.2725 14.7719 16.1035C14.8023 15.7351 14.7199 14.3788 14.5683 13.5121H14.2996C14.2563 13.5121 14.2129 13.5121 14.1696 13.5078L11.1579 16.3201C11.0756 16.4155 10.9586 16.4675 10.8329 16.4675C10.7073 16.4675 10.5903 16.4155 10.5079 16.3201L7.49194 13.5078H7.48761C7.44428 13.5121 7.40094 13.5121 7.35328 13.5121L6.42161 13.5468C6.22661 13.5728 6.03594 13.6118 5.85394 13.6595C6.53861 14.3441 6.98061 15.5011 6.96761 16.1078C7.69561 16.3115 8.23294 16.9745 8.23294 17.7675V18.6341C8.23294 18.8725 8.03794 19.0675 7.79961 19.0675H7.36628C7.12794 19.0675 6.93294 18.8725 6.93294 18.6341C6.93294 18.3958 7.12794 18.2008 7.36628 18.2008V17.7675C7.36628 17.2908 6.97628 16.9008 6.49961 16.9008C6.02294 16.9008 5.63294 17.2908 5.63294 17.7675V18.2008C5.87128 18.2008 6.06628 18.3958 6.06628 18.6341C6.06628 18.8725 5.87128 19.0675 5.63294 19.0675H5.19961C4.96128 19.0675 4.76628 18.8725 4.76628 18.6341V17.7675C4.76628 16.9528 5.33394 16.2681 6.09661 16.0861C6.10961 15.6701 5.55494 14.3441 4.93528 14.0365C3.53561 14.8208 2.59961 16.3981 2.59961 18.1835V22.9675C2.59961 23.2058 2.79461 23.4008 3.03294 23.4008H18.6329C18.8713 23.4008 19.0663 23.2058 19.0663 22.9675V18.5085C19.0316 18.5215 19.0013 18.5388 18.9666 18.5518C18.8149 18.6081 18.6676 18.6341 18.5116 18.6341Z" fill="#263238"/>
<path d="M23.4004 10.9422C23.4091 10.4048 23.1967 9.88915 22.8197 9.52949C22.0917 8.82749 21.3117 9.13949 20.6834 9.38649C20.5707 9.43415 20.4581 9.47749 20.3411 9.51649C20.0767 9.61182 19.7907 9.61182 19.5264 9.51649C19.4094 9.47749 19.2967 9.43415 19.1841 9.38649C18.8417 9.25215 18.4604 9.10049 18.0617 9.10049C17.7281 9.10049 17.3814 9.20882 17.0477 9.52949C16.6707 9.88915 16.4584 10.4048 16.4671 10.9422C16.4757 11.5315 16.6404 12.1208 16.9524 12.6928C17.1214 13.0092 17.1994 13.3515 17.1821 13.6895C17.0781 15.4358 17.3987 16.6795 18.1831 17.6112C18.2403 17.6795 18.3171 17.7287 18.4031 17.7519C18.4891 17.7752 18.5802 17.7714 18.6641 17.7412C18.8374 17.6762 18.9501 17.5115 18.9457 17.3295C18.9241 15.5745 19.2404 14.8162 19.5091 14.4912C19.7084 14.2528 20.1591 14.2528 20.3584 14.4955C20.7484 14.9635 20.9391 15.9168 20.9217 17.3295C20.9217 17.5115 21.0344 17.6762 21.2077 17.7412C21.3767 17.8062 21.5717 17.7542 21.6887 17.6112C22.4731 16.6795 22.7894 15.4358 22.6854 13.6938C22.6681 13.3515 22.7461 13.0092 22.9151 12.6972C23.2271 12.1208 23.3917 11.5315 23.4004 10.9422ZM8.44174 13.1998L10.8337 15.3795L13.1824 13.2258C12.4804 13.6288 11.6917 13.8672 10.8337 13.8672C9.95841 13.8672 9.15241 13.6158 8.44174 13.1998ZM15.5874 7.59249L13.9624 6.81682C13.5464 6.60882 13.0871 6.50049 12.6277 6.50049H12.5107C12.3201 7.25015 11.6397 7.80049 10.8337 7.80049C10.0277 7.80049 9.34741 7.25015 9.15674 6.50049H9.03975C8.58041 6.50049 8.12108 6.60882 7.70508 6.81682L6.08008 7.61415C6.27074 10.2358 8.23808 13.0005 10.8337 13.0005C13.4337 13.0005 15.4097 10.2228 15.5874 7.59249Z" fill="#FED338"/>
<path d="M9.15504 5.63392C9.3457 4.88425 10.026 4.33392 10.832 4.33392C11.638 4.33392 12.3184 4.88425 12.509 5.63392H12.626C13.2154 5.63392 13.8134 5.77692 14.3507 6.04559L15.5684 6.62192C15.304 4.22559 13.432 2.60059 10.832 2.60059C8.22337 2.60059 6.34704 4.23425 6.0957 6.64359L7.31337 6.04559C7.8507 5.77692 8.44437 5.63392 9.03804 5.63392H9.15504Z" fill="#263238"/>
</svg>
