<svg width="29" height="30" viewBox="0 0 29 30" fill="none" xmlns="http://www.w3.org/2000/svg">
<path d="M4.19731 13.6829C3.84239 13.6829 3.55469 13.9706 3.55469 14.3255V23.764C3.55469 24.119 3.84244 24.4067 4.19731 24.4067H8.06903V13.6829H4.19731ZM25.2616 17.2315C25.2616 16.4158 24.8232 15.7004 24.1697 15.3086C24.4289 14.935 24.5675 14.4911 24.567 14.0364C24.567 12.8012 23.562 11.7963 22.3268 11.7963H17.5978C17.7427 11.1395 17.941 10.1539 18.079 9.12215C18.4382 6.43724 18.1927 4.94821 17.3065 4.43614C16.754 4.11695 16.1583 4.05221 15.6291 4.25366C15.2203 4.40937 14.6682 4.7922 14.3536 5.73178L13.1107 8.98609C12.4806 10.5422 10.551 12.1759 9.35432 13.0793V24.691C11.5722 25.4681 13.8866 25.8621 16.2478 25.8621H21.4005C22.6357 25.8621 23.6407 24.8571 23.6407 23.6219C23.6412 23.2049 23.5246 22.7962 23.3043 22.4422C24.051 22.0785 24.5669 21.3116 24.5669 20.4267C24.5674 19.972 24.4288 19.5281 24.1697 19.1545C24.8232 18.7627 25.2616 18.0473 25.2616 17.2315Z" fill="#263238"/>
<path d="M7.54997 13.5933C7.94306 13.5933 8.26172 13.912 8.26172 14.305V24.7589C8.26172 25.152 7.94301 25.4707 7.54997 25.4707H3.26173V13.5933H7.54997Z" fill="#FFD43C"/>
</svg>
