<svg width="26" height="26" viewBox="0 0 26 26" fill="none" xmlns="http://www.w3.org/2000/svg">
<g clip-path="url(#clip0_273_14436)">
<path d="M8.97751 20.0647C8.48016 20.0647 8.01704 19.8417 7.70702 19.4528L6.61867 18.0881L5.66114 17.627L3.16113 22.6553C3.09954 22.7792 3.0706 22.9167 3.07706 23.0549C3.08351 23.1931 3.12514 23.3274 3.198 23.445C3.27087 23.5626 3.37255 23.6596 3.49341 23.7269C3.61428 23.7942 3.75033 23.8295 3.88867 23.8295H3.8905L6.20948 23.8243L7.605 25.6763C7.68833 25.787 7.79857 25.8744 7.92523 25.9305C8.05189 25.9865 8.19077 26.0092 8.32868 25.9964C8.46659 25.9837 8.59895 25.9359 8.71319 25.8576C8.82743 25.7793 8.91977 25.6731 8.98142 25.5491L11.5178 20.4475L10.723 20.0647H8.97751ZM22.8405 22.6553L20.3405 17.627L19.383 18.0881L18.2947 19.4528C17.9846 19.8416 17.5216 20.0647 17.0242 20.0647H15.2786L14.4838 20.4474L17.0202 25.549C17.0875 25.6844 17.1913 25.7984 17.3199 25.878C17.4484 25.9576 17.5966 25.9998 17.7478 25.9998C18.0014 25.9998 18.2423 25.8811 18.3966 25.6763L19.7921 23.8242L22.1111 23.8295H22.1129C22.2513 23.8295 22.3874 23.7942 22.5082 23.7269C22.6291 23.6596 22.7308 23.5626 22.8037 23.445C22.8766 23.3274 22.9182 23.1931 22.9246 23.0549C22.9311 22.9167 22.9022 22.7791 22.8405 22.6553Z" fill="white"/>
<path d="M17.0246 19.2524C17.2719 19.2524 17.5057 19.1398 17.6599 18.9465L18.8638 17.4368L20.6036 16.5989C20.7136 16.546 20.8102 16.4689 20.8863 16.3735C20.9624 16.278 21.016 16.1667 21.0432 16.0477L21.4729 14.1651L22.6769 12.6553C22.753 12.5599 22.8066 12.4486 22.8338 12.3296C22.8609 12.2106 22.8609 12.087 22.8338 11.968L22.4041 10.0854L22.8338 8.2028C22.8609 8.08379 22.8609 7.96019 22.8338 7.84119C22.8066 7.72218 22.753 7.61082 22.6769 7.51537L21.4729 6.0057L21.0432 4.12308C21.0161 4.00408 20.9624 3.89273 20.8863 3.7973C20.8102 3.70187 20.7136 3.62481 20.6036 3.57185L18.8638 2.73401L17.6599 1.22429C17.5838 1.12886 17.4871 1.0518 17.3772 0.998842C17.2672 0.945883 17.1467 0.918381 17.0246 0.918379H15.0936L13.3538 0.0804381C13.2438 0.027493 13.1233 0 13.0013 0C12.8792 0 12.7587 0.027493 12.6487 0.0804381L10.909 0.918278H8.97795C8.85589 0.918272 8.73539 0.94577 8.62542 0.99873C8.51545 1.05169 8.41882 1.12875 8.34272 1.22418L7.13875 2.73391L5.39899 3.57175C5.28901 3.62472 5.19239 3.70177 5.11628 3.7972C5.04017 3.89263 4.98654 4.00398 4.95937 4.12298L4.52966 6.00559L3.32569 7.51527C3.24958 7.61071 3.19595 7.72207 3.1688 7.84108C3.14164 7.96009 3.14165 8.08369 3.16883 8.2027L3.59849 10.0853L3.16883 11.9679C3.14166 12.0869 3.14166 12.2105 3.16882 12.3295C3.19597 12.4485 3.24959 12.5598 3.32569 12.6552L4.52966 14.165L4.95937 16.0476C4.98654 16.1666 5.04016 16.2779 5.11627 16.3734C5.19238 16.4688 5.28901 16.5459 5.39899 16.5988L7.13875 17.4367L8.34272 18.9464C8.41883 19.0418 8.51546 19.1189 8.62543 19.1718C8.7354 19.2248 8.85589 19.2523 8.97795 19.2523H10.909L12.6487 20.0901C12.7587 20.1431 12.8792 20.1706 13.0012 20.1706C13.1233 20.1706 13.2438 20.1431 13.3538 20.0901L15.0935 19.2523H17.0245L17.0246 19.2524ZM13.0013 17.1947C9.08119 17.1947 5.89192 14.0055 5.89192 10.0854C5.89192 6.16525 9.08119 2.97599 13.0013 2.97599C16.9214 2.97599 20.1107 6.16525 20.1107 10.0854C20.1107 14.0055 16.9214 17.1947 13.0013 17.1947Z" fill="#FED338"/>
<path d="M13 3.78857C9.52788 3.78857 6.70312 6.61333 6.70312 10.0854C6.70312 13.5576 9.52788 16.3823 13 16.3823C16.4721 16.3823 19.2969 13.5576 19.2969 10.0854C19.2969 6.61333 16.4721 3.78857 13 3.78857ZM13.1682 11.9496C13.0928 12.0252 13.0032 12.0851 12.9046 12.1259C12.806 12.1668 12.7003 12.1877 12.5935 12.1876C12.4091 12.1878 12.2301 12.125 12.0862 12.0096L10.0549 10.3846L11.0701 9.11573L12.5334 10.2864L14.863 7.9569L16.012 9.10593L13.1682 11.9497V11.9496Z" fill="white"/>
</g>
<defs>
<clipPath id="clip0_273_14436">
<rect width="26" height="26" fill="white"/>
</clipPath>
</defs>
</svg>
