<svg width="26" height="26" viewBox="0 0 26 26" fill="none" xmlns="http://www.w3.org/2000/svg">
<path d="M22.2916 3H15.1912C14.7215 3 14.065 3.27211 13.7331 3.60373L3.99852 13.3383C3.33383 14.0023 3.33383 15.0908 3.99852 15.7539L11.2467 23.0019C11.9099 23.6659 12.9974 23.6659 13.6616 23.0012L23.3963 13.2681C23.7278 12.9365 24 12.279 24 11.8103V4.7084C24 3.76899 23.2309 3 22.2916 3ZM18.8747 9.83337C17.9312 9.83337 17.1663 9.06767 17.1663 8.12496C17.1663 7.1807 17.9312 6.41656 18.8747 6.41656C19.8182 6.41656 20.5834 7.1807 20.5834 8.12496C20.5834 9.06767 19.8182 9.83337 18.8747 9.83337Z" fill="black"/>
</svg>
