<svg width="19" height="17" viewBox="0 0 19 17" fill="none" xmlns="http://www.w3.org/2000/svg">
<path d="M13.142 15.2428H11.7989L11.0326 13.8415V11.6143H8.91895V13.8415L8.15261 15.2428H6.80957C6.51834 15.2428 6.28223 15.4789 6.28223 15.7701C6.28223 16.0613 6.51834 16.2975 6.80957 16.2975H13.142C13.4332 16.2975 13.6693 16.0613 13.6693 15.7701C13.6693 15.4789 13.4332 15.2428 13.142 15.2428Z" fill="black"/>
<path d="M18.4282 11.2797L13.8147 8.48535C13.768 8.45708 13.7191 8.43311 13.6691 8.41163V2.1915C13.6691 1.73851 13.5346 1.30398 13.2802 0.934808C12.6375 0.00218285 11.3538 -0.276958 10.3578 0.29957L9.74261 0.655562C9.13469 0.194206 8.26443 0.240507 7.70966 0.795308L7.00211 1.50286C6.8432 1.66177 6.8432 1.91939 7.00211 2.0783L8.987 4.06319C9.1459 4.22209 9.40353 4.22209 9.56243 4.06319L10.27 3.35563C10.7897 2.83592 10.8631 2.03942 10.4911 1.44099L10.8861 1.2124C11.4091 0.909812 12.0792 1.05072 12.4118 1.53331C12.5444 1.72568 12.6144 1.95328 12.6144 2.19154V8.3102H7.79801C7.37673 8.3102 6.98748 8.09561 6.77697 7.74732L3.17658 1.79051C2.85082 1.25157 2.12868 1.06731 1.56463 1.37922L1.56368 1.37975C1.00108 1.69084 0.808597 2.37797 1.13351 2.91555L5.41364 9.99693C5.62416 10.3452 6.01341 10.5598 6.43469 10.5598H12.4971C12.7207 10.5598 12.9398 10.6206 13.1286 10.735L17.165 13.1798C17.7144 13.5125 18.4422 13.3575 18.7913 12.8335C19.1409 12.3088 18.9783 11.6129 18.4282 11.2797ZM12.6171 8.3102C12.6175 8.30739 12.6178 8.30683 12.6182 8.3102H12.6171Z" fill="black"/>
</svg>
