<svg width="62" height="62" viewBox="0 0 62 62" fill="none" xmlns="http://www.w3.org/2000/svg">
<mask id="mask0_613_1340" style="mask-type:luminance" maskUnits="userSpaceOnUse" x="3" y="3" width="56" height="56">
<path d="M3.38672 3.38672H58.4182V58.4182H3.38672V3.38672Z" fill="white"/>
</mask>
<g mask="url(#mask0_613_1340)">
<path fill-rule="evenodd" clip-rule="evenodd" d="M30.8605 3.38672C32.6968 3.38672 34.3178 5.28547 36.0508 5.63852C37.7817 5.99373 39.9624 4.87214 41.5555 5.54596C43.1464 6.21977 43.8374 8.55554 45.2539 9.51137C46.6705 10.4694 49.0837 10.2282 50.2871 11.4338C51.4905 12.6372 51.2516 15.0505 52.2096 16.467C53.1654 17.8835 55.5012 18.5746 56.175 20.1655C56.8488 21.7585 55.7272 23.9393 56.0824 25.6701C56.4355 27.4031 58.3342 29.0241 58.3342 30.8605C58.3342 32.6968 56.4355 34.3178 56.0824 36.0508C55.7272 37.7817 56.8488 39.9624 56.175 41.5555C55.5012 43.1464 53.1654 43.8374 52.2096 45.2539C51.2516 46.6705 51.4905 49.0837 50.2871 50.2871C49.0837 51.4905 46.6705 51.2516 45.2539 52.2096C43.8374 53.1654 43.1464 55.5012 41.5555 56.175C39.9624 56.8488 37.7817 55.7272 36.0508 56.0824C34.3178 56.4376 32.6968 58.3342 30.8605 58.3342C29.0241 58.3342 27.4031 56.4376 25.6701 56.0824C23.9393 55.7272 21.7585 56.8488 20.1655 56.175C18.5746 55.5012 17.8835 53.1654 16.467 52.2096C15.0505 51.2516 12.6372 51.4905 11.4338 50.2871C10.2282 49.0837 10.4694 46.6705 9.51137 45.2539C8.55554 43.8374 6.21977 43.1464 5.54596 41.5555C4.87214 39.9624 5.99373 37.7817 5.63852 36.0508C5.28332 34.3178 3.38672 32.6968 3.38672 30.8605C3.38672 29.0241 5.28332 27.4031 5.63852 25.6701C5.99373 23.9393 4.87214 21.7585 5.54596 20.1655C6.21977 18.5746 8.55554 17.8835 9.51137 16.467C10.4694 15.0505 10.2282 12.6372 11.4338 11.4338C12.6372 10.2282 15.0505 10.4694 16.467 9.51137C17.8835 8.55554 18.5746 6.21977 20.1655 5.54596C21.7585 4.87214 23.9393 5.99373 25.6701 5.63852C27.4031 5.28547 29.0241 3.38672 30.8605 3.38672Z" fill="#FFDE59"/>
</g>
<path d="M29.7655 38.1287C29.7655 38.1287 29.2811 39.5711 26.3469 39.8811C23.4148 40.1933 22.1641 39.5711 22.1641 39.5711C22.1641 39.5711 24.1188 38.0534 25.996 37.9759C27.8732 37.8984 29.7655 38.1287 29.7655 38.1287Z" fill="black"/>
<path d="M29.7667 38.1286C29.7667 38.1286 29.9884 36.6216 27.5601 34.9576C25.1317 33.2935 23.7324 33.2461 23.7324 33.2461C23.7324 33.2461 24.5354 35.302 26.4901 36.5032C28.0875 37.4871 29.7667 38.1286 29.7667 38.1286Z" fill="black"/>
<path d="M26.2894 37.0603C26.2894 37.0603 24.7953 36.3887 22.5371 36.3887C20.2788 36.3887 18.5781 37.5576 18.5781 37.5576C18.5781 37.5576 20.2487 38.2271 22.6533 38.2271C25.058 38.2271 26.2894 37.0603 26.2894 37.0603Z" fill="black"/>
<path d="M23.5265 35.6307C23.5265 35.6307 23.4059 34.0032 22.3274 32.0291C21.251 30.055 19.4082 29.125 19.4082 29.125C19.4082 29.125 19.6127 30.9075 20.7601 33.0086C21.9097 35.1119 23.5265 35.6307 23.5265 35.6307Z" fill="black"/>
<path d="M22.3995 35.4291C22.3995 35.4291 21.1036 34.4281 18.9077 33.9028C16.7119 33.3754 14.7852 34.1138 14.7852 34.1138C14.7852 34.1138 16.2512 35.1557 18.5891 35.7176C20.927 36.2773 22.3995 35.4291 22.3995 35.4291Z" fill="black"/>
<path d="M20.4555 33.6935C20.4555 33.6935 19.6482 32.2727 17.8291 30.9423C16.0079 29.614 13.9434 29.5537 13.9434 29.5537C13.9434 29.5537 14.8927 31.0779 16.8302 32.4944C18.7677 33.9088 20.4555 33.6935 20.4555 33.6935Z" fill="black"/>
<path d="M18.527 30.7703C18.527 30.7703 19.0738 29.315 18.9296 27.1838C18.7875 25.0504 17.5669 23.5176 17.5669 23.5176C17.5669 23.5176 17.0308 25.1386 17.1837 27.4098C17.3365 29.681 18.527 30.7703 18.527 30.7703Z" fill="black"/>
<mask id="mask1_613_1340" style="mask-type:luminance" maskUnits="userSpaceOnUse" x="11" y="24" width="7" height="6">
<path d="M11.7422 24.7998H17.0854V29.7598H11.7422V24.7998Z" fill="white"/>
</mask>
<g mask="url(#mask1_613_1340)">
<path d="M16.9949 29.392C16.9949 29.392 16.4352 28.0981 14.9928 26.7893C13.5526 25.4804 11.7852 25.2393 11.7852 25.2393C11.7852 25.2393 12.459 26.6364 13.9918 28.0293C15.5267 29.4221 16.9949 29.392 16.9949 29.392Z" fill="black"/>
</g>
<path d="M16.1274 26.5224C16.1274 26.5224 16.0585 25.1145 15.1694 23.3858C14.2825 21.6572 12.7109 20.8154 12.7109 20.8154C12.7109 20.8154 12.8509 22.3568 13.7959 24.1974C14.741 26.0381 16.1274 26.5224 16.1274 26.5224Z" fill="black"/>
<path d="M15.5198 22.3199C15.5198 22.3199 15.6425 20.9142 14.9967 19.0843C14.3487 17.2523 12.9085 16.2061 12.9085 16.2061C12.9085 16.2061 12.8353 17.7539 13.5242 19.7043C14.2109 21.6547 15.5198 22.3199 15.5198 22.3199Z" fill="black"/>
<path d="M16.1049 19.5495C16.1049 19.5495 16.7529 18.2966 16.854 16.357C16.9531 14.4195 16.0166 12.9082 16.0166 12.9082C16.0166 12.9082 15.36 14.3118 15.2545 16.3763C15.1469 18.4408 16.1049 19.5495 16.1049 19.5495Z" fill="black"/>
<path d="M17.7013 16.2175C17.7013 16.2175 18.5452 15.0852 18.9607 13.1886C19.3762 11.2941 18.7002 9.64941 18.7002 9.64941C18.7002 9.64941 17.8219 10.9303 17.3806 12.9496C16.9371 14.9689 17.7013 16.2175 17.7013 16.2175Z" fill="black"/>
<path d="M16.1997 24.7139C16.1997 24.7139 17.2567 23.7753 18.0446 21.9993C18.8325 20.2232 18.501 18.4795 18.501 18.4795C18.501 18.4795 17.3837 19.558 16.5441 21.4482C15.7046 23.3383 16.1997 24.7139 16.1997 24.7139Z" fill="black"/>
<path d="M17.3672 18.3703C17.3672 18.3703 18.717 17.9398 20.1636 16.6374C21.6103 15.3371 22.0215 13.6084 22.0215 13.6084C22.0215 13.6084 20.5598 14.1423 19.0184 15.5287C17.477 16.9129 17.3672 18.3703 17.3672 18.3703Z" fill="black"/>
<mask id="mask2_613_1340" style="mask-type:luminance" maskUnits="userSpaceOnUse" x="19" y="9" width="5" height="6">
<path d="M19.2891 9.125H23.698V14.8815H19.2891V9.125Z" fill="white"/>
</mask>
<g mask="url(#mask2_613_1340)">
<path d="M19.3607 14.4889C19.3607 14.4889 20.6373 13.8754 21.8903 12.3878C23.1432 10.9002 23.3111 9.13281 23.3111 9.13281C23.3111 9.13281 21.9376 9.86045 20.6029 11.4449C19.2682 13.0293 19.3607 14.4889 19.3607 14.4889Z" fill="black"/>
</g>
<path d="M29.9714 39.041C29.9714 40.9936 26.7422 43.1184 26.7422 42.0807C26.7422 41.0431 29.9714 39.7321 29.9714 39.041Z" fill="black"/>
<path d="M31.8398 39.041C31.8398 40.9936 35.069 43.1184 35.069 42.0807C35.069 41.0431 31.8398 39.7321 31.8398 39.041Z" fill="black"/>
<path d="M32.0449 38.1287C32.0449 38.1287 32.5293 39.5711 35.4635 39.8811C38.3956 40.1933 39.6464 39.5711 39.6464 39.5711C39.6464 39.5711 37.6917 38.0534 35.8144 37.9759C33.9372 37.8984 32.0449 38.1287 32.0449 38.1287Z" fill="black"/>
<path d="M32.0444 38.1286C32.0444 38.1286 31.8226 36.6216 34.2509 34.9576C36.6793 33.2935 38.0786 33.2461 38.0786 33.2461C38.0786 33.2461 37.2756 35.302 35.3209 36.5032C33.7235 37.4871 32.0444 38.1286 32.0444 38.1286Z" fill="black"/>
<path d="M35.5215 37.0603C35.5215 37.0603 37.0155 36.3887 39.2738 36.3887C41.532 36.3887 43.2327 37.5576 43.2327 37.5576C43.2327 37.5576 41.5622 38.2271 39.1575 38.2271C36.7529 38.2271 35.5215 37.0603 35.5215 37.0603Z" fill="black"/>
<path d="M38.2852 35.6307C38.2852 35.6307 38.4057 34.0032 39.4843 32.0291C40.5606 30.055 42.4034 29.125 42.4034 29.125C42.4034 29.125 42.1989 30.9075 41.0515 33.0086C39.904 35.1119 38.2852 35.6307 38.2852 35.6307Z" fill="black"/>
<path d="M39.4121 35.4291C39.4121 35.4291 40.7059 34.4281 42.9018 33.9028C45.0976 33.3754 47.0243 34.1138 47.0243 34.1138C47.0243 34.1138 45.5583 35.1557 43.2204 35.7176C40.8825 36.2773 39.4121 35.4291 39.4121 35.4291Z" fill="black"/>
<path d="M41.3555 33.6935C41.3555 33.6935 42.1628 32.2727 43.9819 30.9423C45.8031 29.614 47.8676 29.5537 47.8676 29.5537C47.8676 29.5537 46.9182 31.0779 44.9807 32.4944C43.0432 33.9088 41.3555 33.6935 41.3555 33.6935Z" fill="black"/>
<path d="M43.2842 30.7703C43.2842 30.7703 42.7374 29.315 42.8817 27.1838C43.0237 25.0504 44.2444 23.5176 44.2444 23.5176C44.2444 23.5176 44.7804 25.1386 44.6276 27.4098C44.4747 29.681 43.2842 30.7703 43.2842 30.7703Z" fill="black"/>
<mask id="mask3_613_1340" style="mask-type:luminance" maskUnits="userSpaceOnUse" x="44" y="24" width="7" height="6">
<path d="M44.6406 24.7998H50.085V29.7598H44.6406V24.7998Z" fill="white"/>
</mask>
<g mask="url(#mask3_613_1340)">
<path d="M44.8164 29.392C44.8164 29.392 45.3761 28.0981 46.8185 26.7893C48.2587 25.4804 50.0261 25.2393 50.0261 25.2393C50.0261 25.2393 49.3523 26.6364 47.8195 28.0293C46.2846 29.4221 44.8164 29.392 44.8164 29.392Z" fill="black"/>
</g>
<path d="M45.6836 26.5224C45.6836 26.5224 45.7525 25.1145 46.6394 23.3858C47.5285 21.6572 49.0979 20.8154 49.0979 20.8154C49.0979 20.8154 48.9601 22.3568 48.0151 24.1974C47.07 26.0381 45.6836 26.5224 45.6836 26.5224Z" fill="black"/>
<path d="M46.2906 22.3199C46.2906 22.3199 46.1678 20.9142 46.8137 19.0843C47.4595 17.2523 48.9019 16.2061 48.9019 16.2061C48.9019 16.2061 48.9751 17.7539 48.2862 19.7043C47.5973 21.6547 46.2906 22.3199 46.2906 22.3199Z" fill="black"/>
<path d="M45.7057 19.5495C45.7057 19.5495 45.0577 18.2966 44.9566 16.357C44.8575 14.4195 45.794 12.9082 45.794 12.9082C45.794 12.9082 46.4506 14.3118 46.5561 16.3763C46.6637 18.4408 45.7057 19.5495 45.7057 19.5495Z" fill="black"/>
<path d="M44.1073 16.2175C44.1073 16.2175 43.2634 15.0852 42.8479 13.1886C42.4324 11.2941 43.1084 9.64941 43.1084 9.64941C43.1084 9.64941 43.9867 10.9303 44.4281 12.9496C44.8715 14.9689 44.1073 16.2175 44.1073 16.2175Z" fill="black"/>
<path d="M45.6115 24.7139C45.6115 24.7139 44.5545 23.7753 43.7666 21.9993C42.9765 20.2232 43.3102 18.4795 43.3102 18.4795C43.3102 18.4795 44.4275 19.558 45.2671 21.4482C46.1067 23.3383 45.6115 24.7139 45.6115 24.7139Z" fill="black"/>
<path d="M44.4434 18.3703C44.4434 18.3703 43.0936 17.9398 41.6469 16.6374C40.2002 15.3371 39.7891 13.6084 39.7891 13.6084C39.7891 13.6084 41.2508 14.1423 42.7922 15.5287C44.3336 16.9129 44.4434 18.3703 44.4434 18.3703Z" fill="black"/>
<mask id="mask4_613_1340" style="mask-type:luminance" maskUnits="userSpaceOnUse" x="38" y="9" width="5" height="6">
<path d="M38.0273 9.125H42.9873V14.8815H38.0273V9.125Z" fill="white"/>
</mask>
<g mask="url(#mask4_613_1340)">
<path d="M42.4503 14.4889C42.4503 14.4889 41.1738 13.8754 39.9208 12.3878C38.6679 10.9002 38.5 9.13281 38.5 9.13281C38.5 9.13281 39.8735 9.86045 41.2082 11.4449C42.5429 13.0293 42.4503 14.4889 42.4503 14.4889Z" fill="black"/>
</g>
<mask id="mask5_613_1340" style="mask-type:luminance" maskUnits="userSpaceOnUse" x="22" y="16" width="18" height="18">
<path d="M22.6836 16.7793H39.0232V33.1189H22.6836V16.7793Z" fill="white"/>
</mask>
<g mask="url(#mask5_613_1340)">
<path d="M39.0404 24.9577C39.0404 25.4937 38.9887 26.0255 38.8832 26.5529C38.7778 27.0803 38.6228 27.5905 38.4182 28.0878C38.2116 28.583 37.9597 29.0544 37.6626 29.5022C37.3634 29.9478 37.0254 30.3612 36.6444 30.7401C36.2655 31.1211 35.8521 31.4591 35.4065 31.7583C34.9587 32.0554 34.4873 32.3073 33.9921 32.5139C33.4948 32.7185 32.9846 32.8735 32.4572 32.9789C31.9319 33.0844 31.398 33.1361 30.862 33.1361C30.326 33.1361 29.7942 33.0844 29.2668 32.9789C28.7394 32.8735 28.2291 32.7185 27.7319 32.5139C27.2367 32.3073 26.7653 32.0554 26.3175 31.7583C25.8719 31.4591 25.4585 31.1211 25.0796 30.7401C24.6986 30.3612 24.3606 29.9478 24.0614 29.5022C23.7643 29.0544 23.5124 28.583 23.3057 28.0878C23.1012 27.5905 22.9462 27.0803 22.8407 26.5529C22.7353 26.0255 22.6836 25.4937 22.6836 24.9577C22.6836 24.4195 22.7353 23.8878 22.8407 23.3625C22.9462 22.8351 23.1012 22.3249 23.3057 21.8276C23.5124 21.3324 23.7643 20.861 24.0614 20.4132C24.3606 19.9676 24.6986 19.5542 25.0796 19.1753C25.4585 18.7943 25.8719 18.4563 26.3175 18.1571C26.7653 17.86 27.2367 17.6081 27.7319 17.4014C28.2291 17.1969 28.7394 17.0419 29.2668 16.9364C29.7942 16.831 30.326 16.7793 30.862 16.7793C31.398 16.7793 31.9319 16.831 32.4572 16.9364C32.9846 17.0419 33.4948 17.1969 33.9921 17.4014C34.4873 17.6081 34.9587 17.86 35.4065 18.1571C35.8521 18.4563 36.2655 18.7943 36.6444 19.1753C37.0254 19.5542 37.3634 19.9676 37.6626 20.4132C37.9597 20.861 38.2116 21.3324 38.4182 21.8276C38.6228 22.3249 38.7778 22.8351 38.8832 23.3625C38.9887 23.8878 39.0404 24.4195 39.0404 24.9577Z" fill="black"/>
</g>
<mask id="mask6_613_1340" style="mask-type:luminance" maskUnits="userSpaceOnUse" x="26" y="19" width="10" height="12">
<path d="M26.6504 19.3574H35.1474V30.4679H26.6504V19.3574Z" fill="white"/>
</mask>
<g mask="url(#mask6_613_1340)">
<path d="M34.642 20.1048C34.19 19.4676 33.4214 19.2631 32.683 19.4504C32.4398 19.5107 32.2008 19.5817 31.9661 19.6614C31.598 19.7905 31.2299 19.853 30.8639 19.853C30.4958 19.853 30.1298 19.7905 29.7617 19.6614C29.527 19.5817 29.2838 19.5064 29.0448 19.4504C28.3064 19.2631 27.5357 19.4676 27.0836 20.1048C26.61 20.7679 26.5454 21.7151 26.7973 22.4772C27.1676 23.5837 27.7488 24.5611 27.6778 25.7731C27.6025 27.1358 27.6455 29.0044 28.4463 30.1755C28.7133 30.5652 29.23 30.7159 29.4732 30.2078C29.7789 29.5555 29.6993 28.8537 29.6196 28.1541C29.54 27.4501 29.4646 26.7418 29.7875 26.0917C30.0093 25.6482 30.3688 25.433 30.8639 25.433C31.3591 25.433 31.7164 25.6482 31.9382 26.0917C32.2611 26.7462 32.1857 27.4501 32.1061 28.1541C32.0264 28.8537 31.9468 29.5555 32.2525 30.2078C32.4914 30.7159 33.0145 30.5652 33.2793 30.1755C34.0802 29.0044 34.1297 27.1358 34.05 25.7731C33.979 24.5611 34.5624 23.588 34.9305 22.4772C35.1824 21.7151 35.1157 20.7679 34.642 20.1048Z" fill="white"/>
</g>
<mask id="mask7_613_1340" style="mask-type:luminance" maskUnits="userSpaceOnUse" x="32" y="21" width="2" height="2">
<path d="M32.5215 21.5195H33.3934V22.3893H32.5215V21.5195Z" fill="white"/>
</mask>
<g mask="url(#mask7_613_1340)">
<path d="M33.3934 21.9544C33.3934 22.0749 33.3503 22.1783 33.2663 22.2622C33.1802 22.3484 33.0791 22.3893 32.9585 22.3893C32.8379 22.3893 32.7346 22.3484 32.6507 22.2622C32.5645 22.1783 32.5215 22.0749 32.5215 21.9544C32.5215 21.8338 32.5645 21.7305 32.6507 21.6465C32.7346 21.5604 32.8379 21.5195 32.9585 21.5195C33.0791 21.5195 33.1802 21.5604 33.2663 21.6465C33.3503 21.7305 33.3934 21.8338 33.3934 21.9544Z" fill="black"/>
</g>
<path d="M32.2267 22.8869C31.1891 23.7738 30.16 23.7437 29.1418 22.7986" stroke="black" stroke-width="0.440277" stroke-linecap="round"/>
<mask id="mask8_613_1340" style="mask-type:luminance" maskUnits="userSpaceOnUse" x="28" y="21" width="1" height="2">
<path d="M28.0527 21.5195H28.9225V22.3893H28.0527V21.5195Z" fill="white"/>
</mask>
<g mask="url(#mask8_613_1340)">
<path d="M28.9225 21.9544C28.9225 22.0749 28.8816 22.1783 28.7954 22.2622C28.7115 22.3484 28.6082 22.3893 28.4876 22.3893C28.367 22.3893 28.2637 22.3484 28.1797 22.2622C28.0936 22.1783 28.0527 22.0749 28.0527 21.9544C28.0527 21.8338 28.0936 21.7305 28.1797 21.6465C28.2637 21.5604 28.367 21.5195 28.4876 21.5195C28.6082 21.5195 28.7115 21.5604 28.7954 21.6465C28.8816 21.7305 28.9225 21.8338 28.9225 21.9544Z" fill="black"/>
</g>
<path d="M26.5195 10.2593V9.33789H29.7487V10.2593H28.6637V13.9362H27.6131V10.2593H26.5195Z" fill="black"/>
<path d="M31.823 9.2627C32.0684 9.2627 32.3095 9.30145 32.5463 9.37464C32.7874 9.44353 32.964 9.51242 33.0802 9.58131L33.2438 9.69325L32.8219 10.5285C32.7874 10.507 32.7379 10.4769 32.6755 10.4424C32.6174 10.408 32.5076 10.3628 32.3483 10.3046C32.1868 10.2422 32.034 10.2099 31.8919 10.2099C31.7196 10.2099 31.584 10.2487 31.4871 10.3219C31.3946 10.3972 31.3494 10.4984 31.3494 10.6233C31.3494 10.6878 31.3687 10.7481 31.4096 10.8041C31.4549 10.8558 31.5324 10.9139 31.6421 10.9763C31.7498 11.0344 31.8445 11.0839 31.9263 11.1227C32.006 11.1571 32.133 11.2131 32.3052 11.2863C32.6023 11.4133 32.8563 11.5855 33.063 11.803C33.274 12.0226 33.3816 12.268 33.3816 12.5435C33.3816 12.8083 33.3321 13.0387 33.2352 13.2324C33.1426 13.4283 33.0135 13.5833 32.8477 13.6974C32.6798 13.8072 32.4968 13.8869 32.2966 13.9385C32.0942 13.9945 31.8768 14.0246 31.6421 14.0246C31.4462 14.0246 31.2503 14.001 31.0566 13.9558C30.8607 13.917 30.6971 13.8675 30.5658 13.8094C30.4387 13.7469 30.3246 13.6867 30.2213 13.6285C30.118 13.5661 30.0405 13.5144 29.9888 13.4735L29.9199 13.4133L30.4452 12.5349C30.4839 12.5694 30.5442 12.6167 30.626 12.6727C30.7057 12.7308 30.8435 12.8083 31.0394 12.9052C31.2396 13.0042 31.4139 13.0516 31.5646 13.0516C32.006 13.0516 32.2277 12.903 32.2277 12.6038C32.2277 12.5414 32.2105 12.4833 32.176 12.4316C32.1459 12.3756 32.0921 12.3196 32.0124 12.268C31.9371 12.212 31.8682 12.1689 31.8058 12.1388C31.7412 12.1044 31.6421 12.057 31.5044 11.9924C31.3666 11.93 31.2633 11.8805 31.1944 11.846C30.9188 11.7083 30.7035 11.536 30.5485 11.3294C30.3935 11.1227 30.316 10.9031 30.316 10.6663C30.316 10.253 30.4667 9.91714 30.7724 9.65881C31.0824 9.39617 31.4312 9.2627 31.823 9.2627Z" fill="black"/>
<path d="M34.9091 9.33789V13.9362H33.8672V9.33789H34.9091Z" fill="black"/>
<path d="M24.3477 45.7429C24.3477 44.9572 24.6103 44.2941 25.1399 43.7538C25.6738 43.2156 26.3153 42.9443 27.0688 42.9443C27.8265 42.9443 28.4681 43.2156 28.9977 43.7538C29.5251 44.2941 29.7899 44.9572 29.7899 45.7429C29.7899 46.5309 29.5272 47.1939 29.0063 47.7321C28.4896 48.2725 27.8438 48.5416 27.0688 48.5416C26.2765 48.5416 25.6243 48.2746 25.114 47.7407C24.6017 47.2068 24.3477 46.5416 24.3477 45.7429ZM25.6738 45.7429C25.6738 46.025 25.7168 46.2833 25.8029 46.5179C25.889 46.7548 26.0397 46.9528 26.2593 47.1121C26.4832 47.2736 26.7523 47.3532 27.0688 47.3532C27.5273 47.3532 27.8718 47.1961 28.1021 46.8796C28.3368 46.5653 28.4552 46.1864 28.4552 45.7429C28.4552 45.3016 28.3346 44.9227 28.0935 44.6063C27.8567 44.2855 27.5165 44.1241 27.0688 44.1241C26.621 44.1241 26.2765 44.2855 26.0354 44.6063C25.7943 44.9227 25.6738 45.3016 25.6738 45.7429Z" fill="black"/>
<path d="M30.3301 48.449V45.0906H31.484V45.5729H31.5012C31.5055 45.5556 31.5184 45.5363 31.5356 45.5126C31.5572 45.4846 31.6002 45.4394 31.6648 45.3748C31.7337 45.3059 31.8047 45.2456 31.8801 45.194C31.9533 45.1423 32.048 45.0971 32.1642 45.0562C32.2848 45.011 32.4054 44.9873 32.5259 44.9873C32.6508 44.9873 32.7756 45.0045 32.8962 45.039C33.0211 45.0734 33.1136 45.1079 33.1717 45.1423L33.2665 45.2026L32.7756 46.1842C32.6314 46.0594 32.4312 45.9948 32.1729 45.9948C32.0351 45.9948 31.9145 46.0271 31.8112 46.0895C31.7122 46.1541 31.6411 46.2273 31.5959 46.3134C31.555 46.3995 31.527 46.4749 31.5098 46.5373C31.4926 46.5954 31.484 46.6449 31.484 46.6837V48.449H30.3301Z" fill="black"/>
<path d="M33.9113 48.0529C33.5367 47.7213 33.3516 47.2951 33.3516 46.7784C33.3516 46.2574 33.5432 45.829 33.9285 45.4954C34.3182 45.1574 34.8004 44.9873 35.3752 44.9873C35.9371 44.9873 36.4107 45.1574 36.796 45.4954C37.1857 45.829 37.3816 46.2531 37.3816 46.7698C37.3816 47.2865 37.1921 47.7127 36.8132 48.0442C36.4343 48.3779 35.9543 48.5437 35.3752 48.5437C34.7724 48.5437 34.2837 48.3801 33.9113 48.0529ZM34.8068 46.2015C34.6561 46.3522 34.583 46.5438 34.583 46.7784C34.583 47.0088 34.654 47.1982 34.7982 47.3467C34.9403 47.491 35.1298 47.562 35.3666 47.562C35.5905 47.562 35.7734 47.4888 35.9177 47.3381C36.0662 47.1896 36.1416 47.0002 36.1416 46.7698C36.1416 46.5416 36.0662 46.3522 35.9177 46.2015C35.767 46.0529 35.584 45.9776 35.3666 45.9776C35.1427 45.9776 34.9554 46.0529 34.8068 46.2015Z" fill="black"/>
<path d="M26.3008 53.2568L27.4654 52.2299C27.5817 52.1287 27.6743 52.0254 27.741 51.9221C27.8077 51.8166 27.84 51.709 27.84 51.5949C27.84 51.4829 27.8163 51.3817 27.7668 51.2978C27.7173 51.2117 27.6506 51.1449 27.5645 51.0997C27.4805 51.0524 27.3858 51.0308 27.2803 51.0308C27.1404 51.0308 27.0155 51.0696 26.9079 51.1514C26.8002 51.2332 26.7249 51.3322 26.6818 51.4463L26.3352 51.3258C26.3718 51.2009 26.4386 51.089 26.5311 50.9856C26.6259 50.8844 26.7356 50.8026 26.8648 50.7445C26.994 50.6842 27.1296 50.6562 27.2717 50.6562C27.4482 50.6562 27.6075 50.6928 27.7518 50.7703C27.896 50.8478 28.0101 50.9576 28.0919 51.0997C28.1737 51.2418 28.2146 51.4054 28.2146 51.5927C28.2146 51.7542 28.1715 51.907 28.0833 52.0512C27.9972 52.1933 27.8766 52.3333 27.7216 52.471L26.8993 53.1599H28.2856V53.513H26.3008V53.2568Z" fill="black"/>
<path d="M29.7639 53.5635C29.5508 53.5635 29.3614 53.5053 29.1956 53.3891C29.0298 53.2728 28.9007 53.1049 28.8081 52.8853C28.7134 52.6679 28.666 52.4096 28.666 52.1125C28.666 51.8154 28.7134 51.5571 28.8081 51.3396C28.9007 51.1222 29.0298 50.9564 29.1956 50.8402C29.3614 50.7261 29.5508 50.668 29.7639 50.668C29.9749 50.668 30.1643 50.7261 30.3301 50.8402C30.4959 50.9564 30.625 51.1222 30.7176 51.3396C30.8123 51.5571 30.8575 51.8154 30.8575 52.1125C30.8575 52.4096 30.8123 52.6679 30.7176 52.8853C30.625 53.1049 30.4937 53.2728 30.328 53.3891C30.1622 53.5053 29.9749 53.5635 29.7639 53.5635ZM29.7661 53.1867C29.8996 53.1867 30.0201 53.148 30.1278 53.0683C30.2332 52.9908 30.3193 52.8703 30.3818 52.7067C30.4464 52.5452 30.4787 52.3428 30.4787 52.1039C30.4787 51.8735 30.4464 51.6776 30.3818 51.5183C30.3193 51.359 30.2332 51.2406 30.1256 51.1631C30.018 51.0835 29.8996 51.0447 29.7661 51.0447C29.6305 51.0447 29.5078 51.0835 29.4001 51.1631C29.2903 51.2406 29.2064 51.359 29.1418 51.5183C29.0793 51.6776 29.0471 51.8735 29.0471 52.1039C29.0471 52.3428 29.0793 52.5452 29.1418 52.7067C29.2042 52.8703 29.2903 52.9908 29.398 53.0683C29.5078 53.148 29.6305 53.1867 29.7661 53.1867Z" fill="black"/>
<path d="M31.1504 53.2568L32.315 52.2299C32.4313 52.1287 32.5239 52.0254 32.5906 51.9221C32.6573 51.8166 32.6896 51.709 32.6896 51.5949C32.6896 51.4829 32.6659 51.3817 32.6164 51.2978C32.5669 51.2117 32.5002 51.1449 32.4141 51.0997C32.3301 51.0524 32.2354 51.0308 32.1299 51.0308C31.99 51.0308 31.8651 51.0696 31.7575 51.1514C31.6498 51.2332 31.5745 51.3322 31.5314 51.4463L31.1848 51.3258C31.2214 51.2009 31.2882 51.089 31.3807 50.9856C31.4755 50.8844 31.5853 50.8026 31.7144 50.7445C31.8436 50.6842 31.9792 50.6562 32.1213 50.6562C32.2978 50.6562 32.4571 50.6928 32.6014 50.7703C32.7456 50.8478 32.8597 50.9576 32.9415 51.0997C33.0233 51.2418 33.0642 51.4054 33.0642 51.5927C33.0642 51.7542 33.0212 51.907 32.9329 52.0512C32.8468 52.1933 32.7262 52.3333 32.5712 52.471L31.7489 53.1599H33.1353V53.513H31.1504V53.2568Z" fill="black"/>
<path d="M34.866 52.8379H33.4258V52.502L34.81 50.7109H35.2406V52.4698H35.4709V52.8379H35.2406V53.5139H34.866V52.8379ZM34.866 52.4698V51.2384L33.8563 52.4698H34.866Z" fill="black"/>
</svg>
