<svg width="24" height="23" viewBox="0 0 24 23" fill="none" xmlns="http://www.w3.org/2000/svg">
<path d="M13.6273 19.3516L13.6273 19.3516L8.74577 11.8056V5.74969C8.74577 5.42983 8.48645 5.17051 8.16659 5.17051H5.77077C5.45091 5.17051 5.19159 5.42983 5.19159 5.74969V11.8213L0.74008 19.3888C0.740078 19.3888 0.740076 19.3888 0.740074 19.3888C0.517417 19.7672 0.400004 20.1983 0.4 20.6374C0.399953 21.9972 1.50237 23.0996 2.86221 23.0997H11.5878C12.0556 23.0996 12.5133 22.9644 12.906 22.7106L12.8518 22.6266L12.9061 22.7105C14.0328 21.9822 14.3557 20.4784 13.6273 19.3516ZM11.5878 22.0414H2.86222L12.7379 19.9263C12.8814 20.148 12.9577 20.4064 12.9578 20.6705C12.958 21.4273 12.3447 22.0411 11.5878 22.0414ZM11.5878 21.9414C11.5878 21.9414 11.5878 21.9414 11.5878 21.9414H2.86222H2.86206C2.62877 21.9417 2.39965 21.8795 2.19859 21.7612L2.14787 21.8474L2.19859 21.7612C1.57793 21.396 1.37086 20.5967 1.73609 19.9761L6.27001 12.2725L6.27003 12.2725C6.32237 12.1835 6.34996 12.0821 6.34996 11.9789C6.34996 11.9789 6.34996 11.9789 6.34996 11.9789V6.32887H7.58745V11.9788C7.58745 11.9788 7.58745 11.9789 7.58745 11.9789C7.58741 12.0904 7.6196 12.1996 7.68014 12.2933L7.68018 12.2934L12.6539 19.9806L12.6539 19.9806C12.7869 20.1862 12.8577 20.4257 12.8578 20.6705C12.858 21.3721 12.2895 21.9411 11.5878 21.9414Z" fill="black" stroke="black" stroke-width="0.2"/>
<path d="M7.48841 13.9812L7.53914 13.895L2.92103 21.083V21.183H2.92113H6.24979H6.34979V21.083V20.1247V20.0247H6.24979H3.93301L7.48841 13.9812ZM22.3432 10.9205H22.3431H14.8748C13.7611 10.9205 12.8582 11.8234 12.8582 12.9372V20.6039V20.604C12.8598 21.9817 13.9762 23.0981 15.3539 23.0997H15.354H19.6665H19.6666C21.0443 23.0981 22.1607 21.9816 22.1623 20.604V20.6039V14.1353L23.2322 13.0659L23.2323 13.0658C23.4673 12.8303 23.5994 12.5111 23.5996 12.1784C23.6 11.4841 23.0375 10.9209 22.3432 10.9205ZM22.4128 12.2469L22.4128 12.2469L21.1737 13.486C21.0651 13.5946 21.004 13.7419 21.004 13.8955V20.6038C21.004 21.3425 20.4052 21.9413 19.6665 21.9413H15.354C14.6153 21.9413 14.0165 21.3425 14.0165 20.6038V12.9372C14.0165 12.4631 14.4008 12.0789 14.8748 12.0789H22.3431H22.3432C22.3627 12.0789 22.3817 12.0846 22.3979 12.0954C22.4141 12.1063 22.4267 12.1216 22.4342 12.1396C22.4416 12.1576 22.4436 12.1774 22.4398 12.1965C22.436 12.2156 22.4266 12.2331 22.4128 12.2469Z" fill="black" stroke="black" stroke-width="0.2"/>
<path d="M10.6622 1.05832V7.43854V7.43861H10.5622L10.6622 1.05832ZM10.6622 1.05832H12.858V7.32694V7.32698C12.8581 7.46176 12.9051 7.59229 12.9911 7.6961C13.077 7.7999 13.1964 7.87049 13.3288 7.89572L10.6622 1.05832ZM19.1872 13.7958H19.0872V13.8958V20.025H17.7497H17.6497V20.125V21.0833V21.1833H17.7497H19.6664C19.9862 21.1833 20.2456 20.924 20.2456 20.6041V13.8958V13.7958H20.1456H19.1872ZM9.50383 0.479182V7.00287L13.3289 7.89573C14.9857 8.21246 16.4754 9.1092 17.5308 10.4251L17.5934 10.5031L17.6714 10.4405L18.4184 9.84052L18.4964 9.77793L18.4338 9.69997C17.3088 8.29804 15.7577 7.30202 14.0163 6.86199V0.479182C14.0163 0.159331 13.7571 -0.1 13.4372 -0.1H10.083C9.76314 -0.1 9.50383 0.159318 9.50383 0.479182Z" fill="black" stroke="black" stroke-width="0.2"/>
</svg>
