<svg width="23" height="23" viewBox="0 0 23 23" fill="none" xmlns="http://www.w3.org/2000/svg">
<path d="M18.0113 6.9335L20.1439 9.77685L18.0113 6.9335ZM18.0113 6.9335C17.9343 6.8309 17.8927 6.70609 17.8928 6.57783M18.0113 6.9335L17.8928 6.57783M17.8928 6.57783V5.53006M17.8928 6.57783V5.53006M17.8928 5.53006H11.6546L11.3389 6.75217H14.7943C15.1216 6.75217 15.387 7.0176 15.387 7.34494C15.387 7.67228 15.1216 7.9377 14.7943 7.9377H10.9833L9.44198 9.7805C9.37346 9.87287 9.32089 9.97676 9.28598 10.0865H20.3026C20.2672 9.9753 20.2137 9.87014 20.144 9.77695L17.8928 5.53006ZM1.92599 14.1151L1.926 14.1151C2.88307 12.4574 4.99943 11.89 6.6574 12.8473L8.04945 13.651V10.4057C8.04945 9.92581 8.20789 9.45048 8.49602 9.0658L8.49609 9.06571L10.5102 6.38026V5.39933C10.0267 5.17505 9.68995 4.68518 9.68995 4.11698V2.23039V2.23036C9.69005 1.45109 10.3237 0.817391 11.103 0.817391H18.4855C19.2648 0.817391 19.8985 1.45109 19.8985 2.23039V4.11702C19.8985 4.68514 19.5617 5.17507 19.0782 5.39937V6.3803L21.0925 9.06591L21.0926 9.06601C21.3806 9.45053 21.5391 9.92582 21.5391 10.4057V18.3488C21.5391 19.5804 20.5374 20.582 19.3058 20.582H12.8164C11.8234 22.1398 9.77677 22.6473 8.16626 21.7174L3.19369 18.8465L3.285 18.6883L3.19368 18.8465C1.55038 17.8975 0.963938 15.7821 1.92599 14.1151ZM18.713 4.11702V4.11702L18.713 2.23039C18.713 2.23039 18.713 2.23038 18.713 2.23038C18.713 2.10506 18.6108 2.00284 18.4855 2.00284H11.1031C10.9778 2.00284 10.8755 2.10508 10.8755 2.23039V4.11702C10.8755 4.24231 10.9777 4.34453 11.1031 4.34453H18.4855C18.6108 4.34453 18.713 4.2423 18.713 4.11702ZM11.63 15.7183L11.63 15.7183C12.1452 16.0159 12.5679 16.4326 12.8684 16.9357H20.3536V11.2719H9.23498V14.3354L11.63 15.7183ZM3.78646 17.8198L5.66421 18.904L7.94245 14.9581L6.06467 13.874C4.97419 13.2445 3.58236 13.6172 2.95267 14.7078C2.32039 15.8035 2.70477 17.1952 3.78646 17.8198ZM8.75895 20.6908L8.66764 20.8489L8.75896 20.6908C9.84861 21.32 11.2408 20.948 11.8705 19.8578C12.5034 18.7563 12.12 17.3703 11.0371 16.7449L8.96909 15.5509L6.69089 19.4967L8.75895 20.6908ZM19.3057 19.3965C19.8833 19.3965 20.3535 18.9263 20.3535 18.3488V18.1171H13.3094C13.3829 18.5355 13.3807 18.9702 13.2955 19.3966L19.3057 19.3965Z" fill="black" stroke="black" stroke-width="0.365217"/>
</svg>
