<svg width="24" height="23" viewBox="0 0 24 23" fill="none" xmlns="http://www.w3.org/2000/svg">
<path d="M6.01192 20.1564H17.9882C18.1664 20.1564 18.3372 20.0856 18.4632 19.9597C18.5891 19.8337 18.6599 19.6628 18.6599 19.4847V11.6714C18.6599 9.67003 17.9784 7.96075 16.7999 6.7511C15.621 5.54116 13.9538 4.84023 12.0003 4.84023C10.0469 4.84023 8.37948 5.54116 7.20054 6.7511C6.02188 7.96074 5.34023 9.67002 5.34023 11.6714V19.4847C5.34023 19.6628 5.411 19.8337 5.53697 19.9597C5.66293 20.0856 5.83378 20.1564 6.01192 20.1564ZM17.3165 11.6714V18.813H6.6836V11.6714C6.6836 10.0464 7.23341 8.67584 8.16761 7.71233C9.10148 6.74915 10.4282 6.1836 12.0003 6.1836C13.5724 6.1836 14.899 6.74915 15.8328 7.71232C16.7668 8.67583 17.3165 10.0464 17.3165 11.6714Z" fill="black" stroke="black" stroke-width="0.3"/>
<path d="M3.49715 4.20153L3.49717 4.20151C3.37482 4.07483 3.30711 3.90516 3.30865 3.72905C3.31018 3.55294 3.38082 3.38447 3.50535 3.25993C3.62989 3.1354 3.79835 3.06476 3.97447 3.06323C4.15058 3.0617 4.32025 3.1294 4.44693 3.25175L4.44882 3.25358L4.4488 3.25359L6.44477 5.25008L6.33869 5.35613L6.44477 5.25008C6.53868 5.34401 6.60262 5.46369 6.62853 5.59396C6.65443 5.72423 6.64113 5.85926 6.59031 5.98198C6.53948 6.1047 6.45341 6.20959 6.34298 6.2834C6.23258 6.35718 6.10279 6.39659 5.97001 6.39664C5.96997 6.39664 5.96993 6.39664 5.96989 6.39664L5.96986 6.24664C5.90134 6.24671 5.83348 6.23325 5.77019 6.20702C5.70689 6.18078 5.64941 6.1423 5.60102 6.09379L3.49715 4.20153ZM3.49715 4.20153L3.49898 4.20336L5.49481 6.19971L3.49715 4.20153ZM17.6679 5.13687L17.6679 5.13686L19.6639 3.14089L19.6681 3.1367L19.6682 3.13678C19.7957 3.01896 19.9639 2.95505 20.1375 2.95846C20.3111 2.96186 20.4766 3.03231 20.5995 3.15504C20.7223 3.27778 20.7929 3.44328 20.7964 3.61688C20.7999 3.79048 20.7361 3.95871 20.6184 4.08633L20.6143 4.09079L20.6142 4.0907L18.6179 6.0865L17.6679 5.13687ZM17.6679 5.13687C17.574 5.23081 17.5101 5.35048 17.4842 5.48075C17.4582 5.61103 17.4715 5.74606 17.5224 5.86878C17.5732 5.99149 17.6593 6.09639 17.7697 6.17019C17.8801 6.24398 18.0099 6.28338 18.1427 6.28344M17.6679 5.13687L18.1427 6.28344M22.0022 22.4783C22.0011 21.5463 21.6304 20.6527 20.9713 19.9936C20.3123 19.3345 19.4187 18.9638 18.4866 18.9627L22.0022 22.4783ZM22.0022 22.4783C22.0022 22.6167 21.9473 22.7494 21.8494 22.8472C21.7516 22.945 21.6189 23 21.4806 23H2.51839M22.0022 22.4783L2.51839 23M18.1427 6.28344C18.2309 6.28353 18.3184 6.26618 18.3999 6.23238C18.4814 6.19861 18.5554 6.1491 18.6177 6.08666L18.1427 6.28344ZM2.51839 23C2.38004 23 2.24734 22.945 2.14951 22.8472M2.51839 23L2.14951 22.8472M2.14951 22.8472C2.05167 22.7494 1.99671 22.6167 1.99671 22.4783L2.14951 22.8472ZM1.84671 22.4781V22.4783C1.84671 22.6565 1.91748 22.8273 2.04344 22.9533C2.16941 23.0792 2.34025 23.15 2.51839 23.15H21.4806C21.6587 23.15 21.8295 23.0792 21.9555 22.9533C22.0815 22.8273 22.1522 22.6565 22.1522 22.4783V22.4781C22.1511 21.5064 21.7645 20.5747 21.0774 19.8875C20.3902 19.2004 19.4586 18.8138 18.4868 18.8127H18.4866H5.51234H5.51216C4.54038 18.8138 3.60872 19.2004 2.92157 19.8875C2.23441 20.5747 1.84786 21.5064 1.84671 22.4781ZM20.7092 21.8066H3.28972C3.42471 21.3617 3.6905 20.966 4.05451 20.6721C4.46742 20.3388 4.98188 20.1567 5.51253 20.1561H18.4864C19.0171 20.1567 19.5315 20.3388 19.9444 20.6721C20.3085 20.966 20.5742 21.3617 20.7092 21.8066ZM1.02168 12.1717H4.01563C4.19377 12.1717 4.36462 12.1009 4.49058 11.975C4.61654 11.849 4.68731 11.6781 4.68731 11.5C4.68731 11.3219 4.61655 11.151 4.49058 11.025C4.36461 10.8991 4.19377 10.8283 4.01563 10.8283H1.02168C0.843542 10.8283 0.672697 10.8991 0.546732 11.025C0.420766 11.151 0.35 11.3219 0.35 11.5C0.35 11.6781 0.420767 11.849 0.546732 11.975C0.672696 12.1009 0.843541 12.1717 1.02168 12.1717ZM11.525 3.99058C11.651 4.11655 11.8219 4.18731 12 4.18731C12.1781 4.18731 12.349 4.11654 12.475 3.99058C12.6009 3.86462 12.6717 3.69377 12.6717 3.51563V0.521684C12.6717 0.343541 12.6009 0.172696 12.475 0.0467317C12.349 -0.0792333 12.1781 -0.15 12 -0.15C11.8219 -0.15 11.651 -0.0792337 11.525 0.0467317C11.3991 0.172697 11.3283 0.343542 11.3283 0.521684V3.51563C11.3283 3.69377 11.3991 3.86461 11.525 3.99058ZM19.9844 12.1717H22.9783C23.1565 12.1717 23.3273 12.1009 23.4533 11.975C23.5792 11.849 23.65 11.6781 23.65 11.5C23.65 11.3219 23.5792 11.151 23.4533 11.025C23.3273 10.8991 23.1565 10.8283 22.9783 10.8283H19.9844C19.8062 10.8283 19.6354 10.8991 19.5094 11.025C19.3835 11.151 19.3127 11.3219 19.3127 11.5C19.3127 11.6781 19.3835 11.849 19.5094 11.975C19.6354 12.1009 19.8062 12.1717 19.9844 12.1717Z" fill="black" stroke="black" stroke-width="0.3"/>
</svg>
