<svg width="21" height="23" viewBox="0 0 21 23" fill="none" xmlns="http://www.w3.org/2000/svg">
<path d="M19.0647 10.1C19.0647 5.58684 15.2301 1.9 10.4995 1.9C5.769 1.9 1.93434 5.58682 1.93361 10.1H19.0647ZM19.0647 10.1C19.0647 12.984 17.5191 15.5976 14.9803 17.083M19.0647 10.1L14.9803 17.083M14.9803 17.083L14.2987 13.6544C15.2598 12.7062 15.8122 11.4309 15.8122 10.0996C15.8122 7.27925 13.421 4.99964 10.4992 4.99964C7.57736 4.99964 5.18614 7.27925 5.18614 10.0996C5.18614 11.4309 5.73897 12.7062 6.6997 13.6543L6.01811 17.083C3.47928 15.5976 1.93362 12.9837 1.93361 10.1L14.9803 17.083ZM15.4474 19.5531V19.4H18.1691C19.0771 19.4 19.83 18.6905 19.83 17.8V12.6472C20.0693 11.8326 20.1952 10.9773 20.1952 10.1C20.1952 4.96365 15.838 0.8 10.4995 0.8C5.16108 0.8 0.803906 4.96365 0.803906 10.1C0.803906 10.977 0.929828 11.8326 1.16912 12.6472V17.8C1.16912 18.6905 1.92197 19.4 2.82999 19.4H5.55173V19.5531V20.9496C5.55173 21.6469 6.14096 22.1996 6.84738 22.1996H14.1517C14.8581 22.1996 15.4474 21.6469 15.4474 20.9496V19.5531ZM6.68501 19.5248L6.68526 19.5235L7.86783 13.5735L7.86784 13.5735C7.87424 13.5413 7.89252 13.5104 7.92179 13.4871C7.95123 13.4637 7.98953 13.45 8.03021 13.45H12.9685C13.0092 13.45 13.0475 13.4637 13.0769 13.4871C13.1062 13.5104 13.1245 13.5413 13.1309 13.5735L13.1309 13.5735L14.3135 19.5235L14.3137 19.5248C14.3178 19.5448 14.3172 19.5654 14.3119 19.5852C14.3066 19.6051 14.2965 19.6243 14.2819 19.6411L14.2809 19.6422C14.2661 19.6594 14.2469 19.6739 14.2244 19.6841C14.2019 19.6942 14.1769 19.6997 14.1513 19.6996H14.151H6.84738C6.79435 19.6996 6.74794 19.6775 6.71722 19.6419L6.71649 19.6411C6.70181 19.6243 6.69175 19.6051 6.68643 19.5852C6.68137 19.5663 6.68069 19.5457 6.68501 19.5248ZM13.7547 12.6087C13.672 12.5474 13.5819 12.4958 13.4862 12.4553C13.3232 12.3862 13.1473 12.3504 12.9696 12.35H12.9691H8.03031C7.73713 12.35 7.46426 12.4462 7.24494 12.6091C6.64677 11.8987 6.3189 11.0136 6.31731 10.0996C6.3175 7.90224 8.18574 6.09999 10.4999 6.09999C12.8142 6.09999 14.6825 7.90243 14.6825 10.1C14.6825 11.014 14.3505 11.9004 13.7547 12.6087ZM14.1543 20.7999C14.2088 20.7992 14.2631 20.795 14.3169 20.7876V20.95C14.3169 20.9869 14.3017 21.0242 14.2716 21.0531C14.2412 21.0822 14.1982 21.1 14.1517 21.1H6.84738C6.80088 21.1 6.7579 21.0822 6.72751 21.0531C6.69741 21.0242 6.68216 20.9869 6.68216 20.95V20.7879C6.73578 20.7956 6.79103 20.8 6.84774 20.8L14.1513 20.8L14.1543 20.7999ZM2.82999 18.3C2.52951 18.3 2.29956 18.0676 2.29956 17.8V15.0775C3.1529 16.3683 4.34372 17.4527 5.7922 18.2226L5.77679 18.3H2.82999ZM18.1691 18.3H15.2223L15.2069 18.2226C16.6554 17.4527 17.8462 16.3683 18.6995 15.0775V17.8C18.6995 18.0676 18.4696 18.3 18.1691 18.3Z" fill="black" stroke="black" stroke-width="0.4"/>
</svg>
