<svg width="23" height="23" viewBox="0 0 23 23" fill="none" xmlns="http://www.w3.org/2000/svg">
<g clip-path="url(#clip0_144_233)">
<path d="M19.8878 12.2507L17.9466 7.88415C17.664 7.24919 17.2034 6.70973 16.6207 6.33098C16.0379 5.95224 15.3579 5.75045 14.6629 5.75H11.5V5.03125C11.5 3.84226 10.5327 2.875 9.34375 2.875C8.15476 2.875 7.1875 3.84226 7.1875 5.03125V5.75H1.4375C0.644719 5.75 0 6.39472 0 7.1875V19.4062C0 20.199 0.644719 20.8438 1.4375 20.8438H2.97706C3.29852 22.0802 4.41438 23 5.75 23C7.08562 23 8.20148 22.0802 8.52294 20.8438H14.4771C14.7985 22.0802 15.9144 23 17.25 23C18.5856 23 19.7015 22.0802 20.0229 20.8438H21.5625C22.3553 20.8438 23 20.199 23 19.4062V15.8125C23 13.9942 21.6425 12.4868 19.8878 12.2507ZM16.6333 8.46813L18.3005 12.2188H15.0938C14.6975 12.2188 14.375 11.8962 14.375 11.5V7.1875H14.6629C15.5139 7.1875 16.2874 7.69009 16.6333 8.46813ZM8.625 5.03125C8.625 4.63504 8.94754 4.3125 9.34375 4.3125C9.73996 4.3125 10.0625 4.63504 10.0625 5.03125V5.75H8.625V5.03125ZM12.9375 7.1875V11.5C12.9375 12.689 13.9048 13.6562 15.0938 13.6562H19.4062C20.3421 13.6562 21.1323 14.2589 21.4301 15.0938H1.4375V7.1875H12.9375ZM5.75 21.5625C4.95722 21.5625 4.3125 20.9178 4.3125 20.125C4.3125 19.3322 4.95722 18.6875 5.75 18.6875C6.54278 18.6875 7.1875 19.3322 7.1875 20.125C7.1875 20.9178 6.54278 21.5625 5.75 21.5625ZM17.25 21.5625C16.4572 21.5625 15.8125 20.9178 15.8125 20.125C15.8125 19.3322 16.4572 18.6875 17.25 18.6875C18.0428 18.6875 18.6875 19.3322 18.6875 20.125C18.6875 20.9178 18.0428 21.5625 17.25 21.5625ZM20.0229 19.4062C19.7015 18.1698 18.5856 17.25 17.25 17.25C15.9144 17.25 14.7985 18.1698 14.4771 19.4062H8.52294C8.20148 18.1698 7.08562 17.25 5.75 17.25C4.41438 17.25 3.29852 18.1698 2.97706 19.4062H1.4375V16.5312H21.5625V19.4062H20.0229ZM4.3125 11.5C4.3125 11.3094 4.38823 11.1266 4.52302 10.9918C4.65781 10.857 4.84063 10.7812 5.03125 10.7812H6.46875V9.34375C6.46875 9.15313 6.54448 8.97031 6.67927 8.83552C6.81406 8.70073 6.99688 8.625 7.1875 8.625C7.37812 8.625 7.56094 8.70073 7.69573 8.83552C7.83052 8.97031 7.90625 9.15313 7.90625 9.34375V10.7812H9.34375C9.53437 10.7812 9.71719 10.857 9.85198 10.9918C9.98677 11.1266 10.0625 11.3094 10.0625 11.5C10.0625 11.6906 9.98677 11.8734 9.85198 12.0082C9.71719 12.143 9.53437 12.2188 9.34375 12.2188H7.90625V13.6562C7.90625 13.8469 7.83052 14.0297 7.69573 14.1645C7.56094 14.2993 7.37812 14.375 7.1875 14.375C6.99688 14.375 6.81406 14.2993 6.67927 14.1645C6.54448 14.0297 6.46875 13.8469 6.46875 13.6562V12.2188H5.03125C4.84063 12.2188 4.65781 12.143 4.52302 12.0082C4.38823 11.8734 4.3125 11.6906 4.3125 11.5ZM11.7106 3.38316C11.6438 3.31645 11.5908 3.23724 11.5547 3.15005C11.5185 3.06285 11.4999 2.96939 11.4999 2.875C11.4999 2.78061 11.5185 2.68715 11.5547 2.59995C11.5908 2.51276 11.6438 2.43355 11.7106 2.36684L12.4293 1.64809C12.7102 1.36724 13.165 1.36724 13.4457 1.64809C13.7263 1.92895 13.7265 2.38373 13.4457 2.66441L12.7269 3.38316C12.5866 3.52349 12.4026 3.59375 12.2188 3.59375C12.0349 3.59375 11.8509 3.52349 11.7106 3.38316ZM8.625 1.4375V0.71875C8.625 0.528126 8.70073 0.345309 8.83552 0.210517C8.97031 0.0757252 9.15313 0 9.34375 0C9.53437 0 9.71719 0.0757252 9.85198 0.210517C9.98677 0.345309 10.0625 0.528126 10.0625 0.71875V1.4375C10.0625 1.62812 9.98677 1.81094 9.85198 1.94573C9.71719 2.08052 9.53437 2.15625 9.34375 2.15625C9.15313 2.15625 8.97031 2.08052 8.83552 1.94573C8.70073 1.81094 8.625 1.62812 8.625 1.4375ZM5.24184 2.66441C4.96099 2.38355 4.96099 1.92877 5.24184 1.64809C5.5227 1.36742 5.97748 1.36724 6.25816 1.64809L6.97691 2.36684C7.04369 2.43355 7.09667 2.51276 7.13282 2.59995C7.16896 2.68715 7.18757 2.78061 7.18757 2.875C7.18757 2.96939 7.16896 3.06285 7.13282 3.15005C7.09667 3.23724 7.04369 3.31645 6.97691 3.38316C6.83657 3.52349 6.65257 3.59375 6.46875 3.59375C6.28493 3.59375 6.10093 3.52349 5.96059 3.38316L5.24184 2.66441Z" fill="black"/>
</g>
<defs>
<clipPath id="clip0_144_233">
<rect width="23" height="23" fill="white"/>
</clipPath>
</defs>
</svg>
