<svg width="25" height="25" viewBox="0 0 25 25" fill="none" xmlns="http://www.w3.org/2000/svg">
<path d="M17.1338 3.57642C16.5824 2.84134 15.8676 2.24472 15.0457 1.83379C14.2239 1.42287 13.3177 1.20895 12.3988 1.20895H12.1841C11.2653 1.20895 10.3591 1.42287 9.53722 1.83379C8.71539 2.24472 8.00052 2.84134 7.44922 3.57642L7.44903 3.57662C7.10877 4.03035 6.92483 4.5822 6.9248 5.14935V8.1089C6.9248 11.0729 9.32754 13.4756 12.2915 13.4756C15.2554 13.4756 17.6582 11.0729 17.6582 8.1089V5.14935C17.6581 4.58219 17.4742 4.03034 17.1339 3.57662L17.1338 3.57642Z" stroke="black" stroke-width="1.5" stroke-miterlimit="10" stroke-linecap="round" stroke-linejoin="round"/>
<path d="M6.9248 7.3418H6.9249C7.41573 7.34177 7.88646 7.1468 8.23356 6.79977L9.2248 5.80848H9.2249C10.177 6.28458 11.227 6.53244 12.2915 6.53244C13.356 6.53244 14.4059 6.28458 15.3581 5.80848H15.3581L16.3494 6.79977C16.6965 7.14681 17.1672 7.34178 17.6581 7.3418H17.6582" stroke="black" stroke-width="1.5" stroke-miterlimit="10" stroke-linecap="round" stroke-linejoin="round"/>
<path d="M23.791 24.209L22.1774 19.368C21.968 18.74 21.5996 18.1769 21.1081 17.7336C20.6165 17.2903 20.0185 16.9818 19.3723 16.8382L14.591 15.7757L12.291 19.609L9.99102 15.7757L5.20974 16.8382C4.56354 16.9818 3.96554 17.2903 3.47396 17.7336C2.98239 18.1769 2.61399 18.74 2.40464 19.368L0.791016 24.209" stroke="black" stroke-width="1.5" stroke-miterlimit="10" stroke-linecap="round" stroke-linejoin="round"/>
<path d="M9.99121 15.7754V13.0772" stroke="black" stroke-width="1.5" stroke-miterlimit="10" stroke-linecap="round" stroke-linejoin="round"/>
<path d="M14.5908 15.7754V13.0772" stroke="black" stroke-width="1.5" stroke-miterlimit="10" stroke-linecap="round" stroke-linejoin="round"/>
<path d="M16.1241 24.209H15.3574V21.909C15.3574 21.6069 15.4169 21.3079 15.5325 21.0288C15.6481 20.7498 15.8175 20.4962 16.0311 20.2827C16.2447 20.0691 16.4982 19.8997 16.7773 19.7841C17.0563 19.6685 17.3554 19.609 17.6574 19.609C18.9277 19.609 19.9574 20.6387 19.9574 21.909V24.209H19.1908" stroke="black" stroke-width="1.5" stroke-miterlimit="10" stroke-linecap="round" stroke-linejoin="round"/>
<path d="M17.6572 18.8418V16.4566" stroke="black" stroke-width="1.5" stroke-miterlimit="10" stroke-linecap="round" stroke-linejoin="round"/>
<path d="M6.92394 21.1423C6.07767 21.1423 5.39062 21.8293 5.39062 22.6756C5.39062 23.5219 6.07767 24.209 6.92394 24.209C7.77022 24.209 8.45726 23.5219 8.45726 22.6756C8.45726 21.8293 7.77022 21.1423 6.92394 21.1423ZM6.92394 21.1423V16.4571" stroke="black" stroke-width="1.5" stroke-miterlimit="10" stroke-linecap="round" stroke-linejoin="round"/>
</svg>
