<svg width="24" height="23" viewBox="0 0 24 23" fill="none" xmlns="http://www.w3.org/2000/svg">
<path d="M9.68562 12.5817H5.89062C5.69297 12.5817 5.53125 12.7434 5.53125 12.9411V16.0755H5.63125M9.68562 12.5817L6.25 14.0192V14.1192V16.0755H6.15M9.68562 12.5817C9.76097 12.5815 9.83446 12.605 9.89573 12.6489C9.95699 12.6927 10.0029 12.7547 10.027 12.8261M9.68562 12.5817L10.7134 12.5961M5.63125 16.0755V16.1755H6.15V16.0755M5.63125 16.0755H6.15M5.63125 16.0755V12.9411C5.63125 12.7987 5.7482 12.6817 5.89062 12.6817L9.68562 12.6817L9.68588 12.6817C9.74026 12.6816 9.7933 12.6985 9.83752 12.7302C9.88169 12.7618 9.91482 12.8065 9.93223 12.8579L9.93217 12.8578L10.027 12.8261M6.15 16.0755V14.0192V13.9192H6.25H6.96875H7.06875V14.0192V16.5349C7.06875 16.7449 6.92915 16.9162 6.74021 16.9723M6.74021 16.9723L9.68883 11.7594C9.6889 11.7594 9.68896 11.7594 9.68903 11.7594C9.93664 11.7585 10.1782 11.8358 10.3792 11.9804C10.5803 12.125 10.7305 12.3295 10.8084 12.5647M6.74021 16.9723L6.73431 16.884L6.63453 16.8906L6.6422 16.9903C6.67596 16.9877 6.70877 16.9816 6.74021 16.9723ZM6.74021 16.9723L7.04072 21.4661M6.74021 16.9723L7.22813 21.5661V21.4661M10.027 12.8261L9.93229 12.8581L11.0059 16.0755M10.027 12.8261L11.1113 16.0755H11.0059M11.0059 16.0755H10.4732M11.0059 16.0755L11.0393 16.1755H10.4152M10.4732 16.0755L9.16872 13.79L9.11922 13.7032L9.03242 13.7526L8.40711 14.1084L8.32003 14.1579L8.36974 14.2449L9.80724 16.7606L9.80758 16.7612C9.89021 16.9035 10.0418 16.9906 10.2067 16.9906H11.6442C11.7911 16.9906 11.9297 16.9214 12.0171 16.7972C12.103 16.6752 12.1268 16.5236 12.0805 16.3847L11.9856 16.4163M10.4732 16.0755L10.502 16.1259L10.4152 16.1755M10.4732 16.0755H10.4152V16.1755M11.9856 16.4163L12.0805 16.3846L10.8084 12.5647M11.9856 16.4163L10.7134 12.5961M11.9856 16.4163C12.0216 16.5241 12.0036 16.6427 11.9353 16.7397C11.867 16.8367 11.7592 16.8906 11.6442 16.8906H10.2067C10.0773 16.8906 9.95875 16.8224 9.89406 16.7109L8.50618 14.2821L8.50601 14.2822L8.45656 14.1953L8.54339 14.1457L8.54348 14.1459L9.08187 13.8395L10.4152 16.1755M10.8084 12.5647L10.7134 12.5961M10.8084 12.5647L10.8083 12.5645L10.7134 12.5961M7.04072 21.4661H6.94719V21.5661L7.04696 21.5594L7.04072 21.4661ZM7.04072 21.4661H7.22813M7.22813 21.4661H7.32812V18.0724V17.9724H7.42812H7.94688H8.04688V18.0724V21.4661H8.14687M7.22813 21.4661V17.9724V17.8724H7.32812H8.04688H8.14687V17.9724V21.4661M8.14687 21.4661V21.5661H8.42781M8.14687 21.4661H8.33427M8.33427 21.4661L8.32803 21.5594L8.42781 21.5661M8.33427 21.4661L8.66585 16.503L8.6725 16.4034L8.77211 16.4099L9.49086 16.4566L9.59082 16.4631L9.58415 16.5631L9.22478 21.9537L9.22471 21.9547C9.20641 22.1926 9.00942 22.3813 8.76562 22.3813H6.60938C6.36816 22.3813 6.16436 22.1985 6.15019 21.9532M8.33427 21.4661H8.42781V21.5661M8.42781 21.5661L6.15019 21.9532M6.15019 21.9532L6.15022 21.9537L6.25 21.947L6.15016 21.9527L5.81865 16.9906L6.15019 21.9532Z" fill="black" stroke="black" stroke-width="0.2"/>
<path d="M21.7885 16.4355C22.3904 16.4866 22.8667 16.9948 22.8667 17.6094V22.2812V22.5227L22.7217 22.3777H22.0443H21.9443V22.2777V17.6058C21.9443 17.4634 21.8274 17.3464 21.685 17.3464C21.5425 17.3464 21.4256 17.4634 21.4256 17.6058V17.9652V18.0652H21.3256H20.6068H20.6068L20.3472 21.9501L20.3472 21.9511C20.3289 22.189 20.1319 22.3777 19.8881 22.3777H17.7318C17.4906 22.3777 17.2868 22.1948 17.2726 21.9496C17.2726 21.9494 17.2726 21.9493 17.2726 21.9491L16.9133 16.5595L16.9066 16.4595L17.0066 16.453L17.7253 16.4063L17.825 16.3998L17.8316 16.4994L18.1632 21.4625H18.3506V17.9688V17.8687H18.4506H19.1693H19.2693V17.9688V21.4625H19.4567L19.7572 16.9687C19.5683 16.9126 19.4287 16.7413 19.4287 16.5312V14.0156V13.9156H19.5287H20.2475H20.3475V14.0156V16.0719H20.8662V12.9375C20.8662 12.7951 20.7493 12.6781 20.6068 12.6781H19.9101C19.6008 12.9011 19.2236 13.0375 18.81 13.0375C18.3964 13.0375 18.0191 12.9011 17.7099 12.6781H16.8118H16.8116C16.7572 12.678 16.7042 12.6949 16.6599 12.7266C16.6158 12.7582 16.5826 12.8029 16.5652 12.8543C16.5652 12.8544 16.5652 12.8544 16.5652 12.8545L15.5555 15.8802L16.0099 15.7679L17.3504 13.7589L17.4059 13.6756L17.4891 13.7312L18.0857 14.1302L18.1687 14.1857L18.1133 14.2688L16.6758 16.425C16.6121 16.5205 16.5159 16.5897 16.4048 16.6175L14.9721 16.9757C14.9282 16.9907 14.8863 16.9907 14.8606 16.9906C14.8593 16.9906 14.8581 16.9906 14.8568 16.9906C14.7333 16.9906 14.6087 16.9404 14.5203 16.8427L14.5197 16.8421L14.5197 16.8421C14.4113 16.72 14.3689 16.5463 14.4243 16.3843C14.4243 16.3841 14.4244 16.384 14.4244 16.3838L15.6963 12.5645L15.6964 12.5644C15.7747 12.3297 15.925 12.1256 16.1259 11.9811C16.3268 11.8366 16.5681 11.759 16.8156 11.7594M21.7885 16.4355L16.8154 11.8594M21.7885 16.4355C21.7556 16.4327 21.7222 16.4313 21.6885 16.4313L21.7885 16.4355ZM16.8156 11.7594L16.8154 11.8594M16.8156 11.7594H16.8154V11.8594M16.8156 11.7594H17.0208M16.8154 11.8594H17.0588C17.0452 11.8265 17.0325 11.7932 17.0208 11.7594M17.0208 11.7594C16.9533 11.5655 16.9167 11.3566 16.9167 11.1406C16.9167 10.0935 17.7664 9.24375 18.8135 9.24375C19.8607 9.24375 20.7104 10.0935 20.7104 11.1406C20.7104 11.3566 20.6738 11.5655 20.6063 11.7594M17.0208 11.7594H17.127C17.0557 11.5668 17.0167 11.3576 17.0167 11.1406C17.0167 10.1488 17.8217 9.34375 18.8135 9.34375C19.8054 9.34375 20.6104 10.1488 20.6104 11.1406C20.6104 11.3576 20.5714 11.5668 20.5001 11.7594M20.6063 11.7594C20.5946 11.7932 20.5819 11.8265 20.5683 11.8594H20.4595C20.474 11.8266 20.4875 11.7932 20.5001 11.7594M20.6063 11.7594H20.5001M20.6063 11.7594H20.5001M17.4336 13.8144L17.5167 13.8699L17.5167 13.87L17.4336 13.8144ZM17.4336 13.8144L17.378 13.8975L17.378 13.8976L17.4336 13.8144ZM15.518 15.9925L15.4031 16.0209L15.4405 15.9087L15.518 15.9925ZM18.8135 12.1188C18.2758 12.1188 17.8354 11.6784 17.8354 11.1406C17.8354 10.6029 18.2758 10.1625 18.8135 10.1625C19.3513 10.1625 19.7917 10.6029 19.7917 11.1406C19.7917 11.6784 19.3513 12.1188 18.8135 12.1188Z" fill="black" stroke="black" stroke-width="0.2"/>
<path d="M13.6839 0.655871L13.6839 0.655872L18.7147 2.86223C18.7148 2.86227 18.7149 2.8623 18.7149 2.86234C18.8853 2.9361 18.9906 3.10207 18.9906 3.28464C18.9906 3.62726 18.9633 3.96969 18.9116 4.30642C19.7703 4.45886 20.66 4.67587 21.3458 4.9807C21.7015 5.13882 22.0084 5.32316 22.2276 5.53918C22.448 5.75633 22.5844 6.01052 22.5844 6.30339C22.5844 6.69234 22.3473 7.01059 21.9914 7.26782C21.6352 7.52528 21.1448 7.73356 20.5999 7.90287C19.509 8.24187 18.1715 8.43313 17.1761 8.53753C17.1761 8.53753 17.1761 8.53753 17.1761 8.53753L13.6839 0.655871ZM13.6839 0.655871L13.6834 0.655629M13.6839 0.655871L13.6834 0.655629M13.6834 0.655629C13.6255 0.630655 13.5631 0.617773 13.5 0.617773C13.4369 0.617773 13.3745 0.630655 13.3166 0.655629L13.3166 0.655627M13.6834 0.655629L13.3166 0.655627M13.3166 0.655627L13.3161 0.655872M13.3166 0.655627L13.3161 0.655872M13.3161 0.655872L8.28484 2.86243L8.28439 2.86263M13.3161 0.655872L8.28439 2.86263M8.28439 2.86263C8.11955 2.93589 8.00938 3.10066 8.00938 3.28464M8.28439 2.86263L8.00938 3.28464M8.00938 3.28464C8.00938 3.62837 8.03983 3.96819 8.08932 4.30644M8.00938 3.28464L8.08932 4.30644M8.08932 4.30644C7.23042 4.46049 6.34025 4.67753 5.65425 4.98203C5.29856 5.13991 4.99171 5.3239 4.77246 5.53964C4.55206 5.75652 4.41562 6.0105 4.41562 6.30339C4.41562 6.92839 4.76595 7.38903 5.34861 7.72298C5.8453 8.00765 6.51861 8.20579 7.31212 8.34405C6.66344 8.64567 6.2125 9.30174 6.2125 10.0625C6.2125 11.1096 7.06227 11.9593 8.10938 11.9593C9.15648 11.9593 10.0062 11.1096 10.0062 10.0625C10.0062 9.72044 9.91436 9.40068 9.75469 9.12481L13.1513 12.1592C13.2374 12.2598 13.3634 12.3223 13.5 12.3223C13.6372 12.3223 13.7667 12.2626 13.8545 12.1521L16.7926 8.57301L8.08932 4.30644ZM8.28149 5.2028C8.51401 6.02492 8.89979 6.81607 9.41964 7.56079C7.91016 7.37401 6.88843 7.11302 6.24044 6.86496C5.90022 6.73472 5.6664 6.60932 5.51966 6.50242C5.44618 6.4489 5.39741 6.40208 5.36796 6.36413C5.33729 6.32461 5.33438 6.30364 5.33438 6.2998C5.33438 6.29998 5.33437 6.30007 5.33438 6.30007C5.33446 6.30008 5.33556 6.28879 5.35007 6.26495C5.36513 6.2402 5.39146 6.20728 5.4341 6.16761C5.5194 6.08828 5.66291 5.98851 5.88906 5.87851C6.33031 5.66387 7.07436 5.41591 8.28149 5.2028ZM13.5 7.79901C12.7204 7.79901 11.3365 7.7756 10.3292 7.73059L10.4899 7.69883L10.6538 7.66643L10.5478 7.53729C9.55544 6.32833 9.00252 4.96483 8.93458 3.57516L13.5 1.57538L18.0654 3.57516C17.9975 4.96483 17.4446 6.32833 16.4522 7.53729L16.3281 7.68798C16.1286 7.70562 16.0301 7.72144 15.9557 7.73557C15.9421 7.73814 15.9297 7.7406 15.9177 7.74294C15.8616 7.75398 15.8176 7.76264 15.7287 7.77017C15.5058 7.78904 15.0169 7.79901 13.5 7.79901ZM15.5267 8.6598L13.4845 11.1457L10.4688 8.66404C11.3109 8.69827 12.8132 8.71776 13.5 8.71776C14.1994 8.71776 14.8758 8.69759 15.5267 8.6598ZM9.0875 10.0589C9.0875 10.5966 8.64712 11.037 8.10938 11.037C7.57163 11.037 7.13125 10.5966 7.13125 10.0589C7.13125 9.52112 7.57163 9.08073 8.10938 9.08073C8.64712 9.08073 9.0875 9.52112 9.0875 10.0589ZM21.6656 6.2967C21.6654 6.3016 21.6616 6.32244 21.632 6.36054C21.6026 6.39848 21.5538 6.4453 21.4803 6.49883C21.3336 6.60572 21.0998 6.73113 20.7596 6.86137C20.1117 7.10939 19.0902 7.37033 17.5811 7.5571C18.1033 6.81178 18.4862 6.01807 18.7184 5.19919C19.9255 5.41234 20.6696 5.66115 21.1109 5.87623C21.337 5.98645 21.4806 6.08636 21.566 6.1656C21.6087 6.20523 21.635 6.23806 21.6501 6.26266C21.6643 6.28578 21.6655 6.29671 21.6656 6.2967Z" fill="black" stroke="black" stroke-width="0.2"/>
<path d="M15.2433 4.15179H14.3795V3.28795C14.3795 3.12958 14.2499 3 14.0915 3H12.9397C12.7814 3 12.6518 3.12958 12.6518 3.28795V4.15179H11.7879C11.6296 4.15179 11.5 4.28136 11.5 4.43973V5.59152C11.5 5.74989 11.6296 5.87946 11.7879 5.87946H12.6518V6.7433C12.6518 6.90167 12.7814 7.03125 12.9397 7.03125H14.0915C14.2499 7.03125 14.3795 6.90167 14.3795 6.7433V5.87946H15.2433C15.4017 5.87946 15.5312 5.74989 15.5312 5.59152V4.43973C15.5312 4.28136 15.4017 4.15179 15.2433 4.15179ZM14.9554 5.30357H14.0915C13.9331 5.30357 13.8036 5.43315 13.8036 5.59152V6.45536H13.2277V5.59152C13.2277 5.43315 13.0981 5.30357 12.9397 5.30357H12.0759V4.72768H12.9397C13.0981 4.72768 13.2277 4.5981 13.2277 4.43973V3.57589H13.8036V4.43973C13.8036 4.5981 13.9331 4.72768 14.0915 4.72768H14.9554V5.30357Z" fill="black"/>
</svg>
