<svg width="21" height="20" viewBox="0 0 21 20" fill="none" xmlns="http://www.w3.org/2000/svg">
<g clip-path="url(#clip0_115_1899)">
<path d="M6.39422 5.35156H6.14344L5.6748 7.69531H6.86285L6.39422 5.35156ZM15.8733 10.0391C16.1263 10.7187 16.4628 11.2689 16.8352 11.737C17.2077 11.2689 17.5832 10.7187 17.8363 10.0391H15.8733Z" fill="black"/>
<path d="M19.2182 3.55469H11.9416L13.4588 15.7296C13.4857 16.2276 13.3495 16.6964 13.0245 17.0635L10.4551 20H19.2182C20.1875 20 20.9761 19.2115 20.9761 18.2422V5.35156C20.9761 4.38227 20.1875 3.55469 19.2182 3.55469ZM19.2182 10.0391H19.0618C18.7284 11.1087 18.1996 11.9457 17.6502 12.6055C18.0806 12.9991 18.5409 13.3219 18.9985 13.6834C19.2509 13.8854 19.2921 14.2539 19.0895 14.5068C18.8879 14.7594 18.5179 14.8003 18.2661 14.5978C17.7689 14.2054 17.3021 13.8768 16.8354 13.4486C16.3687 13.8768 15.9411 14.2054 15.4438 14.5978C15.192 14.8003 14.8221 14.7594 14.6204 14.5068C14.4179 14.2539 14.4591 13.8854 14.7114 13.6834C15.169 13.3219 15.5902 12.9991 16.0207 12.6055C15.4712 11.9457 14.9815 11.1087 14.6482 10.0391H14.4917C14.1678 10.0391 13.9057 9.77699 13.9057 9.45312C13.9057 9.12926 14.1678 8.86719 14.4917 8.86719H16.2495V8.28125C16.2495 7.95738 16.5116 7.69531 16.8354 7.69531C17.1593 7.69531 17.4214 7.95738 17.4214 8.28125V8.86719H19.2182C19.5421 8.86719 19.8042 9.12926 19.8042 9.45312C19.8042 9.77699 19.5421 10.0391 19.2182 10.0391Z" fill="black"/>
<path d="M10.5132 1.5398C10.4039 0.662031 9.65379 0 8.76918 0H2.7334C1.7641 0 0.975586 0.788516 0.975586 1.75781V14.7266C0.975586 15.6959 1.7641 16.4844 2.7334 16.4844H11.9737C12.1446 16.289 12.2879 16.1666 12.2939 15.9116C12.2954 15.8477 10.5212 1.60324 10.5132 1.5398ZM8.1609 11.1995C7.8502 11.2634 7.53547 11.0617 7.47141 10.74L7.09691 8.86719H5.44023L5.06574 10.74C5.00281 11.057 4.69723 11.2653 4.37625 11.1995C4.05926 11.136 3.85324 10.8276 3.91676 10.51L5.08859 4.65063C5.14352 4.37711 5.38387 4.17969 5.66309 4.17969H6.87402C7.15324 4.17969 7.39359 4.37711 7.44852 4.65063L8.62039 10.51C8.68391 10.8276 8.47793 11.136 8.1609 11.1995ZM7.82172 17.6562L7.92227 18.4602C7.9893 18.9986 8.34703 19.5476 8.93547 19.8218L10.9026 17.6562H7.82172Z" fill="black"/>
</g>
<defs>
<clipPath id="clip0_115_1899">
<rect width="20" height="20" fill="white" transform="translate(0.975586)"/>
</clipPath>
</defs>
</svg>
