<svg width="20" height="20" viewBox="0 0 20 20" fill="none" xmlns="http://www.w3.org/2000/svg">
<g clip-path="url(#clip0_464_2721)">
<path d="M5.41863 5.35156H5.16785L4.69922 7.69531H5.88727L5.41863 5.35156ZM14.8977 10.0391C15.1507 10.7187 15.4872 11.2689 15.8596 11.737C16.2321 11.2689 16.6077 10.7187 16.8607 10.0391H14.8977Z" fill="black"/>
<path d="M18.2427 3.55469H10.966L12.4832 15.7296C12.5101 16.2276 12.3739 16.6964 12.0489 17.0635L9.47949 20H18.2427C19.212 20 20.0005 19.2115 20.0005 18.2422V5.35156C20.0005 4.38227 19.212 3.55469 18.2427 3.55469ZM18.2427 10.0391H18.0862C17.7528 11.1087 17.2241 11.9457 16.6746 12.6055C17.105 12.9991 17.5653 13.3219 18.0229 13.6834C18.2753 13.8854 18.3165 14.2539 18.1139 14.5068C17.9123 14.7594 17.5423 14.8003 17.2905 14.5978C16.7933 14.2054 16.3266 13.8768 15.8598 13.4486C15.3931 13.8768 14.9655 14.2054 14.4682 14.5978C14.2164 14.8003 13.8465 14.7594 13.6448 14.5068C13.4423 14.2539 13.4835 13.8854 13.7358 13.6834C14.1934 13.3219 14.6146 12.9991 15.0451 12.6055C14.4956 11.9457 14.0059 11.1087 13.6726 10.0391H13.5161C13.1922 10.0391 12.9302 9.77699 12.9302 9.45312C12.9302 9.12926 13.1922 8.86719 13.5161 8.86719H15.2739V8.28125C15.2739 7.95738 15.536 7.69531 15.8598 7.69531C16.1837 7.69531 16.4458 7.95738 16.4458 8.28125V8.86719H18.2427C18.5665 8.86719 18.8286 9.12926 18.8286 9.45312C18.8286 9.77699 18.5665 10.0391 18.2427 10.0391Z" fill="black"/>
<path d="M9.53766 1.5398C9.42836 0.662031 8.6782 0 7.79359 0H1.75781C0.788516 0 0 0.788516 0 1.75781V14.7266C0 15.6959 0.788516 16.4844 1.75781 16.4844H10.9981C11.169 16.289 11.3123 16.1666 11.3184 15.9116C11.3198 15.8477 9.54559 1.60324 9.53766 1.5398ZM7.18531 11.1995C6.87461 11.2634 6.55988 11.0617 6.49582 10.74L6.12133 8.86719H4.46465L4.09016 10.74C4.02723 11.057 3.72164 11.2653 3.40066 11.1995C3.08367 11.136 2.87766 10.8276 2.94117 10.51L4.11301 4.65063C4.16793 4.37711 4.40828 4.17969 4.6875 4.17969H5.89844C6.17766 4.17969 6.41801 4.37711 6.47293 4.65063L7.64481 10.51C7.70832 10.8276 7.50234 11.136 7.18531 11.1995ZM6.84613 17.6562L6.94668 18.4602C7.01371 18.9986 7.37145 19.5476 7.95988 19.8218L9.92703 17.6562H6.84613Z" fill="black"/>
</g>
<defs>
<clipPath id="clip0_464_2721">
<rect width="20" height="20" fill="white"/>
</clipPath>
</defs>
</svg>
