<svg width="220" height="220" viewBox="0 0 220 220" fill="none" xmlns="http://www.w3.org/2000/svg">
<path d="M183.784 22.81C170.386 14.4764 154.326 13.57 140.176 20.5088C128.124 26.4004 118.748 36.4192 106.683 42.3152C90.2004 50.3804 72.1032 54.7892 55.4404 62.5156C38.7776 70.242 22.8276 82.3508 16.8524 99.722C9.81241 120.239 12.2852 144.364 23.052 163.122C40.5552 193.609 75.2712 204.438 108.694 204.042C179.318 203.21 215.697 117.674 204.174 56.2016C201.657 42.8828 195.523 30.1096 183.784 22.81Z" fill="#FEF14B"/>
<path opacity="0.7" d="M183.784 22.81C170.386 14.4764 154.326 13.57 140.176 20.5088C128.124 26.4004 118.748 36.4192 106.683 42.3152C90.2004 50.3804 72.1032 54.7892 55.4404 62.5156C38.7776 70.242 22.8276 82.3508 16.8524 99.722C9.81241 120.239 12.2852 144.364 23.052 163.122C40.5552 193.609 75.2712 204.438 108.694 204.042C179.318 203.21 215.697 117.674 204.174 56.2016C201.657 42.8828 195.523 30.1096 183.784 22.81Z" fill="white"/>
<path d="M53.0688 136.519L49.3728 137.188L48.6468 133.184L44.2556 133.98L44.9816 137.984L41.29 138.653L42.1128 143.198L45.8044 142.529L46.5304 146.533L50.9216 145.741L50.1956 141.733L53.8916 141.064L53.0688 136.519Z" stroke="#FEF14B" stroke-width="0.44" stroke-linecap="round" stroke-linejoin="round"/>
<path d="M89.9666 75.183L86.4246 73.9334L87.7798 70.0966L83.5734 68.6094L82.2182 72.4462L78.6762 71.1966L77.1406 75.5526L80.6782 76.8022L79.323 80.6434L83.5294 82.1262L84.889 78.2894L88.4266 79.539L89.9666 75.183Z" stroke="#FEF14B" stroke-width="0.44" stroke-linecap="round" stroke-linejoin="round"/>
<path d="M179.305 121.04L175.987 122.795L174.082 119.196L170.135 121.282L172.04 124.881L168.723 126.637L170.883 130.72L174.201 128.964L176.106 132.559L180.053 130.473L178.147 126.874L181.465 125.119L179.305 121.04Z" stroke="#FEF14B" stroke-width="0.44" stroke-linecap="round" stroke-linejoin="round"/>
<path d="M37.6332 126.979C39.1204 126.979 40.326 125.774 40.326 124.287C40.326 122.799 39.1204 121.594 37.6332 121.594C36.146 121.594 34.9404 122.799 34.9404 124.287C34.9404 125.774 36.146 126.979 37.6332 126.979Z" stroke="#FEF14B" stroke-width="0.44" stroke-linecap="round" stroke-linejoin="round"/>
<path d="M79.5779 88.286C79.5779 88.427 79.5361 88.5648 79.4578 88.6821C79.3795 88.7993 79.2682 88.8906 79.1379 88.9446C79.0077 88.9985 78.8644 89.0127 78.7261 88.9851C78.5878 88.9576 78.4608 88.8898 78.3611 88.7901C78.2614 88.6904 78.1935 88.5634 78.166 88.4251C78.1385 88.2868 78.1527 88.1435 78.2066 88.0133C78.2606 87.883 78.3519 87.7717 78.4691 87.6934C78.5864 87.615 78.7242 87.5732 78.8651 87.5732C79.0542 87.5732 79.2355 87.6483 79.3692 87.782C79.5028 87.9157 79.5779 88.097 79.5779 88.286Z" stroke="#FEF14B" stroke-width="0.44" stroke-linecap="round" stroke-linejoin="round"/>
<path d="M46.9613 76.0578C46.9613 76.5556 46.8137 77.0422 46.5372 77.4561C46.2606 77.87 45.8676 78.1925 45.4077 78.383C44.9478 78.5735 44.4417 78.6234 43.9535 78.5263C43.4653 78.4291 43.0169 78.1894 42.6649 77.8375C42.3129 77.4855 42.0732 77.037 41.9761 76.5488C41.879 76.0606 41.9288 75.5546 42.1193 75.0947C42.3098 74.6348 42.6324 74.2417 43.0463 73.9652C43.4602 73.6886 43.9468 73.541 44.4445 73.541C45.1117 73.5422 45.7512 73.8077 46.2229 74.2795C46.6946 74.7512 46.9602 75.3907 46.9613 76.0578Z" stroke="#FEF14B" stroke-width="0.44" stroke-linecap="round" stroke-linejoin="round"/>
<path d="M157.854 110.149C157.854 110.431 157.771 110.707 157.614 110.941C157.457 111.176 157.235 111.358 156.974 111.466C156.714 111.574 156.427 111.602 156.15 111.547C155.874 111.492 155.62 111.357 155.42 111.157C155.221 110.958 155.085 110.704 155.03 110.427C154.975 110.151 155.004 109.864 155.111 109.604C155.219 109.343 155.402 109.121 155.637 108.964C155.871 108.807 156.147 108.724 156.429 108.724C156.807 108.724 157.169 108.874 157.437 109.141C157.704 109.409 157.854 109.771 157.854 110.149Z" stroke="#FEF14B" stroke-width="0.44" stroke-linecap="round" stroke-linejoin="round"/>
<path d="M143.445 66.6993C145.207 66.6993 146.635 65.2711 146.635 63.5093C146.635 61.7475 145.207 60.3193 143.445 60.3193C141.683 60.3193 140.255 61.7475 140.255 63.5093C140.255 65.2711 141.683 66.6993 143.445 66.6993Z" stroke="#FEF14B" stroke-width="0.44" stroke-linecap="round" stroke-linejoin="round"/>
<path d="M123.803 92.1836C123.97 92.4344 129.017 93.442 131.635 97.248C133.158 99.4346 134.436 101.782 135.445 104.248C135.445 104.248 139.823 106.853 142.067 109C144.311 111.148 146.986 113.999 149.05 115.495C151.114 116.991 155.36 119.829 156.429 123.151C156.429 123.151 150.062 140.588 148.262 144.442C146.463 148.297 142.023 156.476 142.023 156.476L134.103 190.123H88.1628L86.5964 178.582C86.5964 178.582 72.5164 175.819 66.6336 170.662C66.6336 170.662 66.0792 157.902 68.5388 146.519C70.9984 135.136 79.3628 111.469 85.03 104.24C85.03 104.24 94.0808 99.91 102.067 98.5196C102.067 98.5196 107.25 94.4232 110.642 93.9876C114.035 93.552 123.803 92.1836 123.803 92.1836Z" fill="white"/>
<path d="M87.2171 183.783C91.2959 184.562 94.8511 185.235 99.0047 185.186C103.158 185.138 107.4 184.205 110.797 181.825C111.453 181.279 112.197 180.847 112.997 180.549C114.801 180.043 116.587 181.235 118.378 181.79C120.648 182.494 123.139 182.159 125.365 181.314C127.591 180.47 129.593 179.154 131.578 177.843C131.285 181.891 131.189 185.946 131.292 190.009L134.121 190.123L141.368 158.236C141.368 158.236 128.973 172.633 122.932 176.932L111.342 173.949C111.342 173.949 110.251 174.855 107.954 175.313C107.954 175.313 106.903 179.356 100.989 179.365C95.0755 179.374 86.5967 178.582 86.5967 178.582L87.2171 183.783Z" fill="#FEF14B"/>
<path opacity="0.5" d="M87.2171 183.783C91.2959 184.562 94.8511 185.235 99.0047 185.186C103.158 185.138 107.4 184.205 110.797 181.825C111.453 181.279 112.197 180.847 112.997 180.549C114.801 180.043 116.587 181.235 118.378 181.79C120.648 182.494 123.139 182.159 125.365 181.314C127.591 180.47 129.593 179.154 131.578 177.843C131.285 181.891 131.189 185.946 131.292 190.009L134.121 190.123L141.368 158.236C141.368 158.236 128.973 172.633 122.932 176.932L111.342 173.949C111.342 173.949 110.251 174.855 107.954 175.313C107.954 175.313 106.903 179.356 100.989 179.365C95.0755 179.374 86.5967 178.582 86.5967 178.582L87.2171 183.783Z" fill="white"/>
<path d="M75.341 124.286C75.341 124.286 69.9598 150.409 70.2326 159.381C70.2326 159.381 77.5454 157.33 82.6494 159.381C82.6494 159.381 73.9638 158.413 70.2238 162.395C66.4838 166.377 77.9942 176.84 101.024 174.715C101.024 174.715 105.617 176.153 107.949 175.309C107.949 175.309 107.325 179.471 100.984 179.361C94.6702 179.11 76.199 178.956 66.629 170.667C66.6334 170.671 65.4278 146.656 75.341 124.286Z" fill="#FEF14B"/>
<path opacity="0.6" d="M75.341 124.286C75.341 124.286 69.9598 150.409 70.2326 159.381C70.2326 159.381 77.5454 157.33 82.6494 159.381C82.6494 159.381 73.9638 158.413 70.2238 162.395C66.4838 166.377 77.9942 176.84 101.024 174.715C101.024 174.715 105.617 176.153 107.949 175.309C107.949 175.309 107.325 179.471 100.984 179.361C94.6702 179.11 76.199 178.956 66.629 170.667C66.6334 170.671 65.4278 146.656 75.341 124.286Z" fill="white"/>
<path d="M86.3457 129.293C86.3457 129.293 87.9341 140.861 90.4993 143.281C93.0645 145.701 105.019 144.909 109.754 147.518C109.754 147.518 114.211 139.796 122.272 134.965L111.342 152.173L101.895 149.942L90.3629 148.182L89.3949 150.409H87.6613C87.6613 150.409 87.4677 138.062 86.3457 129.293Z" fill="#FEF14B"/>
<path opacity="0.5" d="M86.3457 129.293C86.3457 129.293 87.9341 140.861 90.4993 143.281C93.0645 145.701 105.019 144.909 109.754 147.518C109.754 147.518 114.211 139.796 122.272 134.965L111.342 152.173L101.895 149.942L90.3629 148.182L89.3949 150.409H87.6613C87.6613 150.409 87.4677 138.062 86.3457 129.293Z" fill="white"/>
<path d="M131.529 105.732C136.47 108.64 137.025 111.918 138.041 114.259C135.472 114.769 132.814 115.315 130.693 116.85C128.053 118.769 126.623 121.946 125.514 125.03C124.466 127.949 123.584 130.925 122.874 133.944C125.263 129.63 128.657 125.956 132.77 123.235C135.142 121.668 138.072 120.406 140.778 121.29C138.508 122.254 135.938 123.556 135.458 125.976C135.364 126.378 135.381 126.798 135.507 127.19C135.912 128.33 137.328 128.638 138.402 129.192C140.496 130.27 141.588 132.712 141.68 135.08C141.772 137.447 141.046 139.735 140.329 141.974C139.699 143.937 139.068 145.899 138.437 147.862C137.632 150.37 136.814 152.913 135.357 155.113C133.901 157.313 131.714 159.156 129.114 159.588C128.026 159.797 126.901 159.67 125.888 159.222C125.121 158.805 124.407 158.295 123.763 157.704C120.644 155.185 116.895 153.566 112.922 153.023C118.034 156.402 120.454 162.54 122.575 168.291C121.601 166.586 120.198 165.166 118.505 164.172C118.071 163.87 117.556 163.708 117.027 163.706C115.636 163.816 115.196 165.589 114.36 166.698C113.357 168.018 111.522 168.489 109.877 168.278C108.231 168.066 106.718 167.296 105.239 166.518L86.5348 156.873L85.2148 160.833C85.2148 160.833 100.113 172.713 122.94 176.915C122.94 176.915 137.768 165.198 143.022 154.809C148.276 144.421 156.438 123.129 156.438 123.129C156.438 123.129 153.45 117.471 148.328 114.518C148.328 114.518 144.505 112.71 143.7 110.475C142.894 108.24 135.709 104.381 135.709 104.381C135.709 104.381 136.642 106.766 131.529 105.732Z" fill="#FEF14B"/>
<path opacity="0.6" d="M131.529 105.732C136.47 108.64 137.025 111.918 138.041 114.259C135.472 114.769 132.814 115.315 130.693 116.85C128.053 118.769 126.623 121.946 125.514 125.03C124.466 127.949 123.584 130.925 122.874 133.944C125.263 129.63 128.657 125.956 132.77 123.235C135.142 121.668 138.072 120.406 140.778 121.29C138.508 122.254 135.938 123.556 135.458 125.976C135.364 126.378 135.381 126.798 135.507 127.19C135.912 128.33 137.328 128.638 138.402 129.192C140.496 130.27 141.588 132.712 141.68 135.08C141.772 137.447 141.046 139.735 140.329 141.974C139.699 143.937 139.068 145.899 138.437 147.862C137.632 150.37 136.814 152.913 135.357 155.113C133.901 157.313 131.714 159.156 129.114 159.588C128.026 159.797 126.901 159.67 125.888 159.222C125.121 158.805 124.407 158.295 123.763 157.704C120.644 155.185 116.895 153.566 112.922 153.023C118.034 156.402 120.454 162.54 122.575 168.291C121.601 166.586 120.198 165.166 118.505 164.172C118.071 163.87 117.556 163.708 117.027 163.706C115.636 163.816 115.196 165.589 114.36 166.698C113.357 168.018 111.522 168.489 109.877 168.278C108.231 168.066 106.718 167.296 105.239 166.518L86.5348 156.873L85.2148 160.833C85.2148 160.833 100.113 172.713 122.94 176.915C122.94 176.915 137.768 165.198 143.022 154.809C148.276 144.421 156.438 123.129 156.438 123.129C156.438 123.129 153.45 117.471 148.328 114.518C148.328 114.518 144.505 112.71 143.7 110.475C142.894 108.24 135.709 104.381 135.709 104.381C135.709 104.381 136.642 106.766 131.529 105.732Z" fill="white"/>
<path d="M129.958 65.23C129.958 65.23 130.957 53.5832 125.937 52.47C120.916 51.3568 118.096 46.75 118.096 46.75L100.285 51.722L97.5215 62.4316L99.2815 67.8524C99.2815 67.8524 99.6511 72.8816 99.7215 75.3676C99.7919 77.8536 99.7215 79.7676 101.605 82.786C103.488 85.8044 105.239 88.8008 109.309 91.41V98.2696C109.309 98.2696 106.792 105.613 108.183 110.119C108.183 110.119 109.014 110.999 111.311 109.679C113.608 108.359 123.433 101.794 126.861 94.9388L127.925 77.5104C127.925 77.5104 130.755 77.9504 131.973 75.372C133.764 72.8508 133.694 69.9116 132.999 67.518C132.303 65.1244 129.311 66.6732 129.311 66.6732L129.958 65.23Z" fill="#E5E5E5"/>
<path d="M109.503 82.306C110.007 81.7576 110.627 81.3296 111.319 81.0539C112.01 80.7781 112.755 80.6617 113.498 80.7132C113.498 80.7132 115.641 77.3296 117.898 77.95C117.898 77.95 118.593 81.536 115.887 82.9484C112.367 84.7832 109.503 82.306 109.503 82.306Z" fill="#737373"/>
<path d="M102.885 50.2383C102.885 50.2383 98.6213 55.8395 98.8677 61.6783C99.1141 67.5171 99.9633 71.6575 99.7169 76.1631C99.4705 80.6687 104.223 88.2147 109.093 91.2551C112.732 93.5299 117.295 93.1427 120.837 90.8151C124.797 88.1751 126.975 83.4319 127.771 78.8779C127.851 78.4379 127.912 77.9979 127.956 77.5227" stroke="#263238" stroke-width="0.44" stroke-linecap="round" stroke-linejoin="round"/>
<path d="M109.094 91.2593C109.094 91.2593 109.785 97.5689 109.094 99.7293C108.333 102.101 107.413 107.623 108.214 110.118C109.015 112.613 123.997 102.127 126.892 94.9333C126.892 94.9333 127.292 80.9545 128.291 77.4609" stroke="#263238" stroke-width="0.44" stroke-linecap="round" stroke-linejoin="round"/>
<path d="M108.68 82.1514C108.68 82.1514 115.495 84.0786 118.285 77.043" stroke="#263238" stroke-width="0.44" stroke-linecap="round" stroke-linejoin="round"/>
<path d="M109.229 92.778C109.229 92.778 110.681 97.2792 113.814 97.5476C116.947 97.816 124.783 91.5372 127.454 84.1408V80.4404C127.454 80.4404 125.254 90.1204 118.813 91.8804C112.371 93.6404 109.357 91.4008 109.357 91.4008L109.229 92.778Z" fill="#263238"/>
<path d="M117.893 77.9502C114.866 77.739 113.493 80.7134 113.493 80.7134C112.747 80.6224 111.99 80.7205 111.292 80.9989C110.594 81.2772 109.977 81.7268 109.498 82.3062C110.244 82.9752 111.161 83.424 112.147 83.6027C113.132 83.7813 114.148 83.6829 115.082 83.3182C118.522 82.1214 117.893 77.9502 117.893 77.9502Z" stroke="#263238" stroke-width="0.44" stroke-linecap="round" stroke-linejoin="round"/>
<path d="M110.304 64.6797C110.341 66.0756 110.279 67.4725 110.119 68.8597C109.956 70.1049 109.38 71.2973 108.9 72.4677C108.46 73.5325 107.725 75.1693 108.337 76.2913C109.032 77.5629 111.342 76.2913 111.342 76.2913" stroke="#263238" stroke-width="0.44" stroke-linecap="round" stroke-linejoin="round"/>
<path d="M112.763 76.0266C113.541 76.1322 114.646 76.0266 114.866 74.6758" stroke="#263238" stroke-width="0.44" stroke-linecap="round" stroke-linejoin="round"/>
<path d="M115.28 62.9987C116.033 62.2806 117.034 61.8799 118.074 61.8799C119.115 61.8799 120.115 62.2806 120.868 62.9987" stroke="#263238" stroke-width="0.88" stroke-linecap="round" stroke-linejoin="round"/>
<path d="M106.401 64.0991C106.401 64.0991 104.337 61.4591 101.636 64.0991" stroke="#263238" stroke-width="0.88" stroke-linecap="round" stroke-linejoin="round"/>
<path d="M126.337 70.7736C126.337 70.7736 128.691 65.1196 131.762 66.334C133.879 67.1744 134.006 70.8264 132.884 73.374C131.762 75.9216 131.199 78.5176 127.459 77.0656" stroke="#263238" stroke-width="0.44" stroke-linecap="round" stroke-linejoin="round"/>
<path d="M126.755 69.9067C126.755 69.9067 124.493 69.1059 124.075 65.4319C123.657 61.7579 125.91 58.0795 125.074 55.4395C124.238 52.7995 117.651 54.1195 116.151 49.5171C116.151 49.5171 111.205 53.2043 101.631 52.4123C101.631 52.4123 99.611 55.8531 99.259 57.9563C98.7876 61.2448 98.7994 64.5845 99.2942 67.8695C99.2942 67.9839 99.3338 68.0939 99.3558 68.2083C100.042 71.7899 96.6234 63.3331 96.7158 59.7207C96.8082 56.1083 94.6302 51.5191 97.4682 48.1003C100.306 44.6815 110.712 42.6795 112.763 41.0735C114.813 39.4675 118.799 43.7443 123.406 45.3195C128.013 46.8947 131.832 48.7735 131.251 55.3075C130.671 61.8415 131.282 62.7171 131.309 66.1579C131.309 66.1667 129.179 65.3659 126.755 69.9067Z" fill="#263238"/>
<path d="M118.082 67.7593C118.082 68.6393 117.744 69.3697 117.321 69.3697C116.899 69.3697 116.564 68.6481 116.564 67.7593C116.564 66.8705 116.903 66.1533 117.321 66.1533C117.739 66.1533 118.082 66.8793 118.082 67.7593Z" fill="#263238"/>
<path d="M106.4 67.7593C106.4 68.6393 106.062 69.3697 105.644 69.3697C105.226 69.3697 104.887 68.6481 104.887 67.7593C104.887 66.8705 105.226 66.1533 105.644 66.1533C106.062 66.1533 106.4 66.8793 106.4 67.7593Z" fill="#263238"/>
<path d="M115.28 69.9062C115.28 69.9062 116.851 71.5739 118.84 71.8115" stroke="#263238" stroke-width="0.44" stroke-linecap="round" stroke-linejoin="round"/>
<path d="M104.579 71.8115C104.579 71.8115 107.452 71.609 108.099 69.9062" stroke="#263238" stroke-width="0.44" stroke-linecap="round" stroke-linejoin="round"/>
<path d="M111.258 111.187C113.396 109.828 116.225 110.338 118.566 111.302C119.851 111.834 121.074 112.503 122.355 113.062C122.988 113.341 123.641 113.574 124.308 113.757C125.914 114.175 125.338 112.182 125.245 111.288C125.113 110.008 125.021 108.723 124.867 107.452C124.804 107.188 124.835 106.911 124.955 106.668C125.113 106.473 125.334 106.337 125.58 106.286C128.4 105.406 131.441 105.793 134.38 105.846C134.647 105.877 134.917 105.826 135.154 105.7C135.594 105.414 135.546 104.768 135.427 104.257C134.411 99.9099 130.825 95.5847 126.926 93.4111" stroke="#263238" stroke-width="0.44" stroke-linecap="round" stroke-linejoin="round"/>
<path d="M109.34 94.1152C107.4 94.9248 105.406 95.7652 103.734 97.006C103.128 97.4484 102.569 97.9527 102.067 98.5108C101.662 98.8957 101.408 99.412 101.35 99.9672C101.36 100.225 101.429 100.478 101.55 100.706C101.671 100.935 101.842 101.133 102.049 101.287C102.345 101.53 102.67 101.734 103.017 101.894C103.827 102.277 104.777 102.651 105.12 103.465C105.204 103.636 105.234 103.827 105.208 104.015C105.165 104.18 105.08 104.332 104.962 104.455C104.293 105.269 103.114 105.898 103.202 106.95C103.259 107.764 104.082 108.27 104.812 108.631C105.543 108.992 106.396 109.366 106.647 110.144" stroke="#263238" stroke-width="0.44" stroke-linecap="round" stroke-linejoin="round"/>
<path d="M97.8516 52.8567C98.1376 51.0967 99.9768 49.9615 101.746 49.6755C103.514 49.3895 105.332 49.6755 107.114 49.5215C108.604 49.3743 110.045 48.9088 111.34 48.1565C112.635 47.4043 113.754 46.3828 114.62 45.1611" stroke="white" stroke-width="0.44" stroke-linecap="round" stroke-linejoin="round"/>
<path d="M99.8535 47.9111C103.048 46.0235 107.536 47.9859 110.651 45.9707C111.533 45.3289 112.3 44.5435 112.922 43.6475" stroke="white" stroke-width="0.44" stroke-linecap="round" stroke-linejoin="round"/>
<path d="M140.602 120.119C129.162 122.403 124.894 130.82 124.894 130.82L111.342 152.164" stroke="#263238" stroke-width="0.44" stroke-linecap="round" stroke-linejoin="round"/>
<path d="M130.931 117.814C131.88 116.935 132.955 116.202 134.121 115.641" stroke="#263238" stroke-width="0.44" stroke-linecap="round" stroke-linejoin="round"/>
<path d="M122.932 133.926C122.932 133.926 124.375 126.218 128.52 120.537" stroke="#263238" stroke-width="0.44" stroke-linecap="round" stroke-linejoin="round"/>
<path d="M87.6615 150.374C87.6615 150.374 87.0675 126.759 85.0215 123.151" stroke="#263238" stroke-width="0.44" stroke-linecap="round" stroke-linejoin="round"/>
<path d="M135.445 104.249C135.445 104.249 142.045 108.209 144.975 111.931C147.906 115.654 154.831 118.127 156.415 123.151C156.415 123.151 147.294 151.892 137.737 162.281C128.181 172.669 122.918 176.933 122.918 176.933C122.918 176.933 99.9282 172.937 85.0166 160.415L90.3494 148.161C90.3494 148.161 105.384 150.062 111.329 152.174C117.273 154.286 122.918 167.077 122.918 167.077" stroke="#263238" stroke-width="0.44" stroke-linecap="round" stroke-linejoin="round"/>
<path d="M111.342 152.174C111.342 152.174 121.867 154.22 125.285 159.011" stroke="#263238" stroke-width="0.44" stroke-linecap="round" stroke-linejoin="round"/>
<path d="M141.627 157.102L134.121 190.124H88.1631L86.5967 178.582" stroke="#263238" stroke-width="0.44" stroke-linecap="round" stroke-linejoin="round"/>
<path d="M107.954 175.313C105.415 180.514 102.067 179.365 102.067 179.365C76.1726 180.346 66.6334 170.671 66.6334 170.671C66.6334 170.671 65.3134 157.062 70.4042 138.696C75.495 120.33 85.0298 104.248 85.0298 104.248C89.2582 101.437 98.6918 99.2411 101.354 98.6603L102.067 98.5107" stroke="#263238" stroke-width="0.44" stroke-linecap="round" stroke-linejoin="round"/>
<path d="M102.08 179.366C102.08 179.366 100.712 179.141 101.059 170.068" stroke="#263238" stroke-width="0.44" stroke-linecap="round" stroke-linejoin="round"/>
<path d="M85.7294 160.995C85.7294 160.995 79.2614 158.716 71.249 164.26" stroke="#263238" stroke-width="0.44" stroke-linecap="round" stroke-linejoin="round"/>
<path d="M72.7012 159.011C72.7012 159.011 81.1756 156.489 85.0212 160.529" stroke="#263238" stroke-width="0.44" stroke-linecap="round" stroke-linejoin="round"/>
<path d="M84.106 160.301L85.206 160.851L89.3948 150.387C89.3948 150.387 85.0564 149.679 78.1836 158.237C80.3297 158.262 82.4091 158.986 84.106 160.301Z" fill="#999999" stroke="#263238" stroke-width="0.44" stroke-miterlimit="10"/>
<path d="M101.046 170.068V174.719C101.046 174.719 106.973 176.479 111.359 173.949L101.046 170.068Z" fill="#999999" stroke="#263238" stroke-width="0.44" stroke-miterlimit="10"/>
<path d="M133.17 105.797C133.174 105.883 133.165 105.969 133.144 106.053C132.959 106.779 128.44 123.837 113.977 131.427C113.851 131.495 113.711 131.53 113.568 131.529C113.371 131.529 113.18 131.463 113.026 131.341C112.871 131.22 112.761 131.05 112.714 130.859C112.667 130.669 112.685 130.467 112.766 130.288C112.846 130.109 112.985 129.961 113.159 129.87C126.359 122.949 131.01 107.175 131.414 105.723L133.17 105.797Z" fill="#263238"/>
<path d="M102.049 101.274C99.7628 106.497 98.5292 112.119 98.4192 117.818C98.4192 118.28 98.4192 118.751 98.4192 119.231C98.4192 119.35 98.4192 119.468 98.4192 119.587C98.2879 119.592 98.1571 119.605 98.0276 119.627C97.5515 119.702 97.0899 119.85 96.6592 120.067C96.6592 119.42 96.6592 118.791 96.6592 118.17C96.8484 108.297 99.7964 101.578 101.367 98.674L102.08 98.5244C101.675 98.9092 101.421 99.4256 101.363 99.9808C101.376 100.233 101.444 100.48 101.563 100.704C101.681 100.927 101.847 101.122 102.049 101.274Z" fill="#263238"/>
<path d="M119.376 127.458C120.406 128.888 119.561 131.264 117.484 132.765C115.407 134.265 112.89 134.318 111.856 132.888C110.822 131.458 111.667 129.082 113.744 127.581C115.821 126.081 118.36 126.028 119.376 127.458Z" fill="white" stroke="#263238" stroke-width="0.44" stroke-linecap="round" stroke-linejoin="round"/>
<path d="M116.816 126.609C117.546 127.621 116.948 129.302 115.496 130.362C114.044 131.423 112.244 131.462 111.536 130.45C110.827 129.438 111.404 127.758 112.856 126.697C114.308 125.637 116.085 125.602 116.816 126.609Z" fill="white" stroke="#263238" stroke-width="0.44" stroke-linecap="round" stroke-linejoin="round"/>
<path d="M105.186 144.47C104.999 144.594 104.771 144.642 104.549 144.604C104.327 144.565 104.128 144.444 103.994 144.263C103.859 144.083 103.799 143.858 103.825 143.634C103.851 143.411 103.962 143.206 104.134 143.062C104.209 143 107.162 140.488 105.868 132.026C105.758 131.309 105.617 130.544 105.428 129.738C104.869 127.173 104.007 123.926 102.242 121.541C101.823 120.912 101.248 120.402 100.573 120.06C99.8991 119.717 99.1479 119.555 98.3924 119.588C98.2611 119.592 98.1303 119.605 98.0008 119.627C97.5246 119.702 97.063 119.851 96.6324 120.067C95.3179 120.746 94.3203 121.911 93.8516 123.314L93.6932 123.754C92.6954 126.453 91.8796 129.215 91.2512 132.022C90.5472 135.476 90.3096 139.097 91.5592 141.627C91.894 142.321 92.3709 142.937 92.9592 143.435C93.5474 143.933 94.2337 144.302 94.9736 144.518C95.1722 144.583 95.3411 144.717 95.45 144.896C95.5589 145.074 95.6007 145.286 95.5679 145.492C95.535 145.699 95.4297 145.887 95.2709 146.023C95.112 146.159 94.9099 146.233 94.7008 146.234C94.6081 146.234 94.516 146.219 94.428 146.19C93.4657 145.901 92.5739 145.416 91.8089 144.764C91.044 144.113 90.4226 143.31 89.984 142.406C88.576 139.559 88.7608 135.683 89.4736 132.022C90.1055 129.011 90.9615 126.052 92.0344 123.169L92.1928 122.729C92.5387 121.682 93.1181 120.727 93.8872 119.937C94.6563 119.146 95.595 118.541 96.6324 118.166C96.9914 118.042 97.3611 117.951 97.7368 117.894C97.9612 117.863 98.1768 117.841 98.4056 117.828C99.4355 117.799 100.456 118.03 101.374 118.498C102.292 118.966 103.077 119.657 103.659 120.507C105.622 123.147 106.554 126.636 107.148 129.373C107.355 130.315 107.514 131.199 107.632 132.035C109.023 141.522 105.358 144.346 105.186 144.47Z" fill="#263238" stroke="#263238" stroke-width="0.44" stroke-miterlimit="10"/>
<path d="M94.0853 146.079C94.0853 146.079 97.2753 147.399 98.0849 146.079C98.8945 144.759 98.2389 144.139 97.1345 144.033C96.0337 143.977 94.9308 143.977 93.8301 144.033L94.0853 146.079Z" fill="#263238" stroke="#263238" stroke-width="0.44" stroke-miterlimit="10"/>
<path d="M95.5504 145.639C95.4929 145.815 95.3811 145.969 95.2309 146.078C95.0808 146.187 94.9 146.246 94.7144 146.246C94.6217 146.246 94.5297 146.231 94.4416 146.202C93.4794 145.913 92.5876 145.428 91.8226 144.776C91.0577 144.125 90.4362 143.322 89.9976 142.418C88.5896 139.571 88.7744 135.695 89.4872 132.034H91.2472C90.5432 135.488 90.3056 139.109 91.5552 141.639C91.89 142.334 92.367 142.95 92.9552 143.448C93.5434 143.946 94.2297 144.314 94.9696 144.53C95.081 144.564 95.1844 144.62 95.274 144.694C95.3636 144.769 95.4375 144.86 95.4916 144.963C95.5456 145.066 95.5786 145.179 95.5887 145.295C95.5988 145.411 95.5858 145.528 95.5504 145.639Z" fill="white" stroke="#263238" stroke-width="0.44" stroke-linecap="round" stroke-linejoin="round"/>
<path d="M102.247 143.514C102.114 143.672 102.016 143.856 101.959 144.054C101.902 144.251 101.888 144.459 101.917 144.663C102.005 144.964 102.195 145.225 102.456 145.401C102.716 145.576 103.03 145.654 103.342 145.622C103.967 145.539 104.539 145.225 104.944 144.742C105.384 144.249 106.911 141.024 105.498 141.578C104.473 141.966 102.933 142.621 102.247 143.514Z" fill="#263238" stroke="#263238" stroke-width="0.44" stroke-miterlimit="10"/>
<path d="M105.187 144.469C104.999 144.593 104.771 144.641 104.549 144.603C104.328 144.565 104.129 144.443 103.994 144.262C103.86 144.082 103.799 143.857 103.825 143.633C103.851 143.41 103.962 143.205 104.135 143.061C104.21 142.999 107.162 140.487 105.869 132.025H107.629C109.023 141.521 105.358 144.345 105.187 144.469Z" fill="white" stroke="#263238" stroke-width="0.44" stroke-linecap="round" stroke-linejoin="round"/>
<path opacity="0.2" d="M113.08 66.6989C113.08 66.6989 118.62 63.8213 123.711 66.6989C123.711 66.6989 123.794 70.9449 121.871 72.6917C121.189 73.3121 118.065 73.4177 116.882 73.3121C112.077 72.8765 113.08 66.6989 113.08 66.6989Z" fill="white"/>
<path opacity="0.2" d="M109.604 66.6989C109.604 66.6989 104.064 63.8213 98.9781 66.6989C98.9781 66.6989 98.8945 70.9449 100.813 72.6917C101.495 73.3121 104.623 73.4177 105.802 73.3121C110.607 72.8765 109.604 66.6989 109.604 66.6989Z" fill="white"/>
<path d="M113.08 66.6989C113.08 66.6989 118.62 63.8213 123.711 66.6989C123.711 66.6989 123.794 70.9449 121.871 72.6917C121.189 73.3121 118.065 73.4177 116.882 73.3121C112.077 72.8765 113.08 66.6989 113.08 66.6989Z" stroke="#263238" stroke-width="0.44" stroke-miterlimit="10"/>
<path d="M109.604 66.6989C109.604 66.6989 104.064 63.8213 98.9781 66.6989C98.9781 66.6989 98.8945 70.9449 100.813 72.6917C101.495 73.3121 104.623 73.4177 105.802 73.3121C110.607 72.8765 109.604 66.6989 109.604 66.6989Z" stroke="#263238" stroke-width="0.44" stroke-miterlimit="10"/>
<path d="M109.604 66.6987C109.604 66.6987 110.844 65.7879 113.08 66.6987" stroke="#263238" stroke-width="0.44" stroke-miterlimit="10"/>
<path d="M123.71 66.6992L126.024 67.7728" stroke="#263238" stroke-width="0.44" stroke-miterlimit="10"/>
<path d="M35.1211 201.836L51.4055 186.454H180.651L190.437 201.836H35.1211Z" fill="white" stroke="#263238" stroke-width="0.44" stroke-linecap="round" stroke-linejoin="round"/>
<path d="M190.437 201.837H35.1211V205.977H190.437V201.837Z" fill="#263238" stroke="#263238" stroke-width="0.44" stroke-linecap="round" stroke-linejoin="round"/>
<path d="M51.4053 198.036V194.846H76.9253V198.036H72.0017H51.4053Z" fill="white" stroke="#263238" stroke-width="0.44" stroke-miterlimit="10"/>
<path d="M51.4053 194.846L66.4797 184.734L86.5965 185.21L76.9253 194.846H51.4053Z" fill="white" stroke="#263238" stroke-width="0.44" stroke-linecap="round" stroke-linejoin="round"/>
<path d="M76.9248 198.036L86.596 188.347V185.21L76.9248 194.846V198.036Z" fill="white" stroke="#263238" stroke-width="0.44" stroke-linecap="round" stroke-linejoin="round"/>
<path d="M76.2345 194.04C76.2345 194.04 74.1973 194.445 74.1973 196.209C74.1973 197.974 75.9573 198.493 75.9573 198.493" stroke="#263238" stroke-width="0.88" stroke-linecap="round" stroke-linejoin="round"/>
<path d="M74.1974 194.04C74.1974 194.04 72.1602 194.445 72.1602 196.209C72.1602 197.974 73.9202 198.493 73.9202 198.493" stroke="#263238" stroke-width="0.88" stroke-linecap="round" stroke-linejoin="round"/>
<path d="M72.1602 194.04C72.1602 194.04 70.123 194.445 70.123 196.209C70.123 197.974 71.883 198.493 71.883 198.493" stroke="#263238" stroke-width="0.88" stroke-linecap="round" stroke-linejoin="round"/>
<path d="M70.1231 194.04C70.1231 194.04 68.0859 194.445 68.0859 196.209C68.0859 197.974 69.8459 198.493 69.8459 198.493" stroke="#263238" stroke-width="0.88" stroke-linecap="round" stroke-linejoin="round"/>
<path d="M68.086 194.04C68.086 194.04 66.0488 194.445 66.0488 196.209C66.0488 197.974 67.8088 198.493 67.8088 198.493" stroke="#263238" stroke-width="0.88" stroke-linecap="round" stroke-linejoin="round"/>
<path d="M66.0489 194.04C66.0489 194.04 64.0117 194.445 64.0117 196.209C64.0117 197.974 65.7717 198.493 65.7717 198.493" stroke="#263238" stroke-width="0.88" stroke-linecap="round" stroke-linejoin="round"/>
<path d="M64.0108 194.04C64.0108 194.04 61.9736 194.445 61.9736 196.209C61.9736 197.974 63.7336 198.493 63.7336 198.493" stroke="#263238" stroke-width="0.88" stroke-linecap="round" stroke-linejoin="round"/>
<path d="M61.9737 194.04C61.9737 194.04 59.9365 194.445 59.9365 196.209C59.9365 197.974 61.6965 198.493 61.6965 198.493" stroke="#263238" stroke-width="0.88" stroke-linecap="round" stroke-linejoin="round"/>
<path d="M59.6856 194.04C59.6856 194.04 57.6484 194.445 57.6484 196.209C57.6484 197.974 59.4084 198.493 59.4084 198.493" stroke="#263238" stroke-width="0.88" stroke-linecap="round" stroke-linejoin="round"/>
<path d="M57.3936 194.04C57.3936 194.04 55.3564 194.445 55.3564 196.209C55.3564 197.974 57.1164 198.493 57.1164 198.493" stroke="#263238" stroke-width="0.88" stroke-linecap="round" stroke-linejoin="round"/>
<path d="M54.8458 194.04C54.8458 194.04 52.8086 194.445 52.8086 196.209C52.8086 197.974 54.5686 198.493 54.5686 198.493" stroke="#263238" stroke-width="0.88" stroke-linecap="round" stroke-linejoin="round"/>
<path d="M67.7603 187.212C66.3549 187.987 65.2411 189.2 64.5879 190.666C66.4403 190.081 67.9055 188.761 69.3091 187.441L67.7867 191.216C68.4875 191.159 69.1651 190.938 69.7644 190.57C70.3638 190.202 70.868 189.698 71.2363 189.1C71.1157 189.152 71.0074 189.228 70.9186 189.325C70.8298 189.422 70.7624 189.536 70.7209 189.661C70.6793 189.786 70.6646 189.918 70.6776 190.048C70.6906 190.179 70.731 190.306 70.7963 190.42C72.0723 190.235 72.8863 189.003 73.5287 187.885C73.6467 188.507 73.6925 189.14 73.6651 189.773C74.7321 189.926 75.8206 189.787 76.8155 189.372" stroke="#263238" stroke-width="0.33" stroke-linecap="round" stroke-linejoin="round"/>
<path d="M179.788 171.046H135.432V195.4H179.788V171.046Z" fill="white" stroke="#263238" stroke-width="0.44" stroke-linecap="round" stroke-linejoin="round"/>
<path d="M135.26 195.395L128.128 188.615V164.261L135.26 171.046V195.395Z" fill="white" stroke="#263238" stroke-width="0.44" stroke-linecap="round" stroke-linejoin="round"/>
<path d="M179.788 171.046L172.656 164.261H128.304L135.432 171.046H179.788Z" fill="white" stroke="#263238" stroke-width="0.44" stroke-linecap="round" stroke-linejoin="round"/>
<path d="M163.478 180.18H159.557V176.079H154.031V180.18H149.754V185.706H154.031V189.803H159.557V185.706H163.478V180.18Z" fill="#FEF14B" stroke="#263238" stroke-width="0.44" stroke-miterlimit="10"/>
<path d="M157.225 171.046L150.093 164.261" stroke="#263238" stroke-width="0.44" stroke-linecap="round" stroke-linejoin="round"/>
<path d="M63.4684 67.538C68.6422 62.3641 68.6422 53.9757 63.4684 48.8019C58.2945 43.6281 49.9061 43.6281 44.7323 48.8019C39.5585 53.9757 39.5585 62.3641 44.7323 67.538C49.9061 72.7118 58.2945 72.7118 63.4684 67.538Z" fill="white" stroke="#263238" stroke-width="0.44" stroke-linecap="round" stroke-linejoin="round"/>
<path d="M65.12 56.1401C65.1199 57.0269 64.8418 57.8914 64.3249 58.612C63.8079 59.3326 63.0781 59.873 62.238 60.1573L56.32 62.1505L49.1172 64.5837C48.0562 64.9325 46.9003 64.8478 45.9014 64.3481C44.9025 63.8483 44.1416 62.974 43.7846 61.9157C43.4275 60.8573 43.5033 59.7008 43.9953 58.6981C44.4873 57.6953 45.3557 56.9277 46.4112 56.5625L52.954 54.3625L59.5276 52.1625C60.1636 51.9486 60.8413 51.8888 61.5049 51.988C62.1685 52.0872 62.799 52.3425 63.3446 52.733C63.8902 53.1236 64.3353 53.6381 64.6432 54.2342C64.9511 54.8304 65.113 55.4911 65.1156 56.1621L65.12 56.1401Z" fill="white"/>
<path d="M65.1201 56.1406C65.12 57.0274 64.8419 57.8919 64.3249 58.6125C63.808 59.3331 63.0781 59.8735 62.2381 60.1578L56.3201 62.151C56.1623 59.2355 54.9686 56.4721 52.9541 54.3586L59.5277 52.1586C60.1637 51.9447 60.8413 51.8849 61.5049 51.9841C62.1685 52.0832 62.7991 52.3386 63.3447 52.7291C63.8903 53.1197 64.3354 53.6342 64.6433 54.2303C64.9512 54.8265 65.1131 55.4872 65.1157 56.1582L65.1201 56.1406Z" fill="#FEF14B"/>
<path d="M65.12 56.1401C65.1199 57.0269 64.8418 57.8914 64.3249 58.612C63.8079 59.3326 63.0781 59.873 62.238 60.1573L56.32 62.1505L49.1172 64.5837C48.0562 64.9325 46.9003 64.8478 45.9014 64.3481C44.9025 63.8483 44.1416 62.974 43.7846 61.9157C43.4275 60.8573 43.5033 59.7008 43.9953 58.6981C44.4873 57.6953 45.3557 56.9277 46.4112 56.5625L52.954 54.3625L59.5276 52.1625C60.1636 51.9486 60.8413 51.8888 61.5049 51.988C62.1685 52.0872 62.799 52.3425 63.3446 52.733C63.8902 53.1236 64.3353 53.6381 64.6432 54.2342C64.9511 54.8304 65.113 55.4911 65.1156 56.1621L65.12 56.1401Z" stroke="#263238" stroke-width="0.44" stroke-linecap="round" stroke-linejoin="round"/>
<path d="M56.3201 62.1508C56.1854 59.2299 54.9884 56.4587 52.9541 54.3584" stroke="#263238" stroke-width="0.44" stroke-linecap="round" stroke-linejoin="round"/>
<path d="M63.7031 54.5605C63.9809 55.0285 64.1212 55.5653 64.1079 56.1093" stroke="white" stroke-width="0.44" stroke-linecap="round" stroke-linejoin="round"/>
<path d="M54.626 55.0008L59.906 53.2408C60.3796 53.0784 60.8832 53.023 61.3808 53.0785C61.8784 53.1341 62.3575 53.2992 62.7836 53.562" stroke="white" stroke-width="0.44" stroke-linecap="round" stroke-linejoin="round"/>
<path d="M144.118 40.1974C150.856 37.3456 154.007 29.5712 151.155 22.833C148.303 16.0948 140.529 12.9443 133.79 15.7962C127.052 18.6481 123.902 26.4224 126.754 33.1606C129.606 39.8988 137.38 43.0493 144.118 40.1974Z" fill="white" stroke="#263238" stroke-width="0.44" stroke-linecap="round" stroke-linejoin="round"/>
<path d="M143.523 33.5413L131.969 29.6737C131.008 29.3508 130.215 28.6595 129.763 27.7519C129.312 26.8444 129.239 25.7947 129.562 24.8337C129.885 23.873 130.576 23.0798 131.484 22.6285C132.391 22.1771 133.441 22.1047 134.402 22.4269L145.956 26.2901C146.916 26.6141 147.709 27.3055 148.16 28.2127C148.611 29.12 148.684 30.1691 148.363 31.1301C148.04 32.091 147.349 32.8845 146.441 33.3365C145.534 33.7885 144.485 33.8622 143.523 33.5413Z" fill="#FEF14B"/>
<path d="M135.058 29.3656L136.994 24.7412" stroke="#263238" stroke-width="0.44" stroke-linecap="round" stroke-linejoin="round"/>
<path d="M141.425 31.4823L143.352 26.8711" stroke="#263238" stroke-width="0.44" stroke-linecap="round" stroke-linejoin="round"/>
<path d="M136.655 29.6387C136.872 29.6387 137.047 29.4633 137.047 29.2471C137.047 29.0308 136.872 28.8555 136.655 28.8555C136.439 28.8555 136.264 29.0308 136.264 29.2471C136.264 29.4633 136.439 29.6387 136.655 29.6387Z" fill="#263238"/>
<path d="M140.505 30.4004C140.505 30.4778 140.482 30.5536 140.439 30.618C140.396 30.6823 140.335 30.7325 140.263 30.7622C140.192 30.7918 140.113 30.7996 140.037 30.7845C139.961 30.7694 139.891 30.7321 139.836 30.6773C139.782 30.6225 139.744 30.5528 139.729 30.4768C139.714 30.4008 139.722 30.3221 139.751 30.2505C139.781 30.179 139.831 30.1178 139.896 30.0748C139.96 30.0318 140.036 30.0088 140.113 30.0088C140.217 30.0088 140.317 30.05 140.39 30.1235C140.464 30.1969 140.505 30.2965 140.505 30.4004Z" fill="#263238"/>
<path d="M138.173 26.1543C138.389 26.1543 138.564 25.979 138.564 25.7627C138.564 25.5464 138.389 25.3711 138.173 25.3711C137.957 25.3711 137.781 25.5464 137.781 25.7627C137.781 25.979 137.957 26.1543 138.173 26.1543Z" fill="#263238"/>
<path d="M141.966 26.8799C141.966 26.9573 141.943 27.033 141.9 27.0974C141.857 27.1618 141.796 27.212 141.724 27.2417C141.653 27.2713 141.574 27.2791 141.498 27.264C141.422 27.2488 141.352 27.2116 141.297 27.1568C141.243 27.102 141.205 27.0322 141.19 26.9563C141.175 26.8803 141.183 26.8016 141.212 26.73C141.242 26.6585 141.292 26.5973 141.357 26.5543C141.421 26.5112 141.497 26.4883 141.574 26.4883C141.678 26.4883 141.778 26.5295 141.851 26.603C141.925 26.6764 141.966 26.776 141.966 26.8799Z" fill="#263238"/>
<path d="M143.523 33.5413L131.969 29.6737C131.008 29.3508 130.215 28.6595 129.763 27.7519C129.312 26.8444 129.239 25.7947 129.562 24.8337C129.885 23.873 130.576 23.0798 131.484 22.6285C132.391 22.1771 133.441 22.1047 134.402 22.4269L145.956 26.2901C146.916 26.6141 147.709 27.3055 148.16 28.2127C148.611 29.12 148.684 30.1691 148.363 31.1301C148.04 32.091 147.349 32.8845 146.441 33.3365C145.534 33.7885 144.485 33.8622 143.523 33.5413Z" stroke="#263238" stroke-width="0.44" stroke-linecap="round" stroke-linejoin="round"/>
<path d="M88.9418 40.5251C96.2586 40.5251 102.19 34.5936 102.19 27.2767C102.19 19.9598 96.2586 14.0283 88.9418 14.0283C81.6249 14.0283 75.6934 19.9598 75.6934 27.2767C75.6934 34.5936 81.6249 40.5251 88.9418 40.5251Z" fill="white" stroke="#263238" stroke-width="0.44" stroke-linecap="round" stroke-linejoin="round"/>
<path d="M96.5316 27.6149V33.0445C96.5316 34.4217 95.6516 35.5393 94.5736 35.5393H83.3096C82.2272 35.5393 81.3516 34.4217 81.3516 33.0445V27.6149C81.3516 26.2377 82.2316 25.1201 83.3096 25.1201H85.162V21.9697H92.642V25.1201H94.5604C95.6516 25.1201 96.5316 26.2377 96.5316 27.6149Z" fill="white" stroke="#263238" stroke-width="0.44" stroke-linecap="round" stroke-linejoin="round"/>
<path d="M96.5272 28.2402H81.3516V31.6062H96.5272V28.2402Z" fill="#FEF14B" stroke="#263238" stroke-width="0.44" stroke-miterlimit="10"/>
<path d="M86.1958 18.2822H91.7574C92.3852 18.2822 92.9873 18.5316 93.4313 18.9756C93.8752 19.4195 94.1246 20.0216 94.1246 20.6494V23.109H83.8242V20.6494C83.8242 20.3382 83.8856 20.03 84.0048 19.7425C84.1241 19.455 84.2988 19.1939 84.5191 18.974C84.7394 18.7541 85.0009 18.5799 85.2886 18.4612C85.5763 18.3425 85.8846 18.2817 86.1958 18.2822Z" fill="#FEF14B" stroke="#263238" stroke-width="0.44" stroke-miterlimit="10"/>
<path d="M85.624 18.4326V23.1098" stroke="#263238" stroke-width="0.44" stroke-linecap="round" stroke-linejoin="round"/>
<path d="M88.0566 18.2822V23.109" stroke="#263238" stroke-width="0.44" stroke-linecap="round" stroke-linejoin="round"/>
<path d="M90.4902 18.2822V23.109" stroke="#263238" stroke-width="0.44" stroke-linecap="round" stroke-linejoin="round"/>
<path d="M92.9238 18.5557V23.1097" stroke="#263238" stroke-width="0.44" stroke-linecap="round" stroke-linejoin="round"/>
<path d="M54.9991 99.7029C56.1828 92.4824 51.2889 85.6694 44.0684 84.4857C36.8479 83.302 30.035 88.1958 28.8513 95.4163C27.6676 102.637 32.5614 109.45 39.7819 110.634C47.0024 111.817 53.8154 106.923 54.9991 99.7029Z" fill="white" stroke="#263238" stroke-width="0.44" stroke-linecap="round" stroke-linejoin="round"/>
<path d="M48.6459 100.977C50.0889 97.9253 48.1048 93.9602 44.2143 92.1204C40.3238 90.2805 36.0002 91.2626 34.5571 94.3139C33.1141 97.3653 35.0982 101.33 38.9887 103.17C42.8792 105.01 47.2029 104.028 48.6459 100.977Z" fill="#FEF14B" stroke="#263238" stroke-width="0.44" stroke-linecap="round" stroke-linejoin="round"/>
<path d="M49.1267 99.9389C50.4804 97.0765 48.4239 93.2645 44.5334 91.4246C40.6429 89.5848 36.3916 90.4137 35.0379 93.2761C33.6843 96.1385 35.7408 99.9505 39.6313 101.79C43.5218 103.63 47.7731 102.801 49.1267 99.9389Z" fill="#FEF14B" stroke="#263238" stroke-width="0.44" stroke-linecap="round" stroke-linejoin="round"/>
<path d="M44.3297 92.6914L39.5205 99.4542" stroke="#263238" stroke-width="0.44" stroke-linecap="round" stroke-linejoin="round"/>
<path d="M41.4346 91.5957C42.0791 91.6826 42.714 91.8299 43.331 92.0357" stroke="white" stroke-width="0.44" stroke-linecap="round" stroke-linejoin="round"/>
<path d="M37.1621 97.962C37.1621 97.962 34.7069 95.2736 37.1049 92.682C37.6582 92.1179 38.3789 91.7476 39.1597 91.626" stroke="white" stroke-width="0.44" stroke-linecap="round" stroke-linejoin="round"/>
<path d="M194.551 99.7097C195.735 92.4892 190.841 85.6763 183.62 84.4926C176.4 83.3089 169.587 88.2027 168.403 95.4232C167.219 102.644 172.113 109.457 179.334 110.64C186.554 111.824 193.367 106.93 194.551 99.7097Z" fill="white" stroke="#263238" stroke-width="0.44" stroke-linecap="round" stroke-linejoin="round"/>
<path d="M189.081 98.8946C188.98 99.0398 188.879 99.1894 188.773 99.3346C186.789 102.085 183.731 104.65 181.465 105.156V105.121C179.265 104.628 176.304 102.186 174.319 99.5194C174.209 99.3742 174.104 99.2246 174.002 99.0794C172.093 96.3426 171.288 93.4694 173.413 92.2814C177.734 89.8702 181.465 95.0402 181.465 95.0402C181.465 95.0402 185.205 89.9098 189.517 92.3166C191.585 93.4694 190.876 96.2238 189.081 98.8946Z" fill="#FEF14B" stroke="#263238" stroke-width="0.44" stroke-miterlimit="10"/>
<path d="M189.081 98.8947C188.98 99.0399 188.878 99.1895 188.773 99.3347H187.682L186.432 100.985L185.583 96.0919L184.263 99.4183H181.143L179.546 102.08L178.314 96.6903L176.726 99.5019H174.319C174.209 99.3567 174.103 99.2071 174.002 99.0619H176.47L178.49 95.4847L179.731 100.919L180.906 98.9607H183.986L185.746 94.4551L186.687 99.8935L187.457 98.8771L189.081 98.8947Z" fill="white"/>
<path d="M168.722 71.5661C176.039 71.5661 181.97 65.6346 181.97 58.3177C181.97 51.0008 176.039 45.0693 168.722 45.0693C161.405 45.0693 155.474 51.0008 155.474 58.3177C155.474 65.6346 161.405 71.5661 168.722 71.5661Z" fill="white" stroke="#263238" stroke-width="0.44" stroke-linecap="round" stroke-linejoin="round"/>
<path d="M167.728 52.1932C167.856 52.4792 167.059 53.1128 165.968 53.61C164.877 54.1072 163.856 54.2788 163.728 53.9884C163.601 53.698 164.393 53.0688 165.488 52.5716C166.584 52.0744 167.596 51.9204 167.728 52.1932Z" fill="white" stroke="#263238" stroke-width="0.44" stroke-linecap="round" stroke-linejoin="round"/>
<path d="M173.69 64.4827L169.725 66.4011L166.17 59.0795L163.715 54.0195L167.679 52.0967L170.073 57.0335L173.69 64.4827Z" fill="white" stroke="#263238" stroke-width="0.44" stroke-linecap="round" stroke-linejoin="round"/>
<path d="M164.45 55.5288L166.171 54.7324L164.45 55.5288Z" fill="#FEF14B"/>
<path d="M164.45 55.5288L166.171 54.7324" stroke="#263238" stroke-width="0.44" stroke-linecap="round" stroke-linejoin="round"/>
<path d="M165.197 57.1216L166.918 56.3252L165.197 57.1216Z" fill="#FEF14B"/>
<path d="M165.197 57.1216L166.918 56.3252" stroke="#263238" stroke-width="0.44" stroke-linecap="round" stroke-linejoin="round"/>
<path d="M171.243 65.6661L173.289 68.3501L172.268 65.1689L171.243 65.6661Z" fill="white" stroke="#263238" stroke-width="0.44" stroke-linecap="round" stroke-linejoin="round"/>
<path d="M173.69 64.4824C172.761 65.4116 171.577 66.0428 170.288 66.2952L169.725 66.4008L166.17 59.0792L170.073 57.0332L173.69 64.4824Z" fill="#FEF14B" stroke="#263238" stroke-width="0.44" stroke-miterlimit="10"/>
<path d="M166.918 60.4697L168.537 59.7217" stroke="#263238" stroke-width="0.44" stroke-linecap="round" stroke-linejoin="round"/>
<path d="M167.807 62.1723L169.395 61.4463L167.807 62.1723Z" fill="#FEF14B"/>
<path d="M167.807 62.1723L169.395 61.4463" stroke="#263238" stroke-width="0.44" stroke-linecap="round" stroke-linejoin="round"/>
<path d="M165.088 53.3509L163.834 50.5305L164.82 49.9717L166.17 52.8273L165.088 53.3509Z" fill="white" stroke="#263238" stroke-width="0.44" stroke-linecap="round" stroke-linejoin="round"/>
<path d="M167.239 49.6278L166.94 48.9678L161.66 51.3306L161.959 51.9906C162.083 52.2722 163.363 51.9642 164.824 51.313C166.285 50.6618 167.363 49.905 167.239 49.6278Z" fill="white" stroke="#263238" stroke-width="0.44" stroke-linecap="round" stroke-linejoin="round"/>
<path d="M166.94 48.9679C166.817 48.6907 165.532 48.9943 164.076 49.6455C162.619 50.2967 161.537 51.0535 161.66 51.3307C161.783 51.6079 163.068 51.3043 164.524 50.6487C165.981 49.9931 167.063 49.2451 166.94 48.9679Z" fill="white" stroke="#263238" stroke-width="0.44" stroke-linecap="round" stroke-linejoin="round"/>
</svg>
