<svg width="28" height="28" viewBox="0 0 28 28" fill="none" xmlns="http://www.w3.org/2000/svg">
<path d="M5.649 5.84253H4.96885L4.70312 5.84351V7.1069C5.05411 7.10554 5.47487 7.10401 5.649 7.10401C5.99681 7.10401 6.27977 6.82105 6.27977 6.47324C6.27977 6.12548 5.99681 5.84253 5.649 5.84253Z" fill="#FEF14B"/>
<path d="M17.2285 7.10938C18.1346 7.10938 18.8691 6.37484 18.8691 5.46875C18.8691 4.56266 18.1346 3.82812 17.2285 3.82812C16.3224 3.82812 15.5879 4.56266 15.5879 5.46875C15.5879 6.37484 16.3224 7.10938 17.2285 7.10938Z" fill="#FEF14B"/>
<path d="M5.42708 4.74775C5.68061 4.74775 5.88689 4.54152 5.88689 4.28794C5.88689 4.03435 5.68066 3.82812 5.42708 3.82812H4.70312V4.74895H4.96573C5.15769 4.7483 5.33362 4.74775 5.42708 4.74775Z" fill="#FEF14B"/>
<path d="M10.9336 7.10938C11.8397 7.10938 12.5742 6.37484 12.5742 5.46875C12.5742 4.56266 11.8397 3.82812 10.9336 3.82812C10.0275 3.82812 9.29297 4.56266 9.29297 5.46875C9.29297 6.37484 10.0275 7.10938 10.9336 7.10938Z" fill="#FEF14B"/>
<path d="M20.0531 18.6069L15.9141 17.9167V12.5781C15.9141 11.521 15.0571 10.6641 14 10.6641C12.9429 10.6641 12.0859 11.521 12.0859 12.5781V19.25C12.0859 18.1929 11.229 17.3359 10.1719 17.3359C9.11477 17.3359 8.25781 18.1929 8.25781 19.25V23.6403C8.25781 25.4499 9.28025 27.1042 10.8988 27.9134L11.072 28H20.2093L20.3825 27.9134C22.0011 27.1041 23.0234 25.4498 23.0234 23.6403V22.1133C23.0234 20.3684 21.7742 18.8938 20.0531 18.6069Z" fill="#263238"/>
<path d="M25.8125 0H2.1875C0.979344 0 0 0.979344 0 2.1875V8.75C0 9.9581 0.979344 10.9375 2.1875 10.9375H10.8481C11.442 9.80126 12.6316 9.02344 14 9.02344C15.3684 9.02344 16.558 9.80126 17.1519 10.9375H25.8125C27.0207 10.9375 28 9.9581 28 8.75V2.1875C28 0.979344 27.0207 0 25.8125 0ZM5.649 8.19793C5.327 8.19793 4.15866 8.20312 4.15866 8.20312H4.15625C4.08443 8.20313 4.01331 8.18899 3.94696 8.16151C3.88061 8.13403 3.82032 8.09375 3.76954 8.04296C3.71875 7.99218 3.67847 7.93189 3.65099 7.86554C3.62351 7.79919 3.60937 7.72807 3.60938 7.65625V3.28125C3.60938 2.97927 3.85421 2.73438 4.15625 2.73438H5.42708C6.2837 2.73438 6.98064 3.43131 6.98064 4.28794C6.98089 4.58746 6.894 4.8806 6.73055 5.1316C7.12234 5.44797 7.37352 5.93179 7.37352 6.47341C7.37352 7.42432 6.59991 8.19793 5.649 8.19793ZM10.9336 8.20312C9.42588 8.20312 8.19924 6.97648 8.19924 5.46875C8.19924 3.96102 9.42588 2.73438 10.9336 2.73438C12.4414 2.73438 13.668 3.96102 13.668 5.46875C13.668 6.97648 12.4414 8.20312 10.9336 8.20312ZM17.228 8.20312C15.7203 8.20312 14.4937 6.97648 14.4937 5.46875C14.4937 3.96102 15.7203 2.73438 17.228 2.73438C18.7358 2.73438 19.9624 3.96102 19.9624 5.46875C19.9624 6.97648 18.7358 8.20312 17.228 8.20312ZM24.2373 8.03594C24.1863 8.0889 24.1252 8.131 24.0576 8.15973C23.9899 8.18846 23.9172 8.20322 23.8437 8.20312C23.702 8.20331 23.5659 8.14831 23.4641 8.04978L21.8819 6.52334V7.65625C21.8819 7.95823 21.637 8.20312 21.335 8.20312C21.033 8.20312 20.7881 7.95823 20.7881 7.65625V3.28125C20.7881 2.97927 21.033 2.73438 21.335 2.73438C21.637 2.73438 21.8819 2.97927 21.8819 3.28125V4.2542L23.3184 2.93382C23.5408 2.7294 23.8868 2.74411 24.0911 2.96636C24.2955 3.18872 24.2809 3.53473 24.0586 3.73909L22.2727 5.38065L24.2235 7.26272C24.4408 7.47239 24.447 7.81862 24.2373 8.03594Z" fill="#FEF14B"/>
</svg>
