<svg width="16" height="16" viewBox="0 0 16 16" fill="none" xmlns="http://www.w3.org/2000/svg">
<path d="M5.7729 8.8115C5.7729 8.6115 5.60604 8.44922 5.40147 8.44922H4.10776C3.90204 8.44922 3.73633 8.6115 3.73633 8.8115V10.0766C3.73633 10.2766 3.90319 10.4389 4.10776 10.4389H5.40147C5.60719 10.4389 5.7729 10.2766 5.7729 10.0766V8.8115ZM9.00719 8.8115C9.00719 8.6115 8.84147 8.44922 8.6369 8.44922H7.34204C7.13747 8.44922 6.97176 8.6115 6.97176 8.8115V10.0766C6.97176 10.2766 7.13747 10.4389 7.34204 10.4389H8.6369C8.84147 10.4389 9.00719 10.2766 9.00719 10.0766V8.8115ZM12.2415 8.8115C12.2415 8.6115 12.0758 8.44922 11.8712 8.44922H10.5763C10.3718 8.44922 10.206 8.6115 10.206 8.8115V10.0766C10.206 10.2766 10.3718 10.4389 10.5763 10.4389H11.8723C12.0769 10.4389 12.2426 10.2766 12.2426 10.0766V8.8115H12.2415ZM5.7729 11.9738C5.7729 11.7738 5.60604 11.6115 5.40147 11.6115H4.10776C3.90204 11.6115 3.73633 11.7738 3.73633 11.9738V13.2389C3.73633 13.4389 3.90319 13.6012 4.10776 13.6012H5.40147C5.60719 13.6012 5.7729 13.4389 5.7729 13.2389V11.9738ZM9.00719 11.9738C9.00719 11.7738 8.84147 11.6115 8.6369 11.6115H7.34204C7.13747 11.6115 6.97176 11.7738 6.97176 11.9738V13.2389C6.97176 13.4389 7.13747 13.6012 7.34204 13.6012H8.6369C8.84147 13.6012 9.00719 13.4389 9.00719 13.2389V11.9738ZM12.2415 11.9738C12.2415 11.7738 12.0758 11.6115 11.8712 11.6115H10.5763C10.3718 11.6115 10.206 11.7738 10.206 11.9738V13.2389C10.206 13.4389 10.3718 13.6012 10.5763 13.6012H11.8723C12.0769 13.6012 12.2426 13.4389 12.2426 13.2389V11.9738H12.2415Z" fill="black"/>
<path d="M14.5554 1.77834V3.70977C14.5554 4.58406 13.8309 5.28691 12.9371 5.28691H11.9166C11.024 5.28691 10.2891 4.58406 10.2891 3.70977V1.77148H5.68914V3.71091C5.68914 4.58406 4.95429 5.28806 4.06057 5.28806H3.04C2.14743 5.28806 1.42171 4.58406 1.42171 3.71091V1.77948C0.641143 1.80234 0 2.4332 0 3.20806V14.5326C0 15.3235 0.656 15.9726 1.46514 15.9726H14.512C15.32 15.9726 15.976 15.3212 15.976 14.5326V3.2092C15.976 2.43206 15.336 1.8012 14.5543 1.77834H14.5554ZM14.0811 13.8286C14.0811 14.1703 13.7977 14.4469 13.448 14.4469H2.50171C2.152 14.4469 1.86857 14.1703 1.86857 13.8286V7.9772C1.86857 7.63434 2.152 7.35777 2.50171 7.35777H13.448C13.7977 7.35777 14.0811 7.63549 14.0811 7.9772V13.8263V13.8286Z" fill="black"/>
<path d="M3.03671 4.25143H4.04585C4.35328 4.25143 4.60128 4.00914 4.60128 3.70971V0.541714C4.60128 0.242286 4.35328 0 4.04585 0H3.03785C2.73156 0 2.48242 0.242286 2.48242 0.541714V3.70971C2.48242 4.00914 2.73156 4.25143 3.03785 4.25143H3.03671ZM11.9041 4.25143H12.9133C13.2196 4.25143 13.4687 4.00914 13.4687 3.70971V0.541714C13.4687 0.242286 13.2196 0 12.9133 0H11.9041C11.5979 0 11.3487 0.242286 11.3487 0.541714V3.70971C11.3487 4.00914 11.5979 4.25143 11.9041 4.25143Z" fill="black"/>
</svg>
