<svg width="54" height="54" viewBox="0 0 54 54" fill="none" xmlns="http://www.w3.org/2000/svg">
<path d="M4.21875 20.8246H16.875V19.6771H4.21875C3.99497 19.6771 3.78036 19.5882 3.62213 19.4299C3.46389 19.2717 3.375 19.0571 3.375 18.8333C3.375 18.6095 3.46389 18.3949 3.62213 18.2367C3.78036 18.0785 3.99497 17.9896 4.21875 17.9896H7.23938C5.95687 12.9271 7.23938 8.8855 11.1797 5.94925H11.2388C18.6216 1.21581 22.7812 4.15206 25.2619 5.90706C25.768 6.34515 26.36 6.67276 27 6.86894C27.64 6.67276 28.232 6.34515 28.7381 5.90706C31.2188 4.15206 35.3869 1.21581 42.8203 5.90706C46.7269 8.84331 48.0431 12.8764 46.7606 17.9474H49.7812C50.005 17.9474 50.2196 18.0363 50.3779 18.1945C50.5361 18.3527 50.625 18.5673 50.625 18.7911C50.625 19.0149 50.5361 19.2295 50.3779 19.3877C50.2196 19.546 50.005 19.6349 49.7812 19.6349H37.9688V24.8239C37.9688 25.0477 37.8799 25.2623 37.7216 25.4206C37.5634 25.5788 37.3488 25.6677 37.125 25.6677H34.5938V27.0008C34.5938 27.2246 34.5049 27.4392 34.3466 27.5974C34.1884 27.7557 33.9738 27.8446 33.75 27.8446H21.0938C20.87 27.8446 20.6554 27.7557 20.4971 27.5974C20.3389 27.4392 20.25 27.2246 20.25 27.0008V25.7099H17.7188C17.495 25.7099 17.2804 25.621 17.1221 25.4627C16.9639 25.3045 16.875 25.0899 16.875 24.8661V22.5121H4.21875C3.99497 22.5121 3.78036 22.4232 3.62213 22.2649C3.46389 22.1067 3.375 21.8921 3.375 21.6683C3.375 21.4445 3.46389 21.2299 3.62213 21.0717C3.78036 20.9135 3.99497 20.8246 4.21875 20.8246ZM34.5938 24.0224H36.2812V16.4792H34.5938V24.0224ZM21.9375 26.1571H32.9062V14.3446H21.9375V26.1571ZM18.5625 24.0224H20.25V16.4792H18.5625V24.0224ZM17.7188 14.7917H20.25V13.5008C20.25 13.277 20.3389 13.0624 20.4971 12.9042C20.6554 12.746 20.87 12.6571 21.0938 12.6571H33.75C33.9738 12.6571 34.1884 12.746 34.3466 12.9042C34.5049 13.0624 34.5938 13.277 34.5938 13.5008V14.7917H37.125C37.3488 14.7917 37.5634 14.8806 37.7216 15.0389C37.8799 15.1971 37.9688 15.4117 37.9688 15.6355V17.9896H45.0141C46.3134 13.3996 45.2503 9.88956 41.8584 7.34144C39.2175 5.65394 37.125 5.06331 35.3531 5.06331C32.8219 5.06331 31.1344 6.28675 29.7084 7.29081C28.9502 7.97052 28.0079 8.41085 27 8.55644C25.9912 8.40845 25.0488 7.96514 24.2916 7.28237C21.8784 5.59487 18.5794 3.24925 12.1669 7.28237C8.79187 9.86425 7.695 13.3742 8.98594 17.9558H16.875V15.6355C16.875 15.4117 16.9639 15.1971 17.1221 15.0389C17.2804 14.8806 17.495 14.7917 17.7188 14.7917Z" fill="black"/>
<path d="M8.95219 22.5111L9.07875 22.7727C10.5392 25.4914 11.3262 28.5209 11.3737 31.6067C11.4771 34.1587 11.8763 36.69 12.5634 39.1498C14.0147 44.3642 19.6087 50.6248 21.9966 50.6248C22.0835 50.6336 22.1712 50.6336 22.2581 50.6248C22.4235 50.5781 22.5776 50.498 22.7108 50.3894C22.8441 50.2808 22.9536 50.146 23.0327 49.9934C23.1117 49.8407 23.1587 49.6735 23.1706 49.5021C23.1825 49.3306 23.1591 49.1585 23.1019 48.9964C21.8363 41.8414 21.9375 41.428 22.7812 38.1711C23.1627 36.4515 23.956 34.8503 25.0931 33.5052C25.3907 33.1875 25.7563 32.9413 26.1625 32.785C26.5687 32.6286 27.005 32.5662 27.4388 32.6023C27.7172 32.6173 27.9887 32.694 28.2339 32.8268C28.479 32.9595 28.6916 33.1451 28.8563 33.3702C29.8753 34.8457 30.6714 36.4634 31.2188 38.1711C32.0625 41.428 32.1384 41.8414 30.8391 48.9627C30.7818 49.1247 30.7584 49.2968 30.7704 49.4683C30.7823 49.6398 30.8292 49.807 30.9083 49.9596C30.9873 50.1122 31.0969 50.247 31.2301 50.3556C31.3633 50.4642 31.5174 50.5444 31.6828 50.5911C33.8934 51.1058 39.8672 44.5667 41.3775 39.1498C42.0646 36.69 42.4639 34.1587 42.5672 31.6067C42.6343 28.5188 43.4416 25.4922 44.9212 22.7811L45.0478 22.5195H49.7812C50.005 22.5195 50.2196 22.4306 50.3779 22.2724C50.5361 22.1142 50.625 21.8996 50.625 21.6758C50.625 21.452 50.5361 21.2374 50.3779 21.0792C50.2196 20.9209 50.005 20.832 49.7812 20.832H37.9688V22.5195H43.1747C41.761 25.3074 40.9993 28.3801 40.9472 31.5055C40.8524 33.941 40.4701 36.3569 39.8081 38.7027C38.5256 43.318 34.3659 47.5452 32.6362 48.6589C33.8344 42.0186 33.75 41.2255 32.9062 37.7661C32.2885 35.8713 31.3958 34.0775 30.2569 32.442C29.9573 32.0065 29.5637 31.6439 29.1051 31.381C28.6465 31.1182 28.1347 30.9617 27.6075 30.9233C26.925 30.8668 26.2385 30.9615 25.5968 31.2007C24.9551 31.4399 24.374 31.8176 23.895 32.307C22.5145 33.8605 21.5507 35.7388 21.0938 37.7661C20.25 41.2255 20.1403 41.9848 21.3384 48.6505C19.6509 47.5367 15.4322 43.3095 14.1666 38.6942C13.5046 36.3484 13.1223 33.9326 13.0275 31.497C12.9754 28.3716 12.2137 25.299 10.8 22.5111H8.95219Z" fill="black"/>
</svg>
