<svg width="150" height="150" viewBox="0 0 150 150" fill="none" xmlns="http://www.w3.org/2000/svg">
<path d="M70.6406 104.072C70.6406 104.072 68.9635 109.098 58.8385 110.182C48.7083 111.265 44.3906 109.098 44.3906 109.098C44.3906 109.098 51.1406 103.812 57.6198 103.541C64.1042 103.27 70.6406 104.072 70.6406 104.072Z" fill="black"/>
<path d="M70.6403 104.073C70.6403 104.073 71.4007 98.8174 63.0153 93.0153C54.6299 87.2132 49.8018 87.0518 49.8018 87.0518C49.8018 87.0518 52.5726 94.2184 59.3226 98.4111C64.8382 101.838 70.6403 104.073 70.6403 104.073Z" fill="black"/>
<path d="M58.6351 100.354C58.6351 100.354 53.4684 98.0107 45.6715 98.0107C37.8747 98.0107 32.0049 102.084 32.0049 102.084C32.0049 102.084 37.7757 104.417 46.0778 104.417C54.3799 104.422 58.6351 100.354 58.6351 100.354Z" fill="black"/>
<path d="M49.0882 95.3695C49.0882 95.3695 48.6715 89.6976 44.9476 82.8174C41.2288 75.932 34.8643 72.6924 34.8643 72.6924C34.8643 72.6924 35.5726 78.9007 39.5361 86.2288C43.4997 93.557 49.0882 95.3695 49.0882 95.3695Z" fill="black"/>
<path d="M45.1979 94.6617C45.1979 94.6617 40.7187 91.1722 33.1406 89.3388C25.5625 87.5055 18.9062 90.0784 18.9062 90.0784C18.9062 90.0784 23.9687 93.7138 32.0417 95.6669C40.1146 97.6149 45.1979 94.6617 45.1979 94.6617Z" fill="black"/>
<path d="M38.4844 88.6149C38.4844 88.6149 35.6979 83.6618 29.4115 79.0264C23.125 74.391 16 74.1826 16 74.1826C16 74.1826 19.276 79.4951 25.9688 84.4326C32.6615 89.3649 38.4844 88.6149 38.4844 88.6149Z" fill="black"/>
<path d="M31.8234 78.4268C31.8234 78.4268 33.7088 73.3538 33.2192 65.9215C32.7244 58.484 28.5109 53.1455 28.5109 53.1455C28.5109 53.1455 26.6619 58.7965 27.1879 66.7132C27.714 74.6247 31.8234 78.4268 31.8234 78.4268Z" fill="black"/>
<mask id="mask0_399_2163" style="mask-type:luminance" maskUnits="userSpaceOnUse" x="8" y="58" width="19" height="17">
<path d="M8.39062 58.667H26.6667V74.667H8.39062V58.667Z" fill="white"/>
</mask>
<g mask="url(#mask0_399_2163)">
<path d="M26.5368 73.6204C26.5368 73.6204 24.5941 69.11 19.6201 64.5475C14.6462 59.985 8.54199 59.1465 8.54199 59.1465C8.54199 59.1465 10.8701 64.0163 16.167 68.8704C21.4639 73.7298 26.5368 73.6204 26.5368 73.6204Z" fill="black"/>
</g>
<path d="M23.5361 63.6195C23.5361 63.6195 23.2965 58.708 20.2288 52.682C17.1611 46.6611 11.7393 43.7236 11.7393 43.7236C11.7393 43.7236 12.2184 49.0986 15.484 55.5153C18.7497 61.932 23.5361 63.6195 23.5361 63.6195Z" fill="black"/>
<path d="M21.4424 48.9684C21.4424 48.9684 21.859 44.0674 19.6299 37.6872C17.4007 31.3018 12.4163 27.6611 12.4163 27.6611C12.4163 27.6611 12.1715 33.0518 14.5465 39.8486C16.9215 46.6507 21.4424 48.9684 21.4424 48.9684Z" fill="black"/>
<path d="M23.4639 39.3122C23.4639 39.3122 25.6983 34.9424 26.0473 28.1872C26.391 21.4268 23.1567 16.1611 23.1567 16.1611C23.1567 16.1611 20.891 21.057 20.5212 28.2497C20.1567 35.4476 23.4639 39.3122 23.4639 39.3122Z" fill="black"/>
<path d="M28.9795 27.6976C28.9795 27.6976 31.891 23.7497 33.3285 17.1403C34.7608 10.5257 32.4223 4.80176 32.4223 4.80176C32.4223 4.80176 29.3962 9.2653 27.8702 16.3018C26.3389 23.3434 28.9795 27.6976 28.9795 27.6976Z" fill="black"/>
<path d="M23.7916 57.3174C23.7916 57.3174 27.4375 54.0361 30.1614 47.8486C32.8854 41.6611 31.7395 35.583 31.7395 35.583C31.7395 35.583 27.8802 39.3434 24.9791 45.932C22.0781 52.5205 23.7916 57.3174 23.7916 57.3174Z" fill="black"/>
<path d="M27.8174 35.2028C27.8174 35.2028 32.4788 33.6976 37.4736 29.1611C42.4684 24.6195 43.8903 18.5986 43.8903 18.5986C43.8903 18.5986 38.8382 20.458 33.5205 25.2913C28.1976 30.1195 27.8174 35.2028 27.8174 35.2028Z" fill="black"/>
<mask id="mask1_399_2163" style="mask-type:luminance" maskUnits="userSpaceOnUse" x="34" y="2" width="16" height="21">
<path d="M34.667 2.96875H49.3337V22.6667H34.667V2.96875Z" fill="white"/>
</mask>
<g mask="url(#mask1_399_2163)">
<path d="M34.7039 21.6667C34.7039 21.6667 39.1101 19.526 43.4383 14.349C47.7664 9.16146 48.3445 3 48.3445 3C48.3445 3 43.5997 5.53646 38.9903 11.0573C34.3862 16.5781 34.7039 21.6667 34.7039 21.6667Z" fill="black"/>
</g>
<path d="M71.3441 107.255C71.3441 114.057 60.1982 121.463 60.1982 117.849C60.1982 114.234 71.3441 109.666 71.3441 107.255Z" fill="black"/>
<path d="M77.7969 107.255C77.7969 114.057 88.9479 121.463 88.9479 117.849C88.9479 114.234 77.7969 109.666 77.7969 107.255Z" fill="black"/>
<path d="M78.5 104.072C78.5 104.072 80.1771 109.098 90.3073 110.182C100.432 111.265 104.75 109.098 104.75 109.098C104.75 109.098 98 103.812 91.5208 103.541C85.0365 103.27 78.5 104.072 78.5 104.072Z" fill="black"/>
<path d="M78.5003 104.073C78.5003 104.073 77.7399 98.8174 86.1253 93.0153C94.5108 87.2132 99.3389 87.0518 99.3389 87.0518C99.3389 87.0518 96.5681 94.2184 89.8181 98.4111C84.3024 101.838 78.5003 104.073 78.5003 104.073Z" fill="black"/>
<path d="M90.5049 100.354C90.5049 100.354 95.6715 98.0107 103.463 98.0107C111.265 98.0107 117.135 102.084 117.135 102.084C117.135 102.084 111.364 104.417 103.062 104.417C94.7601 104.422 90.5049 100.354 90.5049 100.354Z" fill="black"/>
<path d="M100.052 95.3695C100.052 95.3695 100.474 89.6976 104.192 82.8174C107.911 75.932 114.276 72.6924 114.276 72.6924C114.276 72.6924 113.567 78.9007 109.604 86.2288C105.64 93.557 100.052 95.3695 100.052 95.3695Z" fill="black"/>
<path d="M103.948 94.6617C103.948 94.6617 108.417 91.1722 116 89.3388C123.578 87.5055 130.24 90.0784 130.24 90.0784C130.24 90.0784 125.172 93.7138 117.099 95.6669C109.026 97.6149 103.948 94.6617 103.948 94.6617Z" fill="black"/>
<path d="M110.656 88.6149C110.656 88.6149 113.443 83.6618 119.724 79.0264C126.016 74.391 133.141 74.1826 133.141 74.1826C133.141 74.1826 129.87 79.4951 123.172 84.4326C116.479 89.3649 110.656 88.6149 110.656 88.6149Z" fill="black"/>
<path d="M117.318 78.4268C117.318 78.4268 115.432 73.3538 115.922 65.9215C116.417 58.484 120.63 53.1455 120.63 53.1455C120.63 53.1455 122.479 58.7965 121.953 66.7132C121.432 74.6247 117.318 78.4268 117.318 78.4268Z" fill="black"/>
<mask id="mask2_399_2163" style="mask-type:luminance" maskUnits="userSpaceOnUse" x="121" y="58" width="20" height="17">
<path d="M121.333 58.667H140.802V74.667H121.333V58.667Z" fill="white"/>
</mask>
<g mask="url(#mask2_399_2163)">
<path d="M122.604 73.6204C122.604 73.6204 124.546 69.11 129.52 64.5475C134.494 59.985 140.598 59.1465 140.598 59.1465C140.598 59.1465 138.27 64.0163 132.973 68.8704C127.676 73.7298 122.604 73.6204 122.604 73.6204Z" fill="black"/>
</g>
<path d="M125.604 63.6195C125.604 63.6195 125.844 58.708 128.907 52.682C131.974 46.6611 137.396 43.7236 137.396 43.7236C137.396 43.7236 136.922 49.0986 133.657 55.5153C130.391 61.932 125.604 63.6195 125.604 63.6195Z" fill="black"/>
<path d="M127.698 48.9684C127.698 48.9684 127.276 44.0674 129.51 37.6872C131.739 31.3018 136.719 27.6611 136.719 27.6611C136.719 27.6611 136.969 33.0518 134.588 39.8486C132.219 46.6507 127.698 48.9684 127.698 48.9684Z" fill="black"/>
<path d="M125.677 39.3122C125.677 39.3122 123.443 34.9424 123.094 28.1872C122.75 21.4268 125.979 16.1611 125.979 16.1611C125.979 16.1611 128.25 21.057 128.62 28.2497C128.985 35.4476 125.677 39.3122 125.677 39.3122Z" fill="black"/>
<path d="M120.162 27.6976C120.162 27.6976 117.245 23.7497 115.813 17.1403C114.38 10.5257 116.714 4.80176 116.714 4.80176C116.714 4.80176 119.745 9.2653 121.271 16.3018C122.802 23.3434 120.162 27.6976 120.162 27.6976Z" fill="black"/>
<path d="M125.354 57.3174C125.354 57.3174 121.703 54.0361 118.979 47.8486C116.255 41.6611 117.401 35.583 117.401 35.583C117.401 35.583 121.261 39.3434 124.162 45.932C127.063 52.5205 125.354 57.3174 125.354 57.3174Z" fill="black"/>
<path d="M121.323 35.2028C121.323 35.2028 116.661 33.6976 111.666 29.1611C106.666 24.6195 105.255 18.5986 105.255 18.5986C105.255 18.5986 110.302 20.458 115.619 25.2913C120.942 30.1195 121.323 35.2028 121.323 35.2028Z" fill="black"/>
<mask id="mask3_399_2163" style="mask-type:luminance" maskUnits="userSpaceOnUse" x="100" y="2" width="15" height="21">
<path d="M100 2.96875H114.667V22.6667H100V2.96875Z" fill="white"/>
</mask>
<g mask="url(#mask3_399_2163)">
<path d="M114.438 21.6667C114.438 21.6667 110.026 19.526 105.703 14.349C101.375 9.16146 100.797 3 100.797 3C100.797 3 105.542 5.53646 110.151 11.0573C114.76 16.5781 114.438 21.6667 114.438 21.6667Z" fill="black"/>
</g>
<g clip-path="url(#clip0_399_2163)">
<path d="M73.9098 34.9561L69.057 37.5075L69.984 32.1036L66.0527 28.2769L71.4779 27.4907L73.9043 22.5742L76.3306 27.4907L81.7558 28.2769L77.8245 32.1036L78.7515 37.5075L73.9098 34.9561Z" stroke="black" stroke-width="1.5725" stroke-linecap="round" stroke-linejoin="round"/>
<path d="M76.3498 27.3447L73.747 23.1152L71.1443 27.3447L66.4268 28.6461L69.3549 32.0622V37.4305L74.0724 35.4784L78.4646 37.2678L77.6512 32.8756L81.5553 28.6461L76.3498 27.3447Z" fill="black"/>
</g>
<path d="M66.5608 60.7526V63.5809H46.9862V61.5527L59.118 42.7782H61.9277L58.9133 48.2115L50.8937 60.7526H66.5608ZM62.7836 42.7782V69.8701H59.3413V42.7782H62.7836ZM70.1148 68.0466C70.1148 67.4636 70.2947 66.9736 70.6544 66.5767C71.0265 66.1673 71.56 65.9626 72.2546 65.9626C72.9493 65.9626 73.4765 66.1673 73.8362 66.5767C74.2084 66.9736 74.3944 67.4636 74.3944 68.0466C74.3944 68.6172 74.2084 69.101 73.8362 69.498C73.4765 69.8949 72.9493 70.0934 72.2546 70.0934C71.56 70.0934 71.0265 69.8949 70.6544 69.498C70.2947 69.101 70.1148 68.6172 70.1148 68.0466ZM92.9457 42.741H93.2434V45.6623H92.9457C91.1222 45.6623 89.5964 45.96 88.3684 46.5554C87.1403 47.1384 86.1665 47.9261 85.4471 48.9185C84.7276 49.8985 84.2066 51.0025 83.8841 52.2306C83.5739 53.4587 83.4189 54.7053 83.4189 55.9706V59.9525C83.4189 61.1558 83.5615 62.2226 83.8468 63.153C84.1322 64.0709 84.5229 64.8462 85.0191 65.4788C85.5153 66.1115 86.0735 66.5891 86.6937 66.9116C87.3264 67.2341 87.9838 67.3954 88.6661 67.3954C89.46 67.3954 90.1671 67.2465 90.7873 66.9488C91.4075 66.6387 91.9285 66.2107 92.3503 65.6649C92.7845 65.1067 93.1132 64.4492 93.3365 63.6926C93.5597 62.9359 93.6714 62.1048 93.6714 61.1992C93.6714 60.3929 93.5722 59.6176 93.3737 58.8733C93.1752 58.1166 92.8713 57.4468 92.4619 56.8638C92.0526 56.2683 91.5378 55.8031 90.9175 55.4682C90.3097 55.1209 89.584 54.9472 88.7405 54.9472C87.7853 54.9472 86.8922 55.1829 86.0611 55.6543C85.2424 56.1133 84.5663 56.7211 84.0329 57.4778C83.5119 58.2221 83.2142 59.0346 83.1398 59.9153L81.3163 59.8967C81.4899 58.5074 81.8125 57.3227 82.2838 56.3428C82.7676 55.3504 83.3631 54.5441 84.0701 53.9238C84.7896 53.2912 85.5897 52.8322 86.4704 52.5469C87.3636 52.2492 88.3063 52.1003 89.2987 52.1003C90.6508 52.1003 91.8169 52.3546 92.7969 52.8632C93.7768 53.3718 94.5831 54.0541 95.2158 54.91C95.8484 55.7535 96.3136 56.7087 96.6113 57.7755C96.9214 58.8299 97.0765 59.9153 97.0765 61.0317C97.0765 62.3094 96.8966 63.5065 96.5369 64.6229C96.1771 65.7393 95.6375 66.7193 94.9181 67.5628C94.211 68.4064 93.3365 69.0638 92.2945 69.5352C91.2525 70.0066 90.043 70.2423 88.6661 70.2423C87.2023 70.2423 85.9246 69.9445 84.833 69.3491C83.7414 68.7413 82.8359 67.935 82.1164 66.9302C81.3969 65.9254 80.8573 64.809 80.4976 63.5809C80.1378 62.3528 79.958 61.1062 79.958 59.8409V58.2221C79.958 56.3117 80.1502 54.4386 80.5348 52.6027C80.9193 50.7668 81.583 49.1046 82.5257 47.616C83.4809 46.1275 84.802 44.9428 86.4891 44.0621C88.1761 43.1813 90.3283 42.741 92.9457 42.741Z" fill="black"/>
<defs>
<clipPath id="clip0_399_2163">
<rect width="18.8701" height="18.8701" fill="white" transform="translate(64.4746 21)"/>
</clipPath>
</defs>
</svg>
