<svg width="19" height="19" viewBox="0 0 19 19" fill="none" xmlns="http://www.w3.org/2000/svg">
<g clip-path="url(#clip0_22_331)">
<path d="M11.5391 6.3291H11.5463" stroke="white" stroke-width="1.39261" stroke-linecap="round" stroke-linejoin="round"/>
<path d="M2.53906 4.8291C2.53906 4.23236 2.77612 3.66007 3.19807 3.23811C3.62003 2.81615 4.19233 2.5791 4.78906 2.5791H13.7891C14.3858 2.5791 14.9581 2.81615 15.3801 3.23811C15.802 3.66007 16.0391 4.23236 16.0391 4.8291V13.8291C16.0391 14.4258 15.802 14.9981 15.3801 15.4201C14.9581 15.842 14.3858 16.0791 13.7891 16.0791H4.78906C4.19233 16.0791 3.62003 15.842 3.19807 15.4201C2.77612 14.9981 2.53906 14.4258 2.53906 13.8291V4.8291Z" stroke="white" stroke-width="1.39261" stroke-linecap="round" stroke-linejoin="round"/>
<path d="M2.53906 12.329L6.28906 8.57897C6.98506 7.90922 7.84306 7.90922 8.53906 8.57897L12.2891 12.329" stroke="white" stroke-width="1.39261" stroke-linecap="round" stroke-linejoin="round"/>
<path d="M10.7891 10.829L11.5391 10.079C12.2351 9.40922 13.0931 9.40922 13.7891 10.079L16.0391 12.329" stroke="white" stroke-width="1.39261" stroke-linecap="round" stroke-linejoin="round"/>
</g>
<defs>
<clipPath id="clip0_22_331">
<rect width="18" height="18" fill="white" transform="translate(0.289062 0.329102)"/>
</clipPath>
</defs>
</svg>
