<svg width="32" height="32" viewBox="0 0 32 32" fill="none" xmlns="http://www.w3.org/2000/svg">
<mask id="mask0_97_1417" style="mask-type:luminance" maskUnits="userSpaceOnUse" x="1" y="1" width="30" height="30">
<path d="M1.74805 1.74805H30.1514V30.1514H1.74805V1.74805Z" fill="white"/>
</mask>
<g mask="url(#mask0_97_1417)">
<path fill-rule="evenodd" clip-rule="evenodd" d="M15.928 1.74805C16.8758 1.74805 17.7125 2.72805 18.6069 2.91027C19.5003 3.0936 20.6258 2.51471 21.448 2.86249C22.2692 3.21027 22.6258 4.41582 23.3569 4.90916C24.088 5.4036 25.3336 5.27916 25.9547 5.90138C26.5758 6.52249 26.4525 7.76805 26.9469 8.49916C27.4403 9.23027 28.6458 9.58694 28.9936 10.408C29.3414 11.2303 28.7625 12.3558 28.9458 13.2492C29.128 14.1436 30.108 14.9803 30.108 15.928C30.108 16.8758 29.128 17.7125 28.9458 18.6069C28.7625 19.5003 29.3414 20.6258 28.9936 21.448C28.6458 22.2692 27.4403 22.6258 26.9469 23.3569C26.4525 24.088 26.5758 25.3336 25.9547 25.9547C25.3336 26.5758 24.088 26.4525 23.3569 26.9469C22.6258 27.4403 22.2692 28.6458 21.448 28.9936C20.6258 29.3414 19.5003 28.7625 18.6069 28.9458C17.7125 29.1292 16.8758 30.108 15.928 30.108C14.9803 30.108 14.1436 29.1292 13.2492 28.9458C12.3558 28.7625 11.2303 29.3414 10.408 28.9936C9.58694 28.6458 9.23027 27.4403 8.49916 26.9469C7.76805 26.4525 6.52249 26.5758 5.90138 25.9547C5.27916 25.3336 5.4036 24.088 4.90916 23.3569C4.41582 22.6258 3.21027 22.2692 2.86249 21.448C2.51471 20.6258 3.0936 19.5003 2.91027 18.6069C2.72694 17.7125 1.74805 16.8758 1.74805 15.928C1.74805 14.9803 2.72694 14.1436 2.91027 13.2492C3.0936 12.3558 2.51471 11.2303 2.86249 10.408C3.21027 9.58694 4.41582 9.23027 4.90916 8.49916C5.4036 7.76805 5.27916 6.52249 5.90138 5.90138C6.52249 5.27916 7.76805 5.4036 8.49916 4.90916C9.23027 4.41582 9.58694 3.21027 10.408 2.86249C11.2303 2.51471 12.3558 3.0936 13.2492 2.91027C14.1436 2.72805 14.9803 1.74805 15.928 1.74805Z" fill="#5CE1E6"/>
</g>
<path d="M15.3454 19.7532C15.3454 19.7532 15.0954 20.501 13.5843 20.6621C12.0732 20.8232 11.4287 20.501 11.4287 20.501C11.4287 20.501 12.4365 19.7143 13.4032 19.6732C14.3698 19.6332 15.3454 19.7532 15.3454 19.7532Z" fill="black"/>
<path d="M15.3452 19.7531C15.3452 19.7531 15.4586 18.9708 14.2074 18.1075C12.9563 17.2442 12.2363 17.2197 12.2363 17.2197C12.2363 17.2197 12.6497 18.2864 13.6563 18.9097C14.4797 19.4197 15.3452 19.7531 15.3452 19.7531Z" fill="black"/>
<path d="M13.5544 19.1993C13.5544 19.1993 12.7833 18.8516 11.6199 18.8516C10.4566 18.8516 9.58105 19.4571 9.58105 19.4571C9.58105 19.4571 10.4422 19.8049 11.6811 19.8049C12.9199 19.8049 13.5544 19.1993 13.5544 19.1993Z" fill="black"/>
<path d="M12.13 18.4575C12.13 18.4575 12.0678 17.613 11.5123 16.5897C10.9567 15.5652 10.0078 15.083 10.0078 15.083C10.0078 15.083 10.1134 16.0075 10.7045 17.0975C11.2967 18.1886 12.13 18.4575 12.13 18.4575Z" fill="black"/>
<path d="M11.5492 18.3523C11.5492 18.3523 10.8814 17.8334 9.75029 17.5612C8.62029 17.2879 7.62695 17.6712 7.62695 17.6712C7.62695 17.6712 8.38251 18.2112 9.58695 18.5023C10.7914 18.7923 11.5492 18.3523 11.5492 18.3523Z" fill="black"/>
<path d="M10.5478 17.4523C10.5478 17.4523 10.1322 16.7157 9.19447 16.0257C8.25669 15.3368 7.19336 15.3057 7.19336 15.3057C7.19336 15.3057 7.68114 16.0957 8.68003 16.8301C9.67892 17.5646 10.5478 17.4523 10.5478 17.4523Z" fill="black"/>
<path d="M9.55403 15.937C9.55403 15.937 9.83514 15.1826 9.76181 14.0759C9.68847 12.9704 9.05959 12.1748 9.05959 12.1748C9.05959 12.1748 8.78292 13.0159 8.86181 14.1937C8.93959 15.3715 9.55403 15.937 9.55403 15.937Z" fill="black"/>
<mask id="mask1_97_1417" style="mask-type:luminance" maskUnits="userSpaceOnUse" x="6" y="12" width="3" height="4">
<path d="M6.05957 12.7998H8.81735V15.3598H6.05957V12.7998Z" fill="white"/>
</mask>
<g mask="url(#mask1_97_1417)">
<path d="M8.76355 15.2207C8.76355 15.2207 8.47466 14.5496 7.73244 13.8707C6.99021 13.1929 6.0791 13.0674 6.0791 13.0674C6.0791 13.0674 6.42577 13.7918 7.21688 14.514C8.00688 15.2374 8.76355 15.2207 8.76355 15.2207Z" fill="black"/>
</g>
<path d="M8.31762 13.7334C8.31762 13.7334 8.28095 13.0023 7.82428 12.1068C7.36651 11.2101 6.55762 10.7734 6.55762 10.7734C6.55762 10.7734 6.62873 11.5734 7.11539 12.5279C7.60317 13.4823 8.31762 13.7334 8.31762 13.7334Z" fill="black"/>
<path d="M8.00484 11.5528C8.00484 11.5528 8.06817 10.8239 7.73484 9.87392C7.40261 8.92392 6.65928 8.38281 6.65928 8.38281C6.65928 8.38281 6.62261 9.18503 6.97706 10.1961C7.3315 11.2084 8.00484 11.5528 8.00484 11.5528Z" fill="black"/>
<path d="M8.30652 10.1163C8.30652 10.1163 8.63986 9.46632 8.69208 8.46076C8.74319 7.45521 8.26097 6.67188 8.26097 6.67188C8.26097 6.67188 7.92319 7.39965 7.86764 8.47076C7.81208 9.54188 8.30652 10.1163 8.30652 10.1163Z" fill="black"/>
<path d="M9.12911 8.38798C9.12911 8.38798 9.56466 7.80131 9.77911 6.81798C9.99244 5.83464 9.64355 4.98242 9.64355 4.98242C9.64355 4.98242 9.19133 5.64576 8.96355 6.69353C8.73577 7.7402 9.12911 8.38798 9.12911 8.38798Z" fill="black"/>
<path d="M8.35529 12.796C8.35529 12.796 8.89863 12.3082 9.30529 11.3882C9.71196 10.4671 9.54085 9.56152 9.54085 9.56152C9.54085 9.56152 8.96529 10.1215 8.53196 11.1026C8.09974 12.0826 8.35529 12.796 8.35529 12.796Z" fill="black"/>
<path d="M8.95703 9.50529C8.95703 9.50529 9.65148 9.28085 10.3981 8.60529C11.1426 7.93085 11.3548 7.03418 11.3548 7.03418C11.3548 7.03418 10.6015 7.31085 9.80703 8.02974C9.0137 8.74862 8.95703 9.50529 8.95703 9.50529Z" fill="black"/>
<mask id="mask2_97_1417" style="mask-type:luminance" maskUnits="userSpaceOnUse" x="9" y="4" width="4" height="4">
<path d="M9.95508 4.70898H12.2306V7.6801H9.95508V4.70898Z" fill="white"/>
</mask>
<g mask="url(#mask2_97_1417)">
<path d="M9.98313 7.49165C9.98313 7.49165 10.6409 7.17387 11.2865 6.40276C11.932 5.63165 12.0187 4.71387 12.0187 4.71387C12.0187 4.71387 11.3109 5.09165 10.6231 5.91387C9.93536 6.73498 9.98313 7.49165 9.98313 7.49165Z" fill="black"/>
</g>
<path d="M15.4504 20.2266C15.4504 21.2388 13.7871 22.341 13.7871 21.8021C13.7871 21.2643 15.4504 20.5855 15.4504 20.2266Z" fill="black"/>
<path d="M16.4131 20.2266C16.4131 21.2388 18.0764 22.341 18.0764 21.8021C18.0764 21.2643 16.4131 20.5855 16.4131 20.2266Z" fill="black"/>
<path d="M16.5176 19.7532C16.5176 19.7532 16.7687 20.501 18.2798 20.6621C19.7898 20.8232 20.4342 20.501 20.4342 20.501C20.4342 20.501 19.4276 19.7143 18.4609 19.6732C17.4931 19.6332 16.5176 19.7532 16.5176 19.7532Z" fill="black"/>
<path d="M16.5173 19.7531C16.5173 19.7531 16.404 18.9708 17.6551 18.1075C18.9062 17.2442 19.6273 17.2197 19.6273 17.2197C19.6273 17.2197 19.214 18.2864 18.2062 18.9097C17.3829 19.4197 16.5173 19.7531 16.5173 19.7531Z" fill="black"/>
<path d="M18.3096 19.1993C18.3096 19.1993 19.0796 18.8516 20.2429 18.8516C21.4062 18.8516 22.2829 19.4571 22.2829 19.4571C22.2829 19.4571 21.4218 19.8049 20.1829 19.8049C18.944 19.8049 18.3096 19.1993 18.3096 19.1993Z" fill="black"/>
<path d="M19.7344 18.4575C19.7344 18.4575 19.7966 17.613 20.351 16.5897C20.9066 15.5652 21.8555 15.083 21.8555 15.083C21.8555 15.083 21.7499 16.0075 21.1588 17.0975C20.5677 18.1886 19.7344 18.4575 19.7344 18.4575Z" fill="black"/>
<path d="M20.3145 18.3523C20.3145 18.3523 20.9822 17.8334 22.1133 17.5612C23.2445 17.2879 24.2378 17.6712 24.2378 17.6712C24.2378 17.6712 23.4822 18.2112 22.2778 18.5023C21.0733 18.7923 20.3145 18.3523 20.3145 18.3523Z" fill="black"/>
<path d="M21.3154 17.4523C21.3154 17.4523 21.731 16.7157 22.6688 16.0257C23.6077 15.3368 24.671 15.3057 24.671 15.3057C24.671 15.3057 24.1821 16.0957 23.1832 16.8301C22.1854 17.5646 21.3154 17.4523 21.3154 17.4523Z" fill="black"/>
<path d="M22.3098 15.937C22.3098 15.937 22.0287 15.1826 22.102 14.0759C22.1754 12.9704 22.8043 12.1748 22.8043 12.1748C22.8043 12.1748 23.0798 13.0159 23.002 14.1937C22.9232 15.3715 22.3098 15.937 22.3098 15.937Z" fill="black"/>
<mask id="mask3_97_1417" style="mask-type:luminance" maskUnits="userSpaceOnUse" x="23" y="12" width="3" height="4">
<path d="M23.04 12.7998H25.8123V15.3598H23.04V12.7998Z" fill="white"/>
</mask>
<g mask="url(#mask3_97_1417)">
<path d="M23.0986 15.2207C23.0986 15.2207 23.3875 14.5496 24.1297 13.8707C24.872 13.1929 25.7842 13.0674 25.7842 13.0674C25.7842 13.0674 25.4364 13.7918 24.6464 14.514C23.8553 15.2374 23.0986 15.2207 23.0986 15.2207Z" fill="black"/>
</g>
<path d="M23.5469 13.7334C23.5469 13.7334 23.5824 13.0023 24.0391 12.1068C24.4969 11.2101 25.3058 10.7734 25.3058 10.7734C25.3058 10.7734 25.2347 11.5734 24.748 12.5279C24.2613 13.4823 23.5469 13.7334 23.5469 13.7334Z" fill="black"/>
<path d="M23.8593 11.5528C23.8593 11.5528 23.796 10.8239 24.1293 9.87392C24.4626 8.92392 25.2049 8.38281 25.2049 8.38281C25.2049 8.38281 25.2426 9.18503 24.8871 10.1961C24.5337 11.2084 23.8593 11.5528 23.8593 11.5528Z" fill="black"/>
<path d="M23.5575 10.1163C23.5575 10.1163 23.223 9.46632 23.1719 8.46076C23.1197 7.45521 23.6019 6.67188 23.6019 6.67188C23.6019 6.67188 23.9408 7.39965 23.9953 8.47076C24.0508 9.54188 23.5575 10.1163 23.5575 10.1163Z" fill="black"/>
<path d="M22.7342 8.38798C22.7342 8.38798 22.2987 7.80131 22.0853 6.81798C21.8709 5.83464 22.2198 4.98242 22.2198 4.98242C22.2198 4.98242 22.672 5.64576 22.8998 6.69353C23.1275 7.7402 22.7342 8.38798 22.7342 8.38798Z" fill="black"/>
<path d="M23.5085 12.796C23.5085 12.796 22.9641 12.3082 22.5574 11.3882C22.1508 10.4671 22.3219 9.56152 22.3219 9.56152C22.3219 9.56152 22.8974 10.1215 23.3308 11.1026C23.7641 12.0826 23.5085 12.796 23.5085 12.796Z" fill="black"/>
<path d="M22.9075 9.50529C22.9075 9.50529 22.212 9.28085 21.4664 8.60529C20.7209 7.93085 20.5098 7.03418 20.5098 7.03418C20.5098 7.03418 21.2631 7.31085 22.0564 8.02974C22.8509 8.74862 22.9075 9.50529 22.9075 9.50529Z" fill="black"/>
<mask id="mask4_97_1417" style="mask-type:luminance" maskUnits="userSpaceOnUse" x="19" y="4" width="3" height="4">
<path d="M19.627 4.70898H21.9025V7.6801H19.627V4.70898Z" fill="white"/>
</mask>
<g mask="url(#mask4_97_1417)">
<path d="M21.8803 7.49165C21.8803 7.49165 21.2225 7.17387 20.5769 6.40276C19.9314 5.63165 19.8447 4.71387 19.8447 4.71387C19.8447 4.71387 20.5536 5.09165 21.2414 5.91387C21.9281 6.73498 21.8803 7.49165 21.8803 7.49165Z" fill="black"/>
</g>
<mask id="mask5_97_1417" style="mask-type:luminance" maskUnits="userSpaceOnUse" x="11" y="8" width="10" height="10">
<path d="M11.708 8.66016H20.1958V17.1557H11.708V8.66016Z" fill="white"/>
</mask>
<g mask="url(#mask5_97_1417)">
<path d="M20.1502 12.8813C20.1502 13.1579 20.1236 13.4324 20.0691 13.7046C20.0158 13.9768 19.9358 14.2402 19.8291 14.4968C19.7236 14.7524 19.5936 14.9957 19.4391 15.2268C19.2847 15.4568 19.1102 15.6702 18.9147 15.8657C18.718 16.0624 18.5047 16.2368 18.2747 16.3913C18.0436 16.5446 17.8002 16.6746 17.5447 16.7813C17.2891 16.8868 17.0247 16.9668 16.7525 17.0213C16.4813 17.0757 16.2069 17.1024 15.9291 17.1024C15.6525 17.1024 15.378 17.0757 15.1058 17.0213C14.8336 16.9668 14.5702 16.8868 14.3136 16.7813C14.058 16.6746 13.8147 16.5446 13.5836 16.3913C13.3536 16.2368 13.1402 16.0624 12.9447 15.8657C12.748 15.6702 12.5736 15.4568 12.4191 15.2268C12.2658 14.9957 12.1358 14.7524 12.0291 14.4968C11.9236 14.2402 11.8436 13.9768 11.7891 13.7046C11.7347 13.4324 11.708 13.1579 11.708 12.8813C11.708 12.6046 11.7347 12.329 11.7891 12.0579C11.8436 11.7857 11.9236 11.5224 12.0291 11.2657C12.1358 11.0102 12.2658 10.7668 12.4191 10.5357C12.5736 10.3057 12.748 10.0924 12.9447 9.89682C13.1402 9.70016 13.3536 9.52571 13.5836 9.37127C13.8147 9.21793 14.058 9.08793 14.3136 8.98127C14.5702 8.87571 14.8336 8.79571 15.1058 8.74127C15.378 8.68682 15.6525 8.66016 15.9291 8.66016C16.2069 8.66016 16.4813 8.68682 16.7525 8.74127C17.0247 8.79571 17.2891 8.87571 17.5447 8.98127C17.8002 9.08793 18.0436 9.21793 18.2747 9.37127C18.5047 9.52571 18.718 9.70016 18.9147 9.89682C19.1102 10.0924 19.2847 10.3057 19.4391 10.5357C19.5936 10.7668 19.7236 11.0102 19.8291 11.2657C19.9358 11.5224 20.0158 11.7857 20.0691 12.0579C20.1236 12.329 20.1502 12.6046 20.1502 12.8813Z" fill="black"/>
</g>
<mask id="mask6_97_1417" style="mask-type:luminance" maskUnits="userSpaceOnUse" x="13" y="9" width="6" height="7">
<path d="M13.7549 9.99121H18.0027V15.7257H13.7549V9.99121Z" fill="white"/>
</mask>
<g mask="url(#mask6_97_1417)">
<path d="M17.8785 10.378C17.6462 10.0491 17.2485 9.94357 16.8674 10.0402C16.7418 10.0713 16.6185 10.108 16.4974 10.1491C16.3074 10.2158 16.1185 10.248 15.9285 10.248C15.7396 10.248 15.5496 10.2158 15.3607 10.1491C15.2396 10.108 15.114 10.0691 14.9907 10.0402C14.6085 9.94357 14.2118 10.0491 13.9785 10.378C13.734 10.7202 13.7007 11.2091 13.8307 11.6013C14.0218 12.1725 14.3218 12.6769 14.2851 13.3025C14.2462 14.0058 14.2685 14.9691 14.6818 15.5747C14.8196 15.7758 15.0862 15.8536 15.2118 15.5902C15.3696 15.2547 15.3285 14.8913 15.2874 14.5313C15.2462 14.168 15.2074 13.8025 15.374 13.4669C15.4885 13.2391 15.6729 13.1269 15.9285 13.1269C16.184 13.1269 16.3696 13.2391 16.484 13.4669C16.6507 13.8047 16.6118 14.168 16.5707 14.5313C16.5296 14.8913 16.4885 15.2547 16.6451 15.5902C16.7685 15.8536 17.0385 15.7758 17.1751 15.5747C17.5885 14.9691 17.614 14.0058 17.5729 13.3025C17.5362 12.6769 17.8374 12.1747 18.0274 11.6013C18.1574 11.2091 18.1229 10.7202 17.8785 10.378Z" fill="white"/>
</g>
<mask id="mask7_97_1417" style="mask-type:luminance" maskUnits="userSpaceOnUse" x="16" y="11" width="2" height="1">
<path d="M16.7852 11.1064H17.2107V11.5309H16.7852V11.1064Z" fill="white"/>
</mask>
<g mask="url(#mask7_97_1417)">
<path d="M17.234 11.3298C17.234 11.392 17.2118 11.4442 17.1674 11.4887C17.124 11.532 17.0718 11.5542 17.0096 11.5542C16.9474 11.5542 16.8952 11.532 16.8507 11.4887C16.8074 11.4442 16.7852 11.392 16.7852 11.3298C16.7852 11.2687 16.8074 11.2153 16.8507 11.172C16.8952 11.1276 16.9474 11.1064 17.0096 11.1064C17.0718 11.1064 17.124 11.1276 17.1674 11.172C17.2118 11.2153 17.234 11.2687 17.234 11.3298Z" fill="black"/>
</g>
<path d="M16.6292 11.8143C16.0936 12.2699 15.5625 12.2521 15.0369 11.761" stroke="black" stroke-width="0.212389" stroke-linecap="round"/>
<mask id="mask8_97_1417" style="mask-type:luminance" maskUnits="userSpaceOnUse" x="14" y="11" width="1" height="1">
<path d="M14.4785 11.1064H14.903V11.5309H14.4785V11.1064Z" fill="white"/>
</mask>
<g mask="url(#mask8_97_1417)">
<path d="M14.9263 11.3298C14.9263 11.392 14.9041 11.4442 14.8607 11.4887C14.8163 11.532 14.7641 11.5542 14.7018 11.5542C14.6396 11.5542 14.5874 11.532 14.5441 11.4887C14.4996 11.4442 14.4785 11.392 14.4785 11.3298C14.4785 11.2687 14.4996 11.2153 14.5441 11.172C14.5874 11.1276 14.6396 11.1064 14.7018 11.1064C14.7641 11.1064 14.8163 11.1276 14.8607 11.172C14.9041 11.2153 14.9263 11.2687 14.9263 11.3298Z" fill="black"/>
</g>
<path d="M13.6865 5.29489V4.81934H15.3532V5.29489H14.7932V7.19267H14.251V5.29489H13.6865Z" fill="black"/>
<path d="M16.4246 4.7793C16.5513 4.7793 16.6757 4.7993 16.7979 4.83707C16.9224 4.87263 17.0135 4.90819 17.0735 4.94374L17.1579 5.00152L16.9402 5.43263C16.9224 5.42152 16.8968 5.40596 16.8646 5.38819C16.8346 5.37041 16.7779 5.34707 16.6957 5.31707C16.6124 5.28485 16.5335 5.26819 16.4602 5.26819C16.3713 5.26819 16.3013 5.28819 16.2513 5.32596C16.2035 5.36485 16.1802 5.41707 16.1802 5.48152C16.1802 5.51485 16.1902 5.54596 16.2113 5.57485C16.2346 5.60152 16.2746 5.63152 16.3313 5.66374C16.3868 5.69374 16.4357 5.7193 16.4779 5.7393C16.519 5.75707 16.5846 5.78596 16.6735 5.82374C16.8268 5.8893 16.9579 5.97819 17.0646 6.09041C17.1735 6.20374 17.229 6.33041 17.229 6.47263C17.229 6.6093 17.2035 6.72819 17.1535 6.82819C17.1057 6.9293 17.039 7.0093 16.9535 7.06819C16.8668 7.12485 16.7724 7.16596 16.669 7.19263C16.5646 7.22152 16.4524 7.23707 16.3313 7.23707C16.2302 7.23707 16.129 7.22485 16.029 7.20152C15.9279 7.18152 15.8435 7.15596 15.7757 7.12596C15.7102 7.09374 15.6513 7.06263 15.5979 7.03263C15.5446 7.00041 15.5046 6.97374 15.4779 6.95263L15.4424 6.92152L15.7135 6.46819C15.7335 6.48596 15.7646 6.51041 15.8068 6.5393C15.8479 6.5693 15.919 6.6093 16.0202 6.6593C16.1235 6.71041 16.2135 6.73485 16.2913 6.73485C16.519 6.73485 16.6335 6.65819 16.6335 6.50374C16.6335 6.47152 16.6246 6.44152 16.6068 6.41485C16.5913 6.38596 16.5635 6.35707 16.5224 6.33041C16.4835 6.30152 16.4479 6.2793 16.4157 6.26374C16.3824 6.24596 16.3313 6.22152 16.2602 6.18819C16.189 6.15596 16.1357 6.13041 16.1002 6.11263C15.9579 6.04152 15.8468 5.95263 15.7668 5.84596C15.6868 5.7393 15.6468 5.62596 15.6468 5.50374C15.6468 5.29041 15.7246 5.11707 15.8824 4.98374C16.0424 4.84819 16.2224 4.7793 16.4246 4.7793Z" fill="black"/>
<path d="M18.0173 4.81934V7.19267H17.4795V4.81934H18.0173Z" fill="black"/>
<path d="M7.59961 22.2139H8.4085C8.79294 22.2139 9.12405 22.3472 9.39961 22.6139C9.67516 22.8783 9.81294 23.2094 9.81294 23.6094C9.81294 24.0094 9.67516 24.3428 9.39961 24.6094C9.12628 24.8739 8.79628 25.005 8.4085 25.005H7.59961V22.2139ZM8.23516 24.4361H8.33294C8.56405 24.4361 8.75294 24.3583 8.90183 24.2005C9.04961 24.0439 9.12516 23.8472 9.1285 23.6094C9.1285 23.3761 9.05405 23.1805 8.90628 23.0228C8.75739 22.8628 8.56628 22.7828 8.33294 22.7828H8.23516V24.4361Z" fill="black"/>
<path d="M10.1471 22.303C10.2183 22.2318 10.3027 22.1963 10.4005 22.1963C10.4983 22.1963 10.5805 22.2318 10.6494 22.303C10.7205 22.3741 10.756 22.4585 10.756 22.5563C10.756 22.6518 10.7205 22.7341 10.6494 22.8052C10.5805 22.8741 10.4983 22.9074 10.4005 22.9074C10.3027 22.9074 10.2183 22.8741 10.1471 22.8052C10.0783 22.7341 10.0449 22.6518 10.0449 22.5563C10.0449 22.4585 10.0783 22.3741 10.1471 22.303ZM10.0938 23.2718V25.0052H10.6894V23.2718H10.0938Z" fill="black"/>
<path d="M11.2293 24.7921C11.0693 24.6143 10.9893 24.3965 10.9893 24.1388C10.9893 23.881 11.0693 23.6632 11.2293 23.4854C11.3915 23.3076 11.5993 23.2188 11.8515 23.2188C12.0793 23.2188 12.267 23.2921 12.4159 23.4365V23.2721H13.0159V25.0054H12.4248V24.8099H12.4159C12.267 24.9732 12.0793 25.0543 11.8515 25.0543C11.5993 25.0543 11.3915 24.9676 11.2293 24.7921ZM11.7404 23.8454C11.6626 23.9232 11.6248 24.0221 11.6248 24.1432C11.6248 24.2621 11.6615 24.3599 11.7359 24.4365C11.8093 24.511 11.907 24.5476 12.0293 24.5476C12.1448 24.5476 12.2393 24.5099 12.3137 24.4321C12.3904 24.3554 12.4293 24.2576 12.4293 24.1388C12.4293 24.021 12.3904 23.9232 12.3137 23.8454C12.2359 23.7688 12.1415 23.7299 12.0293 23.7299C11.9137 23.7299 11.817 23.7688 11.7404 23.8454Z" fill="black"/>
<path d="M13.4229 25.0054V23.2721H14.0184V23.4543H14.0273C14.1806 23.2976 14.3473 23.2188 14.5251 23.2188C14.6495 23.2188 14.7662 23.2454 14.8762 23.2987C14.9884 23.3499 15.0729 23.4299 15.1295 23.5387C15.304 23.3254 15.4951 23.2188 15.7029 23.2188C15.8895 23.2188 16.0495 23.271 16.1829 23.3743C16.3162 23.4787 16.3829 23.641 16.3829 23.8632V25.0054H15.7829V24.0232C15.7829 23.9321 15.7573 23.8543 15.7073 23.7921C15.6562 23.7299 15.5795 23.6988 15.4762 23.6988C15.3895 23.6988 15.3229 23.7254 15.2762 23.7788C15.2284 23.8321 15.2029 23.8965 15.2006 23.9699V25.0054H14.6006V24.0232C14.6006 23.9321 14.5751 23.8543 14.5251 23.7921C14.474 23.7299 14.3984 23.6988 14.2984 23.6988C14.2062 23.6988 14.1362 23.7288 14.0895 23.7876C14.0417 23.8443 14.0184 23.9121 14.0184 23.9921V25.0054H13.4229Z" fill="black"/>
<path d="M16.867 24.7921C16.707 24.6143 16.627 24.3965 16.627 24.1388C16.627 23.881 16.707 23.6632 16.867 23.4854C17.0292 23.3076 17.237 23.2188 17.4892 23.2188C17.717 23.2188 17.9047 23.2921 18.0536 23.4365V23.2721H18.6536V25.0054H18.0625V24.8099H18.0536C17.9047 24.9732 17.717 25.0543 17.4892 25.0543C17.237 25.0543 17.0292 24.9676 16.867 24.7921ZM17.3781 23.8454C17.3003 23.9232 17.2625 24.0221 17.2625 24.1432C17.2625 24.2621 17.2992 24.3599 17.3736 24.4365C17.447 24.511 17.5447 24.5476 17.667 24.5476C17.7825 24.5476 17.877 24.5099 17.9514 24.4321C18.0281 24.3554 18.067 24.2576 18.067 24.1388C18.067 24.021 18.0281 23.9232 17.9514 23.8454C17.8736 23.7688 17.7792 23.7299 17.667 23.7299C17.5514 23.7299 17.4547 23.7688 17.3781 23.8454Z" fill="black"/>
<path d="M19.0596 25.0054V23.2721H19.6551V23.4543H19.664C19.8173 23.2976 19.984 23.2188 20.1618 23.2188C20.2473 23.2188 20.3318 23.231 20.4151 23.2543C20.5007 23.2754 20.5818 23.3099 20.6596 23.3565C20.7362 23.4043 20.7985 23.4721 20.8462 23.561C20.8962 23.6476 20.9218 23.7476 20.9218 23.8632V25.0054H20.3218V24.0232C20.3218 23.9343 20.2918 23.8565 20.2329 23.7876C20.1762 23.7199 20.1018 23.6854 20.0107 23.6854C19.9218 23.6854 19.8396 23.721 19.7662 23.7921C19.6918 23.861 19.6551 23.9376 19.6551 24.0232V25.0054H19.0596Z" fill="black"/>
<path d="M21.3915 23.2719V22.623H21.9915V23.2719H22.3559V23.7253H21.9915V24.2764C21.9915 24.4364 22.037 24.5164 22.1292 24.5164C22.1492 24.5164 22.1715 24.5119 22.1959 24.503C22.2226 24.4942 22.2426 24.4853 22.2581 24.4764L22.2759 24.463L22.427 24.9475C22.2959 25.0186 22.1492 25.0542 21.987 25.0542C21.8737 25.0542 21.7759 25.0342 21.6937 24.9964C21.6137 24.9586 21.5526 24.9064 21.5115 24.8408C21.4692 24.773 21.4381 24.7019 21.4181 24.6275C21.4004 24.5542 21.3915 24.4753 21.3915 24.3919V23.7253H21.1426V23.2719H21.3915Z" fill="black"/>
<path d="M24.3839 24.2188H23.1261C23.1261 24.3432 23.1639 24.4354 23.2417 24.4943C23.3217 24.551 23.4072 24.5788 23.4995 24.5788C23.5972 24.5788 23.6739 24.5676 23.7306 24.5432C23.7861 24.5165 23.8506 24.4654 23.9217 24.3876L24.3572 24.601C24.1761 24.9032 23.875 25.0543 23.455 25.0543C23.1939 25.0543 22.9706 24.9654 22.7839 24.7876C22.5972 24.6076 22.5039 24.391 22.5039 24.1388C22.5039 23.8876 22.5972 23.671 22.7839 23.4899C22.9706 23.3099 23.1939 23.2188 23.455 23.2188C23.7306 23.2188 23.9539 23.2987 24.1261 23.4588C24.2972 23.6165 24.3839 23.8432 24.3839 24.1388C24.3839 24.181 24.3839 24.2076 24.3839 24.2188ZM23.1395 23.8899H23.8017C23.7861 23.7987 23.7495 23.7288 23.6906 23.681C23.6339 23.6343 23.5617 23.6099 23.4728 23.6099C23.3717 23.6099 23.2917 23.6365 23.2328 23.6899C23.1761 23.741 23.145 23.8076 23.1395 23.8899Z" fill="black"/>
<path d="M13.5742 27.4877L14.1753 26.9577C14.2353 26.9055 14.2831 26.8522 14.3176 26.7988C14.352 26.7444 14.3687 26.6888 14.3687 26.63C14.3687 26.5722 14.3564 26.52 14.3309 26.4766C14.3053 26.4322 14.2709 26.3977 14.2264 26.3744C14.1831 26.35 14.1342 26.3388 14.0798 26.3388C14.0076 26.3388 13.9431 26.3588 13.8876 26.4011C13.832 26.4433 13.7931 26.4944 13.7709 26.5533L13.592 26.4911C13.6109 26.4266 13.6453 26.3688 13.6931 26.3155C13.742 26.2633 13.7987 26.2211 13.8653 26.1911C13.932 26.16 14.002 26.1455 14.0753 26.1455C14.1664 26.1455 14.2487 26.1644 14.3231 26.2044C14.3976 26.2444 14.4564 26.3011 14.4987 26.3744C14.5409 26.4477 14.562 26.5322 14.562 26.6288C14.562 26.7122 14.5398 26.7911 14.4942 26.8655C14.4498 26.9388 14.3876 27.0111 14.3076 27.0822L13.8831 27.4377H14.5987V27.62H13.5742V27.4877Z" fill="black"/>
<path d="M15.3626 27.6458C15.2526 27.6458 15.1548 27.6158 15.0692 27.5558C14.9837 27.4958 14.917 27.4091 14.8692 27.2958C14.8203 27.1836 14.7959 27.0503 14.7959 26.8969C14.7959 26.7436 14.8203 26.6103 14.8692 26.498C14.917 26.3858 14.9837 26.3003 15.0692 26.2403C15.1548 26.1814 15.2526 26.1514 15.3626 26.1514C15.4715 26.1514 15.5692 26.1814 15.6548 26.2403C15.7403 26.3003 15.807 26.3858 15.8548 26.498C15.9037 26.6103 15.927 26.7436 15.927 26.8969C15.927 27.0503 15.9037 27.1836 15.8548 27.2958C15.807 27.4091 15.7392 27.4958 15.6537 27.5558C15.5681 27.6158 15.4715 27.6458 15.3626 27.6458ZM15.3637 27.4514C15.4326 27.4514 15.4948 27.4314 15.5503 27.3903C15.6048 27.3503 15.6492 27.288 15.6815 27.2036C15.7148 27.1203 15.7315 27.0158 15.7315 26.8925C15.7315 26.7736 15.7148 26.6725 15.6815 26.5903C15.6492 26.508 15.6048 26.4469 15.5492 26.4069C15.4937 26.3658 15.4326 26.3458 15.3637 26.3458C15.2937 26.3458 15.2303 26.3658 15.1748 26.4069C15.1181 26.4469 15.0748 26.508 15.0415 26.5903C15.0092 26.6725 14.9926 26.7736 14.9926 26.8925C14.9926 27.0158 15.0092 27.1203 15.0415 27.2036C15.0737 27.288 15.1181 27.3503 15.1737 27.3903C15.2303 27.4314 15.2937 27.4514 15.3637 27.4514Z" fill="black"/>
<path d="M16.0781 27.4877L16.6792 26.9577C16.7392 26.9055 16.787 26.8522 16.8215 26.7988C16.8559 26.7444 16.8726 26.6888 16.8726 26.63C16.8726 26.5722 16.8603 26.52 16.8348 26.4766C16.8092 26.4322 16.7748 26.3977 16.7303 26.3744C16.687 26.35 16.6381 26.3388 16.5837 26.3388C16.5115 26.3388 16.447 26.3588 16.3915 26.4011C16.3359 26.4433 16.297 26.4944 16.2748 26.5533L16.0959 26.4911C16.1148 26.4266 16.1492 26.3688 16.197 26.3155C16.2459 26.2633 16.3026 26.2211 16.3692 26.1911C16.4359 26.16 16.5059 26.1455 16.5792 26.1455C16.6703 26.1455 16.7526 26.1644 16.827 26.2044C16.9015 26.2444 16.9603 26.3011 17.0026 26.3744C17.0448 26.4477 17.0659 26.5322 17.0659 26.6288C17.0659 26.7122 17.0437 26.7911 16.9981 26.8655C16.9537 26.9388 16.8915 27.0111 16.8115 27.0822L16.387 27.4377H17.1026V27.62H16.0781V27.4877Z" fill="black"/>
<path d="M17.9953 27.2716H17.252V27.0983L17.9664 26.1738H18.1886V27.0816H18.3075V27.2716H18.1886V27.6205H17.9953V27.2716ZM17.9953 27.0816V26.4461L17.4742 27.0816H17.9953Z" fill="black"/>
</svg>
