<svg width="32" height="32" viewBox="0 0 32 32" fill="none" xmlns="http://www.w3.org/2000/svg">
<mask id="mask0_97_799" style="mask-type:luminance" maskUnits="userSpaceOnUse" x="1" y="1" width="30" height="30">
<path d="M1.74805 1.74805H30.1514V30.1514H1.74805V1.74805Z" fill="white"/>
</mask>
<g mask="url(#mask0_97_799)">
<path fill-rule="evenodd" clip-rule="evenodd" d="M15.928 1.74805C16.8758 1.74805 17.7125 2.72805 18.6069 2.91027C19.5003 3.0936 20.6258 2.51471 21.448 2.86249C22.2692 3.21027 22.6258 4.41582 23.3569 4.90916C24.088 5.4036 25.3336 5.27916 25.9547 5.90138C26.5758 6.52249 26.4525 7.76805 26.9469 8.49916C27.4403 9.23027 28.6458 9.58694 28.9936 10.408C29.3414 11.2303 28.7625 12.3558 28.9458 13.2492C29.128 14.1436 30.108 14.9803 30.108 15.928C30.108 16.8758 29.128 17.7125 28.9458 18.6069C28.7625 19.5003 29.3414 20.6258 28.9936 21.448C28.6458 22.2692 27.4403 22.6258 26.9469 23.3569C26.4525 24.088 26.5758 25.3336 25.9547 25.9547C25.3336 26.5758 24.088 26.4525 23.3569 26.9469C22.6258 27.4403 22.2692 28.6458 21.448 28.9936C20.6258 29.3414 19.5003 28.7625 18.6069 28.9458C17.7125 29.1292 16.8758 30.108 15.928 30.108C14.9803 30.108 14.1436 29.1292 13.2492 28.9458C12.3558 28.7625 11.2303 29.3414 10.408 28.9936C9.58694 28.6458 9.23027 27.4403 8.49916 26.9469C7.76805 26.4525 6.52249 26.5758 5.90138 25.9547C5.27916 25.3336 5.4036 24.088 4.90916 23.3569C4.41582 22.6258 3.21027 22.2692 2.86249 21.448C2.51471 20.6258 3.0936 19.5003 2.91027 18.6069C2.72694 17.7125 1.74805 16.8758 1.74805 15.928C1.74805 14.9803 2.72694 14.1436 2.91027 13.2492C3.0936 12.3558 2.51471 11.2303 2.86249 10.408C3.21027 9.58694 4.41582 9.23027 4.90916 8.49916C5.4036 7.76805 5.27916 6.52249 5.90138 5.90138C6.52249 5.27916 7.76805 5.4036 8.49916 4.90916C9.23027 4.41582 9.58694 3.21027 10.408 2.86249C11.2303 2.51471 12.3558 3.0936 13.2492 2.91027C14.1436 2.72805 14.9803 1.74805 15.928 1.74805Z" fill="#FF914D"/>
</g>
<path d="M15.3638 19.6789C15.3638 19.6789 15.1138 20.4234 13.5993 20.5834C12.086 20.7445 11.4404 20.4234 11.4404 20.4234C11.4404 20.4234 12.4493 19.64 13.4182 19.6C14.3871 19.56 15.3638 19.6789 15.3638 19.6789Z" fill="black"/>
<path d="M15.3635 19.6792C15.3635 19.6792 15.4779 18.9014 14.2246 18.0425C12.9712 17.1836 12.249 17.1592 12.249 17.1592C12.249 17.1592 12.6635 18.2203 13.6724 18.8403C14.4968 19.3481 15.3635 19.6792 15.3635 19.6792Z" fill="black"/>
<path d="M13.5689 19.1279C13.5689 19.1279 12.7978 18.7812 11.6322 18.7812C10.4666 18.7812 9.58887 19.3846 9.58887 19.3846C9.58887 19.3846 10.4511 19.7301 11.6922 19.7301C12.9333 19.7301 13.5689 19.1279 13.5689 19.1279Z" fill="black"/>
<path d="M12.1422 18.39C12.1422 18.39 12.0799 17.55 11.5233 16.5311C10.9677 15.5122 10.0166 15.0322 10.0166 15.0322C10.0166 15.0322 10.1222 15.9522 10.7144 17.0367C11.3077 18.1222 12.1422 18.39 12.1422 18.39Z" fill="black"/>
<path d="M11.5609 18.2852C11.5609 18.2852 10.892 17.7686 9.75864 17.4974C8.6253 17.2252 7.63086 17.6063 7.63086 17.6063C7.63086 17.6063 8.38753 18.1441 9.59419 18.4341C10.8009 18.723 11.5609 18.2852 11.5609 18.2852Z" fill="black"/>
<path d="M10.5574 17.3896C10.5574 17.3896 10.1407 16.6563 9.20184 15.9696C8.26184 15.284 7.19629 15.2529 7.19629 15.2529C7.19629 15.2529 7.68629 16.0396 8.68629 16.7707C9.68629 17.5007 10.5574 17.3896 10.5574 17.3896Z" fill="black"/>
<path d="M9.56198 15.881C9.56198 15.881 9.8442 15.1299 9.76975 14.0299C9.69642 12.9288 9.06642 12.1377 9.06642 12.1377C9.06642 12.1377 8.78975 12.9744 8.86864 14.1466C8.94753 15.3188 9.56198 15.881 9.56198 15.881Z" fill="black"/>
<mask id="mask1_97_799" style="mask-type:luminance" maskUnits="userSpaceOnUse" x="6" y="12" width="3" height="4">
<path d="M6.05957 12.7998H8.81735V15.3598H6.05957V12.7998Z" fill="white"/>
</mask>
<g mask="url(#mask1_97_799)">
<path d="M8.77092 15.1697C8.77092 15.1697 8.48203 14.5019 7.73759 13.8264C6.99425 13.1508 6.08203 13.0264 6.08203 13.0264C6.08203 13.0264 6.42981 13.7475 7.22092 14.4664C8.01314 15.1853 8.77092 15.1697 8.77092 15.1697Z" fill="black"/>
</g>
<path d="M8.3229 13.6887C8.3229 13.6887 8.28735 12.9621 7.82846 12.0698C7.37068 11.1776 6.55957 10.7432 6.55957 10.7432C6.55957 10.7432 6.63179 11.5387 7.11957 12.4887C7.60735 13.4387 8.3229 13.6887 8.3229 13.6887Z" fill="black"/>
<path d="M8.01007 11.5198C8.01007 11.5198 8.0734 10.7943 7.74007 9.84981C7.40563 8.90426 6.66229 8.36426 6.66229 8.36426C6.66229 8.36426 6.62452 9.16315 6.98007 10.1698C7.33452 11.1765 8.01007 11.5198 8.01007 11.5198Z" fill="black"/>
<path d="M8.31238 10.0899C8.31238 10.0899 8.64683 9.44322 8.69905 8.44211C8.75016 7.44211 8.26683 6.66211 8.26683 6.66211C8.26683 6.66211 7.92794 7.38655 7.87349 8.45211C7.81794 9.51767 8.31238 10.0899 8.31238 10.0899Z" fill="black"/>
<path d="M9.13639 8.37047C9.13639 8.37047 9.57195 7.78602 9.78639 6.80714C10.0008 5.82936 9.65195 4.98047 9.65195 4.98047C9.65195 4.98047 9.19862 5.64158 8.97084 6.6838C8.74195 7.72602 9.13639 8.37047 9.13639 8.37047Z" fill="black"/>
<path d="M8.36098 12.7559C8.36098 12.7559 8.90653 12.2714 9.3132 11.3548C9.71987 10.4381 9.54876 9.53809 9.54876 9.53809C9.54876 9.53809 8.97209 10.0948 8.53876 11.0703C8.10542 12.0459 8.36098 12.7559 8.36098 12.7559Z" fill="black"/>
<path d="M8.96289 9.48122C8.96289 9.48122 9.65956 9.25899 10.4062 8.58677C11.1529 7.91566 11.3651 7.02344 11.3651 7.02344C11.3651 7.02344 10.6107 7.29899 9.81511 8.01455C9.01956 8.72899 8.96289 9.48122 8.96289 9.48122Z" fill="black"/>
<mask id="mask2_97_799" style="mask-type:luminance" maskUnits="userSpaceOnUse" x="9" y="4" width="4" height="4">
<path d="M9.95508 4.70898H12.2306V7.6801H9.95508V4.70898Z" fill="white"/>
</mask>
<g mask="url(#mask2_97_799)">
<path d="M9.99192 7.47831C9.99192 7.47831 10.6508 7.16165 11.2975 6.39387C11.9441 5.62609 12.0308 4.71387 12.0308 4.71387C12.0308 4.71387 11.3219 5.08942 10.633 5.9072C9.94414 6.72498 9.99192 7.47831 9.99192 7.47831Z" fill="black"/>
</g>
<path d="M15.4684 20.1504C15.4684 21.1582 13.8018 22.2548 13.8018 21.7193C13.8018 21.1837 15.4684 20.5071 15.4684 20.1504Z" fill="black"/>
<path d="M16.4336 20.1504C16.4336 21.1582 18.1003 22.2548 18.1003 21.7193C18.1003 21.1837 16.4336 20.5071 16.4336 20.1504Z" fill="black"/>
<path d="M16.5391 19.6789C16.5391 19.6789 16.7891 20.4234 18.3035 20.5834C19.8168 20.7445 20.4624 20.4234 20.4624 20.4234C20.4624 20.4234 19.4535 19.64 18.4846 19.6C17.5157 19.56 16.5391 19.6789 16.5391 19.6789Z" fill="black"/>
<path d="M16.5389 19.6792C16.5389 19.6792 16.4244 18.9014 17.6778 18.0425C18.9311 17.1836 19.6533 17.1592 19.6533 17.1592C19.6533 17.1592 19.2389 18.2203 18.23 18.8403C17.4055 19.3481 16.5389 19.6792 16.5389 19.6792Z" fill="black"/>
<path d="M18.333 19.1279C18.333 19.1279 19.1041 18.7812 20.2697 18.7812C21.4352 18.7812 22.313 19.3846 22.313 19.3846C22.313 19.3846 21.4508 19.7301 20.2097 19.7301C18.9686 19.7301 18.333 19.1279 18.333 19.1279Z" fill="black"/>
<path d="M19.7598 18.39C19.7598 18.39 19.822 17.55 20.3787 16.5311C20.9342 15.5122 21.8853 15.0322 21.8853 15.0322C21.8853 15.0322 21.7798 15.9522 21.1875 17.0367C20.5953 18.1222 19.7598 18.39 19.7598 18.39Z" fill="black"/>
<path d="M20.3418 18.2852C20.3418 18.2852 21.0096 17.7686 22.1429 17.4974C23.2762 17.2252 24.2707 17.6063 24.2707 17.6063C24.2707 17.6063 23.514 18.1441 22.3074 18.4341C21.1007 18.723 20.3418 18.2852 20.3418 18.2852Z" fill="black"/>
<path d="M21.3447 17.3896C21.3447 17.3896 21.7614 16.6563 22.7003 15.9696C23.6403 15.284 24.7058 15.2529 24.7058 15.2529C24.7058 15.2529 24.2158 16.0396 23.2158 16.7707C22.2158 17.5007 21.3447 17.3896 21.3447 17.3896Z" fill="black"/>
<path d="M22.3404 15.881C22.3404 15.881 22.0582 15.1299 22.1326 14.0299C22.206 12.9288 22.836 12.1377 22.836 12.1377C22.836 12.1377 23.1126 12.9744 23.0337 14.1466C22.9548 15.3188 22.3404 15.881 22.3404 15.881Z" fill="black"/>
<mask id="mask3_97_799" style="mask-type:luminance" maskUnits="userSpaceOnUse" x="23" y="12" width="3" height="4">
<path d="M23.04 12.7998H25.85V15.3598H23.04V12.7998Z" fill="white"/>
</mask>
<g mask="url(#mask3_97_799)">
<path d="M23.1309 15.1697C23.1309 15.1697 23.4197 14.5019 24.1642 13.8264C24.9075 13.1508 25.8197 13.0264 25.8197 13.0264C25.8197 13.0264 25.472 13.7475 24.6809 14.4664C23.8886 15.1853 23.1309 15.1697 23.1309 15.1697Z" fill="black"/>
</g>
<path d="M23.5791 13.6887C23.5791 13.6887 23.6147 12.9621 24.0724 12.0698C24.5313 11.1776 25.3413 10.7432 25.3413 10.7432C25.3413 10.7432 25.2702 11.5387 24.7824 12.4887C24.2947 13.4387 23.5791 13.6887 23.5791 13.6887Z" fill="black"/>
<path d="M23.8925 11.5198C23.8925 11.5198 23.8292 10.7943 24.1625 9.84981C24.4958 8.90426 25.2403 8.36426 25.2403 8.36426C25.2403 8.36426 25.2781 9.16315 24.9225 10.1698C24.5669 11.1765 23.8925 11.5198 23.8925 11.5198Z" fill="black"/>
<path d="M23.5897 10.0899C23.5897 10.0899 23.2552 9.44322 23.203 8.44211C23.1519 7.44211 23.6352 6.66211 23.6352 6.66211C23.6352 6.66211 23.9741 7.38655 24.0286 8.45211C24.0841 9.51767 23.5897 10.0899 23.5897 10.0899Z" fill="black"/>
<path d="M22.7656 8.37047C22.7656 8.37047 22.33 7.78602 22.1156 6.80714C21.9011 5.82936 22.25 4.98047 22.25 4.98047C22.25 4.98047 22.7034 5.64158 22.9311 6.6838C23.16 7.72602 22.7656 8.37047 22.7656 8.37047Z" fill="black"/>
<path d="M23.5413 12.7559C23.5413 12.7559 22.9957 12.2714 22.589 11.3548C22.1813 10.4381 22.3535 9.53809 22.3535 9.53809C22.3535 9.53809 22.9302 10.0948 23.3635 11.0703C23.7968 12.0459 23.5413 12.7559 23.5413 12.7559Z" fill="black"/>
<path d="M22.9393 9.48122C22.9393 9.48122 22.2427 9.25899 21.496 8.58677C20.7493 7.91566 20.5371 7.02344 20.5371 7.02344C20.5371 7.02344 21.2916 7.29899 22.0871 8.01455C22.8827 8.72899 22.9393 9.48122 22.9393 9.48122Z" fill="black"/>
<mask id="mask4_97_799" style="mask-type:luminance" maskUnits="userSpaceOnUse" x="19" y="4" width="4" height="4">
<path d="M19.627 4.70898H22.187V7.6801H19.627V4.70898Z" fill="white"/>
</mask>
<g mask="url(#mask4_97_799)">
<path d="M21.91 7.47831C21.91 7.47831 21.2511 7.16165 20.6044 6.39387C19.9578 5.62609 19.8711 4.71387 19.8711 4.71387C19.8711 4.71387 20.58 5.08942 21.2689 5.9072C21.9578 6.72498 21.91 7.47831 21.91 7.47831Z" fill="black"/>
</g>
<mask id="mask5_97_799" style="mask-type:luminance" maskUnits="userSpaceOnUse" x="11" y="8" width="10" height="10">
<path d="M11.708 8.66016H20.1413V17.0935H11.708V8.66016Z" fill="white"/>
</mask>
<g mask="url(#mask5_97_799)">
<path d="M20.1502 12.8813C20.1502 13.1579 20.1236 13.4324 20.0691 13.7046C20.0147 13.9768 19.9347 14.2402 19.8291 14.4968C19.7225 14.7524 19.5925 14.9957 19.4391 15.2257C19.2847 15.4568 19.1102 15.6702 18.9136 15.8657C18.718 16.0624 18.5047 16.2368 18.2747 16.3913C18.0436 16.5446 17.8002 16.6746 17.5447 16.7813C17.288 16.8868 17.0247 16.9668 16.7525 17.0213C16.4813 17.0757 16.2058 17.1024 15.9291 17.1024C15.6525 17.1024 15.378 17.0757 15.1058 17.0213C14.8336 16.9668 14.5702 16.8868 14.3136 16.7813C14.058 16.6746 13.8147 16.5446 13.5836 16.3913C13.3536 16.2368 13.1402 16.0624 12.9447 15.8657C12.748 15.6702 12.5736 15.4568 12.4191 15.2257C12.2658 14.9957 12.1358 14.7524 12.0291 14.4968C11.9236 14.2402 11.8436 13.9768 11.7891 13.7046C11.7347 13.4324 11.708 13.1579 11.708 12.8813C11.708 12.6035 11.7347 12.329 11.7891 12.0579C11.8436 11.7857 11.9236 11.5224 12.0291 11.2657C12.1358 11.0102 12.2658 10.7668 12.4191 10.5357C12.5736 10.3057 12.748 10.0924 12.9447 9.89682C13.1402 9.70016 13.3536 9.52571 13.5836 9.37127C13.8147 9.21793 14.058 9.08682 14.3136 8.98127C14.5702 8.87571 14.8336 8.79571 15.1058 8.74127C15.378 8.68682 15.6525 8.66016 15.9291 8.66016C16.2058 8.66016 16.4813 8.68682 16.7525 8.74127C17.0247 8.79571 17.288 8.87571 17.5447 8.98127C17.8002 9.08682 18.0436 9.21793 18.2747 9.37127C18.5047 9.52571 18.718 9.70016 18.9136 9.89682C19.1102 10.0924 19.2847 10.3057 19.4391 10.5357C19.5925 10.7668 19.7225 11.0102 19.8291 11.2657C19.9347 11.5224 20.0147 11.7857 20.0691 12.0579C20.1236 12.329 20.1502 12.6035 20.1502 12.8813Z" fill="black"/>
</g>
<mask id="mask6_97_799" style="mask-type:luminance" maskUnits="userSpaceOnUse" x="13" y="9" width="6" height="7">
<path d="M13.7549 9.99121H18.1404V15.7257H13.7549V9.99121Z" fill="white"/>
</mask>
<g mask="url(#mask6_97_799)">
<path d="M17.8796 10.377C17.6462 10.0481 17.2496 9.94259 16.8685 10.0393C16.7429 10.0704 16.6196 10.107 16.4985 10.1481C16.3085 10.2148 16.1185 10.247 15.9296 10.247C15.7396 10.247 15.5507 10.2148 15.3607 10.1481C15.2396 10.107 15.114 10.0681 14.9907 10.0393C14.6096 9.94259 14.2118 10.0481 13.9785 10.377C13.734 10.7193 13.7007 11.2081 13.8307 11.6015C14.0218 12.1726 14.3218 12.677 14.2851 13.3026C14.2462 14.0059 14.2685 14.9704 14.6818 15.5748C14.8196 15.7759 15.0862 15.8537 15.2118 15.5915C15.3696 15.2548 15.3285 14.8926 15.2874 14.5315C15.2462 14.1681 15.2074 13.8026 15.374 13.467C15.4885 13.2381 15.674 13.127 15.9296 13.127C16.1851 13.127 16.3696 13.2381 16.484 13.467C16.6507 13.8048 16.6118 14.1681 16.5707 14.5315C16.5296 14.8926 16.4885 15.2548 16.6462 15.5915C16.7696 15.8537 17.0396 15.7759 17.1762 15.5748C17.5896 14.9704 17.6151 14.0059 17.574 13.3026C17.5374 12.677 17.8385 12.1748 18.0285 11.6015C18.1585 11.2081 18.124 10.7193 17.8796 10.377Z" fill="white"/>
</g>
<mask id="mask7_97_799" style="mask-type:luminance" maskUnits="userSpaceOnUse" x="16" y="11" width="2" height="1">
<path d="M16.7852 11.1064H17.2352V11.5553H16.7852V11.1064Z" fill="white"/>
</mask>
<g mask="url(#mask7_97_799)">
<path d="M17.2352 11.3309C17.2352 11.3931 17.2129 11.4464 17.1696 11.4898C17.1252 11.5342 17.0729 11.5553 17.0107 11.5553C16.9485 11.5553 16.8952 11.5342 16.8518 11.4898C16.8074 11.4464 16.7852 11.3931 16.7852 11.3309C16.7852 11.2687 16.8074 11.2153 16.8518 11.172C16.8952 11.1276 16.9485 11.1064 17.0107 11.1064C17.0729 11.1064 17.1252 11.1276 17.1696 11.172C17.2129 11.2153 17.2352 11.2687 17.2352 11.3309Z" fill="black"/>
</g>
<path d="M16.6331 11.8119C16.0976 12.2697 15.5665 12.2541 15.0409 11.7663" stroke="black" stroke-width="0.323283" stroke-linecap="round"/>
<mask id="mask8_97_799" style="mask-type:luminance" maskUnits="userSpaceOnUse" x="14" y="11" width="1" height="1">
<path d="M14.4785 11.1064H14.9274V11.5553H14.4785V11.1064Z" fill="white"/>
</mask>
<g mask="url(#mask8_97_799)">
<path d="M14.9274 11.3309C14.9274 11.3931 14.9063 11.4464 14.8618 11.4898C14.8185 11.5342 14.7652 11.5553 14.703 11.5553C14.6407 11.5553 14.5874 11.5342 14.5441 11.4898C14.4996 11.4464 14.4785 11.3931 14.4785 11.3309C14.4785 11.2687 14.4996 11.2153 14.5441 11.172C14.5874 11.1276 14.6407 11.1064 14.703 11.1064C14.7652 11.1064 14.8185 11.1276 14.8618 11.172C14.9063 11.2153 14.9274 11.2687 14.9274 11.3309Z" fill="black"/>
</g>
<path d="M13.6865 5.29489V4.81934H15.3532V5.29489H14.7932V7.19267H14.251V5.29489H13.6865Z" fill="black"/>
<path d="M16.4246 4.7793C16.5513 4.7793 16.6757 4.7993 16.7979 4.83707C16.9224 4.87263 17.0135 4.90819 17.0735 4.94374L17.1579 5.00152L16.9402 5.43263C16.9224 5.42152 16.8968 5.40596 16.8646 5.38819C16.8346 5.37041 16.7779 5.34707 16.6957 5.31707C16.6124 5.28485 16.5335 5.26819 16.4602 5.26819C16.3713 5.26819 16.3013 5.28819 16.2513 5.32596C16.2035 5.36485 16.1802 5.41707 16.1802 5.48152C16.1802 5.51485 16.1902 5.54596 16.2113 5.57485C16.2346 5.60152 16.2746 5.63152 16.3313 5.66374C16.3868 5.69374 16.4357 5.7193 16.4779 5.7393C16.519 5.75707 16.5846 5.78596 16.6735 5.82374C16.8268 5.8893 16.9579 5.97819 17.0646 6.09041C17.1735 6.20374 17.229 6.33041 17.229 6.47263C17.229 6.6093 17.2035 6.72819 17.1535 6.82819C17.1057 6.9293 17.039 7.0093 16.9535 7.06819C16.8668 7.12485 16.7724 7.16596 16.669 7.19263C16.5646 7.22152 16.4524 7.23707 16.3313 7.23707C16.2302 7.23707 16.129 7.22485 16.029 7.20152C15.9279 7.18152 15.8435 7.15596 15.7757 7.12596C15.7102 7.09374 15.6513 7.06263 15.5979 7.03263C15.5446 7.00041 15.5046 6.97374 15.4779 6.95263L15.4424 6.92152L15.7135 6.46819C15.7335 6.48596 15.7646 6.51041 15.8068 6.5393C15.8479 6.5693 15.919 6.6093 16.0202 6.6593C16.1235 6.71041 16.2135 6.73485 16.2913 6.73485C16.519 6.73485 16.6335 6.65819 16.6335 6.50374C16.6335 6.47152 16.6246 6.44152 16.6068 6.41485C16.5913 6.38596 16.5635 6.35707 16.5224 6.33041C16.4835 6.30152 16.4479 6.2793 16.4157 6.26374C16.3824 6.24596 16.3313 6.22152 16.2602 6.18819C16.189 6.15596 16.1357 6.13041 16.1002 6.11263C15.9579 6.04152 15.8468 5.95263 15.7668 5.84596C15.6868 5.7393 15.6468 5.62596 15.6468 5.50374C15.6468 5.29041 15.7246 5.11707 15.8824 4.98374C16.0424 4.84819 16.2224 4.7793 16.4246 4.7793Z" fill="black"/>
<path d="M18.0173 4.81934V7.19267H17.4795V4.81934H18.0173Z" fill="black"/>
<path d="M10.082 22.2139H10.9443C11.2076 22.2139 11.4165 22.2705 11.5709 22.3828C11.7276 22.4961 11.8065 22.6761 11.8065 22.925C11.8065 23.2039 11.6887 23.4039 11.4554 23.525C11.852 23.5939 12.0509 23.8272 12.0509 24.2272C12.0509 24.4616 11.9687 24.6494 11.8065 24.7916C11.6465 24.9339 11.4243 25.005 11.1398 25.005H10.082V22.2139ZM10.7176 23.3072H10.7665C10.9087 23.3072 11.0131 23.2828 11.082 23.2316C11.1531 23.1816 11.1887 23.1005 11.1887 22.9872C11.1887 22.8005 11.0476 22.7072 10.7665 22.7072H10.7176V23.3072ZM10.7176 24.5161H10.9176C11.2287 24.5161 11.3843 24.4128 11.3843 24.205C11.3843 24.0805 11.3443 23.9916 11.2643 23.9383C11.1865 23.8828 11.0709 23.8539 10.9176 23.8539H10.7176V24.5161Z" fill="black"/>
<path d="M12.333 25.0054V23.2721H12.9286V23.521H12.9375C12.9397 23.5121 12.9463 23.5021 12.9552 23.4899C12.9663 23.4754 12.9886 23.4521 13.0219 23.4188C13.0575 23.3832 13.0941 23.3521 13.133 23.3254C13.1708 23.2987 13.2197 23.2754 13.2797 23.2543C13.3419 23.231 13.4041 23.2188 13.4663 23.2188C13.5308 23.2188 13.5952 23.2276 13.6575 23.2454C13.7219 23.2632 13.7697 23.281 13.7997 23.2987L13.8486 23.3299L13.5952 23.8365C13.5208 23.7721 13.4175 23.7388 13.2841 23.7388C13.213 23.7388 13.1508 23.7554 13.0975 23.7876C13.0463 23.821 13.0097 23.8587 12.9863 23.9032C12.9652 23.9476 12.9508 23.9865 12.9419 24.0188C12.933 24.0488 12.9286 24.0743 12.9286 24.0943V25.0054H12.333Z" fill="black"/>
<path d="M14.1805 24.801C13.9872 24.6299 13.8916 24.4099 13.8916 24.1432C13.8916 23.8743 13.9905 23.6532 14.1894 23.481C14.3905 23.3065 14.6394 23.2188 14.936 23.2188C15.226 23.2188 15.4705 23.3065 15.6694 23.481C15.8705 23.6532 15.9716 23.8721 15.9716 24.1388C15.9716 24.4054 15.8738 24.6254 15.6783 24.7965C15.4827 24.9688 15.2349 25.0543 14.936 25.0543C14.6249 25.0543 14.3727 24.9699 14.1805 24.801ZM14.6427 23.8454C14.5649 23.9232 14.5272 24.0221 14.5272 24.1432C14.5272 24.2621 14.5638 24.3599 14.6383 24.4365C14.7116 24.511 14.8094 24.5476 14.9316 24.5476C15.0472 24.5476 15.1416 24.5099 15.216 24.4321C15.2927 24.3554 15.3316 24.2576 15.3316 24.1388C15.3316 24.021 15.2927 23.9232 15.216 23.8454C15.1383 23.7688 15.0438 23.7299 14.9316 23.7299C14.816 23.7299 14.7194 23.7688 14.6427 23.8454Z" fill="black"/>
<path d="M16.25 25.0054V23.2721H16.8456V23.4543H16.8544C17.0078 23.2976 17.1744 23.2188 17.3522 23.2188C17.4378 23.2188 17.5222 23.231 17.6056 23.2543C17.6911 23.2754 17.7722 23.3099 17.85 23.3565C17.9267 23.4043 17.9889 23.4721 18.0367 23.561C18.0867 23.6476 18.1122 23.7476 18.1122 23.8632V25.0054H17.5122V24.0232C17.5122 23.9343 17.4822 23.8565 17.4233 23.7876C17.3667 23.7199 17.2922 23.6854 17.2011 23.6854C17.1122 23.6854 17.03 23.721 16.9567 23.7921C16.8822 23.861 16.8456 23.9376 16.8456 24.0232V25.0054H16.25Z" fill="black"/>
<path d="M19.4048 23.7121C19.2915 23.7121 19.1959 23.7543 19.1159 23.8365C19.0359 23.9199 18.9959 24.0188 18.9959 24.1343C18.9959 24.2565 19.0359 24.3587 19.1159 24.441C19.1959 24.5243 19.2915 24.5654 19.4048 24.5654C19.4604 24.5654 19.5126 24.5599 19.5604 24.5476C19.607 24.5332 19.6426 24.5187 19.667 24.5032L19.6981 24.4854L19.9026 24.8988C19.8848 24.911 19.8604 24.9254 19.8315 24.9432C19.8048 24.961 19.7404 24.9832 19.6404 25.0099C19.5392 25.0388 19.4326 25.0543 19.3204 25.0543C19.0648 25.0543 18.8415 24.9654 18.6492 24.7876C18.4559 24.6076 18.3604 24.3921 18.3604 24.1432C18.3604 23.8921 18.4559 23.6754 18.6492 23.4943C18.8415 23.311 19.0648 23.2188 19.3204 23.2188C19.4326 23.2188 19.5381 23.2321 19.6359 23.2587C19.7337 23.2854 19.8026 23.3143 19.8448 23.3432L19.9026 23.3832L19.6981 23.7921C19.6237 23.7388 19.5259 23.7121 19.4048 23.7121Z" fill="black"/>
<path d="M21.8995 24.2188H20.6418C20.6418 24.3432 20.6795 24.4354 20.7573 24.4943C20.8373 24.551 20.9229 24.5788 21.0151 24.5788C21.1129 24.5788 21.1895 24.5676 21.2462 24.5432C21.3018 24.5165 21.3662 24.4654 21.4373 24.3876L21.8729 24.601C21.6918 24.9032 21.3906 25.0543 20.9706 25.0543C20.7095 25.0543 20.4862 24.9654 20.2995 24.7876C20.1129 24.6076 20.0195 24.391 20.0195 24.1388C20.0195 23.8876 20.1129 23.671 20.2995 23.4899C20.4862 23.3099 20.7095 23.2188 20.9706 23.2188C21.2462 23.2188 21.4695 23.2987 21.6418 23.4588C21.8129 23.6165 21.8995 23.8432 21.8995 24.1388C21.8995 24.181 21.8995 24.2076 21.8995 24.2188ZM20.6551 23.8899H21.3173C21.3018 23.7987 21.2651 23.7288 21.2062 23.681C21.1495 23.6343 21.0773 23.6099 20.9884 23.6099C20.8873 23.6099 20.8073 23.6365 20.7484 23.6899C20.6918 23.741 20.6606 23.8076 20.6551 23.8899Z" fill="black"/>
<path d="M13.5742 27.4877L14.1753 26.9577C14.2353 26.9055 14.2831 26.8522 14.3176 26.7988C14.352 26.7444 14.3687 26.6888 14.3687 26.63C14.3687 26.5722 14.3564 26.52 14.3309 26.4766C14.3053 26.4322 14.2709 26.3977 14.2264 26.3744C14.1831 26.35 14.1342 26.3388 14.0798 26.3388C14.0076 26.3388 13.9431 26.3588 13.8876 26.4011C13.832 26.4433 13.7931 26.4944 13.7709 26.5533L13.592 26.4911C13.6109 26.4266 13.6453 26.3688 13.6931 26.3155C13.742 26.2633 13.7987 26.2211 13.8653 26.1911C13.932 26.16 14.002 26.1455 14.0753 26.1455C14.1664 26.1455 14.2487 26.1644 14.3231 26.2044C14.3976 26.2444 14.4564 26.3011 14.4987 26.3744C14.5409 26.4477 14.562 26.5322 14.562 26.6288C14.562 26.7122 14.5398 26.7911 14.4942 26.8655C14.4498 26.9388 14.3876 27.0111 14.3076 27.0822L13.8831 27.4377H14.5987V27.62H13.5742V27.4877Z" fill="black"/>
<path d="M15.3626 27.6458C15.2526 27.6458 15.1548 27.6158 15.0692 27.5558C14.9837 27.4958 14.917 27.4091 14.8692 27.2958C14.8203 27.1836 14.7959 27.0503 14.7959 26.8969C14.7959 26.7436 14.8203 26.6103 14.8692 26.498C14.917 26.3858 14.9837 26.3003 15.0692 26.2403C15.1548 26.1814 15.2526 26.1514 15.3626 26.1514C15.4715 26.1514 15.5692 26.1814 15.6548 26.2403C15.7403 26.3003 15.807 26.3858 15.8548 26.498C15.9037 26.6103 15.927 26.7436 15.927 26.8969C15.927 27.0503 15.9037 27.1836 15.8548 27.2958C15.807 27.4091 15.7392 27.4958 15.6537 27.5558C15.5681 27.6158 15.4715 27.6458 15.3626 27.6458ZM15.3637 27.4514C15.4326 27.4514 15.4948 27.4314 15.5503 27.3903C15.6048 27.3503 15.6492 27.288 15.6815 27.2036C15.7148 27.1203 15.7315 27.0158 15.7315 26.8925C15.7315 26.7736 15.7148 26.6725 15.6815 26.5903C15.6492 26.508 15.6048 26.4469 15.5492 26.4069C15.4937 26.3658 15.4326 26.3458 15.3637 26.3458C15.2937 26.3458 15.2303 26.3658 15.1748 26.4069C15.1181 26.4469 15.0748 26.508 15.0415 26.5903C15.0092 26.6725 14.9926 26.7736 14.9926 26.8925C14.9926 27.0158 15.0092 27.1203 15.0415 27.2036C15.0737 27.288 15.1181 27.3503 15.1737 27.3903C15.2303 27.4314 15.2937 27.4514 15.3637 27.4514Z" fill="black"/>
<path d="M16.0781 27.4877L16.6792 26.9577C16.7392 26.9055 16.787 26.8522 16.8215 26.7988C16.8559 26.7444 16.8726 26.6888 16.8726 26.63C16.8726 26.5722 16.8603 26.52 16.8348 26.4766C16.8092 26.4322 16.7748 26.3977 16.7303 26.3744C16.687 26.35 16.6381 26.3388 16.5837 26.3388C16.5115 26.3388 16.447 26.3588 16.3915 26.4011C16.3359 26.4433 16.297 26.4944 16.2748 26.5533L16.0959 26.4911C16.1148 26.4266 16.1492 26.3688 16.197 26.3155C16.2459 26.2633 16.3026 26.2211 16.3692 26.1911C16.4359 26.16 16.5059 26.1455 16.5792 26.1455C16.6703 26.1455 16.7526 26.1644 16.827 26.2044C16.9015 26.2444 16.9603 26.3011 17.0026 26.3744C17.0448 26.4477 17.0659 26.5322 17.0659 26.6288C17.0659 26.7122 17.0437 26.7911 16.9981 26.8655C16.9537 26.9388 16.8915 27.0111 16.8115 27.0822L16.387 27.4377H17.1026V27.62H16.0781V27.4877Z" fill="black"/>
<path d="M17.9953 27.2716H17.252V27.0983L17.9664 26.1738H18.1886V27.0816H18.3075V27.2716H18.1886V27.6205H17.9953V27.2716ZM17.9953 27.0816V26.4461L17.4742 27.0816H17.9953Z" fill="black"/>
</svg>
