<svg width="20" height="20" viewBox="0 0 20 20" fill="none" xmlns="http://www.w3.org/2000/svg">
<circle cx="10" cy="10" r="10" fill="#FEF14B"/>
<path d="M8.76971 3.20069C8.60568 3.02846 8.35962 2.96284 8.12997 3.02299C7.90032 3.08313 7.72262 3.26631 7.66247 3.49596L7.23051 5.20467L5.53547 4.72623C5.30582 4.66061 5.05977 4.72623 4.893 4.893C4.72623 5.05977 4.66061 5.30582 4.72623 5.53547L5.20467 7.23051L3.49596 7.6652C3.26631 7.72262 3.08587 7.90306 3.02299 8.13271C2.96011 8.36236 3.02846 8.60568 3.20069 8.76971L4.46377 9.99998L3.20069 11.2302C3.02846 11.3943 2.96284 11.6403 3.02299 11.87C3.08313 12.0996 3.26631 12.2773 3.49596 12.3375L5.20467 12.7695L4.72623 14.4645C4.66061 14.6941 4.72623 14.9402 4.893 15.107C5.05977 15.2737 5.30582 15.3393 5.53547 15.2737L7.23051 14.7953L7.66247 16.504C7.71988 16.7337 7.90032 16.9141 8.12997 16.977C8.35962 17.0399 8.60294 16.9715 8.76971 16.802L9.99998 15.5389L11.2302 16.802C11.397 16.9715 11.6403 17.0399 11.87 16.977C12.0996 16.9141 12.2773 16.7337 12.3375 16.504L12.7695 14.7953L14.4645 15.2737C14.6941 15.3393 14.9402 15.2737 15.107 15.107C15.2737 14.9402 15.3393 14.6941 15.2737 14.4645L14.7953 12.7695L16.504 12.3375C16.7337 12.2801 16.9141 12.0996 16.977 11.87C17.0399 11.6403 16.9715 11.3943 16.802 11.2302L15.5389 9.99998L16.802 8.76971C16.9715 8.60294 17.0399 8.35962 16.977 8.12997C16.9141 7.90032 16.7337 7.72262 16.504 7.66247L14.7953 7.23051L15.2737 5.53547C15.3393 5.30582 15.2737 5.05977 15.107 4.893C14.9402 4.72623 14.6941 4.66061 14.4645 4.72623L12.7695 5.20467L12.3348 3.49596C12.2773 3.26631 12.0969 3.08587 11.8673 3.02299C11.6376 2.96011 11.3943 3.02846 11.2302 3.20069L9.99998 4.46377L8.76971 3.20069Z" fill="#FEF14B"/>
<mask id="mask0_144_450" style="mask-type:alpha" maskUnits="userSpaceOnUse" x="3" y="3" width="14" height="14">
<path d="M8.76971 3.20069C8.60568 3.02846 8.35962 2.96284 8.12997 3.02299C7.90032 3.08313 7.72262 3.26631 7.66247 3.49596L7.23051 5.20467L5.53547 4.72623C5.30582 4.66061 5.05977 4.72623 4.893 4.893C4.72623 5.05977 4.66061 5.30582 4.72623 5.53547L5.20467 7.23051L3.49596 7.6652C3.26631 7.72262 3.08587 7.90306 3.02299 8.13271C2.96011 8.36236 3.02846 8.60568 3.20069 8.76971L4.46377 9.99998L3.20069 11.2302C3.02846 11.3943 2.96284 11.6403 3.02299 11.87C3.08313 12.0996 3.26631 12.2773 3.49596 12.3375L5.20467 12.7695L4.72623 14.4645C4.66061 14.6941 4.72623 14.9402 4.893 15.107C5.05977 15.2737 5.30582 15.3393 5.53547 15.2737L7.23051 14.7953L7.66247 16.504C7.71988 16.7337 7.90032 16.9141 8.12997 16.977C8.35962 17.0399 8.60294 16.9715 8.76971 16.802L9.99998 15.5389L11.2302 16.802C11.397 16.9715 11.6403 17.0399 11.87 16.977C12.0996 16.9141 12.2773 16.7337 12.3375 16.504L12.7695 14.7953L14.4645 15.2737C14.6941 15.3393 14.9402 15.2737 15.107 15.107C15.2737 14.9402 15.3393 14.6941 15.2737 14.4645L14.7953 12.7695L16.504 12.3375C16.7337 12.2801 16.9141 12.0996 16.977 11.87C17.0399 11.6403 16.9715 11.3943 16.802 11.2302L15.5389 9.99998L16.802 8.76971C16.9715 8.60294 17.0399 8.35962 16.977 8.12997C16.9141 7.90032 16.7337 7.72262 16.504 7.66247L14.7953 7.23051L15.2737 5.53547C15.3393 5.30582 15.2737 5.05977 15.107 4.893C14.9402 4.72623 14.6941 4.66061 14.4645 4.72623L12.7695 5.20467L12.3348 3.49596C12.2773 3.26631 12.0969 3.08587 11.8673 3.02299C11.6376 2.96011 11.3943 3.02846 11.2302 3.20069L9.99998 4.46377L8.76971 3.20069Z" fill="#263238"/>
</mask>
<g mask="url(#mask0_144_450)">
<path d="M5.51012 27.451C-3.65089 17.5354 3.67792 -2.29575 5.51012 -5L22 -2.29575C19.557 10.925 12.8389 35.3834 5.51012 27.451Z" fill="#333333"/>
</g>
</svg>
