<svg width="21" height="21" viewBox="0 0 21 21" fill="none" xmlns="http://www.w3.org/2000/svg">
<path d="M19.2916 0H12.1912C11.7215 0 11.065 0.272113 10.7331 0.603734L0.99852 10.3383C0.333827 11.0023 0.333827 12.0908 0.99852 12.7539L8.24674 20.0019C8.90993 20.6659 9.99743 20.6659 10.6616 20.0012L20.3963 10.2681C20.7278 9.93652 21 9.27898 21 8.81028V1.7084C21 0.768995 20.2309 0 19.2916 0ZM15.8747 6.83337C14.9312 6.83337 14.1663 6.06767 14.1663 5.12496C14.1663 4.1807 14.9312 3.41656 15.8747 3.41656C16.8182 3.41656 17.5834 4.1807 17.5834 5.12496C17.5834 6.06767 16.8182 6.83337 15.8747 6.83337Z" fill="black"/>
</svg>
