<svg width="200" height="200" viewBox="0 0 200 200" fill="none" xmlns="http://www.w3.org/2000/svg">
<path d="M94.1875 138.764C94.1875 138.764 91.9514 145.465 78.4514 146.91C64.9444 148.354 59.1875 145.465 59.1875 145.465C59.1875 145.465 68.1875 138.417 76.8264 138.055C85.4722 137.694 94.1875 138.764 94.1875 138.764Z" fill="black"/>
<path d="M94.1871 138.764C94.1871 138.764 95.201 131.757 84.0204 124.021C72.8398 116.285 66.4023 116.069 66.4023 116.069C66.4023 116.069 70.0968 125.625 79.0968 131.215C86.451 135.785 94.1871 138.764 94.1871 138.764Z" fill="black"/>
<path d="M78.1808 133.806C78.1808 133.806 71.2919 130.681 60.8961 130.681C50.5002 130.681 42.6738 136.111 42.6738 136.111C42.6738 136.111 50.3683 139.222 61.4377 139.222C72.5072 139.229 78.1808 133.806 78.1808 133.806Z" fill="black"/>
<path d="M65.4516 127.16C65.4516 127.16 64.896 119.597 59.9308 110.424C54.9724 101.243 46.4863 96.9238 46.4863 96.9238C46.4863 96.9238 47.4308 105.202 52.7155 114.972C58.0002 124.743 65.4516 127.16 65.4516 127.16Z" fill="black"/>
<path d="M60.2645 126.215C60.2645 126.215 54.2923 121.563 44.1882 119.118C34.084 116.674 25.209 120.104 25.209 120.104C25.209 120.104 31.959 124.951 42.7229 127.556C53.4868 130.153 60.2645 126.215 60.2645 126.215Z" fill="black"/>
<path d="M51.3132 118.153C51.3132 118.153 47.5979 111.549 39.2159 105.368C30.834 99.1874 21.334 98.9097 21.334 98.9097C21.334 98.9097 25.702 105.993 34.6257 112.576C43.5493 119.153 51.3132 118.153 51.3132 118.153Z" fill="black"/>
<path d="M42.4311 104.57C42.4311 104.57 44.945 97.8058 44.2923 87.896C43.6325 77.9794 38.0145 70.8613 38.0145 70.8613C38.0145 70.8613 35.5492 78.396 36.2506 88.9516C36.952 99.5002 42.4311 104.57 42.4311 104.57Z" fill="black"/>
<mask id="mask0_202_2250" style="mask-type:luminance" maskUnits="userSpaceOnUse" x="11" y="78" width="25" height="22">
<path d="M11.1875 78.2222H35.5556V99.5555H11.1875V78.2222Z" fill="white"/>
</mask>
<g mask="url(#mask0_202_2250)">
<path d="M35.3817 98.1595C35.3817 98.1595 32.7915 92.1456 26.1595 86.0622C19.5276 79.9789 11.3887 78.8608 11.3887 78.8608C11.3887 78.8608 14.4928 85.3539 21.5553 91.8261C28.6178 98.3053 35.3817 98.1595 35.3817 98.1595Z" fill="black"/>
</g>
<path d="M31.3815 84.8266C31.3815 84.8266 31.0621 78.278 26.9718 70.2433C22.8815 62.2155 15.6523 58.2988 15.6523 58.2988C15.6523 58.2988 16.2912 65.4655 20.6454 74.0211C24.9996 82.5766 31.3815 84.8266 31.3815 84.8266Z" fill="black"/>
<path d="M28.5911 65.2916C28.5911 65.2916 29.1467 58.7568 26.1745 50.2499C23.2022 41.736 16.5564 36.8818 16.5564 36.8818C16.5564 36.8818 16.23 44.0693 19.3967 53.1318C22.5634 62.2013 28.5911 65.2916 28.5911 65.2916Z" fill="black"/>
<path d="M31.2853 52.4169C31.2853 52.4169 34.2644 46.5905 34.7297 37.5836C35.188 28.5697 30.8755 21.5488 30.8755 21.5488C30.8755 21.5488 27.8547 28.0766 27.3616 37.6669C26.8755 47.2641 31.2853 52.4169 31.2853 52.4169Z" fill="black"/>
<path d="M38.6394 36.9306C38.6394 36.9306 42.5213 31.6667 44.438 22.8542C46.3477 14.0348 43.2297 6.40283 43.2297 6.40283C43.2297 6.40283 39.1949 12.3542 37.1602 21.7362C35.1186 31.1251 38.6394 36.9306 38.6394 36.9306Z" fill="black"/>
<path d="M31.7228 76.4235C31.7228 76.4235 36.5839 72.0485 40.2159 63.7985C43.8478 55.5485 42.32 47.4443 42.32 47.4443C42.32 47.4443 37.1742 52.4582 33.3062 61.2429C29.4381 70.0277 31.7228 76.4235 31.7228 76.4235Z" fill="black"/>
<path d="M37.0898 46.9377C37.0898 46.9377 43.3051 44.9308 49.9648 38.8822C56.6246 32.8266 58.5204 24.7988 58.5204 24.7988C58.5204 24.7988 51.7843 27.278 44.694 33.7224C37.5968 40.1599 37.0898 46.9377 37.0898 46.9377Z" fill="black"/>
<mask id="mask1_202_2250" style="mask-type:luminance" maskUnits="userSpaceOnUse" x="46" y="3" width="20" height="28">
<path d="M46.2227 3.9585H65.7782V30.2224H46.2227V3.9585Z" fill="white"/>
</mask>
<g mask="url(#mask1_202_2250)">
<path d="M46.2719 28.8889C46.2719 28.8889 52.1469 26.0347 57.9177 19.1319C63.6885 12.2153 64.4594 4 64.4594 4C64.4594 4 58.133 7.38194 51.9871 14.7431C45.8482 22.1042 46.2719 28.8889 46.2719 28.8889Z" fill="black"/>
</g>
<path d="M95.1248 143.007C95.1248 152.076 80.2637 161.951 80.2637 157.132C80.2637 152.312 95.1248 146.222 95.1248 143.007Z" fill="black"/>
<path d="M103.729 143.007C103.729 152.076 118.597 161.951 118.597 157.132C118.597 152.312 103.729 146.222 103.729 143.007Z" fill="black"/>
<path d="M104.666 138.764C104.666 138.764 106.902 145.465 120.409 146.91C133.909 148.354 139.666 145.465 139.666 145.465C139.666 145.465 130.666 138.417 122.027 138.055C113.381 137.694 104.666 138.764 104.666 138.764Z" fill="black"/>
<path d="M104.666 138.764C104.666 138.764 103.653 131.757 114.833 124.021C126.014 116.285 132.451 116.069 132.451 116.069C132.451 116.069 128.757 125.625 119.757 131.215C112.403 135.785 104.666 138.764 104.666 138.764Z" fill="black"/>
<path d="M120.674 133.806C120.674 133.806 127.563 130.681 137.952 130.681C148.354 130.681 156.181 136.111 156.181 136.111C156.181 136.111 148.486 139.222 137.417 139.222C126.347 139.229 120.674 133.806 120.674 133.806Z" fill="black"/>
<path d="M133.402 127.16C133.402 127.16 133.965 119.597 138.923 110.424C143.882 101.243 152.368 96.9238 152.368 96.9238C152.368 96.9238 151.423 105.202 146.138 114.972C140.854 124.743 133.402 127.16 133.402 127.16Z" fill="black"/>
<path d="M138.598 126.215C138.598 126.215 144.556 121.563 154.667 119.118C164.771 116.674 173.653 120.104 173.653 120.104C173.653 120.104 166.896 124.951 156.132 127.556C145.368 130.153 138.598 126.215 138.598 126.215Z" fill="black"/>
<path d="M147.541 118.153C147.541 118.153 151.256 111.549 159.631 105.368C168.02 99.1874 177.52 98.9097 177.52 98.9097C177.52 98.9097 173.159 105.993 164.229 112.576C155.305 119.153 147.541 118.153 147.541 118.153Z" fill="black"/>
<path d="M156.424 104.57C156.424 104.57 153.911 97.8058 154.563 87.896C155.223 77.9794 160.841 70.8613 160.841 70.8613C160.841 70.8613 163.306 78.396 162.605 88.9516C161.911 99.5002 156.424 104.57 156.424 104.57Z" fill="black"/>
<mask id="mask2_202_2250" style="mask-type:luminance" maskUnits="userSpaceOnUse" x="161" y="78" width="27" height="22">
<path d="M161.777 78.2222H187.736V99.5555H161.777V78.2222Z" fill="white"/>
</mask>
<g mask="url(#mask2_202_2250)">
<path d="M163.473 98.1595C163.473 98.1595 166.063 92.1456 172.695 86.0622C179.327 79.9789 187.466 78.8608 187.466 78.8608C187.466 78.8608 184.362 85.3539 177.299 91.8261C170.237 98.3053 163.473 98.1595 163.473 98.1595Z" fill="black"/>
</g>
<path d="M167.473 84.8266C167.473 84.8266 167.792 78.278 171.875 70.2433C175.966 62.2155 183.195 58.2988 183.195 58.2988C183.195 58.2988 182.563 65.4655 178.209 74.0211C173.855 82.5766 167.473 84.8266 167.473 84.8266Z" fill="black"/>
<path d="M170.263 65.2916C170.263 65.2916 169.7 58.7568 172.68 50.2499C175.652 41.736 182.291 36.8818 182.291 36.8818C182.291 36.8818 182.624 44.0693 179.45 53.1318C176.291 62.2013 170.263 65.2916 170.263 65.2916Z" fill="black"/>
<path d="M167.57 52.4169C167.57 52.4169 164.591 46.5905 164.126 37.5836C163.668 28.5697 167.973 21.5488 167.973 21.5488C167.973 21.5488 171.001 28.0766 171.494 37.6669C171.98 47.2641 167.57 52.4169 167.57 52.4169Z" fill="black"/>
<path d="M160.216 36.9306C160.216 36.9306 156.327 31.6667 154.417 22.8542C152.507 14.0348 155.618 6.40283 155.618 6.40283C155.618 6.40283 159.66 12.3542 161.695 21.7362C163.736 31.1251 160.216 36.9306 160.216 36.9306Z" fill="black"/>
<path d="M167.138 76.4235C167.138 76.4235 162.27 72.0485 158.638 63.7985C155.006 55.5485 156.534 47.4443 156.534 47.4443C156.534 47.4443 161.68 52.4582 165.548 61.2429C169.416 70.0277 167.138 76.4235 167.138 76.4235Z" fill="black"/>
<path d="M161.763 46.9377C161.763 46.9377 155.548 44.9308 148.888 38.8822C142.222 32.8266 140.34 24.7988 140.34 24.7988C140.34 24.7988 147.069 27.278 154.159 33.7224C161.257 40.1599 161.763 46.9377 161.763 46.9377Z" fill="black"/>
<mask id="mask3_202_2250" style="mask-type:luminance" maskUnits="userSpaceOnUse" x="133" y="3" width="20" height="28">
<path d="M133.334 3.9585H152.89V30.2224H133.334V3.9585Z" fill="white"/>
</mask>
<g mask="url(#mask3_202_2250)">
<path d="M152.584 28.8889C152.584 28.8889 146.702 26.0347 140.938 19.1319C135.167 12.2153 134.396 4 134.396 4C134.396 4 140.723 7.38194 146.869 14.7431C153.015 22.1042 152.584 28.8889 152.584 28.8889Z" fill="black"/>
</g>
<mask id="mask4_202_2250" style="mask-type:luminance" maskUnits="userSpaceOnUse" x="50" y="18" width="100" height="101">
<path d="M50.291 18.8262H149.847V118.382H50.291V18.8262Z" fill="white"/>
</mask>
<g mask="url(#mask4_202_2250)">
<path d="M149.951 68.6595C149.951 70.2915 149.867 71.9165 149.708 73.5415C149.548 75.1665 149.312 76.7776 148.992 78.3817C148.673 79.979 148.277 81.5623 147.805 83.1248C147.333 84.6873 146.784 86.222 146.159 87.729C145.534 89.2359 144.833 90.7081 144.069 92.1456C143.298 93.5901 142.458 94.9859 141.555 96.3401C140.645 97.7012 139.673 99.0067 138.638 100.271C137.604 101.535 136.506 102.743 135.354 103.896C134.201 105.048 132.992 106.139 131.729 107.18C130.472 108.215 129.159 109.18 127.805 110.09C126.444 111 125.048 111.833 123.61 112.604C122.173 113.375 120.694 114.069 119.187 114.694C117.68 115.319 116.145 115.868 114.583 116.34C113.02 116.819 111.444 117.215 109.84 117.528C108.242 117.847 106.624 118.09 105.006 118.25C103.381 118.41 101.749 118.486 100.117 118.486C98.4855 118.486 96.8605 118.41 95.2355 118.25C93.6105 118.09 91.9994 117.847 90.3952 117.528C88.798 117.215 87.2146 116.819 85.6521 116.34C84.0896 115.868 82.5549 115.319 81.048 114.694C79.541 114.069 78.0688 113.375 76.6313 112.604C75.1869 111.833 73.791 111 72.4369 110.09C71.0757 109.18 69.7702 108.215 68.5063 107.18C67.2424 106.139 66.041 105.048 64.8813 103.896C63.7285 102.736 62.6382 101.535 61.5966 100.271C60.5618 99.0067 59.5966 97.7012 58.6868 96.3401C57.7771 94.9859 56.9438 93.5901 56.173 92.1456C55.4021 90.7081 54.7077 89.2359 54.0827 87.729C53.4577 86.222 52.9091 84.6873 52.4368 83.1248C51.9577 81.5623 51.5618 79.979 51.2493 78.3817C50.9299 76.7776 50.6868 75.1665 50.5271 73.5415C50.3674 71.9165 50.291 70.2915 50.291 68.6595C50.291 67.0276 50.3674 65.3956 50.5271 63.7706C50.6868 62.1526 50.9299 60.5345 51.2493 58.9373C51.5618 57.3331 51.9577 55.7567 52.4368 54.1942C52.9091 52.6317 53.4577 51.097 54.0827 49.5901C54.7077 48.0831 55.4021 46.604 56.173 45.1665C56.9438 43.729 57.7771 42.3331 58.6868 40.972C59.5966 39.6178 60.5618 38.3053 61.5966 37.0484C62.6382 35.7845 63.7285 34.5762 64.8813 33.4234C66.041 32.2706 67.2424 31.1734 68.5063 30.1387C69.7702 29.104 71.0757 28.1317 72.4369 27.222C73.791 26.3192 75.1869 25.479 76.6313 24.7081C78.0688 23.9442 79.541 23.2428 81.048 22.6178C82.5549 21.9928 84.0896 21.4442 85.6521 20.972C87.2146 20.4998 88.798 20.104 90.3952 19.7845C91.9994 19.4651 93.6105 19.2289 95.2355 19.0692C96.8605 18.9095 98.4855 18.8262 100.117 18.8262C101.749 18.8262 103.381 18.9095 105.006 19.0692C106.624 19.2289 108.242 19.4651 109.84 19.7845C111.444 20.104 113.02 20.4998 114.583 20.972C116.145 21.4442 117.68 21.9928 119.187 22.6178C120.694 23.2428 122.173 23.9442 123.61 24.7081C125.048 25.479 126.444 26.3192 127.805 27.222C129.159 28.1317 130.472 29.104 131.729 30.1387C132.992 31.1734 134.201 32.2706 135.354 33.4234C136.506 34.5762 137.604 35.7845 138.638 37.0484C139.673 38.3053 140.645 39.6178 141.555 40.972C142.458 42.3331 143.298 43.729 144.069 45.1665C144.833 46.604 145.534 48.0831 146.159 49.5901C146.784 51.097 147.333 52.6317 147.805 54.1942C148.277 55.7567 148.673 57.3331 148.992 58.9373C149.312 60.5345 149.548 62.1526 149.708 63.7706C149.867 65.3956 149.951 67.0276 149.951 68.6595Z" fill="black"/>
</g>
<mask id="mask5_202_2250" style="mask-type:luminance" maskUnits="userSpaceOnUse" x="74" y="34" width="53" height="69">
<path d="M74.4512 34.5347H126.222V102.236H74.4512V34.5347Z" fill="white"/>
</mask>
<g mask="url(#mask5_202_2250)">
<path d="M123.139 39.0904C120.389 35.2084 115.702 33.9723 111.195 35.1042C109.716 35.4792 108.257 35.9098 106.827 36.3959C104.591 37.1806 102.355 37.5556 100.118 37.5556C97.8754 37.5556 95.6393 37.1806 93.4032 36.3959C91.9727 35.9098 90.4935 35.4515 89.0352 35.1042C84.5352 33.9723 79.8407 35.2084 77.0907 39.0904C74.2088 43.139 73.799 48.9098 75.3407 53.5417C77.6046 60.2848 81.1393 66.2431 80.7018 73.632C80.2435 81.9376 80.5143 93.3126 85.3963 100.458C87.0143 102.833 90.1671 103.75 91.6532 100.646C93.5143 96.6806 93.0282 92.3959 92.5421 88.139C92.056 83.8473 91.5977 79.5348 93.5629 75.5695C94.9102 72.8751 97.0977 71.5556 100.118 71.5556C103.139 71.5556 105.32 72.8751 106.667 75.5695C108.639 79.5626 108.181 83.8473 107.695 88.139C107.209 92.3959 106.723 96.6806 108.584 100.646C110.035 103.75 113.223 102.833 114.841 100.458C119.716 93.3126 120.014 81.9376 119.528 73.632C119.098 66.2431 122.653 60.3126 124.896 53.5417C126.431 48.9098 126.028 43.139 123.139 39.0904Z" fill="white"/>
</g>
<mask id="mask6_202_2250" style="mask-type:luminance" maskUnits="userSpaceOnUse" x="110" y="47" width="6" height="7">
<path d="M110.236 47.7085H115.549V53.0141H110.236V47.7085Z" fill="white"/>
</mask>
<g mask="url(#mask6_202_2250)">
<path d="M115.549 50.3613C115.549 50.7154 115.479 51.0557 115.347 51.3752C115.209 51.7016 115.021 51.9932 114.771 52.2363C114.521 52.4863 114.236 52.6807 113.91 52.8127C113.584 52.9516 113.243 53.0141 112.889 53.0141C112.542 53.0141 112.202 52.9516 111.875 52.8127C111.549 52.6807 111.264 52.4863 111.014 52.2363C110.764 51.9932 110.577 51.7016 110.438 51.3752C110.306 51.0557 110.236 50.7154 110.236 50.3613C110.236 50.0071 110.306 49.6738 110.438 49.3474C110.577 49.021 110.764 48.7363 111.014 48.4863C111.264 48.2363 111.549 48.0418 111.875 47.9099C112.202 47.771 112.542 47.7085 112.889 47.7085C113.243 47.7085 113.584 47.771 113.91 47.9099C114.236 48.0418 114.521 48.2363 114.771 48.4863C115.021 48.7363 115.209 49.021 115.347 49.3474C115.479 49.6738 115.549 50.0071 115.549 50.3613Z" fill="black"/>
</g>
<path d="M108.43 56.0418C102.111 61.4446 95.8467 61.264 89.6384 55.5001" stroke="black" stroke-width="1.99115" stroke-linecap="round"/>
<mask id="mask7_202_2250" style="mask-type:luminance" maskUnits="userSpaceOnUse" x="82" y="47" width="7" height="7">
<path d="M82.9922 47.7085H88.3047V53.0141H82.9922V47.7085Z" fill="white"/>
</mask>
<g mask="url(#mask7_202_2250)">
<path d="M88.3047 50.3613C88.3047 50.7154 88.2352 51.0557 88.1033 51.3752C87.9714 51.7016 87.7769 51.9932 87.5269 52.2363C87.2769 52.4863 86.9922 52.6807 86.6658 52.8127C86.3394 52.9516 85.9991 53.0141 85.6519 53.0141C85.2977 53.0141 84.9575 52.9516 84.6311 52.8127C84.3116 52.6807 84.02 52.4863 83.77 52.2363C83.5269 51.9932 83.3325 51.7016 83.2005 51.3752C83.0616 51.0557 82.9922 50.7154 82.9922 50.3613C82.9922 50.0071 83.0616 49.6738 83.2005 49.3474C83.3325 49.021 83.5269 48.7363 83.77 48.4863C84.02 48.2363 84.3116 48.0418 84.6311 47.9099C84.9575 47.771 85.2977 47.7085 85.6519 47.7085C85.9991 47.7085 86.3394 47.771 86.6658 47.9099C86.9922 48.0418 87.2769 48.2363 87.5269 48.4863C87.7769 48.7363 87.9714 49.021 88.1033 49.3474C88.2352 49.6738 88.3047 50.0071 88.3047 50.3613Z" fill="black"/>
</g>
<path d="M67.2396 167.221C66.4201 167.221 65.6424 167.623 64.9063 168.415C64.1632 169.214 63.6285 169.998 63.2951 170.776L62.7674 171.971L58.0174 169.665C58.0868 169.464 58.191 169.207 58.3229 168.887C58.4687 168.554 58.8021 167.971 59.3229 167.137C59.8576 166.304 60.441 165.575 61.0729 164.943C61.6979 164.297 62.559 163.714 63.6563 163.193C64.7674 162.658 65.9618 162.387 67.2396 162.387C68.8646 162.387 70.2951 162.602 71.5174 163.026C72.7396 163.436 73.684 163.957 74.3507 164.582C75.0174 165.193 75.5521 165.915 75.9618 166.748C76.3646 167.582 76.6285 168.346 76.7396 169.026C76.8507 169.714 76.9063 170.436 76.9063 171.193C76.9063 172.269 76.6007 173.408 75.9896 174.609C75.3924 175.818 74.6632 176.887 73.7951 177.832C72.941 178.762 72.0799 179.609 71.2118 180.387C70.3576 181.165 69.6285 181.769 69.0174 182.193L68.1007 182.832H77.3785V187.832H57.9062V186.415C58.2396 186.137 58.6979 185.748 59.2951 185.248C59.8854 184.748 60.9132 183.804 62.3785 182.415C63.8576 181.026 65.1632 179.721 66.2951 178.498C67.4201 177.276 68.4479 175.971 69.3785 174.582C70.3021 173.179 70.7674 172.047 70.7674 171.193C70.7674 170.846 70.7257 170.498 70.6563 170.165C70.6007 169.818 70.4688 169.401 70.2674 168.915C70.059 168.415 69.691 168.012 69.1563 167.693C68.6354 167.38 67.9965 167.221 67.2396 167.221Z" fill="black"/>
<path d="M79.8867 175.359C79.8867 171.248 80.8589 168.068 82.8034 165.804C84.7617 163.526 87.1784 162.387 90.0534 162.387C92.9214 162.387 95.3312 163.526 97.2756 165.804C99.2201 168.068 100.192 171.248 100.192 175.359C100.192 177.602 99.9145 179.575 99.3589 181.276C98.8173 182.964 98.0673 184.304 97.1089 185.304C96.1437 186.304 95.0673 187.054 93.8867 187.554C92.7201 188.033 91.4423 188.276 90.0534 188.276C88.6645 188.276 87.3728 188.033 86.1923 187.554C85.0048 187.054 83.9214 186.304 82.9423 185.304C81.977 184.304 81.227 182.964 80.6923 181.276C80.1506 179.575 79.8867 177.602 79.8867 175.359ZM85.6367 175.359C85.6367 178.012 86.0117 179.998 86.7756 181.332C87.5326 182.651 88.6228 183.304 90.0534 183.304C91.4423 183.304 92.5117 182.651 93.2756 181.332C94.0534 179.998 94.4423 178.012 94.4423 175.359C94.4423 172.846 94.0534 170.887 93.2756 169.498C92.4978 168.096 91.4214 167.387 90.0534 167.387C88.6784 167.387 87.5951 168.096 86.8034 169.498C86.0256 170.908 85.6367 172.859 85.6367 175.359Z" fill="black"/>
<path d="M112.025 167.221C111.205 167.221 110.428 167.623 109.691 168.415C108.948 169.214 108.414 169.998 108.08 170.776L107.553 171.971L102.803 169.665C102.872 169.464 102.976 169.207 103.108 168.887C103.254 168.554 103.587 167.971 104.108 167.137C104.643 166.304 105.226 165.575 105.858 164.943C106.483 164.297 107.344 163.714 108.441 163.193C109.553 162.658 110.747 162.387 112.025 162.387C113.65 162.387 115.08 162.602 116.303 163.026C117.525 163.436 118.469 163.957 119.136 164.582C119.803 165.193 120.337 165.915 120.747 166.748C121.15 167.582 121.414 168.346 121.525 169.026C121.636 169.714 121.691 170.436 121.691 171.193C121.691 172.269 121.386 173.408 120.775 174.609C120.178 175.818 119.448 176.887 118.58 177.832C117.726 178.762 116.865 179.609 115.997 180.387C115.143 181.165 114.414 181.769 113.803 182.193L112.886 182.832H122.164V187.832H102.691V186.415C103.025 186.137 103.483 185.748 104.08 185.248C104.671 184.748 105.698 183.804 107.164 182.415C108.643 181.026 109.948 179.721 111.08 178.498C112.205 177.276 113.233 175.971 114.164 174.582C115.087 173.179 115.553 172.047 115.553 171.193C115.553 170.846 115.511 170.498 115.441 170.165C115.386 169.818 115.254 169.401 115.053 168.915C114.844 168.415 114.476 168.012 113.941 167.693C113.421 167.38 112.782 167.221 112.025 167.221Z" fill="black"/>
<path d="M140.674 177.554H143.59V182.554H140.674V187.832H135.34V182.554H123.062V180.859L135.035 162.859H140.674V177.554ZM135.34 170.443H135.285L130.84 177.554H135.34V170.443Z" fill="black"/>
</svg>
