<svg width="20" height="20" viewBox="0 0 20 20" fill="none" xmlns="http://www.w3.org/2000/svg">
<circle cx="10" cy="10" r="10" fill="#FEF14B"/>
<g clip-path="url(#clip0_144_440)">
<path d="M15.2643 6.11832C14.9351 5.16265 14.2628 4.45951 13.4199 4.18918C11.8193 3.67595 10.503 4.33548 9.99992 4.65167C9.49681 4.33545 8.1805 3.67592 6.57991 4.18918C5.7366 4.45962 5.06421 5.16319 4.73512 6.11944C4.30242 7.37688 4.52029 8.82726 5.31803 9.99923C5.85079 10.7819 6.19865 11.6652 6.32406 12.5536C6.3313 12.6049 6.33836 12.6572 6.34527 12.7108C6.46605 13.6477 6.64391 14.3997 6.87398 14.9458C7.14965 15.6003 7.50533 15.9538 7.93122 15.9964C8.38262 16.0415 8.75732 15.6661 9.04522 14.8806C9.24655 14.3313 9.40529 13.5953 9.49215 12.8081C9.54071 12.368 9.65424 12.0117 9.82051 11.7778C9.87981 11.6943 9.96573 11.6853 9.99992 11.6853C10.0341 11.6853 10.12 11.6943 10.1793 11.7778C10.3456 12.0117 10.4591 12.368 10.5077 12.8081C10.5945 13.5953 10.7533 14.3313 10.9546 14.8806C11.2271 15.624 11.5773 16 11.9966 16C12.0203 16 12.0444 15.9988 12.0686 15.9964C12.4945 15.9538 12.8502 15.6003 13.1258 14.9458C13.3559 14.3997 13.5338 13.6477 13.6545 12.7108C13.6612 12.6592 13.668 12.6088 13.675 12.5593C13.8002 11.6693 14.1489 10.7832 14.6835 9.9967C15.48 8.8248 15.6971 7.37494 15.2643 6.11832Z" fill="#333333"/>
<mask id="mask0_144_440" style="mask-type:alpha" maskUnits="userSpaceOnUse" x="4" y="4" width="12" height="12">
<g clip-path="url(#clip1_144_440)">
<path d="M15.2643 6.11832C14.9351 5.16265 14.2628 4.45951 13.4199 4.18918C11.8193 3.67595 10.503 4.33548 9.99992 4.65167C9.49681 4.33545 8.1805 3.67592 6.57991 4.18918C5.7366 4.45962 5.06421 5.16319 4.73512 6.11944C4.30242 7.37688 4.52029 8.82726 5.31803 9.99923C5.85079 10.7819 6.19865 11.6652 6.32406 12.5536C6.3313 12.6049 6.33836 12.6572 6.34527 12.7108C6.46605 13.6477 6.64391 14.3997 6.87398 14.9458C7.14965 15.6003 7.50533 15.9538 7.93122 15.9964C8.38262 16.0415 8.75732 15.6661 9.04522 14.8806C9.24655 14.3313 9.40529 13.5953 9.49215 12.8081C9.54071 12.368 9.65424 12.0117 9.82051 11.7778C9.87981 11.6943 9.96573 11.6853 9.99992 11.6853C10.0341 11.6853 10.12 11.6943 10.1793 11.7778C10.3456 12.0117 10.4591 12.368 10.5077 12.8081C10.5945 13.5953 10.7533 14.3313 10.9546 14.8806C11.2271 15.624 11.5773 16 11.9966 16C12.0203 16 12.0444 15.9988 12.0686 15.9964C12.4945 15.9538 12.8502 15.6003 13.1258 14.9458C13.3559 14.3997 13.5338 13.6477 13.6545 12.7108C13.6612 12.6592 13.668 12.6088 13.675 12.5593C13.8002 11.6693 14.1489 10.7832 14.6835 9.9967C15.48 8.8248 15.6971 7.37494 15.2643 6.11832Z" fill="#263238"/>
</g>
</mask>
<g mask="url(#mask0_144_440)">
<path d="M1.04226 15.6739C7.08376 11.5652 -3.38825 2.76087 -0.166107 1L24 5.1087L5.87552 28C5.87552 25.2609 -5.53401 20.1463 1.04226 15.6739Z" fill="#333333"/>
</g>
</g>
<defs>
<clipPath id="clip0_144_440">
<rect width="12" height="12" fill="white" transform="translate(4 4)"/>
</clipPath>
<clipPath id="clip1_144_440">
<rect width="12" height="12" fill="white" transform="translate(4 4)"/>
</clipPath>
</defs>
</svg>
