<svg width="26" height="26" viewBox="0 0 26 26" fill="none" xmlns="http://www.w3.org/2000/svg">
<g clip-path="url(#clip0_161_251)">
<path d="M0.778898 11.4231C0.354113 11.4231 0.00976562 11.7675 0.00976562 12.1923V23.489C0.00976562 23.9138 0.354164 24.2581 0.778898 24.2581H5.41284V11.4231H0.778898ZM25.99 15.6704C25.99 14.6941 25.4654 13.8379 24.6833 13.369C24.9934 12.9218 25.1593 12.3905 25.1587 11.8463C25.1587 10.3679 23.9559 9.1651 22.4775 9.1651H16.8175C16.991 8.37901 17.2282 7.19941 17.3934 5.96457C17.8233 2.75108 17.5295 0.96891 16.4688 0.356031C15.8076 -0.0259964 15.0946 -0.103489 14.4612 0.137621C13.972 0.323988 13.3112 0.782187 12.9347 1.90674L11.4471 5.80171C10.6929 7.66421 8.38344 9.61955 6.95116 10.7007V24.5984C9.6057 25.5285 12.3757 26 15.2017 26H21.3689C22.8473 26 24.0501 24.7972 24.0501 23.3188C24.0507 22.8197 23.9112 22.3305 23.6474 21.9069C24.5412 21.4716 25.1586 20.5538 25.1586 19.4946C25.1592 18.9504 24.9933 18.4191 24.6832 17.9719C25.4654 17.503 25.99 16.6468 25.99 15.6704Z" fill="#263238"/>
</g>
<path d="M0.769133 11.4233C0.344348 11.4233 0 11.7677 0 12.1925V23.4892C0 23.914 0.344398 24.2583 0.769133 24.2583H5.40307V11.4233H0.769133Z" fill="#FEF14B"/>
<defs>
<clipPath id="clip0_161_251">
<rect width="26" height="26" fill="white"/>
</clipPath>
</defs>
</svg>
