<svg width="28" height="28" viewBox="0 0 28 28" fill="none" xmlns="http://www.w3.org/2000/svg">
<g clip-path="url(#clip0_161_252)">
<path d="M20.125 12.25C15.7832 12.25 12.25 15.7832 12.25 20.125C12.25 24.4668 15.7832 28 20.125 28C24.4668 28 28 24.4668 28 20.125C28 15.7832 24.4668 12.25 20.125 12.25ZM23.3695 23.3695C23.2048 23.5331 22.9821 23.625 22.75 23.625C22.5179 23.625 22.2952 23.5331 22.1305 23.3695L19.5055 20.7445C19.3421 20.5797 19.2503 20.3571 19.25 20.125V16.625C19.25 16.142 19.642 15.75 20.125 15.75C20.608 15.75 21 16.142 21 16.625V19.7628L23.3695 22.1322C23.7107 22.4735 23.7107 23.0265 23.3695 23.3695ZM11.1562 16.6582C11.0915 16.5848 11.039 16.5007 10.969 16.4307L8.75 14.2135L6.531 16.4325C5.705 17.2568 5.25 18.354 5.25 19.5247V21.0018H10.5438C10.5175 20.713 10.5 20.4207 10.5 20.125C10.5 18.9017 10.738 17.7362 11.1562 16.6582ZM5.25 3.5V4.97525C5.25 6.1425 5.705 7.2415 6.531 8.06925L8.75 10.2883L10.969 8.06925C11.795 7.24325 12.25 6.14425 12.25 4.97525V3.5H5.25Z" fill="#FEF14B"/>
<path d="M16.625 0H0.875C0.392 0 0 0.39375 0 0.875C0 1.35975 0.392 1.75 0.875 1.75H1.75V4.97525C1.75 7.07875 2.569 9.05625 4.0565 10.5437L5.76275 12.25L4.0565 13.9563C2.569 15.4455 1.75 17.4212 1.75 19.5247V22.75H0.875C0.392 22.75 0 23.142 0 23.625C0 24.108 0.392 24.5 0.875 24.5L11.5623 24.4982C11.275 23.9392 11.044 23.353 10.8727 22.7482L3.5 22.75V19.5247C3.5 17.8885 4.137 16.352 5.29375 15.1935L7.6195 12.8695C7.78292 12.7047 7.87473 12.4821 7.875 12.25C7.875 12.019 7.78225 11.795 7.6195 11.6305L5.29375 9.3065C4.137 8.14975 3.5 6.6115 3.5 4.97525V1.75H14V4.97525C14 6.6115 13.363 8.148 12.2063 9.3065L9.8805 11.6322C9.71775 11.7968 9.625 12.019 9.625 12.25C9.625 12.4827 9.71775 12.705 9.8805 12.8695L11.9998 14.987C12.3159 14.4897 12.6768 14.0223 13.0778 13.5905L11.7372 12.25L13.4435 10.542C14.931 9.05625 15.75 7.07875 15.75 4.97525V1.75H16.625C17.108 1.75 17.5 1.358 17.5 0.875C17.5 0.392 17.108 0 16.625 0Z" fill="#263238"/>
</g>
<defs>
<clipPath id="clip0_161_252">
<rect width="28" height="28" fill="white"/>
</clipPath>
</defs>
</svg>
