<svg width="16" height="15" viewBox="0 0 16 15" fill="none" xmlns="http://www.w3.org/2000/svg">
<path d="M4.64863 8.24539C5.09827 8.24539 5.53289 8.21635 5.94417 8.16228V3.65436C5.53293 3.60033 5.09827 3.57129 4.64863 3.57129C2.08127 3.57129 0 4.51523 0 5.6797V6.13695C0 7.30137 2.08127 8.24539 4.64863 8.24539Z" fill="black"/>
<path d="M4.64863 10.5991C5.09827 10.5991 5.53289 10.57 5.94417 10.516V9.19467C5.53281 9.24869 5.09839 9.27814 4.64863 9.27814C2.4076 9.27814 0.53713 8.55885 0.0977687 7.60156C0.0337848 7.741 0 7.88539 0 8.0334V8.49065C0 9.65511 2.08127 10.5991 4.64863 10.5991Z" fill="black"/>
<path d="M5.94417 11.6509V11.5482C5.53281 11.6022 5.09839 11.6317 4.64863 11.6317C2.4076 11.6317 0.53713 10.9124 0.0977687 9.95508C0.0337848 10.0945 0 10.2389 0 10.3869V10.8441C0 12.0086 2.08127 12.9526 4.64863 12.9526C5.16206 12.9526 5.65588 12.9147 6.11767 12.845C6.00321 12.6109 5.94417 12.3639 5.94417 12.1081V11.6509Z" fill="black"/>
<path d="M11.3518 0C8.7844 0 6.70312 0.943944 6.70312 2.10841V2.56566C6.70312 3.73012 8.7844 4.67406 11.3518 4.67406C13.9191 4.67406 16.0004 3.73012 16.0004 2.56566V2.10841C16.0004 0.943944 13.9191 0 11.3518 0Z" fill="black"/>
<path d="M11.3518 5.70685C9.11073 5.70685 7.24025 4.9876 6.80089 4.03027C6.73691 4.16968 6.70312 4.31406 6.70312 4.46211V4.91936C6.70312 6.08382 8.7844 7.02776 11.3518 7.02776C13.9191 7.02776 16.0004 6.08382 16.0004 4.91936V4.46211C16.0004 4.31406 15.9666 4.16968 15.9026 4.03027C15.4633 4.9876 13.5928 5.70685 11.3518 5.70685Z" fill="black"/>
<path d="M11.3518 8.06134C9.11073 8.06134 7.24025 7.34206 6.80089 6.38477C6.73691 6.52417 6.70312 6.66855 6.70312 6.8166V7.27385C6.70312 8.43835 8.7844 9.3823 11.3518 9.3823C13.9191 9.3823 16.0004 8.43835 16.0004 7.27385V6.8166C16.0004 6.66855 15.9666 6.52417 15.9026 6.38477C15.4633 7.3421 13.5928 8.06134 11.3518 8.06134Z" fill="black"/>
<path d="M11.3518 10.5418C9.11073 10.5418 7.24025 9.82253 6.80089 8.86523C6.73691 9.00468 6.70312 9.14902 6.70312 9.29703V9.75432C6.70312 10.9188 8.7844 11.8627 11.3518 11.8627C13.9191 11.8627 16.0004 10.9188 16.0004 9.75432V9.29703C16.0004 9.14902 15.9666 9.0046 15.9026 8.86523C15.4633 9.82249 13.5928 10.5418 11.3518 10.5418Z" fill="black"/>
<path d="M11.3518 12.8963C9.11073 12.8963 7.24025 12.1771 6.80089 11.2198C6.73691 11.3592 6.70312 11.5036 6.70312 11.6516V12.1088C6.70312 13.2733 8.7844 14.2172 11.3518 14.2172C13.9191 14.2172 16.0004 13.2733 16.0004 12.1088V11.6515C16.0004 11.5035 15.9666 11.3591 15.9026 11.2197C15.4633 12.177 13.5928 12.8963 11.3518 12.8963Z" fill="black"/>
</svg>
