<svg width="112" height="112" viewBox="0 0 112 112" fill="none" xmlns="http://www.w3.org/2000/svg">
<mask id="mask0_26_1230" style="mask-type:luminance" maskUnits="userSpaceOnUse" x="6" y="6" width="100" height="100">
<path d="M6.11719 6.11719H105.529V105.529H6.11719V6.11719Z" fill="white"/>
</mask>
<g mask="url(#mask0_26_1230)">
<path fill-rule="evenodd" clip-rule="evenodd" d="M55.7472 6.11719C59.0644 6.11719 61.9927 9.54719 65.1233 10.185C68.25 10.8266 72.1894 8.80052 75.0672 10.0177C77.9411 11.235 79.1894 15.4544 81.7483 17.1811C84.3072 18.9116 88.6666 18.4761 90.8405 20.6539C93.0144 22.8277 92.5827 27.1872 94.3133 29.7461C96.04 32.305 100.259 33.5533 101.477 36.4272C102.694 39.305 100.668 43.2444 101.309 46.3711C101.947 49.5016 105.377 52.43 105.377 55.7472C105.377 59.0644 101.947 61.9927 101.309 65.1233C100.668 68.25 102.694 72.1894 101.477 75.0672C100.259 77.9411 96.04 79.1894 94.3133 81.7483C92.5827 84.3072 93.0144 88.6666 90.8405 90.8405C88.6666 93.0144 84.3072 92.5827 81.7483 94.3133C79.1894 96.04 77.9411 100.259 75.0672 101.477C72.1894 102.694 68.25 100.668 65.1233 101.309C61.9927 101.951 59.0644 105.377 55.7472 105.377C52.43 105.377 49.5016 101.951 46.3711 101.309C43.2444 100.668 39.305 102.694 36.4272 101.477C33.5533 100.259 32.305 96.04 29.7461 94.3133C27.1872 92.5827 22.8277 93.0144 20.6539 90.8405C18.4761 88.6666 18.9116 84.3072 17.1811 81.7483C15.4544 79.1894 11.235 77.9411 10.0177 75.0672C8.80052 72.1894 10.8266 68.25 10.185 65.1233C9.5433 61.9927 6.11719 59.0644 6.11719 55.7472C6.11719 52.43 9.5433 49.5016 10.185 46.3711C10.8266 43.2444 8.80052 39.305 10.0177 36.4272C11.235 33.5533 15.4544 32.305 17.1811 29.7461C18.9116 27.1872 18.4761 22.8277 20.6539 20.6539C22.8277 18.4761 27.1872 18.9116 29.7461 17.1811C32.305 15.4544 33.5533 11.235 36.4272 10.0177C39.305 8.80052 43.2444 10.8266 46.3711 10.185C49.5016 9.54719 52.43 6.11719 55.7472 6.11719Z" fill="#FF914D"/>
</g>
<path d="M53.7717 68.8762C53.7717 68.8762 52.8967 71.4817 47.5961 72.0417C42.2995 72.6056 40.04 71.4817 40.04 71.4817C40.04 71.4817 43.5712 68.7401 46.9623 68.6001C50.3534 68.4601 53.7717 68.8762 53.7717 68.8762Z" fill="black"/>
<path d="M53.7716 68.8757C53.7716 68.8757 54.1722 66.1534 49.7855 63.1473C45.3989 60.1412 42.8711 60.0557 42.8711 60.0557C42.8711 60.0557 44.3216 63.7696 47.8528 65.9396C50.7383 67.7168 53.7716 68.8757 53.7716 68.8757Z" fill="black"/>
<path d="M47.4915 66.9477C47.4915 66.9477 44.7926 65.7344 40.7132 65.7344C36.6337 65.7344 33.5615 67.846 33.5615 67.846C33.5615 67.846 36.5793 69.0555 40.9232 69.0555C45.2671 69.0555 47.4915 66.9477 47.4915 66.9477Z" fill="black"/>
<path d="M42.498 64.3645C42.498 64.3645 42.2803 61.4245 40.3319 57.8584C38.3875 54.2923 35.0586 52.6123 35.0586 52.6123C35.0586 52.6123 35.428 55.8323 37.5008 59.6279C39.5775 63.4273 42.498 64.3645 42.498 64.3645Z" fill="black"/>
<path d="M40.464 63.9997C40.464 63.9997 38.1229 62.1914 34.1562 61.2425C30.1895 60.2897 26.709 61.6236 26.709 61.6236C26.709 61.6236 29.3573 63.5059 33.5807 64.5209C37.804 65.532 40.464 63.9997 40.464 63.9997Z" fill="black"/>
<path d="M36.9524 60.8651C36.9524 60.8651 35.494 58.2984 32.2079 55.8951C28.9179 53.4956 25.1885 53.3867 25.1885 53.3867C25.1885 53.3867 26.9035 56.1401 30.4035 58.6989C33.9035 61.2539 36.9524 60.8651 36.9524 60.8651Z" fill="black"/>
<path d="M33.4674 55.5841C33.4674 55.5841 34.4552 52.9552 34.1946 49.1052C33.938 45.2513 31.733 42.4824 31.733 42.4824C31.733 42.4824 30.7646 45.4108 31.0407 49.5135C31.3169 53.6163 33.4674 55.5841 33.4674 55.5841Z" fill="black"/>
<mask id="mask1_26_1230" style="mask-type:luminance" maskUnits="userSpaceOnUse" x="21" y="44" width="10" height="10">
<path d="M21.21 44.7998H30.8622V53.7598H21.21V44.7998Z" fill="white"/>
</mask>
<g mask="url(#mask1_26_1230)">
<path d="M30.6992 53.0944C30.6992 53.0944 29.6881 50.7572 27.0825 48.3928C24.4809 46.0283 21.2881 45.5928 21.2881 45.5928C21.2881 45.5928 22.5053 48.1167 25.2742 50.6328C28.047 53.1489 30.6992 53.0944 30.6992 53.0944Z" fill="black"/>
</g>
<path d="M29.1316 47.911C29.1316 47.911 29.0072 45.3677 27.4011 42.2449C25.7988 39.1221 22.96 37.6016 22.96 37.6016C22.96 37.6016 23.2127 40.386 24.92 43.711C26.6272 47.036 29.1316 47.911 29.1316 47.911Z" fill="black"/>
<path d="M28.0348 40.3198C28.0348 40.3198 28.2564 37.7804 27.0898 34.4748C25.9192 31.1654 23.3175 29.2754 23.3175 29.2754C23.3175 29.2754 23.1853 32.0715 24.4298 35.5948C25.6703 39.1182 28.0348 40.3198 28.0348 40.3198Z" fill="black"/>
<path d="M29.0924 35.3146C29.0924 35.3146 30.2629 33.0513 30.4457 29.5474C30.6246 26.0474 28.9329 23.3174 28.9329 23.3174C28.9329 23.3174 27.7468 25.8529 27.5563 29.5824C27.3618 33.3118 29.0924 35.3146 29.0924 35.3146Z" fill="black"/>
<path d="M31.9779 29.2947C31.9779 29.2947 33.5023 27.2491 34.2529 23.823C35.0034 20.4008 33.7823 17.4297 33.7823 17.4297C33.7823 17.4297 32.1956 19.7436 31.3984 23.3914C30.5973 27.0391 31.9779 29.2947 31.9779 29.2947Z" fill="black"/>
<path d="M29.2639 44.6441C29.2639 44.6441 31.1734 42.9485 32.5967 39.7402C34.02 36.5318 33.4211 33.3818 33.4211 33.3818C33.4211 33.3818 31.4028 35.3302 29.8861 38.7446C28.3695 42.1591 29.2639 44.6441 29.2639 44.6441Z" fill="black"/>
<path d="M31.3721 33.1843C31.3721 33.1843 33.8104 32.4065 36.4237 30.0537C39.0371 27.7048 39.7798 24.582 39.7798 24.582C39.7798 24.582 37.1393 25.5465 34.3548 28.0509C31.5704 30.5515 31.3721 33.1843 31.3721 33.1843Z" fill="black"/>
<mask id="mask2_26_1230" style="mask-type:luminance" maskUnits="userSpaceOnUse" x="34" y="16" width="9" height="11">
<path d="M34.8447 16.4814H42.8092V26.8803H34.8447V16.4814Z" fill="white"/>
</mask>
<g mask="url(#mask2_26_1230)">
<path d="M34.9732 26.1726C34.9732 26.1726 37.2793 25.0643 39.5426 22.3771C41.806 19.6898 42.1093 16.4971 42.1093 16.4971C42.1093 16.4971 39.6282 17.8115 37.2171 20.6737C34.806 23.536 34.9732 26.1726 34.9732 26.1726Z" fill="black"/>
</g>
<path d="M54.141 70.5254C54.141 74.0526 48.3076 77.8909 48.3076 76.0165C48.3076 74.1421 54.141 71.7737 54.141 70.5254Z" fill="black"/>
<path d="M57.5166 70.5254C57.5166 74.0526 63.3499 77.8909 63.3499 76.0165C63.3499 74.1421 57.5166 71.7737 57.5166 70.5254Z" fill="black"/>
<path d="M57.8857 68.8762C57.8857 68.8762 58.7607 71.4817 64.0613 72.0417C69.358 72.6056 71.6174 71.4817 71.6174 71.4817C71.6174 71.4817 68.0863 68.7401 64.6952 68.6001C61.3041 68.4601 57.8857 68.8762 57.8857 68.8762Z" fill="black"/>
<path d="M57.8865 68.8757C57.8865 68.8757 57.4859 66.1534 61.8726 63.1473C66.2593 60.1412 68.7871 60.0557 68.7871 60.0557C68.7871 60.0557 67.3365 63.7696 63.8054 65.9396C60.9198 67.7168 57.8865 68.8757 57.8865 68.8757Z" fill="black"/>
<path d="M64.167 66.9477C64.167 66.9477 66.8659 65.7344 70.9453 65.7344C75.0248 65.7344 78.097 67.846 78.097 67.846C78.097 67.846 75.0792 69.0555 70.7353 69.0555C66.3914 69.0555 64.167 66.9477 64.167 66.9477Z" fill="black"/>
<path d="M69.1602 64.3645C69.1602 64.3645 69.3779 61.4245 71.3263 57.8584C73.2707 54.2923 76.5996 52.6123 76.5996 52.6123C76.5996 52.6123 76.2302 55.8323 74.1574 59.6279C72.0846 63.4273 69.1602 64.3645 69.1602 64.3645Z" fill="black"/>
<path d="M71.1982 63.9997C71.1982 63.9997 73.5355 62.1914 77.5021 61.2425C81.4688 60.2897 84.9494 61.6236 84.9494 61.6236C84.9494 61.6236 82.301 63.5059 78.0777 64.5209C73.8544 65.532 71.1982 63.9997 71.1982 63.9997Z" fill="black"/>
<path d="M74.7051 60.8651C74.7051 60.8651 76.1634 58.2984 79.4495 55.8951C82.7395 53.4956 86.469 53.3867 86.469 53.3867C86.469 53.3867 84.754 56.1401 81.254 58.6989C77.754 61.2539 74.7051 60.8651 74.7051 60.8651Z" fill="black"/>
<path d="M78.1899 55.5841C78.1899 55.5841 77.2022 52.9552 77.4627 49.1052C77.7194 45.2513 79.9244 42.4824 79.9244 42.4824C79.9244 42.4824 80.8927 45.4108 80.6166 49.5135C80.3405 53.6163 78.1899 55.5841 78.1899 55.5841Z" fill="black"/>
<mask id="mask3_26_1230" style="mask-type:luminance" maskUnits="userSpaceOnUse" x="80" y="44" width="11" height="10">
<path d="M80.6396 44.7998H90.4746V53.7598H80.6396V44.7998Z" fill="white"/>
</mask>
<g mask="url(#mask3_26_1230)">
<path d="M80.959 53.0944C80.959 53.0944 81.9701 50.7572 84.5757 48.3928C87.1773 46.0283 90.3701 45.5928 90.3701 45.5928C90.3701 45.5928 89.1529 48.1167 86.384 50.6328C83.6112 53.1489 80.959 53.0944 80.959 53.0944Z" fill="black"/>
</g>
<path d="M82.5264 47.911C82.5264 47.911 82.6508 45.3677 84.253 42.2449C85.8591 39.1221 88.6941 37.6016 88.6941 37.6016C88.6941 37.6016 88.4453 40.386 86.738 43.711C85.0308 47.036 82.5264 47.911 82.5264 47.911Z" fill="black"/>
<path d="M83.6233 40.3198C83.6233 40.3198 83.4016 37.7804 84.5683 34.4748C85.7349 31.1654 88.3405 29.2754 88.3405 29.2754C88.3405 29.2754 88.4727 32.0715 87.2283 35.5948C85.9838 39.1182 83.6233 40.3198 83.6233 40.3198Z" fill="black"/>
<path d="M82.5648 35.3146C82.5648 35.3146 81.3943 33.0513 81.2115 29.5474C81.0326 26.0474 82.7243 23.3174 82.7243 23.3174C82.7243 23.3174 83.9104 25.8529 84.1009 29.5824C84.2954 33.3118 82.5648 35.3146 82.5648 35.3146Z" fill="black"/>
<path d="M79.6791 29.2947C79.6791 29.2947 78.1546 27.2491 77.4041 23.823C76.6535 20.4008 77.8746 17.4297 77.8746 17.4297C77.8746 17.4297 79.4613 19.7436 80.2585 23.3914C81.0596 27.0391 79.6791 29.2947 79.6791 29.2947Z" fill="black"/>
<path d="M82.394 44.6441C82.394 44.6441 80.4845 42.9485 79.0612 39.7402C77.634 36.5318 78.2367 33.3818 78.2367 33.3818C78.2367 33.3818 80.2551 35.3302 81.7717 38.7446C83.2884 42.1591 82.394 44.6441 82.394 44.6441Z" fill="black"/>
<path d="M80.2857 33.1843C80.2857 33.1843 77.8474 32.4065 75.234 30.0537C72.6207 27.7048 71.8779 24.582 71.8779 24.582C71.8779 24.582 74.5185 25.5465 77.3029 28.0509C80.0874 30.5515 80.2857 33.1843 80.2857 33.1843Z" fill="black"/>
<mask id="mask4_26_1230" style="mask-type:luminance" maskUnits="userSpaceOnUse" x="68" y="16" width="10" height="11">
<path d="M68.6934 16.4814H77.6534V26.8803H68.6934V16.4814Z" fill="white"/>
</mask>
<g mask="url(#mask4_26_1230)">
<path d="M76.6849 26.1726C76.6849 26.1726 74.3788 25.0643 72.1155 22.3771C69.8522 19.6898 69.5488 16.4971 69.5488 16.4971C69.5488 16.4971 72.0299 17.8115 74.4411 20.6737C76.8522 23.536 76.6849 26.1726 76.6849 26.1726Z" fill="black"/>
</g>
<mask id="mask5_26_1230" style="mask-type:luminance" maskUnits="userSpaceOnUse" x="40" y="30" width="31" height="30">
<path d="M40.9775 30.3096H70.4942V59.8262H40.9775V30.3096Z" fill="white"/>
</mask>
<g mask="url(#mask5_26_1230)">
<path d="M70.5253 45.0835C70.5253 46.0518 70.432 47.0123 70.2414 47.9651C70.0509 48.9179 69.7709 49.8396 69.4014 50.7379C69.0281 51.6323 68.5731 52.484 68.0364 53.289C67.4959 54.0979 66.8853 54.8446 66.197 55.529C65.5125 56.2173 64.7659 56.8279 63.9609 57.3685C63.152 57.9051 62.3003 58.3601 61.4059 58.7335C60.5075 59.1029 59.5859 59.3829 58.6331 59.5735C57.6842 59.764 56.7198 59.8573 55.7514 59.8573C54.7831 59.8573 53.8225 59.764 52.8698 59.5735C51.917 59.3829 50.9953 59.1029 50.097 58.7335C49.2025 58.3601 48.3509 57.9051 47.542 57.3685C46.737 56.8279 45.9903 56.2173 45.3059 55.529C44.6175 54.8446 44.007 54.0979 43.4664 53.289C42.9298 52.484 42.4748 51.6323 42.1014 50.7379C41.732 49.8396 41.452 48.9179 41.2614 47.9651C41.0709 47.0123 40.9775 46.0518 40.9775 45.0835C40.9775 44.1112 41.0709 43.1507 41.2614 42.2018C41.452 41.249 41.732 40.3273 42.1014 39.429C42.4748 38.5346 42.9298 37.6829 43.4664 36.874C44.007 36.069 44.6175 35.3223 45.3059 34.6379C45.9903 33.9496 46.737 33.339 47.542 32.7985C48.3509 32.2618 49.2025 31.8029 50.097 31.4335C50.9953 31.064 51.917 30.784 52.8698 30.5935C53.8225 30.4029 54.7831 30.3096 55.7514 30.3096C56.7198 30.3096 57.6842 30.4029 58.6331 30.5935C59.5859 30.784 60.5075 31.064 61.4059 31.4335C62.3003 31.8029 63.152 32.2618 63.9609 32.7985C64.7659 33.339 65.5125 33.9496 66.197 34.6379C66.8853 35.3223 67.4959 36.069 68.0364 36.874C68.5731 37.6829 69.0281 38.5346 69.4014 39.429C69.7709 40.3273 70.0509 41.249 70.2414 42.2018C70.432 43.1507 70.5253 44.1112 70.5253 45.0835Z" fill="black"/>
</g>
<mask id="mask6_26_1230" style="mask-type:luminance" maskUnits="userSpaceOnUse" x="48" y="34" width="16" height="22">
<path d="M48.1406 34.9688H63.4901V55.0393H48.1406V34.9688Z" fill="white"/>
</mask>
<g mask="url(#mask6_26_1230)">
<path d="M62.5766 36.3182C61.7599 35.167 60.3716 34.7976 59.0377 35.1359C58.5982 35.2448 58.1666 35.3732 57.7427 35.517C57.0777 35.7504 56.4127 35.8632 55.7516 35.8632C55.0866 35.8632 54.4254 35.7504 53.7604 35.517C53.3366 35.3732 52.8971 35.237 52.4654 35.1359C51.1316 34.7976 49.7393 35.167 48.9227 36.3182C48.0671 37.5159 47.9504 39.227 48.4054 40.6037C49.0743 42.6026 50.1243 44.3682 49.996 46.5576C49.8599 49.0193 49.9377 52.3948 51.3843 54.5104C51.8666 55.2143 52.7999 55.4865 53.2393 54.5687C53.7916 53.3904 53.6477 52.1226 53.5038 50.8587C53.3599 49.587 53.2238 48.3076 53.8071 47.1332C54.2077 46.332 54.8571 45.9432 55.7516 45.9432C56.646 45.9432 57.2916 46.332 57.6921 47.1332C58.2754 48.3154 58.1393 49.587 57.9954 50.8587C57.8516 52.1226 57.7077 53.3904 58.2599 54.5687C58.6916 55.4865 59.6366 55.2143 60.1149 54.5104C61.5616 52.3948 61.651 49.0193 61.5071 46.5576C61.3788 44.3682 62.4327 42.6104 63.0977 40.6037C63.5527 39.227 63.4321 37.5159 62.5766 36.3182Z" fill="white"/>
</g>
<mask id="mask7_26_1230" style="mask-type:luminance" maskUnits="userSpaceOnUse" x="58" y="38" width="3" height="3">
<path d="M58.749 38.873H60.324V40.4442H58.749V38.873Z" fill="white"/>
</mask>
<g mask="url(#mask7_26_1230)">
<path d="M60.324 39.6586C60.324 39.8764 60.2462 40.063 60.0946 40.2147C59.939 40.3703 59.7562 40.4442 59.5385 40.4442C59.3207 40.4442 59.134 40.3703 58.9824 40.2147C58.8268 40.063 58.749 39.8764 58.749 39.6586C58.749 39.4408 58.8268 39.2542 58.9824 39.1025C59.134 38.9469 59.3207 38.873 59.5385 38.873C59.7562 38.873 59.939 38.9469 60.0946 39.1025C60.2462 39.2542 60.324 39.4408 60.324 39.6586Z" fill="black"/>
</g>
<path d="M58.217 41.3426C56.3425 42.9448 54.4836 42.8904 52.6442 41.1831" stroke="black" stroke-width="0.787124" stroke-linecap="round"/>
<mask id="mask8_26_1230" style="mask-type:luminance" maskUnits="userSpaceOnUse" x="50" y="38" width="3" height="3">
<path d="M50.6758 38.873H52.2469V40.4442H50.6758V38.873Z" fill="white"/>
</mask>
<g mask="url(#mask8_26_1230)">
<path d="M52.2469 39.6586C52.2469 39.8764 52.173 40.063 52.0174 40.2147C51.8658 40.3703 51.6791 40.4442 51.4613 40.4442C51.2436 40.4442 51.0569 40.3703 50.9052 40.2147C50.7497 40.063 50.6758 39.8764 50.6758 39.6586C50.6758 39.4408 50.7497 39.2542 50.9052 39.1025C51.0569 38.9469 51.2436 38.873 51.4613 38.873C51.6791 38.873 51.8658 38.9469 52.0174 39.1025C52.173 39.2542 52.2469 39.4408 52.2469 39.6586Z" fill="black"/>
</g>
<path d="M47.9033 18.5336V16.8691H53.7367V18.5336H51.7767V25.1758H49.8789V18.5336H47.9033Z" fill="black"/>
<path d="M57.4876 16.7295C57.9309 16.7295 58.3665 16.7995 58.7942 16.9317C59.2298 17.0562 59.5487 17.1806 59.7587 17.305L60.0542 17.5073L59.292 19.0162C59.2298 18.9773 59.1404 18.9228 59.0276 18.8606C58.9226 18.7984 58.7242 18.7167 58.4365 18.6117C58.1448 18.4989 57.8687 18.4406 57.612 18.4406C57.3009 18.4406 57.0559 18.5106 56.8809 18.6428C56.7137 18.7789 56.632 18.9617 56.632 19.1873C56.632 19.3039 56.667 19.4128 56.7409 19.5139C56.8226 19.6073 56.9626 19.7123 57.1609 19.825C57.3554 19.93 57.5265 20.0195 57.6742 20.0895C57.8181 20.1517 58.0476 20.2528 58.3587 20.385C58.8954 20.6145 59.3542 20.9256 59.7276 21.3184C60.1087 21.715 60.3031 22.1584 60.3031 22.6562C60.3031 23.1345 60.2137 23.5506 60.0387 23.9006C59.8715 24.2545 59.6381 24.5345 59.3387 24.7406C59.0354 24.9389 58.7048 25.0828 58.3431 25.1762C57.9776 25.2773 57.5848 25.3317 57.1609 25.3317C56.807 25.3317 56.4531 25.2889 56.1031 25.2073C55.7492 25.1373 55.4537 25.0478 55.2165 24.9428C54.987 24.83 54.7809 24.7212 54.5942 24.6162C54.4076 24.5034 54.2676 24.41 54.1742 24.3362L54.0498 24.2273L54.9987 22.6406C55.0687 22.7028 55.1776 22.7884 55.3254 22.8895C55.4692 22.9945 55.7181 23.1345 56.072 23.3095C56.4337 23.4884 56.7487 23.5739 57.0209 23.5739C57.8181 23.5739 58.2187 23.3056 58.2187 22.765C58.2187 22.6523 58.1876 22.5473 58.1254 22.4539C58.0709 22.3528 57.9737 22.2517 57.8298 22.1584C57.6937 22.0573 57.5692 21.9795 57.4565 21.925C57.3398 21.8628 57.1609 21.7773 56.912 21.6606C56.6631 21.5478 56.4765 21.4584 56.352 21.3962C55.8542 21.1473 55.4654 20.8362 55.1854 20.4628C54.9054 20.0895 54.7654 19.6928 54.7654 19.265C54.7654 18.5184 55.0376 17.9117 55.5898 17.445C56.1498 16.9706 56.7798 16.7295 57.4876 16.7295Z" fill="black"/>
<path d="M63.0609 16.8691V25.1758H61.1787V16.8691H63.0609Z" fill="black"/>
<path d="M35.2891 77.749H38.3068C39.2285 77.749 39.9596 77.9474 40.5002 78.3401C41.0485 78.7368 41.3246 79.3668 41.3246 80.2379C41.3246 81.214 40.9124 81.914 40.0957 82.3379C41.4841 82.579 42.1802 83.3957 42.1802 84.7957C42.1802 85.6162 41.8924 86.2735 41.3246 86.7712C40.7646 87.269 39.9868 87.5179 38.9913 87.5179H35.2891V77.749ZM37.5135 81.5757H37.6846C38.1824 81.5757 38.548 81.4901 38.7891 81.3112C39.038 81.1362 39.1624 80.8524 39.1624 80.4557C39.1624 79.8024 38.6685 79.4757 37.6846 79.4757H37.5135V81.5757ZM37.5135 85.8068H38.2135C39.3024 85.8068 39.8468 85.4451 39.8468 84.7179C39.8468 84.2824 39.7068 83.9712 39.4268 83.7846C39.1546 83.5901 38.7502 83.489 38.2135 83.489H37.5135V85.8068Z" fill="black"/>
<path d="M43.167 87.518V81.4513H45.2514V82.3224H45.2825C45.2903 82.2913 45.3137 82.2563 45.3448 82.2135C45.3837 82.163 45.4614 82.0813 45.5781 81.9646C45.7025 81.8402 45.8309 81.7313 45.967 81.638C46.0992 81.5446 46.2703 81.463 46.4803 81.3891C46.6981 81.3074 46.9159 81.2646 47.1337 81.2646C47.3592 81.2646 47.5848 81.2958 47.8025 81.358C48.0281 81.4202 48.1953 81.4824 48.3003 81.5446L48.4714 81.6535L47.5848 83.4269C47.3242 83.2013 46.9625 83.0846 46.4959 83.0846C46.247 83.0846 46.0292 83.143 45.8425 83.2558C45.6637 83.3724 45.5353 83.5046 45.4537 83.6602C45.3798 83.8158 45.3292 83.9519 45.2981 84.0646C45.267 84.1696 45.2514 84.2591 45.2514 84.3291V87.518H43.167Z" fill="black"/>
<path d="M49.6332 86.8024C48.9565 86.2035 48.6221 85.4335 48.6221 84.5002C48.6221 83.5591 48.9682 82.7852 49.6643 82.1824C50.3682 81.5719 51.2393 81.2646 52.2776 81.2646C53.2926 81.2646 54.1482 81.5719 54.8443 82.1824C55.5482 82.7852 55.9021 83.5513 55.9021 84.4846C55.9021 85.418 55.5598 86.188 54.8754 86.7869C54.191 87.3896 53.3237 87.6891 52.2776 87.6891C51.1887 87.6891 50.306 87.3935 49.6332 86.8024ZM51.251 83.458C50.9787 83.7302 50.8465 84.0763 50.8465 84.5002C50.8465 84.9163 50.9748 85.2585 51.2354 85.5269C51.4921 85.7874 51.8343 85.9158 52.2621 85.9158C52.6665 85.9158 52.9971 85.7835 53.2576 85.5113C53.526 85.243 53.6621 84.9008 53.6621 84.4846C53.6621 84.0724 53.526 83.7302 53.2576 83.458C52.9854 83.1896 52.6548 83.0535 52.2621 83.0535C51.8576 83.0535 51.5193 83.1896 51.251 83.458Z" fill="black"/>
<path d="M56.877 87.518V81.4513H58.9614V82.0891H58.9925C59.5292 81.5408 60.1125 81.2646 60.7347 81.2646C61.0342 81.2646 61.3297 81.3074 61.6214 81.3891C61.9208 81.463 62.2047 81.5835 62.477 81.7469C62.7453 81.9141 62.9631 82.1513 63.1303 82.4624C63.3053 82.7658 63.3947 83.1158 63.3947 83.5202V87.518H61.2947V84.0802C61.2947 83.7691 61.1897 83.4969 60.9836 83.2558C60.7853 83.0185 60.5247 82.898 60.2058 82.898C59.8947 82.898 59.607 83.0224 59.3503 83.2713C59.0897 83.5124 58.9614 83.7808 58.9614 84.0802V87.518H56.877Z" fill="black"/>
<path d="M67.9153 82.9913C67.5187 82.9913 67.1842 83.1391 66.9042 83.4269C66.6242 83.7185 66.4842 84.0646 66.4842 84.4691C66.4842 84.8969 66.6242 85.2546 66.9042 85.5424C67.1842 85.8341 67.5187 85.978 67.9153 85.978C68.1098 85.978 68.2925 85.9585 68.4598 85.9158C68.6231 85.8652 68.7475 85.8146 68.8331 85.7602L68.942 85.698L69.6575 87.1446C69.5953 87.1874 69.5098 87.238 69.4087 87.3002C69.3153 87.3624 69.0898 87.4402 68.7398 87.5335C68.3859 87.6346 68.0125 87.6891 67.6198 87.6891C66.7253 87.6891 65.9437 87.378 65.2709 86.7558C64.5942 86.1258 64.2598 85.3713 64.2598 84.5002C64.2598 83.6213 64.5942 82.863 65.2709 82.2291C65.9437 81.5874 66.7253 81.2646 67.6198 81.2646C68.0125 81.2646 68.382 81.3113 68.7242 81.4046C69.0664 81.498 69.3075 81.5991 69.4553 81.7002L69.6575 81.8402L68.942 83.2713C68.6814 83.0846 68.3392 82.9913 67.9153 82.9913Z" fill="black"/>
<path d="M76.6484 84.7646H72.2461C72.2461 85.2002 72.3784 85.523 72.6506 85.7291C72.9306 85.9274 73.23 86.0246 73.5528 86.0246C73.895 86.0246 74.1634 85.9858 74.3617 85.9002C74.5561 85.8069 74.7817 85.628 75.0306 85.3558L76.555 86.1024C75.9211 87.1602 74.8672 87.6891 73.3972 87.6891C72.4834 87.6891 71.7017 87.378 71.0484 86.7558C70.395 86.1258 70.0684 85.3674 70.0684 84.4846C70.0684 83.6058 70.395 82.8474 71.0484 82.2135C71.7017 81.5835 72.4834 81.2646 73.3972 81.2646C74.3617 81.2646 75.1434 81.5446 75.7461 82.1046C76.345 82.6569 76.6484 83.4502 76.6484 84.4846C76.6484 84.6324 76.6484 84.7258 76.6484 84.7646ZM72.2928 83.6135H74.6106C74.5561 83.2946 74.4278 83.0496 74.2217 82.8824C74.0234 82.7191 73.7706 82.6335 73.4595 82.6335C73.1056 82.6335 72.8256 82.7269 72.6195 82.9135C72.4211 83.0924 72.3122 83.3258 72.2928 83.6135Z" fill="black"/>
<path d="M47.5098 96.2075L49.6137 94.3525C49.8237 94.1698 49.9909 93.9831 50.1114 93.7964C50.232 93.6059 50.2903 93.4114 50.2903 93.2053C50.2903 93.0031 50.2475 92.8203 50.1581 92.6687C50.0687 92.5131 49.9481 92.3925 49.7925 92.3109C49.6409 92.2253 49.4698 92.1864 49.2792 92.1864C49.0264 92.1864 48.8009 92.2564 48.6064 92.4042C48.412 92.552 48.2759 92.7309 48.1981 92.937L47.572 92.7192C47.6381 92.4937 47.7587 92.2914 47.9259 92.1048C48.097 91.922 48.2953 91.7742 48.5287 91.6692C48.762 91.5603 49.007 91.5098 49.2637 91.5098C49.5825 91.5098 49.8703 91.5759 50.1309 91.7159C50.3914 91.8559 50.5975 92.0542 50.7453 92.3109C50.8931 92.5675 50.967 92.8631 50.967 93.2014C50.967 93.4931 50.8892 93.7692 50.7298 94.0298C50.5742 94.2864 50.3564 94.5392 50.0764 94.7881L48.5909 96.0325H51.0953V96.6703H47.5098V96.2075Z" fill="black"/>
<path d="M53.7685 96.7599C53.3835 96.7599 53.0413 96.6549 52.7418 96.4449C52.4424 96.2349 52.209 95.9315 52.0418 95.5349C51.8707 95.1421 51.7852 94.6754 51.7852 94.1387C51.7852 93.6021 51.8707 93.1354 52.0418 92.7426C52.209 92.3499 52.4424 92.0504 52.7418 91.8404C53.0413 91.6343 53.3835 91.5293 53.7685 91.5293C54.1496 91.5293 54.4918 91.6343 54.7913 91.8404C55.0907 92.0504 55.324 92.3499 55.4913 92.7426C55.6624 93.1354 55.744 93.6021 55.744 94.1387C55.744 94.6754 55.6624 95.1421 55.4913 95.5349C55.324 95.9315 55.0868 96.2349 54.7874 96.4449C54.4879 96.6549 54.1496 96.7599 53.7685 96.7599ZM53.7724 96.0793C54.0135 96.0793 54.2313 96.0093 54.4257 95.8654C54.6163 95.7254 54.7718 95.5076 54.8846 95.2121C55.0013 94.9204 55.0596 94.5549 55.0596 94.1232C55.0596 93.7071 55.0013 93.3532 54.8846 93.0654C54.7718 92.7776 54.6163 92.5637 54.4218 92.4237C54.2274 92.2799 54.0135 92.2099 53.7724 92.2099C53.5274 92.2099 53.3057 92.2799 53.1113 92.4237C52.9129 92.5637 52.7613 92.7776 52.6446 93.0654C52.5318 93.3532 52.4735 93.7071 52.4735 94.1232C52.4735 94.5549 52.5318 94.9204 52.6446 95.2121C52.7574 95.5076 52.9129 95.7254 53.1074 95.8654C53.3057 96.0093 53.5274 96.0793 53.7724 96.0793Z" fill="black"/>
<path d="M56.2725 96.2075L58.3764 94.3525C58.5864 94.1698 58.7536 93.9831 58.8741 93.7964C58.9947 93.6059 59.053 93.4114 59.053 93.2053C59.053 93.0031 59.0102 92.8203 58.9208 92.6687C58.8314 92.5131 58.7108 92.3925 58.5552 92.3109C58.4036 92.2253 58.2325 92.1864 58.0419 92.1864C57.7891 92.1864 57.5636 92.2564 57.3691 92.4042C57.1747 92.552 57.0386 92.7309 56.9608 92.937L56.3347 92.7192C56.4008 92.4937 56.5213 92.2914 56.6886 92.1048C56.8597 91.922 57.058 91.7742 57.2914 91.6692C57.5247 91.5603 57.7697 91.5098 58.0264 91.5098C58.3452 91.5098 58.633 91.5759 58.8936 91.7159C59.1541 91.8559 59.3602 92.0542 59.508 92.3109C59.6558 92.5675 59.7297 92.8631 59.7297 93.2014C59.7297 93.4931 59.6519 93.7692 59.4925 94.0298C59.3369 94.2864 59.1191 94.5392 58.8391 94.7881L57.3536 96.0325H59.858V96.6703H56.2725V96.2075Z" fill="black"/>
<path d="M62.9825 95.4487H60.3809V94.842L62.8814 91.6064H63.6592V94.7837H64.0753V95.4487H63.6592V96.6698H62.9825V95.4487ZM62.9825 94.7837V92.5592L61.1586 94.7837H62.9825Z" fill="black"/>
</svg>
