<svg width="25" height="24" viewBox="0 0 25 24" fill="none" xmlns="http://www.w3.org/2000/svg">
<g clip-path="url(#clip0_105_159)">
<path d="M15.5 10.0001L20.053 7.72412C20.2054 7.64795 20.3748 7.612 20.545 7.61967C20.7152 7.62733 20.8806 7.67837 21.0256 7.76792C21.1706 7.85748 21.2902 7.9826 21.3733 8.13139C21.4563 8.28019 21.4999 8.44773 21.5 8.61812V15.3821C21.4999 15.5525 21.4563 15.7201 21.3733 15.8688C21.2902 16.0176 21.1706 16.1428 21.0256 16.2323C20.8806 16.3219 20.7152 16.3729 20.545 16.3806C20.3748 16.3882 20.2054 16.3523 20.053 16.2761L15.5 14.0001V10.0001Z" stroke="#4F4F4F" stroke-width="2" stroke-linecap="round" stroke-linejoin="round"/>
<path d="M3.5 8C3.5 7.46957 3.71071 6.96086 4.08579 6.58579C4.46086 6.21071 4.96957 6 5.5 6H13.5C14.0304 6 14.5391 6.21071 14.9142 6.58579C15.2893 6.96086 15.5 7.46957 15.5 8V16C15.5 16.5304 15.2893 17.0391 14.9142 17.4142C14.5391 17.7893 14.0304 18 13.5 18H5.5C4.96957 18 4.46086 17.7893 4.08579 17.4142C3.71071 17.0391 3.5 16.5304 3.5 16V8Z" stroke="#4F4F4F" stroke-width="2" stroke-linecap="round" stroke-linejoin="round"/>
</g>
<defs>
<clipPath id="clip0_105_159">
<rect width="24" height="24" fill="white" transform="translate(0.5)"/>
</clipPath>
</defs>
</svg>
