<svg width="19" height="32" viewBox="0 0 19 32" fill="none" xmlns="http://www.w3.org/2000/svg">
<path d="M17.5903 15.2413L14.2265 13.3783L13.3682 12.1711V16.7083L16.3292 17.6983C16.6502 17.8286 17.0084 17.834 17.3332 17.7134C17.658 17.5927 17.9258 17.3548 18.0839 17.0466C18.242 16.7383 18.2789 16.3819 18.1873 16.0478C18.0957 15.7136 17.8835 15.4259 17.5903 15.2413Z" fill="#263238"/>
<path d="M9.70638 6.98209C11.5635 6.98209 13.069 5.47659 13.069 3.61946C13.069 1.76233 11.5635 0.256836 9.70638 0.256836C7.84925 0.256836 6.34375 1.76233 6.34375 3.61946C6.34375 5.47659 7.84925 6.98209 9.70638 6.98209Z" fill="#263238"/>
<path d="M6.6439 20.6995C6.37018 20.4716 6.12671 20.2096 5.9194 19.9199L5.60665 23.6324L1.54315 29.3587C1.3002 29.6407 1.17489 30.0053 1.19315 30.3771C1.21142 30.7489 1.37184 31.0994 1.64126 31.3563C1.91068 31.6131 2.2685 31.7566 2.64074 31.7571C3.01298 31.7576 3.37118 31.6151 3.64128 31.3589L7.72953 26.6677C8.25281 26.0675 8.65063 25.3686 8.89953 24.6123L9.43503 22.9833L6.6439 20.6995Z" fill="#263238"/>
<path d="M8.63555 8.12451H9.21155C10.9339 8.12451 12.3301 9.51951 12.3301 11.243V16.8005C12.3301 17.507 12.6113 18.1843 13.1108 18.6849L15.2629 20.837C16.0321 21.6063 16.568 22.5774 16.8087 23.6383L18.2532 30.0013C18.3112 30.3843 18.2207 30.7751 18.0003 31.0936C17.7798 31.4122 17.446 31.6346 17.0671 31.7153C16.6882 31.7961 16.2928 31.729 15.9616 31.528C15.6305 31.3269 15.3886 31.0069 15.2854 30.6335L13.0692 24.5608L7.50718 20.0068C7.06802 19.6471 6.71826 19.1905 6.48538 18.6728C6.2525 18.1551 6.14285 17.5905 6.16505 17.0233L6.33043 12.755L4.34593 14.3604L3.6833 17.7061C3.6112 18.0789 3.39537 18.4083 3.08244 18.6232C2.76951 18.8381 2.3846 18.9213 2.01084 18.8548C1.63707 18.7884 1.30446 18.5775 1.08484 18.2679C0.865214 17.9582 0.776211 17.5746 0.83705 17.1999L1.44568 13.3636C1.58347 12.4923 2.05771 11.7098 2.76642 11.1845L5.50018 9.15951C6.40729 8.48725 7.50648 8.1244 8.63555 8.12451Z" fill="#263238"/>
<path d="M8.63555 8.125H9.21155C10.9339 8.125 12.3301 9.52 12.3301 11.2435V16.801C12.3301 17.5075 12.6113 18.1847 13.1108 18.6854L15.2629 20.8375C16.0321 21.6068 16.568 22.5779 16.8087 23.6387L18.2532 30.0017C18.3112 30.3848 18.2207 30.7755 18.0003 31.0941C17.7798 31.4127 17.446 31.6351 17.0671 31.7158C16.6882 31.7965 16.2928 31.7295 15.9616 31.5285C15.6305 31.3274 15.3886 31.0074 15.2854 30.634L13.0692 24.5612L7.50718 20.0072C7.06802 19.6476 6.71826 19.191 6.48538 18.6733C6.2525 18.1556 6.14285 17.591 6.16505 17.0237L6.33043 12.7555L4.34593 14.3609L3.6833 17.7066C3.6112 18.0793 3.39537 18.4087 3.08244 18.6237C2.76951 18.8386 2.3846 18.9218 2.01084 18.8553C1.63707 18.7889 1.30446 18.578 1.08484 18.2684C0.865214 17.9587 0.776211 17.5751 0.83705 17.2004L1.44568 13.3641C1.58347 12.4928 2.05771 11.7103 2.76642 11.185L5.50018 9.16C6.40729 8.48774 7.50648 8.12489 8.63555 8.125Z" fill="#FEF14B"/>
</svg>
